<?xml version="1.0" encoding="utf-8"?>
<!-- Generator: Adobe Illustrator 17.0.0, SVG Export Plug-In . SVG Version: 6.00 Build 0)  -->
<!DOCTYPE svg PUBLIC "-//W3C//DTD SVG 1.1//EN" "http://www.w3.org/Graphics/SVG/1.1/DTD/svg11.dtd">
<svg version="1.1" id="Layer_1" xmlns="http://www.w3.org/2000/svg" xmlns:xlink="http://www.w3.org/1999/xlink" x="0px" y="0px"
	 width="191.446px" height="131.043px" viewBox="0 0 191.446 131.043" enable-background="new 0 0 191.446 131.043"
	 xml:space="preserve">
<g>
	<path fill="#BE1E2D" stroke="#000000" stroke-width="3" d="M55.339,59.611c0,0-12.563-11.387-23.236-5.359
		C21.432,60.279,11.92,70.677,3.127,70.547c-8.794-0.128,20.544,5.736,28.572,8.237c8.029,2.503,21.803-4.866,24.283-10.653
		C58.465,62.346,55.339,59.611,55.339,59.611z"/>
	<path fill="#BE1E2D" stroke="#000000" stroke-width="3" d="M60.297,51.417c0,0-10.862-5.702-9.233-15.478
		c1.63-9.776,15.751-10.319,16.294-18.466c0.543-8.147-5.431-16.294-5.431-16.294s9.762,7.675,14.12,19.01
		C84.195,41.37,60.297,51.417,60.297,51.417z"/>
	<ellipse fill="#EF4136" stroke="#000000" stroke-width="3" cx="58.124" cy="57.392" rx="17.379" ry="17.108"/>
	<path fill="#EF4136" stroke="#000000" stroke-width="3" d="M189.015,78.844c0,0-56.484,8.147-92.33,20.095
		c-35.843,11.948-57.025,29.328-57.025,29.328S29.339,71.784,66.815,50.06C145.162,4.643,189.015,78.844,189.015,78.844z"/>
	<path d="M41.017,63.094c0,0-3.53-0.815-6.788,0.815c-3.26,1.629-7.605,6.246-11.406,6.517c-3.801,0.272,5.703,1.629,10.048-1.901
		C37.215,64.995,41.017,63.094,41.017,63.094z"/>
	<path d="M59.484,40.012c0,0-1.358-1.901,0.815-5.16c2.171-3.258,7.603-5.16,8.418-8.147c0.815-2.987,0.543-5.703,0.543-5.703
		s3.116,4.828,0.543,8.69c-2.717,4.073-5.431,2.173-8.148,6.517C59.735,39.283,59.484,40.012,59.484,40.012z"/>
	<path d="M59.883,41.973c0,0-0.498-1.166,1.033-2.642c1.531-1.474,4.633-1.851,5.411-3.34c0.78-1.489,0.953-2.961,0.953-2.961
		s1.091,2.922-0.724,4.671c-1.912,1.844-3.132,0.52-5.077,2.508C60.103,41.616,59.883,41.973,59.883,41.973z"/>
	<polygon fill="#FFFFFF" points="60.953,67.512 61.711,65.277 63.728,65.962 64.744,62.971 66.87,63.692 65.821,66.792 
		69.854,68.161 68.753,62.644 74.049,64.443 73.073,60.214 70.05,60.835 69.603,58.835 72.773,58.142 72.289,56.131 74.458,55.661 
		74.893,57.817 77.976,57.136 78.422,59.256 75.277,59.877 76.191,64.286 80.293,60.494 81.406,65.853 84.646,63.055 82.481,60.674 
		84.197,59.168 86.255,61.633 87.826,60.198 89.272,61.854 87.64,63.228 89.783,65.683 88.196,67.034 85.996,64.64 82.672,67.45 
		88.042,69.271 83.893,72.967 87.966,74.348 89.017,71.251 91.034,71.936 90.02,74.925 92.001,75.597 91.254,77.797 89.309,77.136 
		88.27,80.198 86.144,79.477 87.208,76.342 83.102,74.946 84.273,80.488 78.906,78.667 79.881,82.896 83.024,82.275 83.518,84.371 
		80.194,84.931 80.713,87.075 78.579,87.558 78.015,85.316 75.039,86.034 74.557,83.901 77.76,83.22 76.872,78.861 72.771,82.653 
		71.655,77.412 68.309,80.173 70.352,82.556 68.852,84.015 66.821,81.476 65.164,82.923 63.717,81.267 65.207,79.844 63.162,77.462 
		64.806,76.052 66.934,78.421 70.283,75.66 64.843,73.814 69.122,70.203 65.049,68.82 64.022,71.848 61.896,71.127 62.91,68.135 	
		"/>
	<polygon fill="#FFFFFF" points="110.1,80.885 109.351,79.366 110.72,78.69 109.717,76.656 111.164,75.943 112.204,78.05 
		114.945,76.696 111.588,74.455 115.188,72.68 112.547,71.028 111.327,72.878 110.086,72.09 111.343,70.13 110.076,69.354 
		110.938,68.015 112.253,68.889 113.471,66.979 114.774,67.828 113.494,69.739 116.196,71.513 116.351,67.507 119.637,69.661 
		119.862,66.597 117.555,66.487 117.662,64.851 119.956,65.058 120.026,63.532 121.601,63.639 121.469,65.164 123.803,65.323 
		123.683,66.814 121.352,66.716 121.09,69.829 124.739,68.028 124.511,72.009 127.279,70.644 126.24,68.537 127.612,67.861 
		128.615,69.893 129.961,69.229 130.697,70.724 129.376,71.376 130.403,73.458 128.958,74.171 127.907,72.039 125.114,73.416 
		128.522,75.633 124.873,77.434 127.514,79.085 128.794,77.174 130.109,77.987 128.707,79.958 130.057,80.784 129.22,82.112 
		127.796,81.261 126.649,83.136 125.322,82.298 126.602,80.326 123.939,78.565 123.782,82.571 120.555,80.477 120.259,83.577 
		122.506,83.749 122.486,85.25 120.166,84.992 120.059,86.569 118.485,86.462 118.518,84.984 116.27,84.814 116.39,83.263 
		118.672,83.386 118.968,80.284 115.272,82.109 115.61,78.104 112.842,79.47 113.856,81.528 112.413,82.241 111.409,80.207 	"/>
	<polygon fill="#FFFFFF" points="49.377,111.937 48.121,111.797 48.36,110.29 46.678,110.103 46.932,108.513 48.673,108.706 
		49.15,105.69 46.242,107.395 46.87,103.436 44.649,104.833 45.182,106.811 44.13,107.463 43.55,105.396 42.496,106.074 
		42.103,104.66 43.237,103.991 42.669,101.982 43.785,101.31 44.324,103.372 46.646,101.985 44.332,99.809 47.152,98.12 
		45.431,96.367 44.287,98.269 43.361,97.344 44.559,95.503 43.682,94.665 44.482,93.384 45.33,94.273 46.516,92.375 47.349,93.236 
		46.199,95.164 47.932,96.974 48.568,92.959 50.832,95.186 51.313,92.141 49.572,91.947 49.811,90.438 51.49,90.624 51.725,89.144 
		52.96,89.282 52.731,90.735 54.452,90.927 54.201,92.516 52.439,92.321 51.951,95.392 54.868,93.632 54.234,97.646 56.452,96.248 
		55.913,94.187 57.012,93.487 57.531,95.682 58.654,94.957 59.054,96.345 57.881,97.119 58.461,99.048 57.341,99.747 56.765,97.654 
		54.47,99.015 56.784,101.191 54.026,102.86 55.734,104.693 56.889,102.875 57.774,103.659 56.535,105.495 57.424,106.389 
		56.623,107.67 55.757,106.888 54.604,108.708 53.738,107.816 54.878,105.942 53.17,104.107 52.525,108.175 50.299,105.844 
		49.817,108.889 51.519,109.078 51.268,110.667 49.586,110.48 	"/>
	<polygon fill="#FFFFFF" points="101.88,49.454 101.788,48.258 103.199,48.211 103.078,46.612 104.564,46.562 104.69,48.219 
		107.511,48.124 105.459,45.721 109.164,45.597 107.509,43.779 105.807,44.628 105.033,43.766 106.807,42.856 106.011,41.996 
		107.227,41.376 108.03,42.314 109.754,41.425 110.557,42.344 108.779,43.215 110.44,45.129 112.014,42.585 114.035,44.91 
		115.328,42.994 113.405,42.267 114.085,41.241 115.962,42.026 116.571,41.06 117.874,41.576 117.213,42.525 119.139,43.29 
		118.501,44.22 116.552,43.493 115.21,45.432 118.964,45.304 117.334,47.812 120.181,47.715 120.057,46.059 121.467,46.012 
		121.588,47.611 122.973,47.563 123.064,48.739 121.702,48.785 121.827,50.421 120.341,50.472 120.214,48.796 117.343,48.892 
		119.444,51.293 115.692,51.42 117.345,53.237 119.121,52.367 119.946,53.265 118.044,54.14 118.896,55.058 117.705,55.677 
		116.801,54.723 115.151,55.609 114.323,54.69 116.122,53.78 114.49,51.885 112.916,54.429 110.923,52.16 109.555,54.079 
		111.405,54.828 110.845,55.793 108.966,54.967 108.308,55.956 107.007,55.44 107.567,54.494 105.714,53.746 106.375,52.777 
		108.273,53.504 109.643,51.585 105.84,51.713 107.571,49.222 104.722,49.318 104.846,50.936 103.36,50.987 103.239,49.387 	"/>
	<polygon fill="#F48585" points="92.425,87.062 92.374,86.138 93.243,86.096 93.175,84.859 94.09,84.814 94.16,86.096 
		95.897,86.011 94.644,84.16 96.924,84.048 95.914,82.649 94.862,83.313 94.389,82.649 95.486,81.937 94.998,81.275 95.749,80.79 
		96.239,81.512 97.305,80.818 97.795,81.526 96.698,82.207 97.711,83.681 98.692,81.706 99.925,83.497 100.73,82.009 99.548,81.455 
		99.97,80.658 101.123,81.258 101.502,80.508 102.3,80.902 101.891,81.639 103.074,82.223 102.677,82.945 101.481,82.391 
		100.647,83.897 102.957,83.783 101.944,85.729 103.697,85.643 103.625,84.363 104.494,84.32 104.562,85.556 105.416,85.514 
		105.465,86.424 104.63,86.465 104.698,87.731 103.784,87.776 103.712,86.479 101.944,86.565 103.228,88.415 100.917,88.529 
		101.928,89.928 103.025,89.247 103.531,89.939 102.356,90.624 102.876,91.331 102.142,91.815 101.588,91.08 100.569,91.773 
		100.063,91.065 101.174,90.353 100.176,88.894 99.197,90.868 97.98,89.12 97.13,90.611 98.266,91.183 97.918,91.932 96.764,91.301 
		96.354,92.068 95.556,91.675 95.904,90.94 94.767,90.368 95.179,89.616 96.344,90.172 97.194,88.681 94.854,88.796 95.928,86.861 
		94.175,86.946 94.245,88.198 93.329,88.243 93.261,87.006 	"/>
	<polygon fill="#F48585" points="127.184,52.846 127.133,51.922 128.001,51.88 127.933,50.644 128.849,50.598 128.919,51.88 
		130.656,51.795 129.403,49.944 131.683,49.832 130.673,48.433 129.621,49.097 129.148,48.433 130.245,47.721 129.757,47.058 
		130.508,46.574 130.998,47.297 132.064,46.602 132.554,47.31 131.457,47.991 132.472,49.465 133.449,47.49 134.684,49.282 
		135.489,47.793 134.307,47.239 134.729,46.442 135.882,47.042 136.26,46.292 137.059,46.686 136.649,47.423 137.833,48.007 
		137.436,48.729 136.24,48.176 135.406,49.681 137.715,49.567 136.703,51.514 138.456,51.427 138.386,50.147 139.253,50.104 
		139.323,51.34 140.175,51.298 140.224,52.208 139.389,52.249 139.457,53.515 138.541,53.559 138.471,52.264 136.703,52.349 
		137.987,54.199 135.676,54.313 136.686,55.712 137.783,55.031 138.29,55.723 137.115,56.408 137.635,57.115 136.9,57.599 
		136.347,56.864 135.328,57.557 134.822,56.849 135.933,56.137 134.935,54.678 133.955,56.653 132.739,54.904 131.889,56.395 
		133.025,56.967 132.677,57.716 131.523,57.085 131.115,57.852 130.315,57.458 130.664,56.724 129.528,56.153 129.938,55.4 
		131.103,55.956 131.953,54.465 129.613,54.58 130.687,52.645 128.934,52.73 129.004,53.982 128.088,54.028 128.022,52.79 	"/>
	<polygon fill="#F48585" points="60.924,97.382 60.873,96.458 61.741,96.415 61.674,95.179 62.587,95.134 62.659,96.415 
		64.396,96.33 63.143,94.479 65.421,94.368 64.413,92.969 63.361,93.632 62.89,92.969 63.985,92.257 63.497,91.594 64.248,91.109 
		64.738,91.832 65.804,91.137 66.294,91.845 65.197,92.527 66.212,94.001 67.189,92.025 68.424,93.817 69.229,92.328 68.047,91.774 
		68.469,90.977 69.622,91.577 70.001,90.828 70.799,91.221 70.39,91.959 71.573,92.543 71.176,93.264 69.98,92.711 69.146,94.216 
		71.456,94.103 70.443,96.049 72.197,95.963 72.127,94.682 72.995,94.639 73.063,95.876 73.915,95.833 73.964,96.743 73.129,96.784 
		73.199,98.05 72.283,98.095 72.211,96.799 70.443,96.885 71.727,98.734 69.418,98.848 70.427,100.247 71.524,99.566 
		72.028,100.258 70.855,100.943 71.375,101.65 70.639,102.135 70.085,101.399 69.068,102.092 68.562,101.384 69.673,100.673 
		68.675,99.213 67.695,101.188 66.479,99.44 65.629,100.93 66.765,101.502 66.417,102.252 65.263,101.62 64.853,102.387 
		64.055,101.994 64.405,101.26 63.269,100.688 63.678,99.936 64.843,100.491 65.695,99 63.353,99.115 64.427,97.18 62.676,97.265 
		62.744,98.518 61.83,98.563 61.76,97.326 	"/>
	<polygon fill="#F48585" points="84.384,51.693 84.105,51.046 84.92,50.744 84.547,49.877 85.405,49.558 85.792,50.455 
		87.418,49.849 85.77,48.914 87.906,48.119 86.599,47.431 85.765,48.237 85.152,47.909 86.016,47.054 85.389,46.732 85.982,46.148 
		86.626,46.513 87.465,45.68 88.106,46.035 87.233,46.868 88.562,47.608 89.001,45.883 90.618,46.782 91.012,45.461 89.752,45.434 
		89.956,44.729 91.199,44.798 91.372,44.142 92.228,44.174 92.022,44.831 93.29,44.879 93.094,45.522 91.82,45.499 91.403,46.842 
		93.568,46.036 93.09,47.75 94.732,47.139 94.348,46.241 95.161,45.939 95.533,46.805 96.332,46.507 96.605,47.144 95.821,47.436 
		96.202,48.323 95.344,48.642 94.955,47.735 93.298,48.35 94.975,49.275 92.812,50.081 94.119,50.769 94.99,49.936 95.642,50.274 
		94.695,51.135 95.366,51.479 94.79,52.057 94.08,51.703 93.286,52.52 92.629,52.171 93.508,51.311 92.199,50.576 91.759,52.301 
		90.17,51.428 89.733,52.764 90.954,52.819 90.81,53.465 89.556,53.374 89.359,54.053 88.503,54.021 88.651,53.385 87.43,53.331 
		87.632,52.663 88.877,52.695 89.316,51.359 87.12,52.175 87.661,50.449 86.016,51.06 86.395,51.938 85.537,52.257 85.165,51.39 	
		"/>
	<polygon fill="#F48585" points="49.626,51.693 49.348,51.046 50.161,50.744 49.788,49.877 50.646,49.558 51.031,50.455 
		52.659,49.849 51.009,48.914 53.147,48.119 51.84,47.431 51.007,48.237 50.393,47.909 51.258,47.054 50.63,46.732 51.221,46.148 
		51.867,46.513 52.707,45.68 53.347,46.035 52.474,46.868 53.803,47.608 54.242,45.883 55.859,46.782 56.253,45.461 54.993,45.434 
		55.197,44.729 56.44,44.798 56.613,44.142 57.469,44.174 57.263,44.831 58.531,44.879 58.335,45.522 57.061,45.499 56.644,46.842 
		58.809,46.036 58.331,47.75 59.974,47.139 59.589,46.241 60.402,45.939 60.774,46.805 61.573,46.507 61.846,47.144 61.062,47.436 
		61.443,48.323 60.585,48.642 60.196,47.735 58.539,48.35 60.218,49.275 58.051,50.081 59.358,50.769 60.231,49.936 60.883,50.274 
		59.937,51.135 60.608,51.479 60.029,52.057 59.321,51.703 58.527,52.52 57.87,52.171 58.749,51.311 57.44,50.576 57,52.301 
		55.411,51.428 54.972,52.764 56.195,52.819 56.051,53.465 54.798,53.374 54.6,54.053 53.744,54.021 53.892,53.385 52.672,53.331 
		52.875,52.663 54.118,52.695 54.555,51.359 52.361,52.175 52.9,50.449 51.258,51.06 51.634,51.938 50.778,52.257 50.406,51.39 	"/>
	<polygon fill="#F48585" points="165.286,75.869 165.006,75.222 165.821,74.92 165.448,74.053 166.306,73.734 166.691,74.631 
		168.319,74.026 166.671,73.09 168.805,72.295 167.498,71.607 166.667,72.414 166.053,72.085 166.918,71.231 166.288,70.908 
		166.881,70.325 167.527,70.689 168.364,69.856 169.007,70.211 168.134,71.044 169.461,71.784 169.902,70.06 171.519,70.958 
		171.913,69.637 170.653,69.61 170.855,68.905 172.1,68.974 172.271,68.318 173.129,68.35 172.923,69.007 174.191,69.055 
		173.993,69.698 172.721,69.676 172.304,71.018 174.469,70.212 173.991,71.927 175.634,71.316 175.249,70.418 176.062,70.115 
		176.434,70.981 177.233,70.683 177.506,71.321 176.722,71.612 177.103,72.499 176.245,72.818 175.856,71.911 174.197,72.527 
		175.876,73.451 173.713,74.258 175.018,74.945 175.891,74.112 176.543,74.45 175.597,75.311 176.267,75.655 175.689,76.233 
		174.981,75.879 174.187,76.696 173.53,76.347 174.407,75.487 173.098,74.752 172.66,76.477 171.069,75.604 170.635,76.941 
		171.853,76.995 171.709,77.642 170.457,77.55 170.26,78.23 169.404,78.198 169.552,77.561 168.331,77.507 168.533,76.839 
		169.778,76.871 170.215,75.535 168.021,76.352 168.56,74.625 166.918,75.237 167.294,76.114 166.436,76.433 166.066,75.566 	"/>
	<polygon fill="#FFFFFF" points="143.739,57.652 144.485,56.518 145.645,57.319 146.641,55.802 147.868,56.645 146.837,58.217 
		149.163,59.818 149.161,56.42 152.213,58.523 152.13,55.892 150.185,55.641 150.155,54.399 152.198,54.638 152.147,53.383 
		153.546,53.55 153.548,54.878 155.538,55.108 155.553,56.417 153.534,56.142 153.557,58.864 156.557,57.507 156.586,60.817 
		158.934,59.859 157.889,58.051 159.134,57.531 160.103,59.363 161.25,58.854 161.941,60.099 160.764,60.562 161.785,62.406 
		160.64,62.865 159.574,61.043 157.173,61.991 160.268,64.121 157.251,65.412 159.597,67.029 160.628,65.457 161.791,66.258 
		160.797,67.775 161.939,68.56 161.206,69.677 160.085,68.904 159.066,70.458 157.842,69.614 158.883,68.024 156.516,66.393 
		156.559,69.819 153.466,67.69 153.55,70.32 155.569,70.597 155.615,71.903 153.493,71.555 153.55,72.894 152.171,72.743 
		152.097,71.338 150.169,71.152 150.134,69.826 152.198,70.081 152.186,67.391 149.183,68.749 149.138,65.507 146.73,66.422 
		147.701,68.206 146.594,68.744 145.651,66.873 144.45,67.372 143.758,66.128 144.853,65.608 143.882,63.825 145.071,63.345 
		146.096,65.137 148.506,64.221 145.369,62.063 148.459,60.847 146.11,59.229 145.104,60.766 143.877,59.923 144.874,58.405 	"/>
</g>
</svg>
