<?xml version="1.0" encoding="utf-8"?>
<!-- Generator: Adobe Illustrator 17.0.0, SVG Export Plug-In . SVG Version: 6.00 Build 0)  -->
<!DOCTYPE svg PUBLIC "-//W3C//DTD SVG 1.1//EN" "http://www.w3.org/Graphics/SVG/1.1/DTD/svg11.dtd">
<svg version="1.1" id="Layer_1" xmlns="http://www.w3.org/2000/svg" xmlns:xlink="http://www.w3.org/1999/xlink" x="0px" y="0px"
	 width="178.152px" height="149.971px" viewBox="0 0 178.152 149.971" enable-background="new 0 0 178.152 149.971"
	 xml:space="preserve">
<g>
	<g>
		<g>
			<path stroke="#000000" stroke-width="2" d="M55.926,41.61c-0.743,0-1.465,0.191-2.095,0.548c-1.865,1.07-2.433,3.323-1.282,5.027
				c0.189,0.285,1.908,2.886,3.875,6.737c1.9,3.721,4.402,9.365,5.526,15.109c2.009,10.265,3.526,18.536,3.939,20.827l0.041,0.205
				c0.309,1.685,1.955,2.965,3.898,2.965c0.22,0,0.438-0.018,0.659-0.05c1.046-0.154,1.965-0.682,2.583-1.479
				c0.617-0.792,0.86-1.752,0.689-2.714c0.025,0.147,0.035,0.294,0.035,0.442c0-0.646-3.447-18.551-4.019-21.486
				c-2.284-11.657-9.101-22.331-10.441-24.352C58.574,42.256,57.307,41.61,55.926,41.61L55.926,41.61z"/>
			<path fill="#118040" d="M69.828,91.659c-1.214,0-2.241-0.8-2.447-1.905c-0.064-0.377-1.683-9.288-3.962-20.97
				c-1.155-5.893-3.707-11.651-5.647-15.444c-1.998-3.917-3.76-6.584-3.954-6.872c-0.72-1.067-0.366-2.474,0.786-3.145
				c0.405-0.225,0.858-0.344,1.317-0.344c0.871,0,1.659,0.407,2.112,1.082c0.821,1.225,7.967,12.147,10.27,23.921
				c1.696,8.665,3.917,20.507,3.999,21.215l-0.019-0.207c0.115,0.602-0.035,1.206-0.418,1.707c-0.389,0.497-0.965,0.826-1.624,0.926
				l-0.121,0.02L69.828,91.659L69.828,91.659z"/>
		</g>
		<path stroke="#000000" stroke-width="2.0554" stroke-linecap="round" stroke-linejoin="round" d="M28.162,7.882
			c0,0,6.954-5.621,11.826-1.914c4.869,3.705,5.005,4.598,5.005,4.598s4.036-8.434,11.134-9.455
			c7.092-1.025,12.239,7.665,6.678,12.525c-5.569,4.856-5.569,4.856-5.569,4.856s8.765,1.019,9.881,5.75
			c1.109,4.727-3.2,7.793-3.2,7.793s5.952,5.47,2.367,9.965c-5.705,7.157-12.801,1.66-12.801,1.66s-2.221,10.756-13.219,8.949
			c-9.319-1.535-7.648-10.478-7.648-10.478s-7.03,0.178-10.717-7.925c-5.285-11.629,3.898-13.418,3.898-13.418
			s-1.671-4.474-0.278-8.05C26.909,9.16,28.162,7.882,28.162,7.882z"/>
		<path fill="#FFFFFF" d="M42.215,11.587c0,0-4.176-6.132-8.903-4.599c-4.731,1.534-6.403,6.391-5.427,9.966
			c0.971,3.577,3.616,5.752,3.616,5.752s2.087-4.089,2.647-4.987c0.554-0.894,0.554-0.894,0.554-0.894l-2.225-5.749l3.754,4.217
			c0,0,1.253-1.533,2.783-2.301C40.542,12.225,42.215,11.587,42.215,11.587z"/>
		<path fill="#FFFFFF" d="M47.222,11.587c0,0,1.949-6.261,8.072-8.18c6.119-1.915,9.041,3.835,7.37,7.031
			c-1.669,3.195-7.23,6.899-7.23,6.899l-2.785-1.535l4.314-6.899l-5.983,5.88c0,0-0.976-1.533-1.951-1.791
			C48.056,12.738,47.222,11.587,47.222,11.587z"/>
		<path fill="#FFFFFF" d="M57.101,20.788c0,0,7.788,0.256,8.208,3.708c0.42,3.451-3.758,6.262-3.758,6.262l-2.365-0.895
			l-0.694-3.452c0,0,4.172-1.022,3.478-1.149c-0.694-0.128-4.034-0.64-4.034-0.64L57.101,20.788z"/>
		<path fill="#FFFFFF" d="M30.529,24.62c0,0-3.62-2.3-4.452-1.787c-0.838,0.512-6.125,4.601-2.089,11.117
			c4.034,6.52,6.818,6.005,7.792,5.878c0.973-0.128,1.531-1.915,1.531-1.915s-2.367-2.813-2.782-4.216
			c-0.418-1.408-0.698-2.175-0.698-2.175h-3.478l3.618-1.659c0,0,0.14-2.175,0.14-3.069C30.111,25.9,30.529,24.62,30.529,24.62z"/>
		<path fill="#FFFFFF" d="M35.814,40.34c0,0-2.645,6.901,2.087,9.071c4.731,2.176,9.321,1.409,11.128-1.787
			c1.809-3.193,1.809-5.368,1.809-5.368s-3.058,0.382-4.314,0.255c-1.247-0.128-1.807-0.381-1.807-0.381l-3.338,5.493l0.418-5.621
			L35.814,40.34z"/>
		<path fill="#FFFFFF" d="M58.908,32.673c0,0,8.07,2.046,5.707,6.9c-2.367,4.858-6.403,4.087-8.212,3.066
			c-1.805-1.02-2.085-1.405-2.085-1.405s2.085-2.553,2.922-3.321c0.832-0.769,0.832-0.769,0.832-0.769l3.62,0.513l-2.785-2.554
			V32.673z"/>
		<path fill="#FFF200" stroke="#000000" stroke-width="1.0277" d="M33.727,23.725c0.556-0.765,2.645-7.411,7.232-8.687
			c4.594-1.278,9.045,0.127,12.244,4.472c3.198,4.347,4.729,13.034,1.671,16.357c-3.06,3.324-8.765,4.346-13.355,3.452
			c-4.594-0.896-9.047-2.431-8.767-8.307C33.03,25.133,33.727,23.725,33.727,23.725z"/>
		<ellipse fill="#F7941E" cx="44.166" cy="21.988" rx="1.327" ry="1.217"/>
		<ellipse fill="#F7941E" cx="50.004" cy="26.095" rx="1.324" ry="1.217"/>
		<ellipse fill="#F7941E" cx="46.154" cy="29.632" rx="1.323" ry="1.216"/>
		<ellipse fill="#F7941E" cx="41.805" cy="27.466" rx="1.325" ry="1.214"/>
		<ellipse fill="#F7941E" cx="38.329" cy="32.369" rx="1.323" ry="1.218"/>
		<ellipse fill="#F7941E" cx="49.879" cy="34.081" rx="1.325" ry="1.216"/>
		<path fill="#F7941E" d="M46.36,35.677c0,0.672-0.593,1.218-1.327,1.218c-0.729,0-1.321-0.546-1.321-1.218
			c0-0.67,0.593-1.213,1.321-1.213C45.767,34.464,46.36,35.007,46.36,35.677z"/>
		<ellipse fill="#F7941E" cx="38.452" cy="22.33" rx="1.324" ry="1.216"/>
		<path fill="#F7941E" d="M48.473,18.335c0,0.673-0.597,1.219-1.329,1.219c-0.727,0-1.319-0.546-1.319-1.219
			c0-0.669,0.593-1.214,1.319-1.214C47.877,17.121,48.473,17.666,48.473,18.335z"/>
	</g>
	<g>
		<path fill="#EC008C" stroke="#000000" stroke-width="3" stroke-linecap="round" stroke-linejoin="round" d="M2.525,148.471
			c0,0,34.329-12.944,87.695-12.944c53.366,0,84.904,7.911,84.904,7.911s5.678-0.72-4.855-7.911
			c-10.531-7.188-24.576-29.479-24.576-29.479l-9.13-37.389c0,0-4.213-4.315-10.533-5.032c-6.32-0.722-19.661-3.598-35.811-2.877
			c-16.15,0.717-39.324,6.472-44.94,12.223C39.661,78.725,33.34,112.52,33.34,112.52S4.852,142.161,2.533,144.755
			C0.214,147.347,2.525,148.471,2.525,148.471z"/>
		<g>
			<path fill="#DA1C5C" d="M8.248,142.175c-0.434,0.177-0.64,0.672-0.463,1.105c0.177,0.432,0.671,0.639,1.105,0.462
				c0.303-0.123,30.888-12.388,80.29-11.679c49.491,0.709,79.658,7.811,79.956,7.885c0.455,0.108,0.912-0.171,1.021-0.627
				c0.109-0.456-0.171-0.914-0.626-1.022c-0.301-0.073-30.633-7.219-80.327-7.932C39.428,129.656,8.555,142.049,8.248,142.175z"/>
		</g>
		<path fill="#DA1C5C" d="M12.177,138.646l24.069-25.647c0,0-1.206-1.198,25.989-3.595c27.198-2.397,30.805-2.157,30.805-2.157
			s-44.747,6.144-50.779,16.778c-3.128,5.512,15.643,5.752,15.643,5.752s-22.382,2.396-33.213,5.272
			C13.865,137.927,12.177,138.646,12.177,138.646z"/>
		<path fill="#DA1C5C" d="M36.006,111.082c0,0,19.253-3.597,36.821-4.315c17.568-0.719,19.253-0.719,19.253-0.719
			s-26.627-1.503-35.138-16.537c-7.461-13.183,9.868-22.29,9.868-22.29s-9.868,1.916-15.886,4.793
			c-6.016,2.874-4.812,3.595-5.773,5.033c-0.965,1.438-3.13,8.867-4.573,14.859C39.134,97.9,36.006,111.082,36.006,111.082z"/>
		<path fill="#F392BD" d="M134.676,70.097l8.123,36.491c0,0-11.552-1.798-20.758-1.798c-9.204,0-15.162,0.18-15.162,0.18
			s24.549,0.179,26.535-12.763c1.984-12.943-11.914-26.963-11.914-26.963s4.692,0.719,8.302,1.796
			C133.415,68.12,134.676,70.097,134.676,70.097z"/>
		<path fill="#F392BD" d="M143.882,108.564c0,0,9.025,13.661,12.274,17.259c3.25,3.592,9.926,9.526,9.926,9.526l-47.649-5.571
			c0,0,46.795,4.683,34.52-2.506c-12.272-7.191-29.649-5.046-29.649-5.046s28.175-0.691,22.968-6.41
			c-7.043-7.728-35.603-9.409-35.603-9.409s14.623,0.36,22.021,0.898C140.091,107.846,143.882,108.564,143.882,108.564z"/>
	</g>
	<path fill="#F7941E" stroke="#000000" stroke-width="2" d="M32.69,109.704c0,0,5.625,5.158,8.673,3.047
		c3.046-2.11,4.923-2.343,4.923-2.343s5.39,3.75,8.907,1.875c3.517-1.875,7.043-2.879,7.043-2.879s3.27,3.818,7.491,2.177
		c4.219-1.641,9.609-3.751,9.609-3.751s0.469,4.688,5.627,2.344c5.158-2.344,11.953-3.047,11.953-3.047s3.752,4.688,7.502,3.282
		c3.752-1.407,10.08-3.047,10.08-3.047s3.984,4.687,7.267,3.047c3.281-1.64,10.926-3.103,10.926-3.103s-0.846,3.103,2.669,2.399
		c3.515-0.703,8.204-1.875,8.204-1.875s1.877,4.922,3.987,2.579c2.109-2.344,0-9.611-2.813-9.611c-2.813,0-4.688,2.344-4.688,2.344
		s0.235-1.407-4.923-1.641c-5.156-0.234-11.017,3.985-11.721,3.985c-0.702,0-3.75-2.813-7.265-3.047
		c-3.517-0.235-7.971,4.454-8.675,3.984c-0.702-0.468-6.563-4.688-9.377-4.219c-2.813,0.468-9.377,3.516-9.377,3.516
		s-2.579-3.752-5.39-3.048c-2.813,0.703-12.659,4.455-12.659,4.455s-1.171-3.985-3.283-3.752c-2.107,0.235-10.548,4.22-11.251,4.22
		c-0.702,0-0.467-4.22-4.219-3.75c-3.75,0.468-9.377,4.453-9.377,4.453s1.173-4.923-4.688-3.282
		C31.986,106.657,32.69,109.704,32.69,109.704z"/>
	<ellipse fill="#FFF200" cx="37.612" cy="109.002" rx="1.876" ry="1.64"/>
	<ellipse fill="#FFF200" cx="50.973" cy="108.182" rx="2.111" ry="1.758"/>
	<ellipse fill="#FFF200" cx="66.797" cy="107.83" rx="1.523" ry="1.875"/>
	<ellipse fill="#FFF200" cx="82.97" cy="105.955" rx="1.289" ry="1.172"/>
	<ellipse fill="#FFF200" cx="101.841" cy="106.775" rx="1.876" ry="1.289"/>
	<circle fill="#FFF200" cx="119.186" cy="106.657" r="1.172"/>
	<ellipse fill="#FFF200" cx="136.416" cy="105.72" rx="1.289" ry="1.407"/>
	<ellipse fill="#FFF200" cx="144.395" cy="104.713" rx="1.298" ry="1.336"/>
</g>
</svg>
