<?xml version="1.0" encoding="utf-8"?>
<!-- Generator: Adobe Illustrator 17.0.0, SVG Export Plug-In . SVG Version: 6.00 Build 0)  -->
<!DOCTYPE svg PUBLIC "-//W3C//DTD SVG 1.1//EN" "http://www.w3.org/Graphics/SVG/1.1/DTD/svg11.dtd">
<svg version="1.1" id="Layer_1" xmlns="http://www.w3.org/2000/svg" xmlns:xlink="http://www.w3.org/1999/xlink" x="0px" y="0px"
	 width="252.912px" height="172.574px" viewBox="0 0 252.912 172.574" enable-background="new 0 0 252.912 172.574"
	 xml:space="preserve">
<g>
	<path fill="#FFFFFF" stroke="#000000" stroke-width="3" stroke-linecap="round" stroke-linejoin="round" d="M48.399,105.054
		c0,0-30.122-5.883-39.048,9.092c-8.924,14.977-7.806,22.463-7.806,22.463l5.577-3.209c0,0-2.233,7.487-2.233,11.231
		c0,3.745,0,3.745,0,3.745s2.235-2.674,5.022-2.674c2.789,0-1.673,9.627-1.673,9.627s6.691-6.952,7.808-3.746
		c1.115,3.211-3.904,14.442-2.789,12.837c1.115-1.604,7.808-9.092,8.924-6.952c1.115,2.139,2.231,6.952,2.231,6.952
		s7.81-9.092,7.81-7.487c0,1.604,0,10.16,1.675,8.557c1.671-1.605,7.806-6.417,7.806-6.417s2.791,5.348,2.231,7.487
		c-0.556,2.138,6.137,0.533,8.924-5.884c2.791-6.417,3.349-8.556,3.349-8.556s5.022,1.071,5.577,4.814
		c0.558,3.743,8.926-12.301,7.251-22.998C67.364,123.238,48.399,105.054,48.399,105.054z"/>
	<path fill="#A86130" d="M192.518,66.083c-0.597-0.023-0.973-0.038-0.973-0.038S191.687,65.909,192.518,66.083z"/>
	<path fill="none" d="M192.518,66.083c-0.597-0.023-0.973-0.038-0.973-0.038S191.687,65.909,192.518,66.083z"/>
	<path fill="#EAD5D6" d="M130.368,96.308c0,0,0.599,0.751,1.683,2.44l-1.774-1.68C130.335,96.586,130.368,96.308,130.368,96.308z"/>
	<path fill="#EF4136" stroke="#000000" stroke-width="3" stroke-linecap="round" stroke-linejoin="round" d="M234.085,79.778
		c0,0,1.463-26.182-22.919-48.624C186.784,8.712,131.681,16.192,103.889,9.646C76.091,3.102,67.803-4.38,59.023,8.712
		c-8.776,13.091,2.441,39.272-3.9,59.845C48.782,89.13,33.18,112.506,33.18,112.506s-3.9,5.61,3.9,10.286
		c7.804,4.676,13.168,1.87,13.168,1.87s19.017-28.986,30.231-43.013c11.214-14.028,29.26-30.392,29.26-30.392
		S89.26,68.092,83.895,88.662c-5.368,20.573,8.29,47.69,8.29,47.69L234.085,79.778z"/>
	<path fill="#FFFFFF" stroke="#000000" stroke-width="3" stroke-linecap="round" stroke-linejoin="round" d="M237.378,106.31
		c-4.266-5.001-7.331-7.333-7.331-7.333s-74.301,8.49-97.87,35.272c-23.567,26.783-30.55,36.824-30.55,36.824
		s-14.808-7.136-9.934-30.513c4.88-23.379,13.17-30.392,13.17-30.392s6.827-4.209,5.851-6.546c-0.976-2.337-4.39-5.142-4.39-5.142
		s7.804,5.611,10.243,3.272c2.437-2.338,0.976-12.156,0.976-12.156s7.31,8.884,9.266,5.61c1.949-3.271,1.949-7.013,1.949-7.013
		s8.776,0.935,11.216-0.467c2.439-1.404,18.531-6.545,32.674-8.885c14.137-2.336,12.989-2.846,15.271-5.63
		c2.282-2.785,4.231,2.359,5.695,2.359c1.461,0,6.827-6.078,7.802-8.417c0.973-2.338,0.486,8.884,4.39,7.014
		c3.9-1.872,7.314-3.274,7.314-3.274s-6.829,6.08-2.927,6.08c3.9,0,10.906-3.525,10.906-3.525s16.261,1.663,23.087,9.142
		c6.827,7.48,8.154,26.21,6.693,29.95c-1.463,3.74-6.135,3.744-6.135,3.744S241.647,111.31,237.378,106.31z"/>
	<path fill="#DCDDDE" d="M107.571,115.594c0,0-6.991,14.468-9.694,27.411c-2.706,12.941,2.319,20.688,2.319,20.688
		s24.905-31.176,31.318-36.817c6.415-5.641,20.953-13.017,20.953-13.017s-34.205,17.356-38.056,11.715
		C110.561,119.935,107.571,115.594,107.571,115.594z"/>
	<path fill="#DCDDDE" d="M21.197,111.689c0,0-5.987,1.736-8.977,6.943c-2.995,5.207-4.707,9.112-4.707,9.112l4.707-0.433
		l-2.566,13.017l4.275,0.867l2.138,4.773h4.275v4.775l4.705,0.432v3.038l8.551-4.773l2.566,6.942l7.269-3.904l3.847,7.376
		l4.277-9.111l4.279-3.906c0,0-23.52,2.169-30.363-9.98C18.631,124.707,21.197,111.689,21.197,111.689z"/>
	<path fill="#BE3229" d="M112.702,57.017c0,0-19.241,18.224-22.233,29.939c-2.995,11.717,1.71,32.979,1.71,32.979
		s2.564-7.813,5.987-11.282c3.419-3.472,6.411-4.773,6.411-4.773L99.02,90.428l13.682,4.773c0,0-5.559-5.207-4.703-16.488
		C108.855,67.431,112.702,57.017,112.702,57.017z"/>
	<path fill="#BE3229" d="M68.659,7.985c0,0-8.553,3.472-7.267,17.357c1.282,13.885,2.992,19.092,1.282,33.844
		c-1.71,14.754-24.372,55.974-24.372,55.974s0.428,2.605,2.99,3.906c2.566,1.302,5.559,1.302,5.559,1.302
		s-0.426-13.018,8.984-32.543c9.405-19.525,16.246-30.807,16.246-39.485s-6.413-17.79-5.131-26.035
		C68.233,14.061,68.659,7.985,68.659,7.985z"/>
	<path fill="#FFFFFF" d="M225.954,69.475c0,0-3.789-24.606-21.32-36.756c-17.531-12.15-38.912-12.15-46.609-13.017
		c-7.695-0.867-23.09-2.169-23.09-2.169s53.45,6.508,70.553,19.959C218.948,48.077,225.954,69.475,225.954,69.475z"/>
</g>
</svg>
