<?xml version="1.0" encoding="utf-8"?>
<!-- Generator: Adobe Illustrator 17.0.0, SVG Export Plug-In . SVG Version: 6.00 Build 0)  -->
<!DOCTYPE svg PUBLIC "-//W3C//DTD SVG 1.1//EN" "http://www.w3.org/Graphics/SVG/1.1/DTD/svg11.dtd">
<svg version="1.1" id="Layer_1" xmlns="http://www.w3.org/2000/svg" xmlns:xlink="http://www.w3.org/1999/xlink" x="0px" y="0px"
	 width="159.645px" height="198.89px" viewBox="0 0 159.645 198.89" enable-background="new 0 0 159.645 198.89"
	 xml:space="preserve">
<g>
	<path fill="#EE2A7B" stroke="#000000" stroke-width="3" stroke-linecap="round" stroke-linejoin="round" d="M107.17,129.616
		c-7.825-3.182-18.897,2.865-26.496,4.854c-2.533,0.663-5.316,1.105-5.987,2.954c-4.501-1.257-6.888-1.108-5.077,4.47
		c-5.291-5.43-6.386-5.428-3.392,1.772c-2.995-7.2-5.225-7.41-8.64,1.626c-3.048-9.79-7.279-10.337-15.606-7.165
		c0.329-4.521-3.439-5.323-5.742-6.211c-1.383-0.535-3.474-1.14-1.793-0.803c-6.635-1.299-13.748,0.411-4.966,5.111
		c-14.627-4.773-13.355-6.553-6.843,10.936c-11.945-15.889-9.027-15.482-15.016-1.261c2.264-10.17-4.382-6.527-6.113,0.499
		c1.074-0.35,0.908,2.939,0.908,6.34c0.006,17.005,4.221,36.813,17.282,41.727c15.672,5.895,24.785,1.632,29.643-1.892
		c4.855-3.525,7.372-7.159,13.902-6.383c6.532,0.776,13.713,7.68,22.583,8.565c8.87,0.886,19.879-3.758,22.299-15.37
		C110.539,167.77,114.995,132.797,107.17,129.616z M35.773,181.616c-12.192-0.104-19.511-14.051-19.511-14.051
		s6.458-7.672,17.714-7.613c11.254,0.061,18.393,7.901,18.259,10.709C52.104,173.47,47.965,181.719,35.773,181.616z M86.392,179.693
		c-12.184,0.387-16.514-7.764-16.712-10.569c-0.198-2.803,6.755-10.808,18.006-11.13c11.252-0.32,17.887,7.199,17.887,7.199
		S98.58,179.306,86.392,179.693z"/>
	<path fill="#00AEEF" stroke="#000000" stroke-width="3" stroke-linecap="round" stroke-linejoin="round" d="M107.553,122.365
		c15.112-7.253,30.083-17.687,29.673-36.487c-0.265-12.2-7.852-24.845-9.352-36.56c-1.963-15.348,17.983-25.441,30.27-27.878
		c0,0-20.319,6.622-18.257,20.698c0.066,0.454,0.156,0.917,0.272,1.386c-1.434,7.186,0.661,13.23,5.991,17.098
		c0.233,0.55,0.434,1.104,0.632,1.666c0.654,5.48,0.321,12.6,4.056,18.439c0.058,0.626,0.086,1.258,0.103,1.898
		c-0.803,4.933-2.114,11.149-2.418,16.58c-0.033,0.603-0.054,1.197-0.06,1.779c-2.809,4.753-6.592,9.331-10.397,14.119
		c-0.323,0.226-0.648,0.446-0.978,0.658C124.588,123.846,107.553,122.365,107.553,122.365z"/>
	<path fill="#8DC63F" stroke="#000000" stroke-width="3" stroke-linecap="round" stroke-linejoin="round" d="M104.299,128.806
		c1.727-4.914,3.188-10.068,3.791-15.175c0.076-0.639,0.138-1.282,0.21-1.944c4.075-6.323-0.502-10.105-3.134-16.405
		c-0.309-0.567-0.644-1.126-0.998-1.687c-1.579-7.717-6.213-10.313-12.748-10.851c-0.539-0.293-1.081-0.578-1.626-0.861
		c-4.557-6.333-10.49-6.611-15.969-10.07c-0.327-0.388-0.654-0.778-0.984-1.171c-1.966-2.36-3.925-4.851-5.771-7.725
		c-0.146-0.607-0.226-1.236-0.276-1.875c-0.638-8.295,3.231-17.987,7.098-23.768c0,0-8.817,17.342,2.476,24.207
		c11.291,6.865,27.622,8.822,39.104,28.557C126.954,109.775,104.299,128.806,104.299,128.806z"/>
	<path fill="#DA1C5C" stroke="#000000" stroke-width="3" stroke-linecap="round" stroke-linejoin="round" d="M105.853,127.678
		c11.529-12.653,21.824-28,17.28-45.269c-0.091-0.346-0.183-0.689-0.284-1.033c-1.904-6.526-2.758-13.701-9.788-16.977
		c-0.416-0.509-0.838-1.018-1.257-1.528c-3.075-6.431-6.411-11.345-12.161-16.785c-0.261-0.508-0.533-1.012-0.811-1.511
		c-2.219-3.994-4.773-7.733-4.824-12.256c0.187-0.621,0.381-1.227,0.582-1.818c1.809-5.327,4.12-9.562,6.207-14.354
		c0.401-0.557,0.815-1.107,1.237-1.649c4.229-5.42,9.449-10.035,13.966-12.998c0,0-19.535,16.44-9.407,30.519
		c10.128,14.078,28.856,24.809,32.623,54.538c2.76,21.8-16.469,33.74-26.922,38.558c-0.473,0.219-0.93,0.424-1.367,0.613
		c0.447,0.993-0.739,0.936-2.34,0.967c-0.342,0.134-0.654,0.253-0.938,0.358C106.514,127.476,105.853,127.678,105.853,127.678z"/>
	<path fill="#FFF200" stroke="#000000" stroke-width="3" d="M114.54,129.716c-4.855,7.627-2.538,8.926,0.93,17.059
		c-0.241,0.463-0.519,0.903-0.823,1.318c-0.916,1.249-2.07,2.294-3.451,3.062c-6.444,3.59-15.39-0.19-19.988-8.442
		c-1.97-3.536-2.819-7.32-2.643-10.772c0.029-0.576,0.089-1.141,0.191-1.684c2.503-5.671,9.677-6.524,13.999-10.004
		c0.572,0.124,1.14,0.293,1.704,0.496c3.384,1.22,6.625,3.74,9.031,7.268C113.861,128.561,114.211,129.127,114.54,129.716z"/>
	<path fill="#92278F" d="M69.505,161.398c0,0,7.887-11.771,17.825-13.327c9.938-1.558,22.96,11.952,22.96,11.952
		s-11.939-9.665-21.84-8.865C78.548,151.958,69.505,161.398,69.505,161.398z"/>
	<path fill="#27AAE1" stroke="#000000" stroke-width="3" d="M92.303,134.012c1.589,3.597,0.601,7.518-2.208,8.759
		c-2.805,1.24-6.37-0.668-7.961-4.263c-1.589-3.596-0.601-7.517,2.206-8.758C87.147,128.508,90.712,130.417,92.303,134.012z"/>
	
		<ellipse transform="matrix(0.7745 -0.6325 0.6325 0.7745 -70.1745 92.2611)" fill="#EF4136" stroke="#000000" stroke-width="3" cx="94.333" cy="144.568" rx="5.557" ry="7.119"/>
	
		<ellipse transform="matrix(0.2157 -0.9765 0.9765 0.2157 -64.6057 221.2894)" fill="#009444" stroke="#000000" stroke-width="3" cx="105.453" cy="150.863" rx="5.557" ry="7.117"/>
	<path fill="#FDD8C4" d="M45.082,183.848c0,0-11.124,5.295-20.731-0.214c-9.605-5.509-12.723-14.508-12.723-14.508
		s3.75,20.157,17.992,20.825C44.257,190.638,45.082,183.848,45.082,183.848z"/>
	<path fill="#FDD8C4" d="M105.83,172.03c0,0-7.082,10.797-14.689,11.198c-7.607,0.402-15.359-1.479-15.359-1.479
		s9.811,6.53,18.545,3.651C103.062,182.523,105.83,172.03,105.83,172.03z"/>
	<path fill="#92278F" d="M52.324,163.701c0,0-6.751-12.457-16.498-14.938c-9.749-2.482-23.979,9.749-23.979,9.749
		s12.791-8.504,22.575-6.78C44.205,153.456,52.324,163.701,52.324,163.701z"/>
	<polygon fill="#E4E5E6" points="51.567,158.868 51.542,157.066 52.732,156.991 52.697,154.579 53.95,154.499 53.987,156.997 
		56.364,156.847 54.74,153.228 57.863,153.029 56.548,150.293 55.078,151.578 54.463,150.28 55.996,148.904 55.36,147.607 
		56.41,146.668 57.048,148.081 58.538,146.735 59.174,148.119 57.64,149.438 58.96,152.32 60.392,148.477 61.995,151.98 
		63.164,149.084 61.575,147.994 62.191,146.442 63.738,147.623 64.292,146.164 65.366,146.937 64.77,148.372 66.36,149.519 
		65.786,150.923 64.175,149.835 62.963,152.762 66.128,152.558 64.65,156.346 67.052,156.192 67.017,153.694 68.207,153.618 
		68.239,156.029 69.408,155.954 69.433,157.727 68.287,157.801 68.322,160.27 67.068,160.35 67.033,157.821 64.611,157.975 
		66.278,161.591 63.113,161.794 64.428,164.53 65.961,163.211 66.62,164.565 64.979,165.89 65.659,167.271 64.63,168.211 
		63.907,166.773 62.481,168.114 61.822,166.731 63.376,165.353 62.082,162.498 60.649,166.343 59.067,162.923 57.834,165.822 
		59.361,166.948 58.85,168.405 57.301,167.165 56.704,168.657 55.632,167.882 56.142,166.455 54.617,165.33 55.212,163.868 
		56.78,164.96 58.015,162.061 54.806,162.266 56.366,158.502 53.967,158.656 54.002,161.097 52.75,161.176 52.713,158.764 	"/>
	<path fill="#AFDFE4" d="M51.248,181.696c0,0,5.197-7.806,9.71-7.916c4.511-0.11,10.636,6.618,10.636,6.618
		s-6.611-3.209-10.146-3.374C57.914,176.857,51.248,181.696,51.248,181.696z"/>
	<circle fill="#AFDFE4" cx="47.247" cy="149.162" r="2.726"/>
	
		<ellipse transform="matrix(0.9989 0.0469 -0.0469 0.9989 6.8195 -1.6891)" fill="#AFDFE4" cx="39.411" cy="144.507" rx="2.206" ry="2.076"/>
	
		<ellipse transform="matrix(0.9989 0.0469 -0.0469 0.9989 6.743 -1.3398)" fill="#AFDFE4" cx="31.941" cy="143.118" rx="2.207" ry="1.817"/>
	<path fill="#AFDFE4" d="M17.983,149.868c-0.051,1.073-1.021,1.9-2.167,1.846c-1.142-0.053-2.031-0.967-1.982-2.042
		c0.051-1.073,1.021-1.901,2.165-1.847C17.146,147.879,18.033,148.794,17.983,149.868z"/>
	
		<ellipse transform="matrix(0.9989 0.0471 -0.0471 0.9989 7.2691 -0.2321)" fill="#AFDFE4" cx="8.559" cy="154.103" rx="2.207" ry="1.946"/>
	
		<ellipse transform="matrix(0.9989 0.047 -0.047 0.9989 7.1046 -3.2398)" fill="#AFDFE4" cx="72.437" cy="149.437" rx="1.948" ry="1.815"/>
	
		<ellipse transform="matrix(0.9989 0.0471 -0.0471 0.9989 6.9253 -3.55)" fill="#AFDFE4" cx="78.866" cy="145.321" rx="1.946" ry="2.077"/>
</g>
</svg>
