<?xml version="1.0" encoding="utf-8"?>
<!-- Generator: Adobe Illustrator 17.0.0, SVG Export Plug-In . SVG Version: 6.00 Build 0)  -->
<!DOCTYPE svg PUBLIC "-//W3C//DTD SVG 1.1//EN" "http://www.w3.org/Graphics/SVG/1.1/DTD/svg11.dtd">
<svg version="1.1" id="Layer_1" xmlns="http://www.w3.org/2000/svg" xmlns:xlink="http://www.w3.org/1999/xlink" x="0px" y="0px"
	 width="145.726px" height="125.619px" viewBox="0 0 145.726 125.619" enable-background="new 0 0 145.726 125.619"
	 xml:space="preserve">
<g>
	
		<linearGradient id="SVGID_1_" gradientUnits="userSpaceOnUse" x1="-788.4399" y1="51.7945" x2="-677.7645" y2="71.3096" gradientTransform="matrix(-1 0 0 1 -669.1839 0)">
		<stop  offset="0.0165" style="stop-color:#23285E"/>
		<stop  offset="0.3736" style="stop-color:#008AC7"/>
		<stop  offset="0.7363" style="stop-color:#23285E"/>
		<stop  offset="0.8626" style="stop-color:#0059A3"/>
		<stop  offset="1" style="stop-color:#23285E"/>
	</linearGradient>
	<path fill="url(#SVGID_1_)" stroke="#000000" stroke-width="3" d="M120.441,100.157c0,0-7.331-37.474-8.961-58.249
		c-1.628-20.773,0-34.216,0-34.216S96.816-3.713,53.232,4.434C9.646,12.581,1.5,26.837,1.5,30.911
		c0,4.073,15.886,45.621,16.701,50.509c0.815,4.888,3.258,28.92,3.258,28.92s41.141,8.962,55.397,7.739
		c14.256-1.221,46.844-12.22,46.844-12.22L120.441,100.157z"/>
	<path fill="#23285E" stroke="#000000" stroke-width="3" d="M118.813,92.01l11.811-9.776c0,0,15.314-5.567,13.443,9.776
		c-2.038,16.701-17.516,28.106-58.25,31.365c-40.733,3.259-77.799-4.888-81.467-10.998c-3.665-6.109-2.443-15.885,8.556-12.627
		c10.998,3.259,30.346,13.239,70.061,12.017c37.058-1.14,36.457-13.035,36.457-13.035L118.813,92.01z"/>
	<path fill="#0A1438" stroke="#000000" stroke-width="3" d="M118.716,92.52c0,0,9.021-9.442,12.262-8.456
		c3.242,0.986,2.538,6.342,0.706,9.583c-1.834,3.243-4.935,5.638-4.935,5.638h-7.047L118.716,92.52z"/>
	
		<linearGradient id="SVGID_2_" gradientUnits="userSpaceOnUse" x1="-797.1287" y1="100.8367" x2="-720.5773" y2="114.3348" gradientTransform="matrix(-1 0 0 1 -669.1839 0)">
		<stop  offset="0.0165" style="stop-color:#23285E"/>
		<stop  offset="0.3736" style="stop-color:#00539E"/>
		<stop  offset="1" style="stop-color:#23285E"/>
	</linearGradient>
	<path fill="url(#SVGID_2_)" stroke="#000000" stroke-width="3" d="M127.502,98.324c0,0-14.935,0.543-37.34,4.345
		c-22.402,3.802-39.509,7.468-39.509,7.468s24.847,4.074,44.127,1.358C114.058,108.779,127.502,98.324,127.502,98.324z"/>
	
		<linearGradient id="SVGID_3_" gradientUnits="userSpaceOnUse" x1="-787.7407" y1="82.6444" x2="-688.8892" y2="100.0746" gradientTransform="matrix(-1 0 0 1 -669.1839 0)">
		<stop  offset="0" style="stop-color:#424B8F"/>
		<stop  offset="0.2857" style="stop-color:#0088CB"/>
		<stop  offset="0.3177" style="stop-color:#007FC0"/>
		<stop  offset="0.3911" style="stop-color:#2470AF"/>
		<stop  offset="0.4715" style="stop-color:#3263A3"/>
		<stop  offset="0.5601" style="stop-color:#3A599A"/>
		<stop  offset="0.661" style="stop-color:#3F5193"/>
		<stop  offset="0.7851" style="stop-color:#414D90"/>
		<stop  offset="1" style="stop-color:#424B8F"/>
	</linearGradient>
	<path fill="url(#SVGID_3_)" stroke="#000000" stroke-width="3" d="M120.576,98.8l-4.342-29.329c0,0-27.156,1.359-57.842,7.333
		c-30.686,5.974-39.919,10.861-39.919,10.861l1.63,14.665l30.412,8.146c0,0,30.414-7.332,44.535-8.961
		C109.171,99.886,120.576,98.8,120.576,98.8z"/>
	
		<linearGradient id="SVGID_4_" gradientUnits="userSpaceOnUse" x1="-809.7233" y1="98.6393" x2="-676.168" y2="98.6393" gradientTransform="matrix(-1 0 0 1 -669.1839 0)">
		<stop  offset="0" style="stop-color:#424B8F"/>
		<stop  offset="0.4011" style="stop-color:#1C75BC"/>
		<stop  offset="1" style="stop-color:#424B8F"/>
	</linearGradient>
	<path fill="url(#SVGID_4_)" stroke="#000000" stroke-width="3" stroke-linecap="round" stroke-linejoin="round" d="M128.296,84.052
		c0,0,8.58-7.23,10.982-3.869c2.4,3.362,1.91,15.751-6.252,22.233c-8.162,6.483-20.406,14.165-43.454,15.366
		c-23.048,1.2-43.695-3.122-56.42-7.442c-12.723-4.321-18.245-6.243-21.365-7.924c-3.122-1.68-4.804-3.361-4.804-3.361
		s1.681-1.679,6.242,0c4.563,1.681,27.85,11.284,61.701,13.206c33.851,1.92,53.539-13.445,56.659-16.327
		c3.12-2.88,4.563-7.923,3.361-11.043C133.746,81.769,128.296,84.052,128.296,84.052z"/>
</g>
</svg>
