<?xml version="1.0" encoding="utf-8"?>
<!-- Generator: Adobe Illustrator 17.0.0, SVG Export Plug-In . SVG Version: 6.00 Build 0)  -->
<!DOCTYPE svg PUBLIC "-//W3C//DTD SVG 1.1//EN" "http://www.w3.org/Graphics/SVG/1.1/DTD/svg11.dtd">
<svg version="1.1" id="Layer_1" xmlns="http://www.w3.org/2000/svg" xmlns:xlink="http://www.w3.org/1999/xlink" x="0px" y="0px"
	 width="156.943px" height="136.793px" viewBox="0 0 156.943 136.793" enable-background="new 0 0 156.943 136.793"
	 xml:space="preserve">
<g>
	<path fill="#D1EEFC" stroke="#000000" stroke-width="3" d="M31.723,2.439c0,0,12.678,9.508,30.239,13.585
		c8.146,1.891,17.343,2.615,26.811,0.677c22.31-4.563,35.319-14.263,35.319-14.263s16.384,1.386,23.326,10.614
		c6.139,8.164,8.594,17.232,7.915,19.949c-0.679,2.717-5.433,5.433-8.15,6.792c-2.717,1.358-10.867,3.395-14.942,4.075
		c-4.075,0.679-4.754,1.357-8.829,0.679c-4.075-0.679-19.696,3.396-23.771,3.396c-4.075,0-12.904,1.358-20.375,1.358
		c-7.473,0-9.508-5.433-19.696-5.433c-10.19,0-12.904,1.358-22.415,1.358c-9.508,0-13.583-2.717-17.658-5.433
		c-4.075-2.717-11.546-4.754-16.3-8.15c-4.754-3.396,1.358-15.622,7.471-24.452C16.781-1.636,31.723,2.439,31.723,2.439z"/>
	<path fill="#CCECFC" stroke="#000000" stroke-width="3" d="M58.21,14.665c0,0,30.562-16.98,45.506-9.509
		c14.942,7.47,20.375,15.62,20.375,24.45c0,8.829-2.717,23.772-4.754,34.637c-2.038,10.868-4.075,25.808-3.396,37.356
		c0.679,11.545,4.754,19.018,6.112,24.449c1.358,5.433-5.433,5.433-5.433,5.433l-2.038,2.717l-6.792-4.075l-3.396,2.718L101,128.766
		l-6.113,5.432l-3.396-4.075l-4.075,4.075l-4.075-4.754l-4.754,4.075l-2.719-3.396l-5.431,4.075l-1.358-6.111l-4.075,5.432
		c0,0-6.794-4.754-4.754-25.808c2.035-21.054,16.979-65.201,14.263-77.426C71.794,18.06,58.21,14.665,58.21,14.665z"/>
	<path fill="#BCD6E4" d="M67.842,15.116c0,0,12.274,6.312,11.573,15.427c-0.702,9.116-5.61,37.167-9.819,52.944
		c-4.207,15.777-5.96,24.894-5.96,31.556c0,6.662,1.402,10.519,1.402,10.519l6.312-5.61l1.404,5.96l3.857-3.857
		c0,0-6.312-25.593-0.702-50.839s11.92-36.114,7.362-45.932C78.713,15.466,67.842,15.116,67.842,15.116z"/>
	<path fill="#BCD6E4" d="M16.654,7.052c0,0-8.416,9.116-10.871,16.128c-2.453,7.013,2.105,7.363,6.312,9.116
		c4.207,1.753,14.726,9.115,17.881,9.817c3.155,0.702,17.883-0.701,23.843-0.701c5.96,0,14.376,0.701,14.376,0.701
		s-4.559-4.207-16.829-4.207c-12.272,0-15.779,0.701-26.298-5.26c-10.517-5.96-11.57-4.207-12.27-9.466
		C12.095,17.921,16.654,7.052,16.654,7.052z"/>
	<path fill="#BCD6E4" d="M117.983,11.26c0,0,8.064,5.61,8.765,13.323c0.7,7.713-0.702,17.18-0.702,17.18s10.871-1.403,16.479-3.857
		c5.61-2.455,10.167-5.61,10.167-5.61s-8.413,4.558-15.777,0c-7.362-4.559-6.662-12.623-10.869-16.83
		C121.84,11.26,117.983,11.26,117.983,11.26z"/>
	<path fill="#FFFFFF" d="M117.747,126.641c0,0-7.652-19.852-5.789-36.397c1.86-16.545,7.444-41.775,7.858-48.806
		c0.414-7.031,1.035-16.13-3.101-21.507c-4.137-5.377-17.992-12.822-17.992-12.822s20.266,16.131,18.405,31.641
		c-1.861,15.511-10.344,46.946-10.55,56.872c-0.206,9.926,6.411,32.055,6.411,32.055l1.241-2.068L117.747,126.641z"/>
	<polygon points="106.874,50.092 107.655,49.386 116.512,59.191 115.73,59.897 106.874,50.092 	"/>
	<polygon points="103.71,51.358 104.489,50.65 114.297,61.404 113.518,62.115 103.71,51.358 	"/>
	<polygon points="100.538,52.928 101.336,52.24 111.283,63.812 110.481,64.5 100.538,52.928 	"/>
	<polygon points="100.498,58.109 111.347,48.709 112.036,49.504 101.187,58.905 100.498,58.109 	"/>
	<polygon points="102.994,60.758 113.548,50.934 114.264,51.707 103.711,61.53 102.994,60.758 	"/>
	<polygon points="105.864,63.158 114.795,54.112 115.545,54.853 106.614,63.897 105.864,63.158 	"/>
	<polygon points="37.221,28.096 38.003,27.391 46.862,37.196 46.08,37.903 37.221,28.096 	"/>
	<polygon points="34.059,29.363 34.838,28.654 44.646,39.409 43.867,40.118 34.059,29.363 	"/>
	<polygon points="30.885,30.933 31.685,30.246 41.631,41.816 40.83,42.503 30.885,30.933 	"/>
	<polygon points="30.846,36.115 41.696,26.712 42.387,27.509 31.536,36.912 30.846,36.115 	"/>
	<polygon points="33.344,38.763 43.897,28.94 44.615,29.711 34.059,39.536 33.344,38.763 	"/>
	<polygon points="36.212,41.162 45.147,32.117 45.897,32.859 36.963,41.902 36.212,41.162 	"/>
	<polygon points="75.307,75.371 76.087,74.663 81.48,80.637 80.7,81.344 75.307,75.371 	"/>
	<polygon points="73.38,76.142 74.161,75.432 80.133,81.984 79.353,82.694 73.38,76.142 	"/>
	<polygon points="71.445,77.095 72.244,76.407 78.299,83.454 77.5,84.141 71.445,77.095 	"/>
	<polygon points="71.441,79.96 78.047,74.235 78.739,75.03 72.13,80.755 71.441,79.96 	"/>
	<polygon points="72.958,81.578 79.384,75.596 80.102,76.365 73.674,82.349 72.958,81.578 	"/>
	<polygon points="74.696,83.043 80.137,77.538 80.886,78.278 75.447,83.784 74.696,83.043 	"/>
	<ellipse fill="#EC008C" cx="30.582" cy="14.6" rx="7.943" ry="7.128"/>
	<circle fill="#EC008C" cx="95.551" cy="93.419" r="8.554"/>
	<ellipse fill="#EC008C" cx="140.359" cy="18.062" rx="5.295" ry="4.888"/>
	<circle fill="#EC008C" cx="89.238" cy="20.302" r="5.499"/>
	<ellipse fill="#00B0D8" cx="88.423" cy="62.869" rx="5.092" ry="4.888"/>
	<circle fill="#00B0D8" cx="110.216" cy="32.319" r="4.073"/>
	<circle fill="#00B0D8" cx="75.592" cy="115.414" r="8.962"/>
	<circle fill="#00B0D8" cx="127.935" cy="12.155" r="3.055"/>
	<circle fill="#00B0D8" cx="16.324" cy="25.19" r="5.499"/>
	<circle fill="#00B0D8" cx="58.077" cy="35.169" r="3.665"/>
	<circle fill="#FFF200" cx="49.318" cy="23.154" r="3.055"/>
	<circle fill="#FFF200" cx="141.173" cy="31.097" r="2.852"/>
	<circle fill="#FFF200" cx="86.793" cy="43.521" r="5.499"/>
	<circle fill="#FFF200" cx="99.829" cy="118.47" r="5.907"/>
	<circle fill="#FFF200" cx="103.292" cy="15.618" r="2.851"/>
	<circle fill="#39B54A" cx="106.752" cy="72.849" r="5.092"/>
	<circle fill="#39B54A" cx="72.538" cy="14.192" r="2.24"/>
	<circle fill="#39B54A" cx="95.551" cy="34.763" r="3.259"/>
	<circle fill="#39B54A" cx="77.017" cy="96.473" r="4.277"/>
	<circle fill="#32A443" cx="132.415" cy="34.966" r="3.463"/>
	<circle fill="#39B54A" cx="62.557" cy="24.58" r="3.258"/>
</g>
</svg>
