<?xml version="1.0" encoding="utf-8"?>
<!-- Generator: Adobe Illustrator 17.0.0, SVG Export Plug-In . SVG Version: 6.00 Build 0)  -->
<!DOCTYPE svg PUBLIC "-//W3C//DTD SVG 1.1//EN" "http://www.w3.org/Graphics/SVG/1.1/DTD/svg11.dtd">
<svg version="1.1" id="Layer_1" xmlns="http://www.w3.org/2000/svg" xmlns:xlink="http://www.w3.org/1999/xlink" x="0px" y="0px"
	 width="107.314px" height="48.698px" viewBox="0 0 107.314 48.698" enable-background="new 0 0 107.314 48.698"
	 xml:space="preserve">
<g>
	<path fill="#F2811F" stroke="#000000" stroke-width="3" stroke-linecap="round" stroke-linejoin="round" d="M10.912,2.303
		c0,0-4.949,2.851-6.529,7.845c-1.582,4.995-3.818,6.041-2.467,10.549c1.352,4.508,2.266,6.385,5.048,8.625
		c2.783,2.242,3.806,4.776,7.325,4.191c3.518-0.585,6.231-2.387,6.231-2.387s1.609,2.436,4.76,3.265
		c3.151,0.83,9.233,1.17,9.233,1.17l4.104-0.682c0,0,2.744,5.628,6.371,5.701c3.625,0.074,7.146-0.511,7.146-0.511l5.496,0.44
		c0,0,4.869,3.922,7.802,3.435c2.931-0.487,5.168-1.534,5.168-1.534l6.302,1.657l3.735,0.731c0,0,3.299-1.898,5.168-1.534
		c1.869,0.365,5.02,1.195,7,2.219c1.976,1.023,5.016,1.194,6.886,1.56c1.869,0.365,3.04,0.17,4.579-1.437
		c1.542-1.607,1.542-1.607,1.542-1.607s-3.845-1.39-6.043-3.729c-2.196-2.338-2.305-2.996-6.152-4.385
		c-3.847-1.389-6.997-2.218-6.997-2.218l-3.517,0.585c0,0-0.068-4.044-3.328-5.531c-3.262-1.486-4.174-3.363-7.218-3.534
		c-3.04-0.17-4.69,0.781-7.146,0.513c-2.453-0.269-3.995,1.339-6.191-1c-2.196-2.339-4.76-3.265-4.76-3.265s0.805,1.217-2.564-0.927
		c-3.369-2.144-3.806-4.775-6.37-5.701c-2.564-0.927,1.868,0.365-2.564-0.927c-4.433-1.291-7.364-0.805-7.364-0.805
		s-1.541,1.609-3.846-1.388c-2.306-2.997-4.721-6.652-4.721-6.652l-3.955-2.046L19.817,1.5L10.912,2.303z"/>
	<path fill="#C26816" d="M8.647,7.076c0,0-4.391,7.511-3.959,11.282c0.431,3.772,1.518,5.626,2.603,7.48
		c1.085,1.855,2.63,2.955,3.948,3.866c1.318,0.911,2.374,1.413,3.133,1.288c0.756-0.126,1.019,0.283,1.513-0.252
		c0.495-0.534,2.925-2.294,2.925-2.294l2.199-0.818c0,0,2.362,3.677,5.835,4.682c3.473,1.006,6.422,1.194,7.974,1.163
		c1.55-0.031-0.576,1.226,1.55-0.031c2.125-1.257,0.459-0.755,2.125-1.257c1.667-0.504,0.873-0.597,0.873-0.597
		s1.978,4.871,3.784,6.38c1.807,1.509,8.242,0.44,8.81,0.345c0.568-0.094,3.371-0.785,3.371-0.785l2.155,0.094l1.013,1.414
		c0,0,3.877,3.424,6.374,3.236c2.496-0.189,5.036-1.289,5.036-1.289l0.955-1.288c0,0,8.79,3.739,9.356,3.645
		c0.568-0.094,4.398-1.635,4.398-1.635l13.857,3.803l3.101-0.063c0,0-2.49-0.943-3.772-1.634c-1.282-0.691-3.546-1.446-4.567-1.728
		c-1.019-0.283-2.688,0.22-3.552-0.314c-0.866-0.534-3.62-1.886-4.225-2.011c-0.603-0.126-0.792-0.095-1.659-0.628
		c-0.868-0.534-1.48,0.471-1.924-1.038c-0.445-1.508-0.445-1.508-0.445-1.508l-0.171,3.646c0,0,0.451,0.377-0.722,0.345
		c-1.171-0.031-0.525-0.817-2.527-1.162c-2.003-0.347-2.534-0.031-3.589-0.535c-1.056-0.502-1.356-1.131-2.112-1.005
		c-0.757,0.126-1.325,0.22-1.85-0.596c-0.525-0.818-0.525-0.818-0.525-0.818s-1.704,0.283-1.863,1.666
		c-0.158,1.383,2.186,1.446-0.158,1.383c-2.344-0.063,0.786,1.226-2.344-0.063c-3.132-1.288-1.36,0.001-3.132-1.288
		c-1.77-1.288-0.712-0.787-1.77-1.288c-1.056-0.502,0.177,2.232-1.056-0.502c-1.233-2.734-1.488-4.275-1.408-4.966
		c0.078-0.692,0.92-2.64,0.428-2.106c-0.496,0.535-1.613,4.337-2.488,4.935c-0.873,0.597,0.416,0.157-0.873,0.597
		c-1.289,0.44-6.705,1.792-7.272,1.886c-0.568,0.094-0.793-0.094-1.697-0.848c-0.903-0.755-3.192-3.992-4.131-4.966
		c-0.941-0.974-1.966-0.125-1.349-2.263c0.619-2.137,1.381-3.394,1.381-3.394s-4.635,3.709-8.727,4.841
		c-4.09,1.132-4.68-1.256-6.494-1.634c-1.814-0.377-2.485-2.074-3.35-2.609c-0.869-0.534-1.538-2.231-1.649-2.892
		c-0.11-0.66,0.252-4.337,0.252-4.337s-1.742,7.072-3.599,7.606c-1.856,0.535-3.784,0.629-5.482-0.22
		c-1.697-0.848-1.354-1.132-2.636-1.822c-1.282-0.692-1.812-0.377-2.105-2.137c-0.292-1.761,0.777-3.52,0.368-4.809
		C8.371,15.938,8.647,7.076,8.647,7.076z"/>
	<path fill="#FCC509" d="M80.691,33.313c-1.128-0.941-1.836-2.86-3.46-3.267c-1.624-0.409-2.455-0.722-2.978-1.54
		c-0.525-0.818,1.062-0.63-0.525-0.818c-1.589-0.188-3.48,0.127-4.238,0.252c-0.757,0.126-3.822,0.409-3.822,0.409l6.197,1.005
		c0,0,0.677,0.566,1.2,1.383c0.525,0.817,0.564,1.036,1.319,0.911c0.757-0.125,0.875-0.597,1.587,0.19
		C76.688,32.622,80.691,33.313,80.691,33.313z"/>
	<path fill="#FCC509" d="M57.395,26.559c-1.128-0.943-1.733-1.069-2.031-1.697c-0.298-0.629,1.325-0.22-0.298-0.629
		c-1.624-0.408-1.66-0.628-2.607-0.471c-0.947,0.158-1.662-0.628-1.662-0.628s1.69,1.98,2.296,2.106
		c0.604,0.125,2.259,1.885,2.259,1.885L57.395,26.559z"/>
	<path fill="#FCC509" d="M47.601,20.273l-1.181-1.136l-1.828-1.756c0,0,0.27-0.724-1.093-0.723
		c-1.362,0.001-2.454-0.723-3.968-0.471c-1.515,0.252-1.326,0.22-2.687,0.22c-1.361,0.001-2.751,0.122-2.751,0.122l-3.445-1.127
		c0,0-1.447,1.823,0.255,1.54c1.704-0.283,2.984,0.409,2.984,0.409l2.382,0.283l-2.48,3.803c0,0,1.746-1.194,2.773-2.043
		c1.026-0.848,1.179-1.1,1.746-1.194c0.568-0.095,2.767-0.912,3.444-0.346C42.43,18.418,47.601,20.273,47.601,20.273z"/>
	<path fill="#FCC509" d="M13.575,5.127c0,0,2.424-0.629,3.596-0.597c1.172,0.031,2.796,0.439,3.663,0.973
		c0.866,0.534,4.115,1.351,4.115,1.351l2.484,2.075l2.129,4.619l-2.6-1.602c0,0-1.691-1.981-3.052-1.98
		c-1.361,0.001-0.562-1.037-1.361,0.001c-0.801,1.037-2.62,1.792-2.62,1.792l0.507-2.797c0,0-0.335-0.847-1.544-1.099
		c-1.209-0.252-0.829-0.314-2.301-0.974C15.119,6.227,13.575,5.127,13.575,5.127z"/>
</g>
</svg>
