<?xml version="1.0" encoding="utf-8"?>
<!-- Generator: Adobe Illustrator 17.0.0, SVG Export Plug-In . SVG Version: 6.00 Build 0)  -->
<!DOCTYPE svg PUBLIC "-//W3C//DTD SVG 1.1//EN" "http://www.w3.org/Graphics/SVG/1.1/DTD/svg11.dtd">
<svg version="1.1" id="Layer_1" xmlns="http://www.w3.org/2000/svg" xmlns:xlink="http://www.w3.org/1999/xlink" x="0px" y="0px"
	 width="132.472px" height="74.245px" viewBox="0 0 132.472 74.245" enable-background="new 0 0 132.472 74.245"
	 xml:space="preserve">
<g>
	<path fill="#963B33" stroke="#000000" stroke-width="3.5" d="M124.549,1.951L88.047,19.918c0,0-5.243,1.645-7.706,2.217
		c-2.464,0.57-9.057-2.752-11.585-4.329c-2.528-1.578-6.458-3.946-6.458-3.946s-5.714,4.691-4.196,5.637
		c1.516,0.947,2.908,3.22,7.078,4.418s8.341,2.395,8.341,2.395s-11.557,6.136-15.788,8.415c-4.231,2.276-19.137,7.025-19.137,7.025
		S27.788,34.303,25.7,30.893c-2.087-3.41-2.087-3.41-2.087-3.41s-11.435-0.812-9.348,2.597C16.351,33.487,25.011,41,25.011,41
		l8.025,2.9L2.722,58.704l5.501,6.945l4.547-2.782l-2.27,7.014l3.034,1.893c0,0,4.543-8.405,5.489-9.923
		c0.947-1.516,3.472-5.562,7.071-6.828c3.6-1.267,8.653-3.733,8.653-3.733l8.968-4.24l10.169-2.787l-1.003,10.615l-1.513,4.675
		l6.634,0.628c0,0,0.502-5.307,1.383-8.971c0.882-3.665,1.258-7.646,2.205-9.162c0.947-1.518,3.536-3.415,3.536-3.415l9.599-5.249
		l4.231-2.277l4.611-0.635c0,0,3.856,1.702,6.318,1.132c2.466-0.57,6.446-0.193,7.393-1.711c0.947-1.517-0.951-4.105-0.004-5.622
		c0.945-1.517,26.082-12.527,28.546-13.098c2.463-0.57,4.768-3.346,4.768-3.346L129.921,4.6L124.549,1.951z"/>
	<path fill="#BA756E" d="M127.593,7.222c-0.36-0.537-1.616-2.332-2.513-2.511c-0.895-0.179-0.895-0.179-0.895-0.179l-29.239,14.17
		c0,0,23.139-9.685,23.857-9.865c0.716-0.179-1.258-0.359,0.716-0.179c1.974,0.179,2.153,1.615,2.871,0.179
		c0.716-1.436-0.179-0.538,0.716-1.436c0.897-0.896,0.897-0.896,0.897-0.896L127.593,7.222z"/>
	<path fill="#BA756E" d="M58.889,42.56l-1.614,6.816l-0.897,6.278c0,0-1.076-3.229-1.076-3.945c0-0.718,0.359-2.692,0.718-3.408
		c0.359-0.718,1.076-2.333,1.076-3.408c0-1.076,0-1.076,0-1.076L58.889,42.56z"/>
	<polygon fill="#BA756E" points="22.116,29.465 24.089,33.053 29.471,37.537 32.879,39.69 28.932,38.433 26.421,36.102 
		24.448,35.025 23.192,34.667 22.296,33.591 21.398,31.08 20.322,30.183 17.81,29.465 	"/>
	<polygon fill="#BA756E" points="62.476,16.55 67.32,19.241 70.908,21.393 61.041,18.343 	"/>
</g>
</svg>
