<?xml version="1.0" encoding="utf-8"?>
<!-- Generator: Adobe Illustrator 17.0.0, SVG Export Plug-In . SVG Version: 6.00 Build 0)  -->
<!DOCTYPE svg PUBLIC "-//W3C//DTD SVG 1.1//EN" "http://www.w3.org/Graphics/SVG/1.1/DTD/svg11.dtd">
<svg version="1.1" id="Layer_1" xmlns="http://www.w3.org/2000/svg" xmlns:xlink="http://www.w3.org/1999/xlink" x="0px" y="0px"
	 width="164.869px" height="135.091px" viewBox="0 0 164.869 135.091" enable-background="new 0 0 164.869 135.091"
	 xml:space="preserve">
<g>
	<path fill="#FFF200" stroke="#000000" stroke-width="3" stroke-linecap="round" stroke-linejoin="round" d="M82.448,89.052
		c26.769,0,60.557,20.583,69.635,44.539c0.243-1.745-0.037-3.588-0.037-5.381c0-27.491-33.86-49.776-69.598-49.776
		c-35.737,0-72.039,22.285-72.039,49.776c0,1.794,0.13,3.565,0.37,5.309C20.534,110.721,49.043,89.052,82.448,89.052z"/>
	<g>
		<g>
			<path fill="none" stroke="#000000" stroke-width="0.8138" d="M35.338,32.265c0.01,0.919-1.181,1.664-2.887,1.935
				c-0.253,0.017-0.364-0.163,0.325-1.556c3.009-6.349,0.566-13.675-6.152-15.507c-1.22,0-3.052,0-4.273,0
				c-2.443,0-3.661,1.832-5.495,3.053c-1.22,1.221-1.832,2.442-1.832,3.663c0,2.441,0,4.884,1.223,6.715
				c1.22,1.222,2.443,2.442,4.275,3.053c1.22,0,3.05,0,4.273,0c1.22-0.61,3.052-1.22,3.661-2.441
				c0.611-1.833,1.222-3.053,1.222-4.886c0-1.22-0.611-3.052-1.832-3.663c-1.223-0.61-3.052-1.832-4.884-1.221
				c5.493-0.611,9.158,5.494,6.104,9.77c-3.052,3.052-9.158,5.493-12.211,0.61c-1.22-2.443-3.052-4.886-2.443-7.937
				c0.611-1.832,1.834-3.054,3.054-4.885c1.222-1.221,3.663-1.832,5.495-2.442c1.832-0.61,3.052,0.611,4.884,0.611
				c2.443,0.611,3.663,2.442,4.886,4.274c1.83,3.053,1.83,6.105,1.187,9.232C34.789,31.078,35.33,31.654,35.338,32.265z"/>
			<path fill="none" stroke="#000000" stroke-width="0.8138" d="M36.287,34.736c0.017,1.225-2.105,2.139-4.74,2.039
				c-0.657-0.026-1.284-0.11-1.856-0.243c-0.249-0.087-0.216-0.356,1.416-2.065c5.899-5.728,1.626-16.109-6.312-17.329
				c-2.443-0.611-4.886,1.22-6.718,1.832c-1.83,1.221-2.441,3.663-3.052,5.496c0,3.052,1.223,6.105,3.665,8.547
				c-1.222-1.22-2.443-1.831-3.054-3.053c-1.832-4.274-0.611-10.379,4.273-12.211c2.443-1.221,4.275-0.611,6.715-0.611
				c2.443,0.611,4.886,1.832,6.108,4.274c1.83,3.663,1.22,7.327,0.659,11.113c0.541,0.176,1.05,0.372,1.482,0.59
				C35.742,33.547,36.281,34.123,36.287,34.736z"/>
			<path fill="none" stroke="#000000" stroke-width="0.8138" d="M37.24,37.207c0.017,1.225-2.105,2.138-4.74,2.038
				c-2.303-0.087-4.233-0.92-4.692-1.947c0.733-0.54,0.986-0.793,1.509-1.241c3.416-2.434,5.857-6.708,4.026-11.592
				c1.832,3.052,0,6.105-1.122,8.816c-0.434,0.791-0.537,1.102-0.735,1.533c0.309-0.016,0.632-0.021,0.959-0.008
				C35.079,34.906,37.226,35.982,37.24,37.207z"/>
			<path fill="none" stroke="#000000" stroke-width="0.8138" d="M38.193,39.675c0.014,1.226-2.107,2.141-4.742,2.04
				c-2.632-0.099-4.779-1.174-4.793-2.398c-0.014-1.227,2.105-2.138,4.74-2.04C36.03,37.377,38.176,38.452,38.193,39.675z"/>
			<path fill="none" stroke="#000000" stroke-width="0.8138" d="M39.142,42.148c0.016,1.226-2.105,2.138-4.738,2.039
				c-2.632-0.1-4.781-1.174-4.795-2.4c-0.014-1.228,2.107-2.14,4.742-2.04C36.983,39.847,39.127,40.922,39.142,42.148z"/>
			<path fill="none" stroke="#000000" stroke-width="0.8138" d="M40.094,44.617c0.014,1.226-2.105,2.138-4.74,2.038
				c-2.634-0.099-4.779-1.174-4.795-2.398c-0.014-1.226,2.109-2.138,4.74-2.04C37.933,42.317,40.082,43.391,40.094,44.617z"/>
			<path fill="none" stroke="#000000" stroke-width="0.8138" d="M41.047,47.087c0.014,1.227-2.109,2.139-4.74,2.04
				c-2.634-0.099-4.781-1.174-4.795-2.402c-0.016-1.224,2.107-2.137,4.74-2.039C38.886,44.787,41.033,45.863,41.047,47.087z"/>
			<path fill="none" stroke="#000000" stroke-width="0.8138" d="M41.998,49.558c0.016,1.225-2.107,2.138-4.74,2.037
				c-2.634-0.099-4.779-1.174-4.795-2.398c-0.014-1.228,2.107-2.139,4.74-2.04C39.837,47.257,41.982,48.333,41.998,49.558z"/>
			<path fill="none" stroke="#000000" stroke-width="0.8138" d="M42.951,52.029c0.012,1.225-2.107,2.138-4.742,2.039
				c-2.632-0.101-4.779-1.175-4.793-2.4c-0.016-1.226,2.107-2.139,4.74-2.039C40.79,49.729,42.935,50.802,42.951,52.029z"/>
			<path fill="none" stroke="#000000" stroke-width="0.8138" d="M43.902,54.498c0.014,1.224-2.107,2.138-4.74,2.04
				c-2.632-0.101-4.779-1.176-4.795-2.4c-0.014-1.226,2.107-2.139,4.74-2.04C41.741,52.197,43.888,53.273,43.902,54.498z"/>
			<path fill="none" stroke="#000000" stroke-width="0.8138" d="M44.853,56.969c0.014,1.225-2.105,2.139-4.74,2.038
				c-2.632-0.098-4.779-1.173-4.793-2.399c-0.017-1.227,2.105-2.139,4.74-2.039C42.692,54.668,44.838,55.743,44.853,56.969z"/>
			<path fill="none" stroke="#000000" stroke-width="0.8138" d="M45.806,59.439c0.014,1.226-2.109,2.138-4.74,2.039
				c-2.632-0.1-4.781-1.174-4.795-2.399c-0.016-1.226,2.107-2.138,4.74-2.04C43.643,57.139,45.791,58.213,45.806,59.439z"/>
			<path fill="none" stroke="#000000" stroke-width="0.8138" d="M46.757,61.909c0.014,1.226-2.107,2.139-4.74,2.04
				c-2.634-0.1-4.781-1.176-4.795-2.4c-0.014-1.225,2.107-2.138,4.74-2.04C44.596,59.61,46.742,60.683,46.757,61.909z"/>
			<path fill="none" stroke="#000000" stroke-width="0.8138" d="M47.707,64.379c0.016,1.226-2.107,2.138-4.74,2.038
				c-2.632-0.098-4.779-1.174-4.793-2.398c-0.016-1.228,2.105-2.139,4.742-2.04C45.546,62.078,47.693,63.154,47.707,64.379z"/>
			<path fill="none" stroke="#000000" stroke-width="0.8138" d="M48.658,66.849c0.016,1.226-2.107,2.138-4.738,2.039
				c-2.634-0.099-4.779-1.174-4.795-2.399c-0.016-1.225,2.107-2.139,4.74-2.04C46.499,64.549,48.646,65.624,48.658,66.849z"/>
			<path fill="none" stroke="#000000" stroke-width="0.8138" d="M49.611,69.319c0.016,1.226-2.11,2.138-4.742,2.04
				c-2.63-0.099-4.779-1.175-4.793-2.4c-0.014-1.227,2.107-2.139,4.742-2.04C47.448,67.02,49.597,68.094,49.611,69.319z"/>
			<path fill="none" stroke="#000000" stroke-width="0.8138" d="M50.562,71.79c0.016,1.226-2.105,2.138-4.74,2.038
				c-2.634-0.098-4.779-1.173-4.793-2.397c-0.016-1.227,2.105-2.14,4.74-2.04C48.399,69.488,50.547,70.564,50.562,71.79z"/>
			<path fill="none" stroke="#000000" stroke-width="0.8138" d="M51.513,74.261c0.014,1.225-2.105,2.137-4.74,2.038
				c-2.632-0.1-4.777-1.174-4.793-2.399c-0.014-1.226,2.107-2.138,4.742-2.04C49.352,71.96,51.498,73.035,51.513,74.261z"/>
			<path fill="none" stroke="#000000" stroke-width="0.8138" d="M52.466,76.73c0.017,1.226-2.107,2.138-4.74,2.04
				c-2.632-0.099-4.779-1.174-4.793-2.399c-0.017-1.227,2.105-2.139,4.74-2.04C50.305,74.431,52.451,75.504,52.466,76.73z"/>
			<path fill="none" stroke="#000000" stroke-width="0.8138" d="M53.416,79.2c0.016,1.226-2.107,2.14-4.74,2.04
				c-2.632-0.099-4.779-1.174-4.793-2.4c-0.014-1.226,2.107-2.138,4.74-2.037C51.253,76.9,53.402,77.975,53.416,79.2z"/>
			<path fill="none" stroke="#000000" stroke-width="0.8138" d="M54.367,81.671c0.017,1.226-2.105,2.138-4.74,2.039
				c-2.63-0.1-4.777-1.175-4.793-2.399c-0.014-1.225,2.107-2.138,4.74-2.04C52.208,79.371,54.353,80.447,54.367,81.671z"/>
			<path fill="none" stroke="#000000" stroke-width="0.8138" d="M55.32,84.14c0.014,1.226-2.105,2.139-4.74,2.039
				c-2.632-0.099-4.781-1.174-4.793-2.4c-0.017-1.226,2.107-2.138,4.738-2.04C53.159,81.841,55.304,82.915,55.32,84.14z"/>
			<path fill="none" stroke="#000000" stroke-width="0.8138" d="M56.273,86.61c0.014,1.226-2.109,2.139-4.742,2.04
				c-2.632-0.099-4.779-1.175-4.793-2.399c-0.014-1.227,2.107-2.14,4.738-2.039C54.11,84.311,56.257,85.385,56.273,86.61z"/>
			<path fill="none" stroke="#000000" stroke-width="0.8028" d="M56.37,85.992c0.42,1.145-1.14,2.947-3.488,4.029
				c-2.344,1.08-4.587,1.027-5.007-0.116c-0.42-1.145,1.142-2.949,3.489-4.029C53.709,84.795,55.952,84.848,56.37,85.992z"/>
			<path fill="none" stroke="#000000" stroke-width="0.8028" d="M33.815,23.357c-0.473,1.719,1.358,2.939,0.747,4.772
				c0-5.496-4.273-10.991-9.768-11.601c-2.443,0-5.495,0.611-7.327,2.442c-1.22,1.221-1.832,2.442-2.443,4.274
				c0,1.832-0.611,4.274,0.611,6.105c0.611,1.221,1.22,2.443,2.441,3.053c4.886,3.052,10.99,1.22,11.601-4.885
				c0-2.442-1.222-4.274-3.054-5.495c-2.441-1.832-4.273,0-6.715,0.61c1.222-1.221,2.443-1.832,3.663-1.832
				c3.663,0,7.327,3.054,6.718,6.717c-0.611,1.832-0.611,4.275-3.054,5.495c-2.441,1.221-4.884,1.832-7.936,0.61
				c-1.832-1.22-3.052-2.441-4.275-4.274c-0.611-1.832-0.611-3.053-0.611-4.884c1.223-4.274,4.277-7.327,8.549-7.938
				c1.832,0,3.661-0.61,5.493,0.611c1.222,1.22,3.665,1.832,4.429,4.305C33.352,22.203,33.653,22.857,33.815,23.357z"/>
		</g>
		<path fill="#ED1C24" stroke="#000000" stroke-width="2.3726" d="M40.899,4.642c-0.733-0.517-1.447-0.95-2.122-0.61
			c-0.72-1.06-1.399-1.347-2.507-1.262c-0.214-0.525-0.856-0.679-1.48-0.774c-0.671-0.102-1.323-0.135-1.898-0.075
			c-0.681-0.011-1.286,0.073-1.568,1.071C30.44,2.26,29.878,2.44,29.209,2.965c-0.405-0.081-0.922,0.18-1.414,0.47
			c-0.556,0.328-1.081,0.693-1.241,1.478c-0.832-0.006-1.295,0.409-1.731,0.841c-0.436,0.416-0.84,0.852-1.216,1.285
			c-0.372,0.434-0.718,0.863-0.881,1.359c-0.115,0.083-0.22,0.17-0.317,0.26c-0.093,0.091-0.179,0.185-0.228,0.279
			c-0.185,0.195-0.313,0.397-0.105,0.661c-0.457,0.103-0.578,0.268-0.204,0.649c-0.601-0.056-0.702,0.102-0.335,0.589
			c-0.541-0.181-0.632-0.049-0.379,0.43c-0.412-0.236-0.482-0.125-0.329,0.277c-0.333-0.111-0.422,0.028-0.397,0.257
			c-0.171-0.168-0.336-0.201-0.443,0.145c-0.235-0.424-0.364-0.454-0.426,0.086c-0.228-0.597-0.387-0.623-0.587,0.026
			c-0.146-0.725-0.333-0.778-0.716-0.122c-0.021-0.737-0.237-0.767-0.729-0.326c0.049-0.525-0.177-0.577-0.587-0.46
			c-0.072-0.207-0.323-0.243-0.583-0.277c-0.416-0.053-0.854-0.097-1.037,0.176c-0.724-0.336-1.194-0.353-1.55,0.624
			c-0.605-0.971-1.097-0.951-1.931-0.403c-0.16-0.455-0.665-0.384-1.167-0.283c-0.733,0.147-1.463,0.357-2.182,0.647
			c-0.358,0.145-0.712,0.311-1.046,0.497c-0.366,0.188-0.706,0.397-0.397,0.811c-0.98,0.054-1.305,0.311-1.021,1.388
			c-0.918-0.509-1.227-0.199-1.5,0.646c-0.315-0.168-0.599,0.199-0.866,0.596c-0.864,1.269-1.583,2.852-2.089,4.811
			c-0.128,0.49-0.243,1.003-0.14,1.37c-0.309,0.753-0.37,1.32,0.572,1.874c-0.978,0.552-0.953,1.091-0.601,1.861
			c-0.218,0.282-0.111,0.795,0.035,1.293c0.288,0.998,0.727,1.945,1.293,2.839c0.284,0.446,0.597,0.88,0.938,1.3
			c0.342,0.424,0.71,0.834,1.484,0.662c0.019,0.968,0.438,1.353,1.225,1.629c0.047,0.234,0.189,0.442,0.379,0.636
			c0.189,0.192,0.424,0.37,0.582,0.275c0.591,0.64,1.122,0.995,2.233,0.271c-0.019,1.41,0.547,1.741,1.533,1.978
			c0.169,0.398,0.759,0.705,1.362,1.001c0.601,0.293,1.214,0.576,1.83,0.846c0.619,0.272,1.243,0.531,1.869-0.219
			c0.632,1.246,1.262,1.483,2.48,1.325c0.041,0.611,0.671,0.825,1.295,1.03c0.751,0.246,1.494,0.475,2.025-0.028
			c0.93,0.936,1.648,1.136,2.904,0.782c0.144,0.729,0.825,0.902,1.482,1.062c0.768,0.186,1.498,0.354,2.145,0.443
			c0.731,0.212,1.373,0.344,2.07-0.364c0.484,0.94,1.021,1.04,1.774,0.867c0.191,0.341,0.601,0.41,0.936,0.463
			c0.671,0.106,1.048,0.154,1.052,0.149c0.006,0.002,0.434-0.595,1.115-1.646c0.173-0.261,0.358-0.554,0.401-0.845
			c0.358-0.341,0.572-0.686,0.08-1.238c0.943-0.182,1.179-0.575,0.955-1.532c0.714,0.131,0.965-0.303,1.225-0.759
			c0.434-0.757,0.883-1.571,1.338-2.426c0.226-0.428,0.457-0.867,0.564-1.319c0.348-0.446,0.576-0.905,0.517-1.557
			c0.515-0.283,0.739-0.759,0.961-1.241c0.22-0.483,0.438-0.974,0.533-1.43c0.338-0.536,0.545-1.038,0.019-1.758
			c0.936-0.293,1.134-0.804,1.12-1.605c0.397-0.227,0.58-0.744,0.753-1.266c0.173-0.52,0.34-1.042,0.496-1.565
			c0.156-0.523,0.301-1.047,0.424-1.561c0.144-0.531,0.263-1.053-0.486-1.392c0.967-0.703,1.064-1.222,0.438-2.219
			c0.786-0.034,0.85-0.548,0.895-1.066c0.054-0.499,0.089-1.003,0.105-1.502c0.016-0.499,0.014-0.992-0.006-1.477
			c-0.021-0.487-0.06-0.966-0.134-1.411c-0.045-0.497-0.125-0.959-0.803-1.016c0.471-0.851,0.35-1.295-0.496-1.769
			c0.274-0.196,0.368-0.399,0.354-0.566c0.01-0.25-0.091-0.462-0.408-0.267c0.121-0.605,0.027-0.802-0.58-0.412
			c0.393-0.785,0.278-0.981-0.601-0.717c0.57-0.744,0.37-1.025-0.426-1.248c0.366-0.325,0.136-0.59-0.115-0.846
			c-0.243-0.257-0.506-0.504-0.784-0.744C41.508,5.093,41.212,4.861,40.899,4.642z"/>
		<path fill="#CC2029" d="M33.239,40.476l-3.052-1.628c0,0-0.101,0.814-0.712,0.814s-2.441-0.102-2.441-0.102
			s-0.383-0.533-0.766-1.068c1.192-1.007,2.326-2.168,2.326-2.168c-0.747,2.185-3.19,0.351-3.67,1.635
			c-0.624,0.342-1.249,0.686-1.249,0.686s-0.148-0.152,0.043-0.431c0.097-0.14,0.338-0.318,1.795-0.747
			c5.997-1.401,9.049-8.727,7.22-14.222c3.052,6.715-2.443,14.652-9.77,14.652c-1.22,0-2.441-1.221-3.791-0.98
			c-0.792-0.257-1.196-0.41-1.196-0.41s0.224,0.079,0.737,0.226c4.859,1.163,10.354-0.058,12.797-4.331
			c-3.054,5.494-10.988,6.106-15.65,2.696c-0.722,0.197-1.447,0.392-1.447,0.392l-2.136-1.22l-0.305-3.053l-2.848,0.611L7.19,30.605
			l-0.103-1.83l-2.441-0.51l-0.815-2.543l1.83-1.935l-1.83-2.034l2.239-3.867l3.054,0.305l-0.103-2.238l1.83-1.628
			c0,0,1.222,4.885,1.325,5.19c0.049,0.153,0.407,0.789,0.751,1.386c-2.175,6.617,0.877,15.165,8.815,15.775
			c3.052,0,6.104-1.22,8.547-3.662c1.22-1.22,1.832-2.442,1.832-3.663c1.22-6.105-3.054-11.6-9.158-10.991
			c-3.663,0.611-7.327,3.664-6.715,7.938c0.609,3.053,2.443,6.106,5.495,6.717c1.22,0,2.441,0,3.661-0.61
			c2.443-1.832,3.663-3.663,3.052-6.717c-0.609-3.053-4.273-3.663-6.713-3.053c-0.611,0.611-1.834,1.832-1.834,3.053
			c0,1.22,0.613,2.443,1.834,3.053c-0.611-0.61-1.22-1.221-1.834-1.833c0-0.61,0-1.831,0-2.441c1.834-3.664,6.715-3.053,8.547-0.611
			c2.443,4.274,0,8.548-4.273,9.768c-6.106,1.222-10.379-4.274-9.158-9.768c0.611-3.054,3.052-5.496,6.106-6.717
			c3.663-0.611,6.716,0,9.768,2.442c3.663,3.053,3.663,7.937,2.443,12.212c-0.609,1.22-1.832,2.442-2.692,3.783
			c-0.282,0.67-0.564,1.34-0.564,1.34l1.019,0.204l2.237-1.019l0.712-2.341l2.237,0.61l1.729-1.728l-1.319,3.764l-2.035-0.204
			l-0.204,2.137l-1.834,0.508L33.239,40.476z"/>
		<path fill="#F05864" d="M25.099,9.236l2.953-2.239l1.117-0.102l1.017-1.628l2.546,1.527l0.609-2.544l2.136,0.712l1.017,1.017
			l1.021,0.611l1.626-0.203l0.508,1.527l-0.609,2.848l1.729-0.305l-0.508,2.748l1.834-0.713l0.506,2.035l0.712-0.406l0.204,1.832
			l-1.628,0.305l0.815,2.748l-1.731,1.526l1.731,1.425l-1.424,2.951l-0.51,1.221l-1.932,0.711l0.916,1.529l-0.815,2.135
			l-0.609-2.646c0,0-0.916-1.526-0.712-1.832c0.202-0.304,2.645-3.46,2.645-3.46l-2.035-1.018l2.237-4.782l-2.846-2.849
			l-0.712-1.527l-1.12-3.866l-1.731,1.933l-1.832-0.916c0,0-0.508-0.101-1.019-0.101c-0.506,0-1.729-0.203-1.832,0.101
			c-0.101,0.306-1.015,1.425-1.015,1.425l-2.342,0.204L25.099,9.236z"/>
		<path fill="#F5909D" d="M27.135,9.338l2.848-2.035l3.256,0.509l1.12-2.137l2.443,1.526L38.736,7.1l-0.408,4.172h1.424
			l-0.815,2.341l-1.321-1.324l-0.101-3.867l-1.225-0.407c0,0-0.912-0.814-1.218-0.61c-0.307,0.203-1.63,1.729-1.63,1.729
			l-2.85-0.915l-1.93,0.61l-0.815,1.323l-1.321,0.203L27.135,9.338z"/>
		<g>
			<path fill="none" stroke="#000000" stroke-width="0.8138" d="M140.195,35.348c-0.636,0.665-2.007,0.364-3.416-0.636
				c-0.191-0.163-0.171-0.361,1.097-0.817c4.754-0.883,8.418-6.378,7.808-11.262c-0.611-2.442-1.223-4.884-3.665-6.716
				c-1.22-0.611-2.441-1.832-3.663-1.832c-5.493-1.221-10.379,2.442-10.379,7.938c0,1.832,0.611,3.663,1.832,4.883
				c1.22,1.222,2.441,2.443,4.275,2.443c2.443,0,5.495-1.22,6.716-3.663c0-0.61,0-1.831,0-3.053c1.832,6.106-6.104,9.159-9.77,6.106
				c-3.052-2.443-4.273-6.716-2.441-10.38c1.832-3.052,4.884-4.884,8.547-4.884c2.443,0.61,5.495,1.832,7.327,4.274
				c1.223,1.831,1.223,3.663,1.832,5.495c0.611,2.442-1.22,4.274-2.443,6.715c-1.22,1.223-1.832,2.443-3.536,3.238
				C140.634,34.114,140.617,34.904,140.195,35.348z"/>
			<path fill="none" stroke="#000000" stroke-width="0.8138" d="M139.148,37.778c-0.846,0.887-3.003,0.056-4.814-1.857
				c-0.453-0.478-0.842-0.979-1.159-1.473c-0.119-0.235,0.08-0.405,1.965-0.456c5.658-0.37,11.153-5.254,10.544-11.36
				c-0.611-4.884-4.886-8.548-9.77-8.548c-1.832,0-3.052,0.611-4.886,1.832c-1.832,1.221-1.832,3.053-3.052,4.884
				c1.22-5.495,6.718-7.937,11.601-6.716c5.495,1.832,7.327,7.327,6.106,12.821c-1.223,3.664-4.275,5.496-7.059,7.266
				c0.261,0.504,0.488,1,0.644,1.458C139.586,36.546,139.572,37.335,139.148,37.778z"/>
			<path fill="none" stroke="#000000" stroke-width="0.8138" d="M138.1,40.209c-0.846,0.888-3.001,0.057-4.814-1.856
				c-1.587-1.673-2.383-3.618-1.992-4.673c1.097,0.095,2.031,0.145,3.468,0.204c3.593,0.35,6.036-1.482,8.479-3.925
				c-1.222,3.053-4.275,2.443-6.224,3.993c-0.615,0.205-0.897,0.352-1.36,0.525c0.235,0.204,0.467,0.425,0.694,0.665
				C138.164,37.053,138.946,39.323,138.1,40.209z"/>
			<path fill="none" stroke="#000000" stroke-width="0.8138" d="M137.053,42.642c-0.844,0.885-3.001,0.054-4.812-1.857
				c-1.813-1.911-2.597-4.182-1.751-5.068c0.848-0.888,3.003-0.057,4.816,1.856C137.116,39.486,137.901,41.755,137.053,42.642z"/>
			<path fill="none" stroke="#000000" stroke-width="0.8138" d="M136.007,45.072c-0.846,0.886-3.001,0.057-4.816-1.856
				c-1.811-1.913-2.595-4.181-1.747-5.068c0.846-0.886,3.001-0.055,4.814,1.856C136.071,41.917,136.855,44.187,136.007,45.072z"/>
			<path fill="none" stroke="#000000" stroke-width="0.8138" d="M134.96,47.503c-0.844,0.888-3.001,0.056-4.814-1.855
				c-1.811-1.915-2.595-4.183-1.749-5.069c0.846-0.887,3.003-0.056,4.814,1.855C135.023,44.35,135.808,46.617,134.96,47.503z"/>
			<path fill="none" stroke="#000000" stroke-width="0.8138" d="M133.912,49.935c-0.846,0.887-3.001,0.056-4.812-1.857
				c-1.813-1.911-2.597-4.18-1.751-5.067c0.848-0.887,3.003-0.057,4.814,1.856C133.978,46.78,134.76,49.048,133.912,49.935z"/>
			<path fill="none" stroke="#000000" stroke-width="0.8138" d="M132.867,52.367c-0.846,0.885-3.003,0.057-4.814-1.857
				c-1.813-1.911-2.597-4.18-1.749-5.068c0.846-0.885,3.001-0.055,4.812,1.856C132.93,49.211,133.712,51.48,132.867,52.367z"/>
			<path fill="none" stroke="#000000" stroke-width="0.8138" d="M131.821,54.798c-0.848,0.888-3.003,0.056-4.818-1.857
				c-1.809-1.911-2.595-4.181-1.749-5.066c0.848-0.888,3.005-0.057,4.816,1.856C131.883,51.642,132.665,53.912,131.821,54.798z"/>
			<path fill="none" stroke="#000000" stroke-width="0.8138" d="M130.771,57.23c-0.844,0.885-3.001,0.054-4.814-1.857
				c-1.811-1.912-2.593-4.182-1.749-5.068c0.848-0.887,3.003-0.056,4.816,1.857C130.835,54.074,131.619,56.342,130.771,57.23z"/>
			<path fill="none" stroke="#000000" stroke-width="0.8138" d="M129.724,59.661c-0.844,0.886-3.001,0.055-4.812-1.856
				c-1.813-1.913-2.597-4.182-1.751-5.068c0.846-0.886,3.003-0.055,4.816,1.856C129.788,56.505,130.572,58.774,129.724,59.661z"/>
			<path fill="none" stroke="#000000" stroke-width="0.8138" d="M128.678,62.092c-0.846,0.888-3.001,0.057-4.814-1.856
				c-1.811-1.913-2.597-4.181-1.749-5.067c0.846-0.889,3.001-0.057,4.814,1.855C128.742,58.936,129.524,61.205,128.678,62.092z"/>
			<path fill="none" stroke="#000000" stroke-width="0.8138" d="M127.631,64.523c-0.844,0.888-3.001,0.056-4.814-1.857
				c-1.811-1.911-2.595-4.18-1.749-5.066c0.846-0.888,3.001-0.056,4.814,1.857C127.695,61.367,128.477,63.637,127.631,64.523z"/>
			<path fill="none" stroke="#000000" stroke-width="0.8138" d="M126.585,66.954c-0.848,0.887-3.001,0.056-4.814-1.856
				c-1.813-1.913-2.597-4.183-1.751-5.068c0.848-0.888,3.003-0.057,4.816,1.858C126.647,63.8,127.431,66.067,126.585,66.954z"/>
			<path fill="none" stroke="#000000" stroke-width="0.8138" d="M125.538,69.386c-0.846,0.887-3.003,0.055-4.814-1.857
				c-1.813-1.911-2.595-4.181-1.749-5.066c0.846-0.887,3.001-0.057,4.814,1.855C125.599,66.23,126.386,68.499,125.538,69.386z"/>
			<path fill="none" stroke="#000000" stroke-width="0.8138" d="M124.49,71.817c-0.846,0.887-3.003,0.056-4.814-1.855
				c-1.811-1.912-2.597-4.183-1.749-5.068c0.846-0.888,3.003-0.057,4.814,1.856C124.556,68.663,125.338,70.931,124.49,71.817z"/>
			<path fill="none" stroke="#000000" stroke-width="0.8138" d="M123.445,74.25c-0.846,0.885-3.005,0.054-4.814-1.858
				c-1.811-1.911-2.597-4.18-1.751-5.068c0.848-0.885,3.003-0.055,4.816,1.857C123.509,71.093,124.291,73.362,123.445,74.25z"/>
			<path fill="none" stroke="#000000" stroke-width="0.8138" d="M122.397,76.679c-0.846,0.888-3.001,0.058-4.814-1.855
				c-1.813-1.913-2.597-4.183-1.751-5.069c0.848-0.886,3.003-0.055,4.816,1.857C122.461,73.525,123.243,75.794,122.397,76.679z"/>
			<path fill="none" stroke="#000000" stroke-width="0.8138" d="M121.352,79.111c-0.848,0.887-3.003,0.056-4.816-1.857
				c-1.811-1.911-2.595-4.181-1.749-5.066c0.846-0.889,3.003-0.057,4.814,1.855C121.413,75.955,122.195,78.225,121.352,79.111z"/>
			<path fill="none" stroke="#000000" stroke-width="0.8138" d="M120.304,81.543c-0.846,0.887-3.001,0.055-4.816-1.858
				c-1.811-1.911-2.595-4.181-1.749-5.066c0.846-0.887,3.003-0.056,4.814,1.857C120.368,78.388,121.15,80.655,120.304,81.543z"/>
			<path fill="none" stroke="#000000" stroke-width="0.8138" d="M119.256,83.975c-0.846,0.887-3.001,0.054-4.814-1.857
				c-1.813-1.912-2.595-4.18-1.752-5.068c0.848-0.886,3.003-0.055,4.814,1.856C119.32,80.819,120.102,83.087,119.256,83.975z"/>
			<path fill="none" stroke="#000000" stroke-width="0.8138" d="M118.209,86.405c-0.846,0.888-3.001,0.056-4.814-1.856
				c-1.813-1.913-2.595-4.182-1.749-5.067c0.846-0.887,3.001-0.057,4.814,1.855C118.273,83.25,119.057,85.52,118.209,86.405z"/>
			<path fill="none" stroke="#000000" stroke-width="0.8138" d="M117.161,88.836c-0.844,0.887-3.001,0.058-4.812-1.857
				c-1.813-1.911-2.597-4.179-1.751-5.066c0.846-0.887,3.003-0.057,4.816,1.856C117.225,85.681,118.009,87.95,117.161,88.836z"/>
			<path fill="none" stroke="#000000" stroke-width="0.8028" d="M117.666,88.463c-0.5,1.112-2.875,1.309-5.31,0.441
				c-2.433-0.867-4.001-2.474-3.501-3.586c0.502-1.11,2.879-1.308,5.312-0.441C116.599,85.746,118.166,87.351,117.666,88.463z"/>
			<path fill="none" stroke="#000000" stroke-width="0.8028" d="M144.978,28.816c-0.517,1.143-1.128,2.365-2.348,2.976
				c5.497-5.496,4.275-15.875-3.663-17.707c-2.441-0.61-4.884,0-7.327,1.221c-1.22,0.611-1.832,1.221-2.443,2.442
				c-0.609,1.831-1.22,3.052-1.22,4.884c0.611,3.663,3.663,7.326,7.938,6.716c1.22,0,3.052-0.61,3.663-1.832
				c1.22-1.832,1.832-3.663,1.22-6.105c-0.609-1.221-1.22-1.832-1.832-2.442c1.832,1.831,3.052,3.663,2.443,6.106
				c-1.221,3.663-4.884,6.106-8.547,4.884c-4.275-1.831-7.327-7.326-4.886-11.601c1.22-2.441,3.052-4.884,6.106-4.884
				c1.22,0,3.052,0,4.273,0c1.834,0,3.054,1.221,4.886,2.442c1.832,1.832,2.443,3.663,3.052,6.106c0,1.221,0.611,3.053-0.405,4.439
				C145.643,27.361,145.312,28.157,144.978,28.816z"/>
		</g>
		<path fill="#ED1C24" stroke="#000000" stroke-width="2.3726" d="M163.487,19.488c-0.163-0.882-0.372-1.693-1.091-1.921
			c0.226-1.262-0.06-1.941-0.912-2.656c0.214-0.524-0.136-1.082-0.514-1.587c-0.41-0.542-0.852-1.021-1.305-1.379
			c-0.48-0.484-0.971-0.849-1.871-0.332c-0.119-1.143-0.648-1.406-1.492-1.498c-0.235-0.344-0.786-0.518-1.34-0.654
			c-0.626-0.153-1.255-0.26-1.918,0.19c-0.591-0.585-1.214-0.615-1.83-0.609c-0.601-0.008-1.194,0.021-1.768,0.068
			c-0.568,0.048-1.115,0.115-1.579,0.356c-0.14-0.022-0.276-0.032-0.408-0.034c-0.132-0.001-0.259,0.007-0.36,0.04
			c-0.268,0.009-0.498,0.066-0.535,0.398c-0.401-0.244-0.605-0.212-0.603,0.323c-0.389-0.461-0.572-0.418-0.65,0.185
			c-0.259-0.507-0.418-0.477-0.57,0.045c-0.132-0.458-0.257-0.427-0.432-0.033c-0.158-0.313-0.319-0.275-0.463-0.096
			c-0.004-0.237-0.097-0.377-0.416-0.204c0.132-0.468,0.058-0.58-0.362-0.236c0.253-0.588,0.156-0.717-0.44-0.394
			c0.403-0.622,0.307-0.789-0.426-0.587c0.504-0.542,0.368-0.714-0.294-0.744c0.405-0.34,0.278-0.537-0.097-0.738
			c0.095-0.198-0.058-0.399-0.222-0.606c-0.261-0.329-0.541-0.667-0.862-0.597c-0.286-0.748-0.609-1.089-1.544-0.638
			c0.243-1.12-0.124-1.448-1.099-1.637c0.2-0.44-0.208-0.741-0.64-1.019c-0.624-0.407-1.295-0.769-2.011-1.063
			c-0.358-0.147-0.727-0.276-1.095-0.376c-0.391-0.12-0.784-0.21-0.852,0.303c-0.737-0.647-1.15-0.691-1.7,0.278
			c-0.3-1.006-0.737-0.999-1.525-0.587c-0.107-0.342-0.564-0.278-1.037-0.182c-1.504,0.307-3.124,0.935-4.857,1.981
			c-0.434,0.261-0.873,0.548-1.056,0.883c-0.749,0.32-1.188,0.683-0.901,1.738c-1.087-0.289-1.445,0.116-1.731,0.912
			c-0.354,0.049-0.638,0.489-0.879,0.947c-0.494,0.916-0.84,1.9-1.06,2.933c-0.111,0.518-0.193,1.048-0.241,1.586
			c-0.052,0.543-0.076,1.094,0.597,1.512c-0.663,0.703-0.632,1.273-0.263,2.02c-0.128,0.202-0.175,0.449-0.175,0.719
			c0,0.27,0.045,0.563,0.226,0.605c-0.025,0.871,0.105,1.495,1.408,1.754c-1,0.997-0.827,1.626-0.288,2.487
			c-0.16,0.403,0.051,1.037,0.274,1.667c0.224,0.632,0.465,1.261,0.716,1.886c0.253,0.627,0.519,1.249,1.486,1.149
			c-0.416,1.333-0.132,1.943,0.852,2.684c-0.399,0.463-0.101,1.056,0.204,1.641c0.366,0.699,0.735,1.385,1.469,1.396
			c0.01,1.321,0.383,1.966,1.525,2.588c-0.403,0.623-0.037,1.223,0.319,1.798c0.418,0.668,0.825,1.299,1.225,1.815
			c0.375,0.662,0.741,1.206,1.735,1.189c-0.313,1.008,0,1.457,0.663,1.858c-0.103,0.378,0.142,0.714,0.344,0.986
			c0.405,0.545,0.642,0.844,0.648,0.841c0.002,0.006,0.724-0.121,1.949-0.395c0.305-0.068,0.642-0.146,0.875-0.325
			c0.498,0.005,0.891-0.091,0.928-0.829c0.799,0.527,1.243,0.412,1.752-0.429c0.418,0.592,0.903,0.459,1.406,0.314
			c0.842-0.24,1.729-0.506,2.653-0.801c0.461-0.146,0.934-0.301,1.325-0.547c0.562-0.075,1.046-0.246,1.459-0.754
			c0.566,0.158,1.058-0.024,1.556-0.214c0.494-0.19,0.994-0.387,1.379-0.649c0.615-0.147,1.115-0.359,1.243-1.245
			c0.875,0.445,1.373,0.219,1.922-0.366c0.442,0.116,0.936-0.127,1.422-0.376c0.488-0.25,0.971-0.507,1.449-0.772
			c0.477-0.264,0.947-0.539,1.395-0.82c0.473-0.28,0.924-0.57,0.628-1.335c1.181,0.174,1.613-0.132,1.863-1.281
			c0.587,0.523,0.992,0.205,1.385-0.135c0.389-0.32,0.768-0.656,1.126-1.001c0.36-0.344,0.704-0.699,1.029-1.06
			c0.325-0.361,0.63-0.732,0.889-1.101c0.315-0.389,0.582-0.775,0.136-1.287c0.934-0.278,1.155-0.682,0.885-1.61
			c0.333,0.051,0.541-0.029,0.648-0.159c0.181-0.171,0.259-0.392-0.105-0.474c0.51-0.348,0.582-0.556-0.128-0.701
			c0.831-0.286,0.885-0.507,0.072-0.934c0.928-0.133,0.982-0.473,0.568-1.19c0.49,0.024,0.508-0.327,0.51-0.686
			c0.004-0.353-0.01-0.713-0.041-1.079C163.606,20.235,163.557,19.864,163.487,19.488z"/>
		<path fill="#CC2029" d="M132.955,39.749l-1.041-3.297c0,0-0.646,0.509-1.081,0.083c-0.436-0.427-1.675-1.78-1.675-1.78
			s0.101-0.648,0.202-1.299c1.587,0.134,2.28-0.215,2.28-0.215s-0.513-0.203-1.183-0.477c-0.673-0.274-1.338-0.529-1.978-0.809
			c-0.541-0.1-1.083-0.203-1.083-0.203s0.002-0.212,0.006-0.528c0.502,0.223,0.794,0.261,1.743,0.741
			c4.326,2.879,11.044,1.657,14.096-2.617c-4.275,5.496-14.044,5.496-17.257-1.061c-0.764-1.264-1.167-2.046-1.167-2.046
			s0.204,0.292,1.078,1.748c2.081,3.802,5.744,5.023,9.407,5.023c-5.495,0.61-9.768-4.274-11.017-9.278
			c-0.652-0.357-1.305-0.712-1.305-0.712l-0.671-2.367l1.916-2.396l-2.464-1.555l-0.531-2.225l1.208-1.38l-1.389-2.072l1.196-2.387
			l2.663-0.102l0.111-2.736l4.306-1.199l1.97,2.353l1.492-1.672l2.449,0.116c0,0-2.544,4.346-2.684,4.635
			c-0.07,0.145-0.261,0.849-0.434,1.516c-0.043,0.167-0.224,0.396-0.558,0.712c-6.026,3.043-8.469,11.591-3.585,17.086
			c1.22,1.221,2.443,1.833,3.663,2.443c4.886,1.22,10.379-0.61,12.211-5.496c0.611-1.831,0.611-4.273-0.609-6.716
			c-1.222-1.831-3.052-3.053-4.886-3.663c-2.441,0-4.884-0.611-6.715,1.221c-1.22,1.22-1.832,2.442-2.443,4.274
			c-0.609,4.274,4.886,9.158,8.549,6.105c1.22-1.221,3.052-3.052,1.832-5.495c-0.611-1.222-2.443-1.832-3.663-2.443
			c-0.611,0-1.22,0.611-1.832,1.221c0.611-0.61,1.22-1.221,1.832-1.221c1.22,0,2.441,0.611,3.663,1.221
			c1.832,2.443,0.611,5.495-1.223,7.328c-1.22,1.22-3.661,1.22-5.493,0.61c-4.886-1.221-5.495-6.716-3.665-10.38
			c1.223-1.831,3.665-3.052,5.497-4.274c2.441-0.61,4.884,0,6.716,1.221c1.22,0.611,1.832,1.832,3.052,3.052
			c1.223,1.833,1.223,4.275,1.223,6.717c-0.611,4.884-4.886,7.937-8.986,8.857c-1.013,0.199-1.842,0.366-3.048,0.448
			c-0.231,0.309-0.461,0.616-0.461,0.616l0.587,0.858l2.311,0.838l2.144-1.175l1.175,2.001l2.445-0.026l-3.579,1.766l-1.311-1.568
			l-1.64,1.385l-1.665-0.916L132.955,39.749z"/>
		<path fill="#F05864" d="M148.979,11.724l3.674,0.463l0.873,0.709l1.867-0.452l0.751,2.87l2.214-1.391l1.029,2.003l0.016,1.439
			l0.301,1.149l1.307,0.993l-0.704,1.447l-2.431,1.61l1.451,0.991l-2.285,1.609l1.807,0.772l-1.058,1.809l0.792,0.208l-1.134,1.452
			l-1.377-0.919l-1.34,2.534l-2.303-0.118l0.239,2.227l-3.081,1.113l-1.216,0.518l-1.881-0.843l-0.414,1.732l-2.077,0.958
			l1.414-2.319c0,0,0.412-1.731,0.772-1.807c0.358-0.075,4.312-0.622,4.312-0.622l-0.743-2.151l4.943-1.855l-0.045-4.029l0.558-1.59
			l1.904-3.547l-2.589,0.173l-0.669-1.936c0,0-0.292-0.429-0.654-0.784c-0.364-0.356-1.095-1.355-1.383-1.208
			c-0.284,0.147-1.723,0.307-1.723,0.307l-1.815-1.492L148.979,11.724z"/>
		<path fill="#F5909D" d="M150.364,13.22l3.458,0.538l1.972,2.641l2.295-0.746l0.679,2.799l1.453,1.279l-3.207,2.699l1.017,0.996
			l-2.217,1.104l-0.023-1.87l2.632-2.836l-0.591-1.145c0,0-0.084-1.221-0.445-1.289c-0.36-0.068-2.375,0.098-2.375,0.098
			l-1.395-2.647l-1.809-0.915l-1.509,0.377l-1.087-0.78L150.364,13.22z"/>
	</g>
</g>
</svg>
