<?xml version="1.0" encoding="utf-8"?>
<!-- Generator: Adobe Illustrator 17.0.0, SVG Export Plug-In . SVG Version: 6.00 Build 0)  -->
<!DOCTYPE svg PUBLIC "-//W3C//DTD SVG 1.1//EN" "http://www.w3.org/Graphics/SVG/1.1/DTD/svg11.dtd">
<svg version="1.1" id="Layer_1" xmlns="http://www.w3.org/2000/svg" xmlns:xlink="http://www.w3.org/1999/xlink" x="0px" y="0px"
	 width="75.332px" height="28.771px" viewBox="0 0 75.332 28.771" enable-background="new 0 0 75.332 28.771" xml:space="preserve">
<g>
	<g>
		<g>
			<path fill="#ED1C24" stroke="#000000" stroke-width="3" stroke-linecap="round" stroke-linejoin="round" d="M3.269,12.228
				c0,0,2.797,1.286,9.402,5.112c6.604,3.826,8.564,9.016,16.807,9.61c8.241,0.593,11.001,0.283,16.594-0.264
				c5.59-0.543,18.092-13.437,20.784-14.038c2.691-0.602,2.495-1.766,2.495-1.766L3.269,12.228z"/>
			<path fill="#ED1C24" stroke="#000000" stroke-width="3" stroke-linecap="round" stroke-linejoin="round" d="M30.957,1.685
				l5.655,3.417L41.888,1.5c0,0,9.569,0.021,17.456,4.836c4.928,3.011,8.483,3.296,10.623,3.688
				c1.777,0.322,3.865,0.074,3.865,0.074s-10.431,4.441-19.736,4.264c-9.305-0.18-12.919,0.151-12.919,0.151l-3.884,1.702
				l-4.612-1.865c0,0-10.941,0.58-17.432,1.246C8.755,16.261,1.5,11.611,1.5,11.611s6.723-1.915,9.86-2.802
				c4.518-1.274,9.839-5.338,13.095-6.064C27.708,2.017,30.957,1.685,30.957,1.685z"/>
		</g>
		<path fill="#F7A8AF" d="M34.227,18.134l0.847,2.407c0,0,0.303-1.17,0.667-1.154c0.362,0.017,0.691,0.742,0.691,0.742l1.349-0.293
			l1.52-1.234l0.271,1.79l1.909-1.69l-0.061,1.183l3.486-1.736l0.395,1.794l2.409-2.02l-0.193,1.41l2.131-1.323l-0.169,0.938
			l1.961-0.384l-0.665,1.155l6.035-1.737l-5.583,2.349l-3.215,1.157c0,0,2.155-1.797,1.424-1.711
			c-0.734,0.083-4.219,1.818-4.219,1.818s0.803-1.499,0.43-1.281c-0.376,0.219-1.631,0.99-1.631,0.99l0.031-0.59l-1.718,0.396
			l0.43-1.283l-1.92,1.925c0,0,0.072-1.417-0.304-1.199c-0.374,0.22-1.278,1.246-1.278,1.246l-0.689-0.742
			c0,0-0.314,1.404-0.659,1.033c-0.345-0.369-1.024-1.349-1.024-1.349l-0.787,1.149l-1.102,0.186l-1.258-1.48l-0.207,1.648
			c0,0-2.675-2.253-2.578-1.775c0.097,0.479,0.519,1.682,0.519,1.682l-2.378-0.938c0,0,1.379,1.485,0.551,1.091
			c-0.83-0.393-3.822-1.238-3.822-1.238s1.756,1.263,0.794,1.1c-0.963-0.164-3.107-0.97-3.462-1.105
			c-0.357-0.134-2.593-1.54-2.593-1.54l4.184,1.256c0,0-0.684-0.86-0.319-0.844c0.361,0.017,3.468,0.988,3.468,0.988l0.034-0.708
			l2.156,0.572l-0.514-1.8l2.958,1.438l0.445-1.521l1.172,0.767L34.227,18.134z"/>
		<path fill="#FDFDFC" d="M34.542,19.571l0.41,1.163c0,0,0.147-0.566,0.32-0.559c0.179,0.008,0.335,0.358,0.335,0.358l0.653-0.141
			l0.734-0.594l0.133,0.862l0.921-0.817l-0.029,0.572l1.684-0.838l0.189,0.866l1.163-0.978l-0.09,0.682l1.029-0.639l-0.084,0.455
			l0.949-0.186l-0.323,0.559l2.915-0.841l-2.696,1.135l-1.554,0.558c0,0,1.041-0.866,0.687-0.826
			c-0.352,0.041-2.038,0.879-2.038,0.879s0.389-0.725,0.209-0.619c-0.183,0.108-0.787,0.481-0.787,0.481l0.014-0.286l-0.831,0.191
			l0.209-0.62l-0.928,0.929c0,0,0.036-0.684-0.146-0.577c-0.182,0.105-0.617,0.6-0.617,0.6l-0.333-0.358c0,0-0.153,0.679-0.321,0.5
			c-0.165-0.18-0.493-0.652-0.493-0.652l-0.381,0.556l-0.532,0.089l-0.607-0.713l-0.099,0.796c0,0-1.293-1.089-1.246-0.858
			c0.046,0.233,0.25,0.813,0.25,0.813l-1.149-0.452c0,0,0.668,0.716,0.268,0.526c-0.401-0.19-1.848-0.599-1.848-0.599
			s0.848,0.61,0.384,0.532c-0.464-0.079-1.499-0.468-1.673-0.535c-0.171-0.064-1.252-0.742-1.252-0.742l2.023,0.606
			c0,0-0.332-0.415-0.157-0.407c0.175,0.009,1.677,0.476,1.677,0.476l0.016-0.343l1.042,0.277l-0.249-0.87l1.432,0.695l0.213-0.733
			l0.566,0.368L34.542,19.571z"/>
	</g>
	<path fill="#EC6B7B" d="M55.983,11.638l5.658-0.814l-6.829,0.203l0.586-1.63l-3.904,1.427c0,0,1.367-1.835,0.781-1.427
		c-0.585,0.409-3.708,1.221-3.708,1.221l0.391-1.627l-2.537,1.627l0.196-1.833l-3.513,1.63l0.195-1.424l-1.561,1.627l-0.389-1.221
		l-1.171,1.221l-0.585-1.017l-0.781,1.017l-0.387-0.403l-0.979-1.021v1.221l-2.536-1.63l0.39,0.816l-4.293-1.427l0.976,1.427
		l-5.268-0.205l1.951,1.427l-4.292-0.611l0.586,0.814l-3.318-0.409l0.976,0.817l-1.325-0.081L19.3,11.23l-1.951,0.816l7.61,0.406
		l-0.586-0.611l4.098,0.409c0,0-1.757-0.611-0.977-0.611c0.781,0,4.098,0.814,4.098,0.814l-1.561-1.834l1.952,0.817v-1.02
		l1.561,1.425v-1.628l1.756,1.628l0.781-1.425l0.39,1.02h1.756l1.366-0.409c0,0-0.781,1.019-0.195,1.019
		c0.356,0,1.215-0.301,1.835-0.536c0.401-0.153,0.702-0.28,0.702-0.28h2.342l-1.756,0.816l4.628-0.894l0.641-0.124l0.975,0.611
		l-0.975,0.611l5.268-0.611l-3.512,1.221L55.983,11.638z"/>
</g>
</svg>
