<?xml version="1.0" encoding="utf-8"?>
<!-- Generator: Adobe Illustrator 17.0.0, SVG Export Plug-In . SVG Version: 6.00 Build 0)  -->
<!DOCTYPE svg PUBLIC "-//W3C//DTD SVG 1.1//EN" "http://www.w3.org/Graphics/SVG/1.1/DTD/svg11.dtd">
<svg version="1.1" id="Layer_1" xmlns="http://www.w3.org/2000/svg" xmlns:xlink="http://www.w3.org/1999/xlink" x="0px" y="0px"
	 width="156.943px" height="136.794px" viewBox="0 0 156.943 136.794" enable-background="new 0 0 156.943 136.794"
	 xml:space="preserve">
<g>
	<g>
		<path fill="#EC008C" stroke="#000000" stroke-width="3" d="M31.723,2.439c0-0.002,12.678,9.507,30.237,13.584
			c8.146,1.891,17.343,2.615,26.813,0.677c22.31-4.563,35.319-14.261,35.319-14.261s16.384,1.385,23.326,10.613
			c6.139,8.163,8.594,17.232,7.915,19.949c-0.679,2.717-5.433,5.433-8.15,6.792c-2.717,1.358-10.867,3.396-14.942,4.075
			c-4.075,0.679-4.756,1.358-8.829,0.679c-4.075-0.679-19.696,3.396-23.771,3.396s-12.904,1.358-20.375,1.358
			c-7.473,0-9.508-5.433-19.698-5.433c-10.187,0-12.904,1.358-22.412,1.358s-13.583-2.717-17.658-5.433
			c-4.075-2.717-11.546-4.754-16.3-8.15c-4.754-3.396,1.358-15.622,7.471-24.452C16.781-1.636,31.723,2.439,31.723,2.439z"/>
		<path fill="#EC008C" stroke="#000000" stroke-width="3" d="M58.21,14.664c0,0,30.562-16.98,45.506-9.508
			c14.942,7.47,20.375,15.62,20.375,24.449s-2.717,23.772-4.754,34.637c-2.038,10.868-4.075,25.808-3.396,37.356
			c0.679,11.546,4.754,19.018,6.113,24.45c1.358,5.433-5.433,5.433-5.433,5.433l-2.04,2.717l-6.79-4.075l-3.396,2.718L101,128.766
			l-6.112,5.432l-3.398-4.075l-4.075,4.075l-4.073-4.755l-4.756,4.075l-2.717-3.395l-5.433,4.075l-1.356-6.113l-4.075,5.432
			c0,0-6.794-4.754-4.754-25.808c2.035-21.054,16.979-65.201,14.26-77.425C71.794,18.06,58.21,14.664,58.21,14.664z"/>
	</g>
	<path fill="#B8006E" d="M67.842,15.115c0,0,12.272,6.312,11.571,15.427c-0.702,9.116-5.608,37.167-9.817,52.944
		c-4.207,15.778-5.96,24.893-5.96,31.556c0,6.662,1.402,10.519,1.402,10.519l6.312-5.61l1.402,5.961l3.857-3.857
		c0,0-6.312-25.594-0.702-50.84c5.612-25.245,11.923-36.114,7.364-45.931C78.711,15.466,67.842,15.115,67.842,15.115z"/>
	<g>
		
			<ellipse transform="matrix(0.9778 -0.2093 0.2093 0.9778 -2.1911 5.6454)" fill="#FFF200" stroke="#000000" cx="25.576" cy="13.175" rx="3.463" ry="3.346"/>
		<path fill="#FFF200" stroke="#000000" d="M21.494,13.868c1.982,0.963,2.638,2.728,1.465,3.943
			c-1.173,1.216-3.729,1.422-5.711,0.463c-1.982-0.961-2.636-2.725-1.465-3.943C16.956,13.116,19.514,12.909,21.494,13.868z"/>
		<path fill="#FFF200" stroke="#000000" d="M19.924,23.359c-2.352,0.91-4.818,0.645-5.503-0.592
			c-0.685-1.238,0.665-2.979,3.017-3.891c2.352-0.91,4.816-0.644,5.501,0.593C23.626,20.707,22.276,22.449,19.924,23.359z"/>
		<path fill="#FFF200" stroke="#000000" d="M24.995,25.877c-1.15,1.777-3.447,2.836-5.135,2.367
			c-1.686-0.472-2.118-2.294-0.969-4.071c1.148-1.777,3.447-2.836,5.133-2.366C25.709,22.279,26.143,24.1,24.995,25.877z"/>
		<path fill="#FFF200" stroke="#000000" d="M31.9,23.745c0.484,1.785-0.63,3.601-2.486,4.053c-1.86,0.454-3.758-0.626-4.244-2.412
			c-0.484-1.784,0.63-3.6,2.488-4.052C29.517,20.88,31.416,21.961,31.9,23.745z"/>
		<path fill="#FFF200" stroke="#000000" d="M35.718,18.797c1.992,0.949,2.667,2.707,1.509,3.929
			c-1.165,1.223-3.721,1.443-5.715,0.496c-1.992-0.95-2.667-2.708-1.507-3.931C31.167,18.07,33.725,17.848,35.718,18.797z"/>
		<path fill="#FFF200" stroke="#000000" d="M28.212,12.467c1.165-1.773,3.47-2.823,5.149-2.345c1.679,0.48,2.099,2.305,0.936,4.079
			c-1.163,1.774-3.468,2.823-5.149,2.343C27.469,16.066,27.049,14.24,28.212,12.467z"/>
		<path fill="#FFF200" stroke="#000000" d="M31.896,14.574c2.107-1.235,4.662-1.373,5.703-0.307
			c1.039,1.068,0.175,2.935-1.935,4.172c-2.107,1.236-4.662,1.373-5.701,0.305C28.922,17.677,29.786,15.81,31.896,14.574z"/>
		
			<ellipse transform="matrix(0.9778 -0.2093 0.2093 0.9778 -3.4322 5.9595)" fill="#FFFFFF" stroke="#000000" cx="26.437" cy="19.194" rx="5.486" ry="3.696"/>
	</g>
	<g>
		
			<ellipse transform="matrix(0.874 0.4859 -0.4859 0.874 24.7864 -66.5098)" fill="#FFF200" stroke="#000000" cx="140.66" cy="14.547" rx="2.749" ry="2.656"/>
		<path fill="#FFF200" stroke="#000000" d="M137.86,12.829c0.681,1.61,0.15,3.006-1.183,3.12c-1.338,0.114-2.974-1.097-3.655-2.705
			c-0.681-1.609-0.152-3.006,1.183-3.12C135.541,10.01,137.179,11.221,137.86,12.829z"/>
		<path fill="#FFF200" stroke="#000000" d="M131.964,17.68c-1.881-0.685-3.215-2.13-2.978-3.227c0.237-1.098,1.953-1.433,3.834-0.75
			c1.881,0.685,3.215,2.13,2.978,3.228S133.845,18.364,131.964,17.68z"/>
		<path fill="#FFF200" stroke="#000000" d="M133.678,21.832c-1.613,0.462-3.54-0.105-4.301-1.266
			c-0.762-1.163-0.07-2.478,1.546-2.939c1.613-0.461,3.54,0.105,4.301,1.266C135.985,20.056,135.294,21.371,133.678,21.832z"/>
		<path fill="#FFF200" stroke="#000000" d="M138.918,24.165c-0.642,1.319-2.256,1.822-3.602,1.124
			c-1.348-0.701-1.918-2.337-1.276-3.657c0.642-1.319,2.258-1.822,3.604-1.122C138.992,21.209,139.56,22.847,138.918,24.165z"/>
		<path fill="#FFF200" stroke="#000000" d="M143.785,23.202c0.694,1.608,0.179,3.01-1.153,3.135
			c-1.334,0.122-2.976-1.082-3.674-2.688c-0.694-1.608-0.179-3.013,1.155-3.134C141.445,20.392,143.088,21.596,143.785,23.202z"/>
		<path fill="#FFF200" stroke="#000000" d="M142.604,15.501c1.624-0.451,3.548,0.127,4.301,1.287
			c0.755,1.164,0.052,2.474-1.57,2.925c-1.622,0.454-3.546-0.124-4.299-1.288C140.283,17.262,140.984,15.954,142.604,15.501z"/>
		<path fill="#FFF200" stroke="#000000" d="M143.705,18.682c1.906,0.364,3.503,1.615,3.569,2.796
			c0.064,1.18-1.428,1.844-3.334,1.482c-1.906-0.362-3.503-1.614-3.567-2.796C140.307,18.984,141.799,18.319,143.705,18.682z"/>
		
			<ellipse transform="matrix(0.874 0.4858 -0.4858 0.874 26.418 -64.7188)" fill="#FFFFFF" stroke="#000000" cx="138.031" cy="18.592" rx="4.354" ry="2.932"/>
	</g>
	<path fill="#B8006E" d="M16.652,7.051c0,0-8.413,9.116-10.869,16.129c-2.453,7.012,2.105,7.362,6.312,9.115
		c4.207,1.754,14.726,9.115,17.881,9.817c3.155,0.702,17.883-0.701,23.843-0.701c5.96,0,14.376,0.701,14.376,0.701
		s-4.559-4.207-16.831-4.207c-12.27,0-15.777,0.701-26.296-5.26c-10.519-5.96-11.57-4.207-12.272-9.465
		C12.095,17.92,16.652,7.051,16.652,7.051z"/>
	<g>
		
			<ellipse transform="matrix(0.874 0.4859 -0.4859 0.874 21.8336 -26.3687)" fill="#FFF200" stroke="#000000" cx="61.77" cy="28.922" rx="2.749" ry="2.656"/>
		<path fill="#FFF200" stroke="#000000" d="M58.97,27.206c0.681,1.609,0.15,3.006-1.183,3.12c-1.338,0.114-2.972-1.097-3.655-2.706
			c-0.681-1.609-0.152-3.006,1.183-3.12C56.65,24.386,58.289,25.598,58.97,27.206z"/>
		<path fill="#FFF200" stroke="#000000" d="M53.073,32.056c-1.881-0.684-3.215-2.129-2.978-3.227
			c0.237-1.098,1.953-1.433,3.834-0.749c1.881,0.684,3.215,2.129,2.978,3.228C56.673,32.405,54.955,32.74,53.073,32.056z"/>
		<path fill="#FFF200" stroke="#000000" d="M54.79,36.209c-1.616,0.461-3.542-0.106-4.303-1.267
			c-0.762-1.163-0.07-2.478,1.546-2.939c1.616-0.461,3.54,0.105,4.301,1.267C57.095,34.432,56.403,35.747,54.79,36.209z"/>
		<path fill="#FFF200" stroke="#000000" d="M60.028,38.542c-0.642,1.319-2.256,1.822-3.602,1.123
			c-1.348-0.7-1.918-2.337-1.276-3.657c0.642-1.318,2.258-1.822,3.604-1.122C60.102,35.584,60.67,37.223,60.028,38.542z"/>
		<path fill="#FFF200" stroke="#000000" d="M64.895,37.579c0.694,1.607,0.179,3.01-1.152,3.134
			c-1.334,0.122-2.976-1.081-3.672-2.688c-0.696-1.607-0.181-3.012,1.152-3.134C62.555,34.767,64.197,35.971,64.895,37.579z"/>
		<path fill="#FFF200" stroke="#000000" d="M63.714,29.877c1.624-0.452,3.55,0.126,4.303,1.286c0.753,1.165,0.049,2.475-1.572,2.926
			c-1.622,0.454-3.546-0.125-4.299-1.287C61.392,31.638,62.094,30.33,63.714,29.877z"/>
		<path fill="#FFF200" stroke="#000000" d="M64.815,33.058c1.906,0.364,3.503,1.615,3.569,2.796c0.064,1.18-1.428,1.844-3.334,1.482
			c-1.906-0.362-3.503-1.614-3.567-2.795C61.417,33.36,62.909,32.695,64.815,33.058z"/>
		
			<ellipse transform="matrix(0.874 0.4859 -0.4859 0.874 23.4727 -24.5845)" fill="#FFFFFF" stroke="#000000" cx="59.142" cy="32.969" rx="4.353" ry="2.932"/>
	</g>
	<path fill="#B8006E" d="M117.983,11.259c0,0,8.063,5.61,8.765,13.323c0.7,7.714-0.702,17.181-0.702,17.181
		s10.869-1.403,16.479-3.857c5.61-2.454,10.167-5.61,10.167-5.61s-8.413,4.558-15.777,0c-7.364-4.559-6.662-12.622-10.869-16.83
		C121.84,11.259,117.983,11.259,117.983,11.259z"/>
	<path fill="#F281B3" d="M117.747,126.64c0,0-7.652-19.853-5.791-36.397c1.862-16.545,7.446-41.775,7.86-48.806
		c0.414-7.031,1.033-16.13-3.102-21.507C112.577,14.553,98.72,7.108,98.72,7.108s20.268,16.13,18.408,31.642
		c-1.861,15.51-10.344,46.945-10.55,56.871c-0.206,9.926,6.411,32.055,6.411,32.055l1.241-2.068L117.747,126.64z"/>
	<g>
		<ellipse fill="#FFF200" stroke="#000000" cx="106.502" cy="24.644" rx="3.465" ry="4.618"/>
		
			<ellipse transform="matrix(0.7326 -0.6806 0.6806 0.7326 8.4778 75.1019)" fill="#E3D200" stroke="#000000" cx="99.829" cy="26.76" rx="3.464" ry="4.619"/>
		
			<ellipse transform="matrix(0.2153 0.9765 -0.9765 0.2153 109.5637 -69.6097)" fill="#FFF200" stroke="#000000" cx="98.097" cy="33.372" rx="3.465" ry="4.619"/>
		
			<ellipse transform="matrix(0.81 0.5864 -0.5864 0.81 42.2973 -51.3914)" fill="#E3D200" stroke="#000000" cx="100.468" cy="39.587" rx="3.464" ry="4.618"/>
		
			<ellipse transform="matrix(0.9992 -0.0392 0.0392 0.9992 -1.5202 4.227)" fill="#FFF200" stroke="#000000" cx="107.012" cy="40.872" rx="3.464" ry="4.62"/>
		
			<ellipse transform="matrix(0.7275 -0.6862 0.6862 0.7275 4.966 87.5774)" fill="#E3D200" stroke="#000000" cx="112.724" cy="37.538" rx="3.464" ry="4.62"/>
		
			<ellipse transform="matrix(-0.8064 -0.5914 0.5914 -0.8064 186.6854 114.1161)" fill="#E3D200" stroke="#000000" cx="112.022" cy="26.5" rx="3.465" ry="4.62"/>
		
			<ellipse transform="matrix(-0.4155 -0.9096 0.9096 -0.4155 132.4617 148.1384)" fill="#FFF200" stroke="#000000" cx="113.827" cy="31.51" rx="3.465" ry="4.619"/>
		<ellipse fill="#FFFFFF" stroke="#000000" cx="106.084" cy="33.016" rx="5.486" ry="5.1"/>
	</g>
	<g>
		<ellipse fill="#D3C400" stroke="#000000" cx="85.461" cy="57.127" rx="2.237" ry="2.983"/>
		
			<ellipse transform="matrix(0.7324 -0.6809 0.6809 0.7324 -18.1114 70.9082)" fill="#FFF200" stroke="#000000" cx="81.152" cy="58.495" rx="2.237" ry="2.983"/>
		
			<ellipse transform="matrix(0.2152 0.9766 -0.9766 0.2152 124.1007 -28.9006)" fill="#D3C400" stroke="#000000" cx="80.032" cy="62.765" rx="2.238" ry="2.982"/>
		
			<ellipse transform="matrix(0.81 0.5864 -0.5864 0.81 54.6586 -35.1443)" fill="#FFF200" stroke="#000000" cx="81.564" cy="66.778" rx="2.237" ry="2.983"/>
		
			<ellipse transform="matrix(0.9992 -0.0393 0.0393 0.9992 -2.5918 3.4253)" fill="#D3C400" stroke="#000000" cx="85.79" cy="67.608" rx="2.238" ry="2.983"/>
		
			<ellipse transform="matrix(0.7274 -0.6862 0.6862 0.7274 -20.5238 79.2474)" fill="#FFF200" stroke="#000000" cx="89.479" cy="65.455" rx="2.238" ry="2.983"/>
		
			<ellipse transform="matrix(-0.8063 -0.5915 0.5915 -0.8063 126.3059 158.0134)" fill="#FFF200" stroke="#000000" cx="89.025" cy="58.326" rx="2.237" ry="2.984"/>
		
			<ellipse transform="matrix(-0.4153 -0.9097 0.9097 -0.4153 71.6466 169.1741)" fill="#D3C400" stroke="#000000" cx="90.192" cy="61.562" rx="2.238" ry="2.983"/>
		<ellipse fill="#FFFFFF" stroke="#000000" cx="85.191" cy="62.535" rx="3.543" ry="3.293"/>
	</g>
	<g>
		<ellipse fill="#FFF200" stroke="#000000" cx="105.281" cy="74.574" rx="2.237" ry="2.983"/>
		
			<ellipse transform="matrix(0.7326 -0.6806 0.6806 0.7326 -24.6905 89.032)" fill="#D7C800" stroke="#000000" cx="100.972" cy="75.941" rx="2.238" ry="2.982"/>
		
			<ellipse transform="matrix(0.2153 0.9766 -0.9766 0.2153 156.685 -34.5675)" fill="#FFF200" stroke="#000000" cx="99.852" cy="80.211" rx="2.237" ry="2.982"/>
		
			<ellipse transform="matrix(0.81 0.5864 -0.5864 0.81 68.6554 -43.4522)" fill="#D7C800" stroke="#000000" cx="101.384" cy="84.224" rx="2.237" ry="2.983"/>
		
			<ellipse transform="matrix(0.9992 -0.0391 0.0391 0.9992 -3.2449 4.1945)" fill="#FFF200" stroke="#000000" cx="105.61" cy="85.053" rx="2.237" ry="2.983"/>
		
			<ellipse transform="matrix(0.7275 -0.6861 0.6861 0.7275 -27.0948 97.5832)" fill="#D7C800" stroke="#000000" cx="109.298" cy="82.901" rx="2.238" ry="2.984"/>
		
			<ellipse transform="matrix(-0.8063 -0.5915 0.5915 -0.8063 151.7862 201.2499)" fill="#D7C800" stroke="#000000" cx="108.844" cy="75.773" rx="2.237" ry="2.984"/>
		
			<ellipse transform="matrix(-0.4153 -0.9097 0.9097 -0.4153 83.8261 211.8953)" fill="#FFF200" stroke="#000000" cx="110.011" cy="79.008" rx="2.238" ry="2.983"/>
		<ellipse fill="#FFFFFF" stroke="#000000" cx="105.01" cy="79.98" rx="3.543" ry="3.294"/>
	</g>
	<g>
		<path fill="#FFF200" stroke="#000000" d="M80.87,9.55c0.992,0.938,1.017,2.276,0.056,2.988c-0.961,0.71-2.546,0.525-3.536-0.413
			c-0.992-0.94-1.019-2.275-0.056-2.985C78.295,8.428,79.878,8.611,80.87,9.55z"/>
		<path fill="#FFF200" stroke="#000000" d="M76.957,12.287c1.599,0.041,2.735,0.886,2.538,1.886
			c-0.198,0.999-1.655,1.776-3.254,1.735c-1.599-0.041-2.735-0.886-2.538-1.886C73.901,13.022,75.358,12.246,76.957,12.287z"/>
		<path fill="#FFF200" stroke="#000000" d="M79.991,18.14c-1.037,1.128-2.636,1.608-3.571,1.075
			c-0.934-0.534-0.848-1.882,0.189-3.01c1.039-1.128,2.636-1.608,3.571-1.075C81.115,15.664,81.028,17.01,79.991,18.14z"/>
		<path fill="#FFF200" stroke="#000000" d="M84.109,18.28c0.051,1.316-0.891,2.515-2.105,2.68c-1.216,0.164-2.243-0.771-2.295-2.088
			c-0.051-1.315,0.889-2.514,2.105-2.679C83.029,16.031,84.058,16.965,84.109,18.28z"/>
		<path fill="#FFF200" stroke="#000000" d="M87.382,15.28c1.041,0.9,1.132,2.23,0.202,2.967c-0.932,0.739-2.531,0.607-3.573-0.294
			c-1.043-0.899-1.132-2.228-0.2-2.966C84.743,14.248,86.342,14.38,87.382,15.28z"/>
		<path fill="#FFF200" stroke="#000000" d="M87.612,11.458c1.601,0.031,2.746,0.868,2.556,1.867c-0.187,1-1.638,1.787-3.239,1.756
			c-1.603-0.033-2.748-0.87-2.558-1.869C84.56,12.211,86.009,11.426,87.612,11.458z"/>
		<path fill="#FFF200" stroke="#000000" d="M80.423,9.754c-0.039-1.317,0.912-2.513,2.124-2.669
			c1.216-0.158,2.235,0.782,2.276,2.101c0.043,1.316-0.908,2.512-2.124,2.668C81.485,12.011,80.467,11.071,80.423,9.754z"/>
		<path fill="#FFF200" stroke="#000000" d="M83.531,10.016c0.755-1.251,2.239-1.988,3.313-1.643c1.076,0.346,1.338,1.64,0.585,2.892
			c-0.755,1.252-2.239,1.989-3.314,1.643C83.039,12.562,82.778,11.268,83.531,10.016z"/>
		<path fill="#FFFFFF" stroke="#000000" d="M84.93,12.033c1.095,1.036,0.749,2.79-0.772,3.915c-1.523,1.126-3.645,1.199-4.74,0.163
			c-1.097-1.035-0.749-2.789,0.772-3.915C81.714,11.071,83.836,10.999,84.93,12.033z"/>
	</g>
	<g>
		<ellipse fill="#D3C400" stroke="#000000" cx="105.281" cy="111.389" rx="2.237" ry="2.983"/>
		
			<ellipse transform="matrix(0.7326 -0.6806 0.6806 0.7326 -49.7484 98.8758)" fill="#FFF200" stroke="#000000" cx="100.972" cy="112.756" rx="2.238" ry="2.982"/>
		
			<ellipse transform="matrix(0.2153 0.9766 -0.9766 0.2153 192.6367 -5.6783)" fill="#D3C400" stroke="#000000" cx="99.852" cy="117.026" rx="2.237" ry="2.982"/>
		
			<ellipse transform="matrix(0.81 0.5864 -0.5864 0.81 90.2451 -36.4572)" fill="#FFF200" stroke="#000000" cx="101.384" cy="121.039" rx="2.237" ry="2.983"/>
		
			<ellipse transform="matrix(0.9992 -0.0393 0.0393 0.9992 -4.7121 4.2486)" fill="#D3C400" stroke="#000000" cx="105.61" cy="121.869" rx="2.237" ry="2.983"/>
		
			<ellipse transform="matrix(0.7274 -0.6862 0.6862 0.7274 -52.3567 107.6434)" fill="#FFF200" stroke="#000000" cx="109.298" cy="119.716" rx="2.238" ry="2.983"/>
		
			<ellipse transform="matrix(-0.8064 -0.5914 0.5914 -0.8064 130.0362 267.7462)" fill="#FFF200" stroke="#000000" cx="108.844" cy="112.588" rx="2.237" ry="2.984"/>
		
			<ellipse transform="matrix(-0.4153 -0.9097 0.9097 -0.4153 50.3361 263.9993)" fill="#D3C400" stroke="#000000" cx="110.011" cy="115.823" rx="2.238" ry="2.983"/>
		<ellipse fill="#FFFFFF" stroke="#000000" cx="105.01" cy="116.795" rx="3.543" ry="3.294"/>
	</g>
	<g>
		<ellipse fill="#FFF200" stroke="#000000" cx="80.885" cy="92.645" rx="3.465" ry="4.619"/>
		
			<ellipse transform="matrix(0.7325 -0.6807 0.6807 0.7325 -44.6578 75.8614)" fill="#CCBE01" stroke="#000000" cx="74.212" cy="94.762" rx="3.464" ry="4.618"/>
		
			<ellipse transform="matrix(0.2151 0.9766 -0.9766 0.2151 155.8914 8.7874)" fill="#FFF200" stroke="#000000" cx="72.479" cy="101.374" rx="3.464" ry="4.62"/>
		
			<ellipse transform="matrix(0.81 0.5865 -0.5865 0.81 77.3227 -23.4528)" fill="#CCBE01" stroke="#000000" cx="74.851" cy="107.589" rx="3.465" ry="4.62"/>
		
			<ellipse transform="matrix(0.9992 -0.0392 0.0392 0.9992 -4.206 3.275)" fill="#FFF200" stroke="#000000" cx="81.395" cy="108.874" rx="3.464" ry="4.619"/>
		<path fill="#CCBE01" stroke="#000000" d="M89.625,103.161c1.749,1.857,2.042,4.425,0.652,5.738
			c-1.393,1.313-3.941,0.873-5.693-0.983c-1.749-1.855-2.042-4.424-0.648-5.737C85.328,100.867,87.876,101.306,89.625,103.161z"/>
		
			<ellipse transform="matrix(-0.8062 -0.5916 0.5916 -0.8062 100.1576 221.8085)" fill="#CCBE01" stroke="#000000" cx="86.404" cy="94.502" rx="3.464" ry="4.621"/>
		
			<ellipse transform="matrix(-0.4152 -0.9097 0.9097 -0.4152 34.3054 221.0753)" fill="#FFF200" stroke="#000000" cx="88.209" cy="99.511" rx="3.465" ry="4.62"/>
		<ellipse fill="#FFFFFF" stroke="#000000" cx="80.466" cy="101.017" rx="5.485" ry="5.1"/>
	</g>
	<g>
		<polygon points="106.872,50.091 107.655,49.385 116.511,59.19 115.729,59.898 106.872,50.091 		"/>
		<polygon points="103.71,51.359 104.49,50.649 114.297,61.404 113.517,62.113 103.71,51.359 		"/>
		<polygon points="100.538,52.927 101.337,52.239 111.281,63.811 110.483,64.495 100.538,52.927 		"/>
		<polygon points="100.497,58.108 111.347,48.708 112.038,49.504 101.187,58.904 100.497,58.108 		"/>
		<polygon points="102.994,60.757 113.548,50.935 114.264,51.706 103.713,61.529 102.994,60.757 		"/>
		<polygon points="105.864,63.156 114.795,54.112 115.546,54.853 106.614,63.896 105.864,63.156 		"/>
	</g>
	<g>
		<polygon points="37.222,28.097 38.003,27.388 46.86,37.197 46.079,37.903 37.222,28.097 		"/>
		<polygon points="34.059,29.363 34.838,28.652 44.646,39.408 43.865,40.116 34.059,29.363 		"/>
		<polygon points="30.885,30.932 31.686,30.246 41.631,41.815 40.831,42.503 30.885,30.932 		"/>
		<polygon points="30.845,36.113 41.696,26.713 42.387,27.51 31.536,36.909 30.845,36.113 		"/>
		<polygon points="33.342,38.764 43.896,28.938 44.613,29.71 34.062,39.534 33.342,38.764 		"/>
		<polygon points="36.213,41.162 45.147,32.118 45.897,32.856 36.963,41.902 36.213,41.162 		"/>
	</g>
	<g>
		<polygon points="75.307,75.369 76.087,74.662 81.482,80.636 80.701,81.343 75.307,75.369 		"/>
		<polygon points="73.382,76.142 74.159,75.433 80.131,81.983 79.352,82.692 73.382,76.142 		"/>
		<polygon points="71.444,77.092 72.244,76.408 78.299,83.453 77.501,84.14 71.444,77.092 		"/>
		<polygon points="71.441,79.959 78.048,74.234 78.74,75.03 72.131,80.754 71.441,79.959 		"/>
		<polygon points="72.954,81.577 79.383,75.595 80.1,76.365 73.673,82.348 72.954,81.577 		"/>
		<polygon points="74.697,83.045 80.138,77.535 80.887,78.275 75.447,83.783 74.697,83.045 		"/>
	</g>
	<g>
		<polygon points="85.194,115.141 86.037,114.508 92.374,122.958 91.532,123.591 85.194,115.141 		"/>
		<polygon points="82.93,116.232 83.771,115.595 90.789,124.863 89.948,125.5 82.93,116.232 		"/>
		<polygon points="80.661,117.583 81.518,116.97 88.631,126.941 87.776,127.553 80.661,117.583 		"/>
		<polygon points="80.638,122.016 88.405,113.914 89.165,114.645 81.399,122.745 80.638,122.016 		"/>
		<polygon points="82.423,124.302 89.976,115.837 90.763,116.538 83.209,125.003 82.423,124.302 		"/>
		<polygon points="84.473,126.37 90.867,118.578 91.68,119.245 85.287,127.038 84.473,126.37 		"/>
	</g>
</g>
</svg>
