<?xml version="1.0" encoding="utf-8"?>
<!-- Generator: Adobe Illustrator 17.0.0, SVG Export Plug-In . SVG Version: 6.00 Build 0)  -->
<!DOCTYPE svg PUBLIC "-//W3C//DTD SVG 1.1//EN" "http://www.w3.org/Graphics/SVG/1.1/DTD/svg11.dtd">
<svg version="1.1" id="Layer_1" xmlns="http://www.w3.org/2000/svg" xmlns:xlink="http://www.w3.org/1999/xlink" x="0px" y="0px"
	 width="92.919px" height="50.367px" viewBox="0 0 92.919 50.367" enable-background="new 0 0 92.919 50.367" xml:space="preserve">
<g>
	<path fill="#FDE980" stroke="#000000" stroke-width="3" d="M44.416,21.012c0,0-1.35-8.641-2.651-10.609
		c-1.303-1.97-3.626-3.954-4.974-4.642c-1.346-0.688-3.219-1.369-4.258-1.084c-1.039,0.283-0.718,0.935-3.093,0.211
		c-2.373-0.724-3.721-1.413-4.725-2.089c-1.004-0.676-3.367-1.722-4.417-1.116c-1.052,0.604-1.815,2.82-3.527,2.76
		c-1.71-0.06,2.091-0.888-1.71-0.06c-3.801,0.827-4.188,2.096-4.188,2.096s0.63,1.625-2.464,1.836
		C5.314,8.526,3.557,9.746,4.197,11.05c0.64,1.305,1.953,2.953,0.914,3.237c-1.037,0.285-3.546,3.401-3.591,4.682
		c-0.045,1.28,2.99,2.669,1.554,4.542c-1.436,1.872-1.527,4.433-1.572,5.713c-0.043,1.281,2.375,0.725,2.616,3.618
		c0.241,2.893-0.523,5.109,1.167,5.81c1.69,0.7,2.031,0.712,3.015,2.028c0.982,1.317,1.62,2.621,2.614,3.618
		c0.994,0.997,5.135,0.181,6.46,1.509c1.325,1.329,7.741,4.119,11.221,2.638c3.48-1.48,7.932-1.323,7.337-3.908
		c-0.595-2.585,2.132-3.358,2.85-4.295c0.718-0.935,2.595-2.709,2.651-4.311C41.489,34.332,44.416,21.012,44.416,21.012z"/>
	<circle fill="#EC008C" stroke="#000000" stroke-width="3" cx="27.609" cy="26.844" r="16.442"/>
	<path fill="#EC008C" stroke="#000000" stroke-width="3" d="M92.398,38.278L37.57,17.954c-0.945-0.515-3.219-1.193-3.219-1.193
		s-1.453-0.188-2.206-0.188c-6.255,0-11.324,5.07-11.324,11.325c0,6.254,5.069,11.325,11.324,11.325c0.284,0,0.562-0.014,0.84-0.034
		L92.398,38.278z"/>
	<path fill="#F5A0C5" d="M78.897,35.011L33.38,18.242c0,0-3.268-0.436-5.228,1.089c-1.959,1.525-3.048,2.831-3.048,2.831
		L78.897,35.011z"/>
	<g>
		<path fill="#CD007A" d="M26.105,30.217h0.002c-0.58-0.066-0.995-0.587-0.931-1.166l0,0c0.064-0.578,0.586-0.995,1.166-0.929l0,0
			c0.022,0.002,0.06,0.005,0.107,0.005l0,0c0.609,0.037,1.957-0.612,3.141-0.899l0,0c1.379-0.3,2.676-0.695,4.004-1.177l0,0
			c1.323-0.48,2.588-0.949,3.631-1.613l0,0c0.491-0.313,1.141-0.166,1.453,0.322l0,0c0.313,0.491,0.167,1.142-0.322,1.456l0,0
			c-1.309,0.828-2.722,1.332-4.044,1.817l0,0c-1.395,0.506-2.79,0.931-4.278,1.255l0,0c-0.749,0.127-2.123,0.907-3.585,0.947l0,0
			C26.344,30.235,26.229,30.231,26.105,30.217L26.105,30.217z"/>
		<path fill="#CD007A" d="M25.143,34.34c-0.18-0.555,0.122-1.149,0.675-1.329l0,0c2.492-0.807,3.442-0.709,5.688-1.382l0,0
			c2.138-0.625,4.227-0.875,5.957-1.627l0,0c1.858-0.798,3.736-1.586,5.627-2.327l0,0c0.723-0.27,1.59-0.634,1.873-0.91l0,0
			c0.434-0.389,1.099-0.351,1.487,0.083l0,0c0.387,0.434,0.351,1.099-0.083,1.487l0,0c-0.805,0.696-1.805,1.014-2.507,1.303l0,0
			c-1.863,0.728-3.716,1.507-5.565,2.301l0,0c-2.119,0.901-4.294,1.14-6.19,1.711l0,0c-2.529,0.741-3.428,0.638-5.633,1.364l0,0
			h0.002c-0.109,0.036-0.22,0.053-0.329,0.053l0,0C25.701,35.066,25.289,34.784,25.143,34.34L25.143,34.34z"/>
		<path fill="#CD007A" d="M35.316,35.467c-0.27-0.518-0.068-1.155,0.449-1.423l0,0c1.92-0.994,4.177-1.525,6.023-2.154l0,0
			c1.102-0.371,2.204-0.706,3.289-1.051l0,0c1.352-0.428,2.608-0.808,3.756-1.363l0,0c0.986-0.458,2.063-1.341,3.456-1.85l0,0
			c0.548-0.195,1.153,0.092,1.345,0.641l0,0c0.195,0.547-0.092,1.15-0.639,1.344l0,0c-0.93,0.318-1.975,1.139-3.247,1.765l0,0
			c-1.35,0.65-2.706,1.051-4.035,1.473l0,0c-1.097,0.349-2.188,0.682-3.251,1.04l0,0c-1.972,0.659-4.144,1.194-5.725,2.024l0,0
			v0.002c-0.155,0.081-0.322,0.119-0.486,0.119l0,0C35.871,36.034,35.503,35.828,35.316,35.467L35.316,35.467z"/>
		<path fill="#CD007A" d="M43.948,35.928c-0.087-0.575,0.308-1.114,0.883-1.199l0,0c3.453-0.523,6.721-1.874,9.952-3.267l0,0
			c1.367-0.558,2.856-1.035,3.394-1.689l0,0c0.389-0.433,1.055-0.468,1.487-0.079l0,0c0.433,0.389,0.468,1.055,0.079,1.487l0,0
			c-1.234,1.32-2.987,1.696-4.127,2.219l0,0c-3.247,1.393-6.68,2.834-10.467,3.412l0,0c-0.054,0.008-0.108,0.012-0.16,0.012l0,0
			C44.475,36.823,44.028,36.45,43.948,35.928L43.948,35.928z"/>
		<path fill="#CD007A" d="M51.999,36.063c-0.004-0.582,0.464-1.057,1.047-1.061l0,0c1.028,0,2.136-0.439,3.276-0.923l0,0
			c1.495-0.624,3.032-1.121,4.266-1.787l0,0c0.905-0.486,1.849-1.11,2.728-1.695l0,0c0.484-0.323,1.137-0.193,1.46,0.292l0,0
			c0.323,0.484,0.193,1.137-0.29,1.46l0,0c-0.884,0.589-1.875,1.248-2.902,1.8l0,0c-1.475,0.787-3.071,1.292-4.446,1.872l0,0
			c-1.139,0.473-2.492,1.071-4.077,1.088l0,0c-0.003,0-0.006,0-0.008,0l0,0C52.473,37.109,52.003,36.643,51.999,36.063
			L51.999,36.063z"/>
		<path fill="#CD007A" d="M58.285,37.414v0.002c-0.565-0.143-0.906-0.717-0.762-1.282l0,0c0.143-0.563,0.714-0.906,1.279-0.763l0,0
			c0.176,0.046,0.387,0.07,0.623,0.07l0,0c1.359,0.022,3.419-0.901,4.746-1.517l0,0c0.795-0.352,1.683-0.734,2.08-1.095l0,0
			c0.004,0.002,0.056-0.07,0.231-0.29l0,0c0.16-0.211,0.564-0.55,1.046-0.629l0,0c0.571-0.112,1.123,0.26,1.235,0.831l0,0
			c0.105,0.528-0.208,1.043-0.708,1.205l0,0c-0.065,0.089-0.193,0.269-0.418,0.471l0,0c-0.838,0.715-1.865,1.086-2.596,1.427l0,0
			c-1.335,0.585-3.488,1.683-5.614,1.705l0,0C59.047,37.548,58.664,37.511,58.285,37.414L58.285,37.414z"/>
		<path fill="#CD007A" d="M34.286,36.439c-2.081-0.233-3.827-1.781-5.012-2.528l0,0c-1.45-0.992-2.589-2.263-3.719-2.674l0,0
			c-0.543-0.21-0.811-0.819-0.601-1.362l0,0c0.209-0.543,0.82-0.813,1.363-0.603l0,0c1.8,0.73,2.989,2.162,4.12,2.881l0,0
			c1.264,0.876,3.001,2.142,4.037,2.19l0,0c0.58,0.05,1.007,0.563,0.955,1.144l0,0c-0.049,0.546-0.509,0.957-1.047,0.957l0,0
			C34.351,36.443,34.318,36.442,34.286,36.439L34.286,36.439z"/>
		<path fill="#CD007A" d="M43.867,36.913c-0.934-0.391-1.77-0.698-2.75-1.516l0,0c-1.345-1.125-2.52-2.37-3.772-3.27l0,0
			c-1.338-0.969-2.605-1.974-3.873-3.004l0,0c-0.77-0.627-1.515-1.281-2.235-1.928l0,0c-0.745-0.68-1.811-1.285-2.769-2.167l0,0
			h0.002c-0.426-0.397-0.45-1.064-0.052-1.489l0,0c0.397-0.425,1.063-0.448,1.489-0.051l0,0c0.693,0.658,1.754,1.264,2.739,2.138
			l0,0c0.708,0.636,1.427,1.268,2.156,1.86l0,0c1.254,1.02,2.491,2.002,3.779,2.932l0,0c1.467,1.066,2.671,2.351,3.886,3.358l0,0
			c0.735,0.605,1.196,0.763,2.218,1.193l0,0c0.535,0.224,0.789,0.842,0.564,1.379l0,0c-0.171,0.403-0.562,0.645-0.974,0.645l0,0
			C44.138,36.994,44,36.968,43.867,36.913L43.867,36.913z"/>
		<path fill="#CD007A" d="M52.101,37.046c-0.562-0.327-1.403-0.513-2.315-1.078l0,0c-0.933-0.588-1.827-1.198-2.705-1.789l0,0
			c-1.403-0.944-2.925-2.013-4.237-3.185l0,0c-0.55-0.491-1.178-0.95-1.819-1.482l0,0c-1.205-1.073-1.95-2.446-2.687-2.751l0,0
			c-0.521-0.259-0.732-0.893-0.47-1.413l0,0c0.259-0.52,0.893-0.731,1.414-0.472l0,0c1.604,0.87,2.325,2.448,3.091,3.017l0,0
			c0.568,0.474,1.22,0.946,1.874,1.53l0,0c1.183,1.056,2.636,2.086,4.009,3.008l0,0c0.889,0.597,1.767,1.196,2.654,1.758l0,0
			c0.5,0.333,1.297,0.522,2.217,1.016l0,0c0.507,0.284,0.692,0.925,0.409,1.434l0,0c-0.194,0.347-0.553,0.542-0.922,0.542l0,0
			C52.438,37.179,52.262,37.137,52.101,37.046L52.101,37.046z"/>
		<path fill="#CD007A" d="M58.817,37.474c-1.278-0.654-2.999-1.045-4.571-2.282l0,0c-2.929-2.368-5.068-5.292-8.037-6.986l0,0
			l0.003,0.002c-0.505-0.292-0.679-0.935-0.389-1.441l0,0c0.289-0.503,0.933-0.677,1.439-0.387l0,0
			c3.458,2.014,5.652,5.071,8.3,7.166l0,0c1.085,0.885,2.603,1.268,4.195,2.043l0,0c0.521,0.259,0.732,0.892,0.472,1.412l0,0
			c-0.184,0.37-0.556,0.583-0.943,0.583l0,0C59.129,37.585,58.968,37.549,58.817,37.474L58.817,37.474z"/>
		<path fill="#CD007A" d="M64.278,38.069c-0.947-0.044-1.657-0.484-2.45-0.908l0,0c-0.756-0.431-1.441-0.899-1.71-1.082l0,0
			c-1.232-0.834-2.399-1.873-3.337-2.985l0,0c-1.075-1.321-2.347-3.051-3.502-3.456l0,0l0.002,0.002
			c-0.542-0.211-0.813-0.82-0.604-1.363l0,0c0.209-0.543,0.82-0.813,1.362-0.603l0,0c2.089,0.853,3.345,2.909,4.353,4.06l0,0
			c0.797,0.948,1.838,1.878,2.908,2.601l0,0c0.383,0.263,1.673,1.125,2.519,1.477l0,0c0.154,0.069,0.281,0.11,0.362,0.132l0,0
			c0.394-0.171,0.871-0.088,1.183,0.244l0,0c0.399,0.422,0.38,1.088-0.042,1.489l0,0c-0.335,0.314-0.74,0.391-1.032,0.391l0,0
			C64.286,38.069,64.282,38.069,64.278,38.069L64.278,38.069z"/>
		<path fill="#CD007A" d="M68.42,37.687c-3.748-1.549-7.645-3.889-10.267-6.985l0,0h0.002c-0.376-0.444-0.321-1.11,0.123-1.484l0,0
			c0.444-0.376,1.11-0.319,1.485,0.126l0,0c2.278,2.709,5.931,4.948,9.459,6.396l0,0c0.538,0.22,0.795,0.836,0.573,1.374l0,0
			c-0.168,0.407-0.561,0.653-0.975,0.653l0,0C68.687,37.766,68.551,37.741,68.42,37.687L68.42,37.687z"/>
		<path fill="#CD007A" d="M68.611,35.42c-0.578-0.642-2.226-1.498-3.257-2.91l0,0c-0.336-0.475-0.224-1.132,0.252-1.469l0,0
			c0.475-0.334,1.131-0.222,1.467,0.253l0,0c0.565,0.851,2.041,1.664,3.053,2.663l0,0c0.402,0.418,0.391,1.085-0.027,1.489l0,0
			c-0.204,0.198-0.467,0.295-0.731,0.295l0,0C69.094,35.742,68.818,35.634,68.611,35.42L68.611,35.42z"/>
	</g>
	<path fill="#A90065" d="M34.601,40.432c0,0-8.053,4.796-16.076-1.179c-6.084-4.531-6.145-10.862-6.022-13.594
		c0.125-2.731,0.745-3.289,0.745-3.289s-1.303,13.779,10.739,17.565C32.154,42.504,34.601,40.432,34.601,40.432z"/>
	<path fill="#F5A0C5" d="M39.441,17.219c0,0-5.477-5.148-10.739-5.587c-7.446-0.621-11.482,4.097-11.482,4.097
		s7.448-4.035,12.104-2.979C33.979,13.805,39.441,17.219,39.441,17.219z"/>
	<path fill="#FFFFFF" d="M40.641,13.346c0,0-3.824-5.294-5.439-5.882c-1.62-0.588-2.649-0.294-4.118,0
		c-1.472,0.294-2.206-0.148-4.413-0.882c-2.206-0.735-3.824-1.911-4.413-2.059c-0.587-0.147-2.206,1.324-2.206,1.324
		s2.649,1.469,3.532,1.764c0.881,0.295,3.087,1.765,4.853,1.324c1.764-0.442,4.264-0.589,5.882,0.588
		C35.934,10.7,40.641,13.346,40.641,13.346z"/>
	<path fill="#FFFFFF" d="M17.408,7.317c-1.912-0.588-2.941-0.735-3.384-0.294c-0.44,0.441-0.294,1.47-1.029,1.765
		c-0.735,0.294,0.44,0.147-0.735,0.294c-1.177,0.147-3.824,0.882-3.824,0.882s1.323,0.442,2.206,0.735
		c0.881,0.294,1.029,1.618,1.912,0.588c0.881-1.03,1.029-1.764,2.206-1.764c1.175,0,1.027,0.147,2.204,0.147
		c1.177,0,1.618-0.147,2.06-0.294C19.466,9.229,17.408,7.317,17.408,7.317z"/>
	<path fill="#FFFFFF" d="M9.908,15.846c-1.472-0.147-2.647-0.147-3.237,0.441c-0.587,0.589-0.881,1.324-0.881,1.324l-1.029,0.588
		c0,0-0.442,0,0,0.735c0.44,0.735-1.472,2.352,1.175,1.029c2.647-1.323,2.354-0.588,2.647-1.323
		c0.294-0.736,0.589-1.471,0.589-1.471L9.908,15.846z"/>
	<path fill="#FFFFFF" d="M6.378,26.287c-1.029-0.735-2.06-0.735-2.206-0.147c-0.148,0.589-0.294,0.589-0.442,1.471
		c-0.146,0.882,0.737,1.03,1.177,1.323c0.442,0.294,0.735,3.382,1.029,0.588c0.294-2.794,0.294-2.794,0.294-2.794L6.378,26.287z"/>
	<path fill="#FFFFFF" d="M15.642,43.051c0,0-3.235-0.147-3.822-0.882c-0.589-0.735-0.883-2.206-2.649-3.53
		c-1.764-1.324-2.647-0.882-2.793-2.206C6.23,35.11,6.23,33.199,6.23,33.199s0.294,1.911,1.177,2.058
		c0.883,0.147,1.175,0,1.618,0.147c0.44,0.147,1.323,0.441,1.469,1.029c0.148,0.589,0,0.148,0.294,1.177
		c0.294,1.029,0.735,1.323,1.325,1.764c0.587,0.441,0.292,0.589,1.029,0.882c0.735,0.294,0.292-0.442,0.735,0.294
		c0.44,0.735,1.029,1.176,1.029,1.176L15.642,43.051z"/>
	<path fill="#CBBD6A" d="M19.906,44.816c0,0,4.264,2.059,5.736,2.059c1.469,0,1.912,0.147,2.352-0.148
		c0.442-0.294,0.442-0.588,1.177-0.588c0.735,0,2.499-0.441,2.499-0.441l1.472-0.735l0.294-1.177c0,0-4.264,1.618-7.205,1.618
		S19.906,44.816,19.906,44.816z"/>
	<path fill="#CBBD6A" d="M9.465,32.905c-0.735-0.588-1.469-1.324-1.469-1.324L7.553,31.14c0,0-0.883,0.882-0.146,1.323
		C8.142,32.905,9.465,32.905,9.465,32.905z"/>
	<path fill="#CBBD6A" d="M9.465,21.435c-0.589,1.47-0.883,3.235-0.735,3.676c0.146,0.441,0.735,2.941,0,1.323
		c-0.735-1.618-0.883-1.911-1.47-2.352c-0.591-0.442-0.591-0.294-1.177-1.03c-0.589-0.735-1.177-1.47-0.294-1.765
		c0.881-0.294,2.206-0.441,2.206-0.441L9.465,21.435z"/>
	<path fill="#CBBD6A" d="M14.613,12.464c-1.618,0-2.499,0.441-2.499,1.03c0,0.588-0.442,2.352-0.442,2.352
		C12.701,14.229,14.613,12.464,14.613,12.464z"/>
</g>
</svg>
