<?xml version="1.0" encoding="utf-8"?>
<!-- Generator: Adobe Illustrator 17.0.0, SVG Export Plug-In . SVG Version: 6.00 Build 0)  -->
<!DOCTYPE svg PUBLIC "-//W3C//DTD SVG 1.1//EN" "http://www.w3.org/Graphics/SVG/1.1/DTD/svg11.dtd">
<svg version="1.1" id="Layer_1" xmlns="http://www.w3.org/2000/svg" xmlns:xlink="http://www.w3.org/1999/xlink" x="0px" y="0px"
	 width="97.279px" height="52.639px" viewBox="0 0 97.279 52.639" enable-background="new 0 0 97.279 52.639" xml:space="preserve">
<g>
	<path fill="#EC008C" stroke="#000000" stroke-width="3" d="M46.474,21.948c0,0-1.415-9.055-2.78-11.119
		c-1.364-2.063-3.8-4.143-5.212-4.864c-1.412-0.721-3.374-1.435-4.462-1.137c-1.088,0.297-0.753,0.981-3.241,0.222
		c-2.488-0.759-3.9-1.481-4.952-2.189c-1.053-0.709-3.529-1.804-4.629-1.171c-1.101,0.634-1.901,2.956-3.695,2.893
		c-1.795-0.063,2.188-0.93-1.795-0.063c-3.982,0.867-4.388,2.196-4.388,2.196s0.659,1.703-2.582,1.925
		c-3.241,0.222-5.083,1.5-4.412,2.867c0.67,1.367,2.047,3.094,0.958,3.393c-1.088,0.297-3.718,3.564-3.765,4.905
		c-0.047,1.342,3.135,2.798,1.629,4.76c-1.507,1.962-1.601,4.646-1.648,5.988c-0.047,1.341,2.488,0.759,2.74,3.791
		c0.253,3.031-0.548,5.354,1.223,6.089c1.77,0.734,2.129,0.746,3.158,2.126c1.029,1.38,1.7,2.747,2.741,3.791
		c1.04,1.044,5.382,0.189,6.77,1.582c1.388,1.392,8.111,4.316,11.758,2.765c3.647-1.552,8.312-1.388,7.688-4.096
		c-0.623-2.709,2.234-3.519,2.988-4.501c0.752-0.981,2.721-2.84,2.779-4.517C43.406,35.907,46.474,21.948,46.474,21.948z"/>
	<g>
		<circle fill="#B59962" stroke="#000000" stroke-width="3" cx="28.86" cy="28.06" r="17.231"/>
		<path fill="#B59962" stroke="#000000" stroke-width="3" d="M96.757,40.041L39.299,18.743c-0.988-0.54-3.374-1.251-3.374-1.251
			s-1.521-0.197-2.311-0.197c-6.554,0-11.867,5.313-11.867,11.867c0,6.554,5.313,11.867,11.867,11.867
			c0.297,0,0.589-0.014,0.88-0.036L96.757,40.041z"/>
		<path fill="#D3BB90" d="M82.608,36.618l-47.7-17.573c0,0-3.424-0.457-5.478,1.141c-2.054,1.597-3.195,2.967-3.195,2.967
			L82.608,36.618z"/>
		<g>
			<path fill="#A3895B" d="M27.289,31.543h0.002c-0.58-0.065-0.995-0.589-0.93-1.166l0,0c0.067-0.578,0.589-0.993,1.166-0.928l0,0
				c0.035,0.004,0.074,0.006,0.119,0.006l0,0c0.658,0.037,2.072-0.645,3.301-0.943l0,0c1.445-0.316,2.808-0.729,4.202-1.235l0,0
				c1.385-0.504,2.716-0.995,3.815-1.696l0,0c0.491-0.313,1.142-0.169,1.454,0.323l0,0c0.313,0.491,0.168,1.142-0.323,1.456l0,0
				c-1.365,0.863-2.841,1.391-4.225,1.898l0,0c-1.463,0.532-2.921,0.975-4.474,1.313l0,0c-0.799,0.14-2.237,0.956-3.749,0.993l0,0
				C27.529,31.563,27.41,31.556,27.289,31.543L27.289,31.543z"/>
			<path fill="#A3895B" d="M26.326,35.898C26.145,35.346,26.446,34.75,27,34.57l0,0c2.603-0.842,3.597-0.741,5.96-1.449l0,0
				c2.235-0.652,4.424-0.914,6.248-1.707l0,0c1.949-0.838,3.913-1.663,5.893-2.438l0,0c0.758-0.284,1.672-0.665,1.979-0.962l0,0
				c0.433-0.39,1.1-0.351,1.487,0.082l0,0c0.388,0.433,0.351,1.1-0.082,1.488l0,0c-0.832,0.719-1.878,1.052-2.614,1.356l0,0
				c-1.949,0.762-3.894,1.579-5.832,2.41l0,0c-2.211,0.942-4.487,1.193-6.481,1.791l0,0c-2.642,0.775-3.586,0.669-5.904,1.431l0,0
				c-0.108,0.036-0.218,0.052-0.326,0.052l0,0C26.884,36.625,26.471,36.343,26.326,35.898L26.326,35.898z"/>
			<path fill="#A3895B" d="M36.982,37.071c-0.269-0.516-0.067-1.153,0.449-1.422l0,0c2.005-1.036,4.367-1.593,6.305-2.255l0,0
				c1.153-0.385,2.308-0.739,3.446-1.101l0,0c1.415-0.446,2.733-0.845,3.945-1.428l0,0c1.035-0.485,2.165-1.411,3.615-1.938l0,0
				c0.546-0.195,1.15,0.094,1.344,0.642l0,0c0.194,0.546-0.094,1.149-0.64,1.344l0,0c-0.986,0.336-2.083,1.196-3.405,1.851l0,0
				c-1.411,0.676-2.83,1.099-4.222,1.539l0,0c-1.151,0.366-2.295,0.715-3.409,1.09l0,0c-2.063,0.692-4.341,1.253-6.006,2.127l0,0
				c-0.155,0.081-0.321,0.119-0.485,0.119l0,0C37.538,37.638,37.17,37.432,36.982,37.071L36.982,37.071z"/>
			<path fill="#A3895B" d="M46.033,37.573c-0.089-0.575,0.308-1.113,0.882-1.2l0,0c3.627-0.551,7.054-1.967,10.442-3.427l0,0
				c1.427-0.584,2.993-1.08,3.575-1.781l0,0c0.388-0.434,1.052-0.468,1.486-0.08l0,0c0.432,0.389,0.468,1.054,0.08,1.488l0,0
				c-1.277,1.366-3.109,1.764-4.31,2.31l0,0c-3.401,1.462-6.993,2.97-10.956,3.573l0,0c-0.054,0.008-0.108,0.012-0.162,0.012l0,0
				C46.56,38.468,46.112,38.093,46.033,37.573L46.033,37.573z"/>
			<path fill="#A3895B" d="M54.47,37.72c-0.006-0.581,0.462-1.057,1.044-1.061l0,0c1.096-0.003,2.261-0.465,3.456-0.972l0,0
				c1.563-0.651,3.174-1.172,4.473-1.875l0,0c0.953-0.51,1.943-1.165,2.865-1.778l0,0c0.485-0.323,1.138-0.191,1.461,0.293l0,0
				c0.323,0.484,0.191,1.137-0.293,1.461l0,0c-0.926,0.616-1.964,1.306-3.036,1.882l0,0c-1.54,0.823-3.211,1.352-4.656,1.962l0,0
				c-1.194,0.495-2.605,1.116-4.254,1.136l0,0c-0.002,0-0.005,0-0.007,0l0,0C54.945,38.766,54.474,38.3,54.47,37.72L54.47,37.72z"/>
			<path fill="#A3895B" d="M61.019,39.088h0.002c-0.565-0.144-0.906-0.717-0.763-1.281l0,0c0.143-0.565,0.716-0.906,1.281-0.762l0,0
				c0.189,0.05,0.411,0.074,0.663,0.074l0,0c1.442,0.022,3.604-0.949,4.992-1.594l0,0c0.831-0.369,1.767-0.771,2.195-1.16l0,0
				c0.011-0.002,0.065-0.078,0.243-0.304l0,0c0.166-0.217,0.576-0.565,1.069-0.645l0,0c0.569-0.111,1.123,0.261,1.235,0.832l0,0
				c0.106,0.534-0.213,1.052-0.72,1.208l0,0c-0.065,0.087-0.199,0.283-0.442,0.501l0,0c-0.871,0.74-1.943,1.129-2.709,1.487l0,0
				c-1.398,0.614-3.654,1.761-5.862,1.783l0,0C61.809,39.227,61.412,39.188,61.019,39.088L61.019,39.088z"/>
			<path fill="#A3895B" d="M35.861,38.065c-2.154-0.24-3.984-1.856-5.23-2.643l0,0c-1.51-1.032-2.705-2.37-3.906-2.807l0,0
				c-0.543-0.212-0.811-0.822-0.599-1.365l0,0c0.21-0.543,0.82-0.811,1.362-0.599l0,0c1.871,0.755,3.114,2.254,4.308,3.013l0,0
				c1.321,0.915,3.14,2.247,4.254,2.303l0,0c0.58,0.052,1.006,0.562,0.954,1.144l0,0c-0.049,0.546-0.509,0.958-1.049,0.958l0,0
				C35.924,38.069,35.893,38.068,35.861,38.065L35.861,38.065z"/>
			<path fill="#A3895B" d="M45.919,38.563c-0.981-0.409-1.849-0.728-2.867-1.578l0,0c-1.408-1.176-2.642-2.482-3.958-3.43l0,0
				c-1.401-1.013-2.728-2.068-4.058-3.146l0,0c-0.806-0.656-1.585-1.343-2.341-2.021l0,0c-0.786-0.717-1.903-1.351-2.899-2.269l0,0
				c-0.426-0.396-0.451-1.063-0.052-1.49l0,0c0.396-0.426,1.063-0.448,1.49-0.052l0,0c0.732,0.697,1.845,1.332,2.871,2.243l0,0
				c0.74,0.669,1.496,1.33,2.261,1.953l0,0c1.316,1.068,2.611,2.096,3.962,3.073l0,0c1.533,1.113,2.793,2.459,4.07,3.516l0,0
				c0.775,0.639,1.267,0.81,2.334,1.258l0,0c0.537,0.223,0.788,0.84,0.565,1.377l0,0c-0.169,0.404-0.56,0.647-0.972,0.647l0,0
				C46.189,38.646,46.051,38.619,45.919,38.563L45.919,38.563z"/>
			<path fill="#A3895B" d="M54.551,38.708c-0.597-0.349-1.477-0.544-2.425-1.129l0,0c-0.976-0.616-1.912-1.257-2.831-1.875l0,0
				c-1.469-0.988-3.064-2.109-4.439-3.336l0,0c-0.575-0.514-1.233-0.995-1.903-1.55l0,0c-1.253-1.114-2.033-2.558-2.828-2.89l0,0
				c-0.52-0.26-0.731-0.895-0.47-1.415l0,0c0.26-0.52,0.893-0.731,1.413-0.471l0,0c1.662,0.897,2.419,2.547,3.234,3.154l0,0
				c0.596,0.499,1.279,0.993,1.96,1.6l0,0c1.244,1.112,2.77,2.191,4.209,3.158l0,0c0.93,0.627,1.851,1.255,2.781,1.845l0,0
				c0.535,0.353,1.372,0.553,2.324,1.067l0,0c0.509,0.281,0.692,0.923,0.41,1.432l0,0c-0.192,0.346-0.553,0.542-0.923,0.542l0,0
				C54.888,38.84,54.713,38.797,54.551,38.708L54.551,38.708z"/>
			<path fill="#A3895B" d="M61.588,39.155c-1.345-0.688-3.148-1.098-4.781-2.388l0,0c-3.062-2.475-5.303-5.54-8.429-7.323l0,0
				c-0.504-0.291-0.677-0.935-0.386-1.438l0,0c0.291-0.506,0.935-0.679,1.438-0.389l0,0c3.612,2.102,5.913,5.302,8.692,7.505l0,0
				c1.147,0.937,2.746,1.339,4.405,2.146l0,0c0.521,0.26,0.733,0.894,0.472,1.414l0,0c-0.184,0.369-0.557,0.583-0.944,0.583l0,0
				C61.899,39.265,61.739,39.23,61.588,39.155L61.588,39.155z"/>
			<path fill="#A3895B" d="M67.289,39.773c-0.968-0.044-1.717-0.502-2.544-0.944l0,0c-0.79-0.452-1.506-0.942-1.788-1.131l0,0
				c-1.287-0.873-2.506-1.96-3.486-3.122l0,0c-1.127-1.381-2.457-3.201-3.69-3.633l0,0h0.002c-0.544-0.21-0.814-0.82-0.603-1.363
				l0,0c0.208-0.543,0.818-0.812,1.36-0.603l0,0c2.169,0.885,3.482,3.033,4.541,4.241l0,0c0.84,0.999,1.935,1.975,3.058,2.735l0,0
				c0.276,0.187,0.951,0.645,1.652,1.046l0,0c0.534,0.33,1.163,0.582,1.401,0.651l0,0c0.397-0.179,0.881-0.098,1.198,0.237l0,0
				c0.399,0.421,0.383,1.089-0.041,1.489l0,0c-0.341,0.319-0.752,0.397-1.047,0.397l0,0C67.297,39.773,67.293,39.773,67.289,39.773
				L67.289,39.773z"/>
			<path fill="#A3895B" d="M71.649,39.375c-3.922-1.62-8.001-4.07-10.741-7.306l0,0h0.002c-0.378-0.443-0.321-1.108,0.125-1.483l0,0
				c0.442-0.378,1.107-0.322,1.485,0.124l0,0c2.396,2.849,6.229,5.199,9.931,6.717l0,0c0.538,0.221,0.794,0.836,0.573,1.374l0,0
				c-0.168,0.407-0.561,0.653-0.975,0.653l0,0C71.915,39.455,71.779,39.429,71.649,39.375L71.649,39.375z"/>
			<path fill="#A3895B" d="M71.866,37.013c-0.616-0.684-2.341-1.577-3.411-3.045l0,0h0.002c-0.336-0.476-0.224-1.132,0.252-1.468
				l0,0c0.475-0.334,1.133-0.221,1.467,0.254l0,0c0.602,0.901,2.155,1.757,3.203,2.795l0,0c0.406,0.417,0.393,1.084-0.024,1.49l0,0
				c-0.205,0.198-0.468,0.296-0.733,0.296l0,0C72.349,37.335,72.073,37.227,71.866,37.013L71.866,37.013z"/>
		</g>
		<path fill="#8C744D" d="M36.187,42.299c0,0-8.44,5.025-16.846-1.236c-6.375-4.748-6.44-11.383-6.31-14.245
			c0.13-2.862,0.781-3.447,0.781-3.447s-1.367,14.44,11.252,18.408C33.622,44.47,36.187,42.299,36.187,42.299z"/>
		<path fill="#D3BB90" d="M41.26,17.972c0,0-5.739-5.395-11.253-5.854c-7.805-0.65-12.033,4.293-12.033,4.293
			s7.806-4.228,12.684-3.122C35.537,14.395,41.26,17.972,41.26,17.972z"/>
	</g>
	<path fill="#F5A0C5" d="M42.518,13.915c0,0-4.007-5.548-5.702-6.164c-1.695-0.616-2.774-0.309-4.315,0
		c-1.542,0.309-2.312-0.154-4.623-0.925c-2.311-0.77-4.007-2.003-4.623-2.157c-0.616-0.154-2.312,1.387-2.312,1.387
		s2.774,1.54,3.698,1.849c0.925,0.308,3.236,1.849,5.086,1.387c1.849-0.462,4.47-0.616,6.164,0.617
		C37.586,11.141,42.518,13.915,42.518,13.915z"/>
	<path fill="#F5A0C5" d="M18.169,7.597c-2.003-0.617-3.082-0.77-3.544-0.309c-0.462,0.463-0.308,1.542-1.079,1.85
		c-0.771,0.308,0.462,0.154-0.771,0.308C11.542,9.6,8.768,10.37,8.768,10.37s1.387,0.463,2.311,0.771
		c0.925,0.308,1.079,1.695,2.004,0.616c0.925-1.079,1.079-1.849,2.312-1.849c1.233,0,1.079,0.154,2.312,0.154
		c1.233,0,1.695-0.154,2.157-0.309C20.326,9.6,18.169,7.597,18.169,7.597z"/>
	<path fill="#F5A0C5" d="M10.31,16.534c-1.542-0.154-2.774-0.154-3.391,0.463c-0.616,0.616-0.925,1.387-0.925,1.387L4.916,19
		c0,0-0.463,0,0,0.77c0.462,0.771-1.541,2.466,1.233,1.079c2.774-1.387,2.465-0.615,2.774-1.387
		c0.309-0.771,0.616-1.541,0.616-1.541L10.31,16.534z"/>
	<path fill="#F5A0C5" d="M6.611,27.476c-1.079-0.77-2.158-0.77-2.312-0.153c-0.154,0.616-0.308,0.616-0.462,1.541
		c-0.154,0.924,0.771,1.078,1.233,1.387c0.463,0.308,0.771,3.544,1.079,0.616c0.308-2.928,0.308-2.928,0.308-2.928L6.611,27.476z"/>
	<path fill="#F5A0C5" d="M16.32,45.044c0,0-3.39-0.154-4.007-0.925c-0.616-0.77-0.924-2.311-2.774-3.698
		c-1.849-1.387-2.774-0.925-2.928-2.312c-0.154-1.387-0.154-3.39-0.154-3.39s0.308,2.003,1.233,2.157
		c0.925,0.154,1.233,0,1.695,0.154c0.462,0.154,1.387,0.462,1.541,1.078c0.153,0.616,0.001,0.154,0.308,1.233
		c0.308,1.079,0.77,1.388,1.387,1.849c0.616,0.463,0.308,0.617,1.078,0.925c0.77,0.308,0.308-0.463,0.77,0.308
		c0.463,0.771,1.079,1.233,1.079,1.233L16.32,45.044z"/>
	<path fill="#A90065" d="M20.789,46.893c0,0,4.469,2.157,6.01,2.157c1.542,0,2.004,0.155,2.466-0.154
		c0.462-0.308,0.462-0.617,1.232-0.617c0.771,0,2.62-0.462,2.62-0.462l1.542-0.77l0.308-1.233c0,0-4.469,1.695-7.551,1.695
		C24.333,47.509,20.789,46.893,20.789,46.893z"/>
	<path fill="#A90065" d="M9.847,34.411c-0.77-0.617-1.54-1.387-1.54-1.387l-0.463-0.463c0,0-0.925,0.925-0.154,1.387
		C8.46,34.411,9.847,34.411,9.847,34.411z"/>
	<path fill="#A90065" d="M9.847,22.391c-0.616,1.541-0.925,3.391-0.77,3.852c0.154,0.463,0.77,3.082,0,1.387
		c-0.77-1.695-0.925-2.003-1.541-2.466c-0.617-0.463-0.617-0.308-1.233-1.079c-0.617-0.77-1.233-1.541-0.309-1.849
		c0.925-0.309,2.312-0.463,2.312-0.463L9.847,22.391z"/>
	<path fill="#A90065" d="M15.241,12.99c-1.695,0-2.619,0.462-2.619,1.078c0,0.617-0.463,2.466-0.463,2.466
		C13.237,14.839,15.241,12.99,15.241,12.99z"/>
</g>
</svg>
