<?xml version="1.0" encoding="utf-8"?>
<!-- Generator: Adobe Illustrator 17.0.0, SVG Export Plug-In . SVG Version: 6.00 Build 0)  -->
<!DOCTYPE svg PUBLIC "-//W3C//DTD SVG 1.1//EN" "http://www.w3.org/Graphics/SVG/1.1/DTD/svg11.dtd">
<svg version="1.1" id="Layer_1" xmlns="http://www.w3.org/2000/svg" xmlns:xlink="http://www.w3.org/1999/xlink" x="0px" y="0px"
	 width="197.352px" height="115.204px" viewBox="0 0 197.352 115.204" enable-background="new 0 0 197.352 115.204"
	 xml:space="preserve">
<g>
	<linearGradient id="SVGID_1_" gradientUnits="userSpaceOnUse" x1="2" y1="54.7112" x2="195.3524" y2="54.7112">
		<stop  offset="0" style="stop-color:#000000"/>
		<stop  offset="0.5275" style="stop-color:#424242"/>
		<stop  offset="1" style="stop-color:#000000"/>
	</linearGradient>
	<path fill="url(#SVGID_1_)" stroke="#000000" stroke-width="4" stroke-linecap="round" stroke-linejoin="round" d="M2,17.73
		c0,0,11.013,18.249,28.316,30.518c17.303,12.269,49.395,14.786,73.621,16.046c24.225,1.257,58.517-9.438,73.305-26.113
		C192.029,21.504,192.029,2,192.029,2s10.698,44.36-6.292,70.788c-16.99,26.428-46.879,32.719-65.441,33.034
		c-18.562,0.315-53.8,8.496-83.375-15.415C7.349,66.496,2,17.73,2,17.73z"/>
	<path fill="#BEC0C2" stroke="#000000" stroke-width="4" d="M84.134,112.675c-3.807-0.309-5.625-0.644-6.897-1.039l0,0
		c-0.08-0.031-0.16-0.06-0.239-0.089l0,0c-8.201-0.481-14.696-7.275-14.699-15.592l0,0V70.438
		c0.004-8.628,6.991-15.618,15.621-15.62l0,0l1.572,0.438l0.735,0.124c0.38,0.078,0.967,0.181,1.799,0.285l0,0
		c2.934,0.371,8.889,0.783,20.194,0.782l0,0c16.759,0.026,22.445-0.948,23.574-1.232l0,0l0.924-0.188l0.884-0.209
		c8.63,0.002,15.619,6.991,15.622,15.62l0,0v25.517c-0.003,8.339-6.535,15.148-14.766,15.595l0,0
		c-0.117,0.038-0.239,0.077-0.366,0.118l0,0c-0.845,0.241-1.975,0.466-3.797,0.689l0,0c-3.635,0.438-10.029,0.842-21.805,0.846l0,0
		C93.661,113.202,87.926,112.972,84.134,112.675L84.134,112.675z M81.959,104.273c2.929,0.374,8.956,0.785,20.531,0.782l0,0
		c8.907,0.001,14.602-0.24,18.167-0.524l0,0c2.648-0.206,4.133-0.455,4.804-0.598l0,0l1.181-0.157l0.961-0.35
		c4.126-0.007,7.468-3.346,7.475-7.471l0,0V70.438c-0.006-3.91-3.007-7.114-6.833-7.445l0,0c-0.874,0.259-2.112,0.477-4.308,0.758
		l0,0c-3.744,0.435-10.212,0.841-21.717,0.843l0,0c-17.303-0.03-22.468-0.85-24.911-1.555l0,0c-0.037-0.013-0.075-0.026-0.112-0.039
		l0,0c-3.786,0.369-6.744,3.555-6.75,7.438l0,0v25.517c0.007,4.124,3.242,7.66,7.368,7.668l0.839,0.076l0.764,0.152l1.001,0.185
		C80.78,104.105,81.288,104.19,81.959,104.273L81.959,104.273z"/>
	<path fill="#BEC0C2" stroke="#000000" stroke-width="4" d="M128.679,81.529c0,0,1.667-2.709,5.003-3.127
		c3.334-0.416,5.211-3.126,5.211-3.126s4.168,1.251,2.709,5.629c-1.458,4.377-2.501,1.875-5.21,3.126
		c-2.709,1.25-2.709,4.169-5.628,3.126C127.845,86.116,128.679,81.529,128.679,81.529z"/>
	<circle cx="84.839" cy="83.333" r="4.103"/>
	<circle cx="108.194" cy="84.419" r="4.103"/>
	<circle cx="53.396" cy="76.716" r="4.69"/>
</g>
</svg>
