<?xml version="1.0" encoding="utf-8"?>
<!-- Generator: Adobe Illustrator 17.0.0, SVG Export Plug-In . SVG Version: 6.00 Build 0)  -->
<!DOCTYPE svg PUBLIC "-//W3C//DTD SVG 1.1//EN" "http://www.w3.org/Graphics/SVG/1.1/DTD/svg11.dtd">
<svg version="1.1" id="Layer_1" xmlns="http://www.w3.org/2000/svg" xmlns:xlink="http://www.w3.org/1999/xlink" x="0px" y="0px"
	 width="83.059px" height="29.552px" viewBox="0 0 83.059 29.552" enable-background="new 0 0 83.059 29.552" xml:space="preserve">
<g>
	<path fill="#1A1A1A" stroke="#000000" stroke-width="3" d="M14.727,2.177c0,0,4.267,2.998,5.547,3.426
		c1.28,0.428,2.987,2.14,2.987,2.14s2.133-0.428,3.413,2.141c1.281,2.569,0.428,5.995,0.428,5.995s-1.281,1.284-2.987,2.998
		c-1.707,1.712-3.413,4.281-4.694,5.138c-1.28,0.856-2.56,2.568-2.56,2.568s-2.133,2.998-3.84,0.429
		c-1.707-2.569-1.707-4.282-3.413-4.282c-1.707,0-5.121-1.712-5.121-1.712s-1.281,0-2.134-2.57C1.5,15.879,1.5,13.738,1.5,13.738
		c1.707-1.712,2.987-1.712,3.84-4.281c0.854-2.569,0-0.429,0.854-2.569C7.047,4.746,7.9,3.033,7.9,3.033l1.707-1.285L14.727,2.177z"
		/>
	<path fill="#1A1A1A" stroke="#000000" stroke-width="3" d="M57.566,11.109c0-1.56,4.056-5.2,4.056-5.2s2.897,1.56,3.475,0
		c0.581-1.561,0.581-1.561,0.581-1.561l4.634-2.6l4.056,2.6l4.637,1.561c0,0,3.477-0.521,2.316,2.6
		c-1.158,3.12-1.738,7.28-1.738,7.28l-1.739,6.76c0,0-0.579,2.6-4.056,2.08c-3.477-0.52-7.532,1.56-10.429,0.52
		c-2.898-1.04,0.579,3.64-2.898-1.04c-3.477-4.68,0-2.08-3.477-4.68S57.566,11.109,57.566,11.109z"/>
	<path d="M9.072,8.668c-0.671,0.805-1.208,4.829-2.549,5.501c-1.341,0.671-2.549,0.671-2.549,1.208c0,0.537,2.415,2.415,4.159,3.086
		c1.744,0.671,2.147,0.537,3.22,1.073c1.073,0.537,3.757,1.476,3.891,2.013c0.134,0.537,0.268,1.476,0.268,1.476
		s6.843-6.44,6.306-6.172c-0.537,0.268-11.136,0.134-12.075-1.208C8.803,14.303,9.072,8.668,9.072,8.668z"/>
	<path fill="#666666" d="M21.549,14.974c0,0,4.562-2.281,2.817-3.22c-1.745-0.939-3.086-1.609-4.026-2.683
		c-0.939-1.073-1.744-2.549-3.488-2.818c-1.744-0.269-4.427-1.61-4.427-1.61l-1.208,0.402c0,0,1.744,0.939,2.012,1.342
		c0.268,0.402,0.135,1.744,1.476,1.744c1.341,0,2.817,0.67,2.817,0.67l0.805,2.013L21.549,14.974z"/>
	<polygon fill="#666666" points="16.719,10.412 15.646,10.009 14.036,10.144 13.499,12.022 17.122,12.022 19.268,13.632 	"/>
	<path fill="#666666" d="M70.117,4.777l3.354,2.415c0,0,1.744,0.939,2.28,0.939c0.537,0,2.684,0.134,2.684,0.134
		s-2.281,5.5-2.281,6.305c0,0.805,0.536,2.147,0,3.488c-0.536,1.341-1.073,2.951-1.073,2.951s-1.61-1.878-1.61-2.415
		c0-0.537,0.269-0.671,0.134-1.744c-0.134-1.073-0.537-2.147-0.134-3.354c0.402-1.208,1.208-2.549,0.267-2.683
		c-0.938-0.134-1.072,0.403-1.744-0.268c-0.67-0.671-1.208-1.878-1.878-1.878c-0.671,0-1.074-0.134-1.61-0.402
		c-0.536-0.269-1.208-0.94-1.208-0.94L70.117,4.777z"/>
	<path fill="#666666" d="M72.13,12.425c-0.671,0-1.477-0.805-1.477-0.805s-0.267-0.671-0.939-0.805
		c-0.669-0.134-1.341-0.134-1.341-0.134s1.744,2.146,2.013,2.683c0.267,0.537,0.805,0.805,1.072,1.208
		c0.268,0.403,0.671,1.878,0.805,0.805C72.399,14.303,72.13,12.425,72.13,12.425z"/>
	<path d="M61.799,9.473c-0.402,1.476-1.608,4.293-2.28,4.83c-0.671,0.537-1.476,0.805-1.476,1.342c0,0.537-1.476,0.805,0.135,1.61
		c1.608,0.805,3.354,1.341,3.354,2.012c0,0.67,0.67,1.342,0.805,2.012c0.134,0.67,0.67,1.342,1.073,1.208
		c0.402-0.134,1.61-0.134,2.549-0.269c0.939-0.134,3.22-0.134,3.756-0.134c0.537,0,2.685,0.134,2.685,0.134h1.475
		c0,0-2.818-2.415-3.22-2.415c-0.402,0-2.28,0.805-3.487,0.537c-1.208-0.269-2.415-0.403-2.818-0.94
		c-0.402-0.537-0.536,0.403-1.208-1.609c-0.67-2.013-0.267-2.684-0.402-3.086c-0.134-0.403,0.671,0.67-0.134-0.403
		C61.799,13.229,61.799,9.473,61.799,9.473z"/>
</g>
</svg>
