<?xml version="1.0" encoding="utf-8"?>
<!-- Generator: Adobe Illustrator 17.0.0, SVG Export Plug-In . SVG Version: 6.00 Build 0)  -->
<!DOCTYPE svg PUBLIC "-//W3C//DTD SVG 1.1//EN" "http://www.w3.org/Graphics/SVG/1.1/DTD/svg11.dtd">
<svg version="1.1" id="Layer_1" xmlns="http://www.w3.org/2000/svg" xmlns:xlink="http://www.w3.org/1999/xlink" x="0px" y="0px"
	 width="97.139px" height="47.194px" viewBox="0 0 97.139 47.194" enable-background="new 0 0 97.139 47.194" xml:space="preserve">
<g>
	
		<ellipse transform="matrix(0.9431 -0.3326 0.3326 0.9431 -6.6397 9.7903)" stroke="#000000" stroke-width="2" cx="25.276" cy="24.288" rx="22.643" ry="21.805"/>
	<path fill="#FFFFFF" d="M44.897,17.369c3.642,10.327-2.1,21.769-12.827,25.553C21.344,46.705,9.695,41.397,6.052,31.068
		C2.66,21.453,7.671,9.467,18.878,5.515C29.605,1.731,41.253,7.038,44.897,17.369z"/>
	<g>
		<path fill="#E1F3FA" d="M8.909,27.966c-1.998-5.666-1.063-11.678,2.016-16.48c-4.604,5.1-6.377,12.331-3.999,19.078
			c3.512,9.958,14.743,15.075,25.086,11.426c4.458-1.572,8.02-4.516,10.353-8.156c-2.193,2.432-5.029,4.384-8.369,5.562
			C23.655,43.045,12.421,37.926,8.909,27.966z"/>
	</g>
	<g>
		
			<ellipse transform="matrix(0.9422 0.3349 -0.3349 0.9422 12.1488 -22.1993)" stroke="#000000" stroke-width="2" cx="70.444" cy="24.127" rx="22.642" ry="21.801"/>
		<path fill="#FFFFFF" d="M90.049,31.091C86.38,41.41,74.718,46.69,64.002,42.88c-10.717-3.808-16.433-15.263-12.766-25.583
			C54.651,7.69,66.087,1.526,77.283,5.507C88.003,9.316,93.717,20.77,90.049,31.091z"/>
		<g>
			<path fill="#E1F3FA" d="M55.411,16.686c2.011-5.661,6.522-9.746,11.935-11.541c-6.788,1.068-12.717,5.573-15.111,12.312
				c-3.536,9.95,1.972,20.994,12.306,24.667c4.455,1.583,9.078,1.534,13.179,0.174c-3.235,0.511-6.665,0.243-10.004-0.944
				C57.383,37.681,51.873,26.635,55.411,16.686z"/>
		</g>
	</g>
	<g>
		<circle stroke="#008FD5" stroke-width="1.1891" cx="37.672" cy="22.736" r="5.275"/>
		<circle fill="#FFFFFF" cx="35.183" cy="22.091" r="1.145"/>
		<circle fill="#FFFFFF" cx="37.192" cy="22.852" r="0.654"/>
	</g>
	<g>
		<circle stroke="#008FD5" stroke-width="1.1891" cx="58.042" cy="22.55" r="5.275"/>
		<circle fill="#FFFFFF" cx="56.514" cy="20.482" r="1.145"/>
		<circle fill="#FFFFFF" cx="57.597" cy="22.338" r="0.654"/>
	</g>
	<g>
		<path stroke="#000000" stroke-width="2" d="M48.37,17.739C43.798,4.779,29.816-2.103,17.134,2.369
			C4.456,6.841-2.118,20.974,2.453,33.934c0,0,9.108-5.447,22.258-10.085C37.858,19.211,48.37,17.739,48.37,17.739z"/>
		<g>
			<path fill="#AFDFE4" d="M11.775,14.428c1.665,5.161,7.038,4.974,7.038,4.974s-5.424,2.691-1.114,2.57
				c2.015-0.056,9.329-1.166,16.546-2.333c7.261-1.99,12.203-2.738,12.203-2.738C42.441,5.544,29.635-0.291,17.841,3.868
				c-0.962,0.34-1.882,0.74-2.768,1.185C13.077,7.562,10.773,11.324,11.775,14.428z"/>
			<path fill="#58B7DD" d="M3.74,31.963c0,0,8.506-4.96,20.736-9.273c3.522-1.242,6.834-2.248,9.768-3.052
				c-7.218,1.167-14.532,2.278-16.546,2.333c-4.309,0.121,1.114-2.57,1.114-2.57s-5.373,0.186-7.038-4.974
				c-1.002-3.105,1.303-6.867,3.299-9.375C5.091,10.075,0.062,21.532,3.74,31.963z"/>
		</g>
		
			<ellipse transform="matrix(0.9786 0.2057 -0.2057 0.9786 2.6388 -6.6816)" fill="#FFFFFF" cx="33.447" cy="9.348" rx="4.835" ry="3.737"/>
	</g>
	<g>
		<path stroke="#000000" stroke-width="2" d="M94.665,33.984c4.603-12.95-1.935-27.098-14.603-31.601
			c-12.667-4.502-26.67,2.345-31.274,15.296c0,0,10.504,1.496,23.643,6.167C85.57,28.514,94.665,33.984,94.665,33.984z"/>
		<g>
			<path fill="#AFDFE4" d="M68.306,8.384c-1.952,5.059,2.341,8.294,2.341,8.294s-5.907-1.321-2.483,1.298
				c1.602,1.224,7.986,4.962,14.33,8.596c6.893,3.023,11.205,5.55,11.205,5.55c4.034-11.346-2.252-23.939-14.032-28.127
				c-0.961-0.341-1.928-0.609-2.896-0.821C73.639,3.866,69.481,5.339,68.306,8.384z"/>
			<path fill="#58B7DD" d="M51.029,16.956c0,0,9.733,1.498,21.953,5.842c3.517,1.25,6.727,2.554,9.513,3.773
				c-6.344-3.633-12.728-7.372-14.33-8.596c-3.425-2.619,2.483-1.298,2.483-1.298s-4.292-3.235-2.341-8.294
				c1.175-3.044,5.333-4.518,8.465-5.211C65.851,0.796,54.733,6.535,51.029,16.956z"/>
		</g>
		
			<ellipse transform="matrix(0.6312 0.7756 -0.7756 0.6312 46.6003 -61.8596)" fill="#FFFFFF" cx="88.348" cy="18.072" rx="4.836" ry="3.738"/>
	</g>
</g>
</svg>
