<?xml version="1.0" encoding="utf-8"?>
<!-- Generator: Adobe Illustrator 17.0.0, SVG Export Plug-In . SVG Version: 6.00 Build 0)  -->
<!DOCTYPE svg PUBLIC "-//W3C//DTD SVG 1.1//EN" "http://www.w3.org/Graphics/SVG/1.1/DTD/svg11.dtd">
<svg version="1.1" id="Layer_1" xmlns="http://www.w3.org/2000/svg" xmlns:xlink="http://www.w3.org/1999/xlink" x="0px" y="0px"
	 width="90.092px" height="48.639px" viewBox="0 0 90.092 48.639" enable-background="new 0 0 90.092 48.639" xml:space="preserve">
<g>
	<path fill="#FFFFFF" stroke="#000000" stroke-width="3" d="M39.713,31.824c-5.127,10.599-16.288,15.125-24.931,10.104
		C6.138,36.913,3.284,24.253,8.41,13.654C13.537,3.054,24.701-1.47,33.343,3.546C41.988,8.562,44.84,21.222,39.713,31.824z"/>
	<path fill="#D4EEF7" d="M18.416,35.745c-7.024-4.079-9.469-14.17-5.706-22.882c-0.588,0.855-1.13,1.771-1.605,2.756
		c-4.299,8.891-1.908,19.511,5.344,23.719c7.252,4.209,16.616,0.415,20.915-8.476c0.134-0.278,0.241-0.561,0.363-0.837
		C32.984,36.896,24.865,39.489,18.416,35.745z"/>
	<path d="M38.351,25.636c-1.069,3.789-4.1,6.128-6.779,5.221c-2.675-0.903-3.98-4.708-2.915-8.497
		c1.068-3.789,4.103-6.129,6.779-5.223C38.114,18.041,39.418,21.848,38.351,25.636z"/>
	<path fill="#FFFFFF" d="M34.864,22.404c-0.391,1.419-1.518,2.301-2.52,1.972c-1.002-0.331-1.498-1.745-1.106-3.166
		c0.386-1.419,1.516-2.296,2.517-1.97C34.756,19.569,35.25,20.988,34.864,22.404z"/>
	<path fill="#9BDBF4" d="M11.226,44.287C1.607,38.705-0.593,25.868,4.81,14.703c1.192-2.467,2.714-5.11,4.453-6.877
		c-2.739,2.054-5.124,5.425-6.833,8.961c-5.127,10.599-1.807,23.257,6.838,28.273c6.633,3.853,14.893,5.541,20.972,0.166
		C24.772,49.332,16.986,47.633,11.226,44.287z"/>
	<path fill="#FFFFFF" stroke="#000000" stroke-width="3" d="M50.378,31.824c5.127,10.599,16.289,15.125,24.932,10.104
		c8.645-5.014,11.494-17.674,6.371-28.273C76.553,3.054,65.391-1.47,56.747,3.546C48.103,8.562,45.251,21.222,50.378,31.824z"/>
	<path fill="#D4EEF7" d="M71.675,35.745c7.023-4.079,9.469-14.17,5.706-22.882c0.589,0.855,1.128,1.771,1.607,2.756
		c4.298,8.891,1.908,19.511-5.346,23.719c-7.251,4.209-16.613,0.415-20.913-8.476c-0.132-0.278-0.24-0.561-0.363-0.837
		C57.107,36.896,65.225,39.489,71.675,35.745z"/>
	<path d="M51.741,25.636c1.069,3.789,4.101,6.128,6.779,5.221c2.675-0.903,3.978-4.708,2.915-8.497
		c-1.069-3.789-4.102-6.129-6.779-5.223C51.978,18.041,50.674,21.848,51.741,25.636z"/>
	<path fill="#FFFFFF" d="M52.924,21.538c-0.413,1.411,0.061,2.838,1.056,3.19c0.996,0.347,2.138-0.51,2.55-1.922
		c0.416-1.411-0.061-2.837-1.055-3.187C54.477,19.27,53.337,20.131,52.924,21.538z"/>
	<path fill="#9BDBF4" d="M78.865,44.287c9.615-5.582,11.817-18.419,6.417-29.584c-1.194-2.467-2.713-5.11-4.452-6.877
		c2.737,2.054,5.122,5.425,6.834,8.961c5.125,10.599,1.804,23.257-6.841,28.273c-6.632,3.853-14.892,5.541-20.97,0.166
		C65.318,49.332,73.105,47.633,78.865,44.287z"/>
</g>
</svg>
