<?xml version="1.0" encoding="utf-8"?>
<!-- Generator: Adobe Illustrator 17.0.0, SVG Export Plug-In . SVG Version: 6.00 Build 0)  -->
<!DOCTYPE svg PUBLIC "-//W3C//DTD SVG 1.1//EN" "http://www.w3.org/Graphics/SVG/1.1/DTD/svg11.dtd">
<svg version="1.1" id="Layer_1" xmlns="http://www.w3.org/2000/svg" xmlns:xlink="http://www.w3.org/1999/xlink" x="0px" y="0px"
	 width="196.009px" height="107.14px" viewBox="0 0 196.009 107.14" enable-background="new 0 0 196.009 107.14"
	 xml:space="preserve">
<g>
	<path fill="#636466" stroke="#000000" stroke-width="1.3914" d="M144.923,12.349c-11.319-4.864-38.791-11.611-40.894-11.653
		L91.993,0.732c-2.101,0.041-32.194,6.753-43.512,11.617C36.376,17.55,31.019,22.579,31.019,22.579s4.709,5.028,7.621,3.294
		c2.91-1.731,36.936-12.1,60.17-12.137c23.236,0.036,55.49,10.406,58.398,12.137c2.912,1.734,7.621-3.294,7.621-3.294
		S157.027,17.55,144.923,12.349z"/>
	<path fill="#BCBEC0" stroke="#000000" stroke-width="1.3914" d="M195.196,71.645c-0.842-7.801-2.523-11.183-2.523-11.183
		l-2.354-0.39c0,0-5.826-17.902-8.068-23.103c-2.233-5.179-41.991-31.506-83.103-31.723V5.241c-0.084,0-0.169,0.002-0.255,0.002
		c-0.087,0-0.169-0.002-0.255-0.002v0.005C57.527,5.463,15.993,31.79,13.762,36.969C11.518,42.17,5.69,60.072,5.69,60.072
		l-2.354,0.39c0,0-1.679,3.381-2.521,11.183c-0.84,7.802,3.025,26.397,4.034,28.217c1.011,1.822,2.357,0.911,2.357,0.911
		l4.538-6.501L9.221,75.676l-2.859-2.991l-0.449-9.362l2.243-1.561l8.516-24.792C41.188,5.48,97.299,7.715,98.859,7.836V7.84
		l0.064-0.004c1.564-0.121,55.899-2.356,80.413,29.133l8.518,24.792l2.241,1.561l-0.449,9.362l-2.859,2.991l-2.521,18.596
		l4.54,6.501c0,0,1.344,0.912,2.352-0.911C192.168,98.042,196.033,79.447,195.196,71.645z"/>
	<path fill="#636466" stroke="#000000" stroke-width="1.3914" d="M26.392,60.966c0,0-0.08-0.56,1.048-0.451
		c1.132,0.107,2.54,0.465,3.322,0.572c0.782,0.109,2.225-0.51,2.497,1.89c0.274,2.399,0.599,12.251-0.751,22.308
		c-1.352,10.056-5.053,19.785-5.968,20.179c-0.92,0.394-4.433-0.319-5.23-0.791c-0.801-0.471-2.391-0.157-3.019-0.407
		c-0.628-0.249-1.142-0.918-1.142-0.918L26.392,60.966z"/>
	
		<linearGradient id="SVGID_1_" gradientUnits="userSpaceOnUse" x1="-32.3325" y1="74.2024" x2="-32.3325" y2="96.5396" gradientTransform="matrix(0.8142 0.0094 0.0094 0.9995 38.4486 -1.8007)">
		<stop  offset="0" style="stop-color:#9C9C9C"/>
		<stop  offset="0.5579" style="stop-color:#FFFFFF"/>
		<stop  offset="0.6009" style="stop-color:#F6F6F6"/>
		<stop  offset="0.6718" style="stop-color:#DDDDDD"/>
		<stop  offset="0.7616" style="stop-color:#B5B5B5"/>
		<stop  offset="0.867" style="stop-color:#7C7C7C"/>
		<stop  offset="0.9841" style="stop-color:#363636"/>
		<stop  offset="1" style="stop-color:#2B2B2B"/>
	</linearGradient>
	<path fill="url(#SVGID_1_)" stroke="#000000" stroke-width="1.3914" d="M17.116,83.06c0.401,6.17-1.15,11.244-3.464,11.332
		c-2.313,0.091-4.515-4.835-4.917-11.006c-0.401-6.168,1.148-11.239,3.462-11.331C14.513,71.965,16.715,76.893,17.116,83.06z"/>
	
		<linearGradient id="SVGID_2_" gradientUnits="userSpaceOnUse" x1="58.9981" y1="-179.0793" x2="58.9981" y2="-134.1976" gradientTransform="matrix(0.9671 0.2545 -0.2545 0.9671 -79.5323 217.7239)">
		<stop  offset="0" style="stop-color:#9C9C9C"/>
		<stop  offset="0.5579" style="stop-color:#FFFFFF"/>
		<stop  offset="0.6009" style="stop-color:#F6F6F6"/>
		<stop  offset="0.6718" style="stop-color:#DDDDDD"/>
		<stop  offset="0.7616" style="stop-color:#B5B5B5"/>
		<stop  offset="0.867" style="stop-color:#7C7C7C"/>
		<stop  offset="0.9841" style="stop-color:#363636"/>
		<stop  offset="1" style="stop-color:#2B2B2B"/>
	</linearGradient>
	<path fill="url(#SVGID_2_)" stroke="#000000" stroke-width="1.3914" d="M26.312,60.406c0,0-1.309,13.294-3.334,21.565
		c-2.023,8.272-5.773,22.022-5.773,22.022s-4.61-0.094-6.411-1.988c-1.803-1.891-1.803-1.891-1.803-1.891l7.553-37.883
		c0,0,1.336-2.351,4.166-2.527C23.542,59.525,26.312,60.406,26.312,60.406z"/>
	<path fill="#636466" stroke="#000000" stroke-width="1.3914" d="M168.155,61.875c0,0,0.06-0.562-1.064-0.417
		c-1.126,0.144-2.523,0.548-3.299,0.684c-0.778,0.132-2.241-0.438-2.431,1.968c-0.185,2.408-0.165,12.267,1.539,22.272
		c1.706,10.005,5.742,19.608,6.674,19.973c0.93,0.363,4.421-0.465,5.199-0.961c0.782-0.498,2.383-0.239,3.003-0.507
		c0.619-0.27,1.109-0.953,1.109-0.953L168.155,61.875z"/>
	
		<linearGradient id="SVGID_3_" gradientUnits="userSpaceOnUse" x1="682.335" y1="310.5689" x2="682.335" y2="332.964" gradientTransform="matrix(-0.7772 0.2428 0.278 0.9601 623.9973 -393.0772)">
		<stop  offset="0" style="stop-color:#9C9C9C"/>
		<stop  offset="0.5579" style="stop-color:#FFFFFF"/>
		<stop  offset="0.6009" style="stop-color:#F6F6F6"/>
		<stop  offset="0.6718" style="stop-color:#DDDDDD"/>
		<stop  offset="0.7616" style="stop-color:#B5B5B5"/>
		<stop  offset="0.867" style="stop-color:#7C7C7C"/>
		<stop  offset="0.9841" style="stop-color:#363636"/>
		<stop  offset="1" style="stop-color:#2B2B2B"/>
	</linearGradient>
	<path fill="url(#SVGID_3_)" stroke="#000000" stroke-width="1.3914" d="M179.075,82.525c1.451,6.021,4.448,10.451,6.693,9.895
		c2.241-0.552,2.883-5.882,1.432-11.903c-1.451-6.021-4.445-10.449-6.689-9.895C178.266,71.176,177.622,76.507,179.075,82.525z"/>
	
		<linearGradient id="SVGID_4_" gradientUnits="userSpaceOnUse" x1="602.213" y1="301.9207" x2="602.213" y2="346.832" gradientTransform="matrix(-0.9579 0.2872 0.2872 0.9579 661.5593 -401.8195)">
		<stop  offset="0" style="stop-color:#9C9C9C"/>
		<stop  offset="0.5579" style="stop-color:#FFFFFF"/>
		<stop  offset="0.6009" style="stop-color:#F6F6F6"/>
		<stop  offset="0.6718" style="stop-color:#DDDDDD"/>
		<stop  offset="0.7616" style="stop-color:#B5B5B5"/>
		<stop  offset="0.867" style="stop-color:#7C7C7C"/>
		<stop  offset="0.9841" style="stop-color:#363636"/>
		<stop  offset="1" style="stop-color:#2B2B2B"/>
	</linearGradient>
	<path fill="url(#SVGID_4_)" stroke="#000000" stroke-width="1.3914" d="M168.214,61.313c0,0,1.776,13.244,4.089,21.444
		c2.315,8.199,6.547,21.82,6.547,21.82s4.604-0.248,6.339-2.196c1.731-1.949,1.731-1.949,1.731-1.949l-8.878-37.615
		c0,0-1.418-2.306-4.252-2.392C170.954,60.342,168.214,61.313,168.214,61.313z"/>
	<path fill="#E5E5E5" d="M3.873,65.475l0.749,8.462l2.548,2.433c0,0-0.449,2.784-0.449,7.882c0,5.101,3.295,9.738,3.295,9.738
		l-3.447,5.216c0,0-4.345-14.837-4.196-22.603C2.522,68.836,3.873,65.475,3.873,65.475z"/>
	<path fill="#E5E5E5" d="M191.678,65.161l-0.613,8.468l-2.507,2.459c0,0,0.494,2.777,0.576,7.878
		c0.082,5.098-3.137,9.767-3.137,9.767l3.53,5.182c0,0,4.106-14.877,3.828-22.642C193.082,68.508,191.678,65.161,191.678,65.161z"/>
	<ellipse fill="none" stroke="#636466" stroke-width="0.6957" cx="7.27" cy="94.015" rx="1.144" ry="0.885"/>
	<ellipse fill="none" stroke="#636466" stroke-width="0.6957" cx="188.812" cy="94.015" rx="1.144" ry="0.885"/>
	<path fill="#8C8C8E" d="M27.964,61.567c0,0,2.377,0.533,2.717,0.554c0.344,0.023,0.718-0.085,0.959,0.309
		c0.239,0.399,0.897,15.828-0.599,24.188c-1.5,8.36-4.408,16.159-4.81,17c-0.405,0.839-0.782,0.944-1.105,0.861
		c-0.325-0.082-1.307,0.006-2.085-0.327c-0.778-0.332-1.638-0.684-2.044-0.787s-0.405-0.103-0.405-0.103s3.116,0.992,4.153,0.382
		c1.035-0.613,1.367-0.864,1.171-1.115c-0.189-0.25-4.075-1.305-4.075-1.305s4.452,1.199,4.641,0.508
		c0.189-0.693-0.868-0.961-0.868-0.961s1.323-0.068,1.395-0.654c0.074-0.587-2.603-1.602-2.603-1.602s2.974,0.889,3.196,0.072
		c0.224-0.818-2.99-2.103-2.99-2.103s3.231,1.224,3.585,0.238c0.356-0.988-3.336-1.788-3.336-1.788s3.53,0.76,3.869-0.161
		c0.338-0.923-0.233-1.068-0.233-1.068s1.099-0.191,0.858-0.59c-0.241-0.395-0.85-1.021-0.85-1.021s0.84,0.415,1.099-0.529
		c0.257-0.944-0.84-0.749-0.84-0.749s1.229-0.361,1.41-1.662c0.179-1.298-3.871-2.058-3.871-2.058s4.227,1.073,4.382-0.77
		c0.154-1.843-2.527-1.246-2.527-1.246s2.824-0.156,2.789-1.308c-0.031-1.153-2.215-1.438-2.215-1.438s2.457,0.556,2.457-0.72
		c0-1.278-1.84-1.544-1.84-1.544s1.69,0.498,1.832-0.342c0.142-0.838-1.416-1.5-1.416-1.5s1.432,0.161,1.519-0.154
		c0.087-0.314-3.435-1.744-3.435-1.744s3.217,0.95,3.41-0.077c0.193-1.027-1.766-2.13-1.766-2.13s1.587,0.875,1.832-0.341
		c0.245-1.215-4.141-2.663-4.141-2.663s3.688,1.136,3.997,0.005c0.309-1.132-0.636-1.171-0.636-1.171s1.408-0.382,0.86-0.924
		c-0.548-0.541-1.029-1-1.029-1s1.418-0.109,0.969-0.695c-0.449-0.584-1.749-0.915-1.749-0.915s2.208-0.45,1.729-1.241
		c-0.477-0.795-1.83-0.936-1.83-0.936s2.35-0.008,1.562-0.949C30.271,62.354,27.964,61.567,27.964,61.567z"/>
	<path fill="#8C8C8E" d="M166.263,62.102c0,0-2.356,0.611-2.696,0.644c-0.342,0.032-0.722-0.063-0.947,0.34
		c-0.224,0.405-0.34,15.847,1.449,24.153c1.793,8.306,4.974,16.006,5.407,16.832c0.43,0.825,0.813,0.918,1.132,0.825
		c0.325-0.094,1.309-0.037,2.073-0.394c0.768-0.358,1.613-0.739,2.017-0.855c0.401-0.116,0.401-0.116,0.401-0.116
		s-3.081,1.095-4.139,0.519c-1.056-0.578-1.393-0.82-1.21-1.075c0.181-0.257,4.028-1.438,4.028-1.438s-4.406,1.343-4.62,0.659
		c-0.214-0.686,0.832-0.989,0.832-0.989s-1.321-0.024-1.418-0.607c-0.091-0.586,2.55-1.687,2.55-1.687s-2.941,0.986-3.192,0.176
		c-0.251-0.811,2.914-2.199,2.914-2.199s-3.184,1.327-3.577,0.354c-0.389-0.974,3.272-1.897,3.272-1.897s-3.501,0.875-3.871-0.034
		c-0.37-0.912,0.193-1.074,0.193-1.074s-1.101-0.156-0.877-0.563c0.226-0.402,0.813-1.047,0.813-1.047s-0.827,0.442-1.118-0.493
		c-0.29-0.934,0.811-0.776,0.811-0.776s-1.239-0.321-1.463-1.615c-0.228-1.291,3.795-2.184,3.795-2.184s-4.186,1.21-4.406-0.627
		c-0.22-1.836,2.482-1.326,2.482-1.326s-2.826-0.066-2.836-1.217c-0.006-1.152,2.165-1.51,2.165-1.51s-2.435,0.636-2.48-0.64
		c-0.045-1.275,1.782-1.602,1.782-1.602s-1.671,0.554-1.842-0.28c-0.173-0.834,1.362-1.548,1.362-1.548s-1.426,0.208-1.525-0.105
		c-0.095-0.31,3.375-1.854,3.375-1.854s-3.184,1.054-3.414,0.035c-0.228-1.021,1.692-2.187,1.692-2.187s-1.556,0.926-1.844-0.281
		c-0.288-1.207,4.046-2.798,4.046-2.798s-3.647,1.256-3.995,0.137c-0.348-1.122,0.595-1.193,0.595-1.193s-1.42-0.334-0.891-0.894
		c0.527-0.56,0.994-1.033,0.994-1.033s-1.424-0.064-0.996-0.663c0.428-0.599,1.719-0.971,1.719-0.971s-2.227-0.377-1.774-1.183
		c0.451-0.812,1.797-0.996,1.797-0.996s-2.348,0.068-1.595-0.897C163.985,62.964,166.263,62.102,166.263,62.102z"/>
</g>
</svg>
