<?xml version="1.0" encoding="utf-8"?>
<!-- Generator: Adobe Illustrator 17.0.0, SVG Export Plug-In . SVG Version: 6.00 Build 0)  -->
<!DOCTYPE svg PUBLIC "-//W3C//DTD SVG 1.1//EN" "http://www.w3.org/Graphics/SVG/1.1/DTD/svg11.dtd">
<svg version="1.1" id="Layer_1" xmlns="http://www.w3.org/2000/svg" xmlns:xlink="http://www.w3.org/1999/xlink" x="0px" y="0px"
	 width="153.515px" height="69.457px" viewBox="0 0 153.515 69.457" enable-background="new 0 0 153.515 69.457"
	 xml:space="preserve">
<g>
	<g>
		<g>
			<path fill="#008FD5" stroke="#000000" stroke-width="3" d="M52.947,60.918c0,0,22.126-16.393,63.107-16.393
				c28.688,0,35.856,8.403,35.856,8.403s2.995-31.904-23.046-46.135c-21.519-11.762-46.041-0.25-46.041-0.25s-1.5-1-3.254-0.25
				c-1.749,0.751-1.83,2.786-1.83,2.786C46.187,29.981,52.947,60.918,52.947,60.918z M94.745,24.24
				c6.149-1.636,14.75-2.454,23.143-1.904c7.813,0.515,12.509,0.059,14.968,3.749c2.459,3.688,4.915,10.45,2.459,10.45
				c-2.459,0-6.971-2.459-20.284-2.254c-9.051,0.14-23.361,2.663-23.361,2.663s-0.613-0.41-1.432-4.507
				C89.419,28.34,88.597,25.882,94.745,24.24z"/>
			<path d="M90.851,37.373c0,0-0.613,3.731-0.407,5.598c0.206,1.865,0.613,2.665,0.613,2.665s-1.373-1.261-1.406-4.201
				C89.618,38.495,90.851,37.373,90.851,37.373z"/>
			<path d="M137.078,45.78c0,0,0.578-3.991,0.354-5.981c-0.222-1.992-0.64-2.842-0.64-2.842s1.385,1.332,1.447,4.474
				C138.298,44.573,137.078,45.78,137.078,45.78z"/>
			<path fill="#06709C" stroke="#000000" stroke-width="0.6976" d="M136.211,38.277c0,0-0.55,0.102-1.537,0.102
				c-0.992,0-7.076-2.397-17.317-2.253c-10.239,0.142-26.02,2.765-26.02,2.765s-0.245,1.868-0.105,3.277
				c0.142,1.415,0.515,2.459,0.515,2.459s13.1-2.222,26.658-2.152c13.561,0.071,17.607,1.979,17.607,1.979s0.613-1.389,0.401-3.719
				C136.201,38.406,136.211,38.277,136.211,38.277z"/>
			<circle fill="#FDF8D1" stroke="#000000" stroke-width="0.6976" cx="97.096" cy="40.753" r="1.285"/>
			<path fill="#FDF8D1" stroke="#000000" stroke-width="0.6976" d="M101.677,40.115c0,0.71,0.574,1.286,1.282,1.286
				c0.71,0,1.284-0.576,1.284-1.286c0-0.706-0.574-1.284-1.284-1.284C102.251,38.83,101.677,39.409,101.677,40.115z"/>
			<path fill="#FDF8D1" stroke="#000000" stroke-width="0.6976" d="M108.1,39.513c0,0.711,0.574,1.287,1.284,1.287
				c0.71,0,1.284-0.576,1.284-1.287c0-0.707-0.574-1.283-1.284-1.283C108.674,38.229,108.1,38.806,108.1,39.513z"/>
			<circle fill="#FDF8D1" stroke="#000000" stroke-width="0.6976" cx="116.011" cy="39.313" r="1.284"/>
			<path fill="#0575A1" d="M77.657,12.203c0,0-9.753,11.054-12.451,23.494c-2.61,12.049,0,15.865,0,15.865
				S63.6,40.518,69.223,27.665C73.327,18.282,77.657,12.203,77.657,12.203z"/>
			<path fill="#0575A1" d="M80.869,10.397c0,0-1.605,12.048-1.006,19.077c0.605,7.026,1.609,12.248,1.609,12.248
				S80.67,24.051,80.67,20.034C80.67,16.019,80.869,10.397,80.869,10.397z"/>
			<path fill="#0575A1" d="M83.882,8.99c0,0,6.226,3.413,8.232,6.828c2.009,3.414,2.61,4.617,2.61,4.617s-1.805-6.022-4.417-8.232
				C87.698,9.993,83.882,8.99,83.882,8.99z"/>
			<path fill="#0575A1" d="M90.709,6.984c0,0,6.627,0.803,21.688,4.217c14.005,3.174,19.276,9.836,19.276,9.836
				s-6.878-8.621-16.866-11.243C102.557,6.581,90.709,6.984,90.709,6.984z"/>
			
				<linearGradient id="SVGID_1_" gradientUnits="userSpaceOnUse" x1="927.0842" y1="58.9062" x2="978.5315" y2="58.9062" gradientTransform="matrix(-1 0 0 1 980.0315 0)">
				<stop  offset="0" style="stop-color:#003574"/>
				<stop  offset="1" style="stop-color:#008FD5"/>
			</linearGradient>
			<path fill="url(#SVGID_1_)" stroke="#000000" stroke-width="3" d="M52.268,49.855c0,0-32.592,2.867-47.188,9.834
				c-14.6,6.967,19.35,10.656,31.911,6.557c12.56-4.1,15.956-5.328,15.956-5.328L52.268,49.855z"/>
		</g>
	</g>
	<path fill="#4DC3F1" d="M72.487,15.637c0,0-13.217,11.985-16.135,23.665s-1.998,18.44-1.998,18.44s0.461-15.213,5.686-24.279
		C65.265,24.396,72.487,15.637,72.487,15.637z"/>
	<path fill="#2EA9E1" d="M74.782,18.582c0,0-4.186,6.482-6.075,12.288c-1.889,5.805-2.431,9.451-2.431,9.451
		s2.431-7.561,4.184-11.881C72.215,24.118,74.782,18.582,74.782,18.582z"/>
	<path fill="#2EA9E1" d="M81.262,14.936c0,0-0.27,4.861-0.136,10.264c0.136,5.4,0.407,6.616,0.407,6.616l0.134-11.479L81.262,14.936
		z"/>
	<path fill="#2EA9E1" d="M86.932,9.336c0,0,4.456,2.611,5.841,4.147c1.383,1.537,2.61,3.69,2.61,3.69s-1.381-3.996-3.227-5.071
		C90.314,11.028,86.932,9.336,86.932,9.336z"/>
	<path fill="#08617C" d="M128.423,21.322c0,0-13.83-1.535-23.512-0.615c-9.681,0.922-14.139,1.998-15.52,4.149
		c-1.383,2.152-1.383,3.842-1.383,3.842s-1.692-4.302,2.614-5.993c4.301-1.692,10.601-3.073,19.821-3.073
		S128.423,21.322,128.423,21.322z"/>
	<path fill="#0575A1" d="M142.715,22.244c0,0,4.458,7.683,5.993,14.137c1.539,6.454,1.844,13.215,1.844,13.215
		s-1.076-0.921-3.842-1.998c-2.764-1.074-7.683-2.455-7.683-2.455s8.146-1.693,6.3-10.298
		C143.484,26.24,142.715,22.244,142.715,22.244z"/>
</g>
</svg>
