<?xml version="1.0" encoding="utf-8"?>
<!-- Generator: Adobe Illustrator 17.0.0, SVG Export Plug-In . SVG Version: 6.00 Build 0)  -->
<!DOCTYPE svg PUBLIC "-//W3C//DTD SVG 1.1//EN" "http://www.w3.org/Graphics/SVG/1.1/DTD/svg11.dtd">
<svg version="1.1" id="Layer_1" xmlns="http://www.w3.org/2000/svg" xmlns:xlink="http://www.w3.org/1999/xlink" x="0px" y="0px"
	 width="218.269px" height="154.383px" viewBox="0 0 218.269 154.383" enable-background="new 0 0 218.269 154.383"
	 xml:space="preserve">
<g>
	<path fill="#636466" stroke="#000000" stroke-width="3" d="M28.111,58.43c0.019-0.249,0.424-8.146,4.892-18.106l0,0
		c4.452-9.941,13.096-22.022,29.464-30.022l0,0C73.36,4.97,87.586,1.497,105.958,1.5l0,0c36.716-0.055,58.365,13.378,70.275,26.904
		l0,0c11.949,13.51,14.483,26.85,14.559,27.173l0,0l-7.251,1.12c0,0,0-0.008-0.017-0.082l0,0c-0.016-0.075-0.043-0.198-0.082-0.361
		l0,0c-0.078-0.33-0.204-0.832-0.395-1.483l0,0c-0.375-1.3-0.996-3.192-1.957-5.47l0,0c-1.924-4.559-5.211-10.667-10.601-16.749l0,0
		C159.657,20.421,140.703,8.195,105.958,8.14l0,0c-33.627,0.078-50.59,11.993-59.923,24.176l0,0
		c-9.29,12.213-10.496,25.08-10.57,26.325l0,0c-0.004,0.08-0.004,0.091-0.004,0.091l0,0v0.001L28.111,58.43L28.111,58.43z"/>
	<path fill="#636466" stroke="#000000" stroke-width="3" d="M42.073,61.269c0,5.533-4.97,10.02-11.099,10.02l0,0
		c-6.129,0-11.099-4.487-11.099-10.02l0,0c0-5.533,4.97-10.019,11.099-10.019l0,0C37.103,51.251,42.073,55.736,42.073,61.269
		L42.073,61.269z"/>
	<path fill="#636466" stroke="#000000" stroke-width="3" d="M200.16,60.781c0,5.534-4.968,10.019-11.097,10.019l0,0
		c-6.129,0-11.099-4.485-11.099-10.019l0,0c0-5.533,4.97-10.019,11.099-10.019l0,0C195.192,50.762,200.16,55.247,200.16,60.781
		L200.16,60.781z"/>
	<g>
		<path fill="#8CC63F" stroke="#000000" stroke-width="3" d="M28.403,61.476c-2.571-0.074-3.779,0.626-5.365,0.765
			c-1.587,0.137-2.529,1.857-5.549,3.609c-3.019,1.751-5.1,1.782-5.1,1.782l-2.682,0.383l-0.675,2.738c0,0,2.344,0.989,1.515,2.253
			s-6.353,5.266-6.353,5.266s1.336,0.382,1.982,1.964c0.644,1.582,2.721,1.551,0.307,2.951c-2.418,1.402-2.418,1.402-2.418,1.402
			s1.404,2.708,1.064,4.077c-0.338,1.371,0.832-1.264-0.338,1.371c-1.167,2.632-2.682,0.381-1.167,2.632
			c1.515,2.252,1.434-1.613,1.515,2.252c0.08,3.865,0.572,3.972-0.368,5.692c-0.943,1.72-1.138-1.689-0.943,1.72
			c0.193,3.408-0.718,0.809,0.193,3.408c0.91,2.603,1.883-3.439,0.91,2.603s0.574,3.971-0.973,6.041
			c-1.546,2.07-1.546,2.07-1.546,2.07s3.326,1.202,3.748,3.696c0.42,2.495,0.49,0.106,0.42,2.495
			c-0.074,2.389-0.105,6.71-0.105,6.71l2.118,1.902l1.26,7.485c0,0,0.757,1.126,0.912,2.601c0.15,1.478-1.968-0.425,0.15,1.478
			c2.122,1.9,2.122,1.9,2.122,1.9l2.383,2.92l2.385,2.921l2.457,0.53l3.06,0.183l2.079-0.033l3.818,1.308
			c0,0,3.287-0.732,4.76-0.415c1.476,0.32,3.439,0.744,3.439,0.744s0.494,0.107,1.813-1.051c1.321-1.156,3.132-2.208,3.47-3.577
			c4.633-7.766,3.82-18.99-0.255-27.809v0.801c-6.516-16.035,4.075-30.465,3.26-46.5c0-1.202-0.204-3.005-1.052-4.717
			c-0.846-1.713-2.336-3.335-4.909-4.174c-2.007-2.358-2.007-2.358-2.007-2.358s4.423,0.957,0,0
			C33.316,62.54,28.403,61.476,28.403,61.476z"/>
		<path fill="#78AB36" d="M41.921,139.488c0.525,4.207-2.733,4.207-4.252,6.333c0.142,0.77,2.346,2.364-0.426,2.424
			c-2.772,0.059-3.437,0.702-5.19-0.325c-1.751-1.025,0.074-1.982-1.751-1.025c-1.826,0.956-3.75,0.901-5.588,0.36
			c-1.838-0.541-4.213-1.167-3.83-3.349c0.385-2.184,3.145-3.741-0.348-4.294c-3.495-0.553-3.836,1.386-4.526-0.966
			c-0.692-2.352,0.115-2.226-1.155-4.421c-1.272-2.197-2.11-0.584-1.963-4.55c0.146-3.966-2.073-7.059-2.396-8.357
			c-0.325-1.299,0.383-2.185,1.476-5.251c1.091-3.066,0.443-5.663-0.955-7.132c-1.399-1.468-1.614-0.254-1.455-2.723
			c0.158-2.469,0.072-1.984,0.414-3.924c0.342-1.941-1.41-2.966,0.346-6.676c1.758-3.711,1.941-3.182,1.237-7.032
			c-0.704-3.853-3.433-4.036-0.899-5.878c2.533-1.842,3.521-1.185,2.746-3.054c-0.776-1.869-2.077-2.324-0.167-3.766
			c1.912-1.443,1.387-0.03,1.912-1.443c0.525-1.412,1.628-2.982,1.628-2.982s3.703,4.077,3.532,5.047
			c-0.171,0.97-2.282,5.123-2.282,5.123s-2.066,3.911-1.97,4.923c0.099,1.014-0.101,3.724,2.027,2.565
			c0.737,0.062,1.552-0.739,2.367-1.54c1.628,3.207-0.611,6.614-2.138,9.42c-1.529,2.806-2.342,5.01,2.138,5.813
			c-1.63,1.603-1.63,3.207-3.083,5.05c-1.558,2.462-3.145,4.827-3.145,4.827s5.641-2.587,5.217-1.659
			c-2.754,2.705-3.112,5.461-2.171,8.243c0.941,2.78,3.182,5.586,5.625,8.393c0,0,3.241-2.426,4.046-2.434
			c1.657,4.837,3.287,10.45,6.545,14.459c0.815,0,2.445-0.803,2.445-2.406c0.815,0,0.815,0.802,0.815,1.603
			c1.628-1.603,3.258-3.207,4.452-5.701L41.921,139.488z"/>
		<path fill="#B4D88F" d="M26.016,69.18l5.079-2.186l3.635,1.324c2.336,1.407,3.986,3.113,5.11,5.031
			c1.124,1.918,1.719,4.047,1.935,6.289c-0.142,4.727-1.772,9.537-2.587,14.349c0.815-4.009-2.443-8.018,0.815-12.026
			c-0.815,0-1.63,0.802-2.445,1.603c-1.628-1.603-2.443-4.008,0.815-4.811c-2.035-1.603-3.258-3.608-4.678-4.933
			c-1.418-1.325-3.034-1.972-5.857-0.86C26.847,72.304,26.016,69.18,26.016,69.18z"/>
		<path fill="#B4D88F" d="M36.457,95.144c2.731,10.869,0.288,21.291,5.989,31.713c-7.331-7.216-8.146-18.439-8.348-28.645
			L36.457,95.144z"/>
		<path fill="#B4D88F" d="M30.192,79.328c2.054,1.719,3.285,3.177,3.488,4.602c6.322,5.246-10.786-1.969-0.195,6.85
			c1.63,1.603-2.443,0.802-3.258,2.405c-1.63-1.603-2.445-3.207-2.529-5.549c-0.492-1.939-0.255-3.814,1.848-5.16L30.192,79.328z"/>
		<path fill="#B4D88F" d="M35.555,124.565c0.663,2.186,2.342,5.396-0.601,7.837c-0.056-1.615-3.982-2.383-2.027-4.565
			C33.503,126.193,35.555,124.565,35.555,124.565z"/>
	</g>
	<g>
		<path fill="#8CC63F" stroke="#000000" stroke-width="3" d="M189.596,151.634c2.571,0.014,3.783-0.714,5.372-0.89
			c1.589-0.174,2.538-1.915,5.567-3.737c3.029-1.82,5.11-1.899,5.11-1.899l2.684-0.445l0.689-2.755c0,0-2.342-0.933-1.507-2.215
			c0.836-1.282,4.752-4.781,4.752-4.781s0.292-0.982-0.346-2.549c-0.638-1.566-2.717-1.488-0.294-2.944
			c2.424-1.457,2.424-1.457,2.424-1.457s-1.393-2.673-1.048-4.05c0.344-1.378-0.836,1.282,0.344-1.378
			c1.181-2.659,2.686-0.444,1.181-2.659c-1.506-2.216-1.443,1.645-1.506-2.216c-0.064-3.861-0.556-3.956,0.393-5.697
			c0.951-1.743,1.13,1.66,0.951-1.743c-0.179-3.402,0.72-0.823-0.179-3.402c-0.899-2.579-1.9,3.483-0.899-2.579
			c1-6.061-0.556-3.956,1-6.061c1.556-2.105,1.556-2.105,1.556-2.105s-3.322-1.124-3.731-3.608c-0.41-2.485-0.492-0.095-0.41-2.485
			c0.082-2.389,0.132-6.71,0.132-6.71l-2.109-1.85l-1.227-7.454c0,0-0.755-1.107-0.899-2.579c-0.146-1.472,1.963,0.38-0.146-1.472
			c-2.114-1.851-2.114-1.851-2.114-1.851l-2.373-2.864l-2.373-2.863l-2.455-0.474l-3.062-0.109l-2.079,0.079l-3.816-1.216
			c0,0-3.291,0.809-4.764,0.525c-1.474-0.285-3.437-0.664-3.437-0.664s-0.494-0.096-1.819,1.092
			c-5.384,3.869-6.73,10.249-6.38,16.24c0.117,1.998,0.424,3.952,0.838,5.755c7.325,16.836,4.88,34.474-0.823,51.31
			c-1.628,4.811,0.815,10.423,5.479,12.648c1.994,2.311,1.994,2.311,1.994,2.311s-4.419-0.853,0,0
			C184.686,150.688,189.596,151.634,189.596,151.634z"/>
		<path fill="#B4D88F" d="M183.632,64.936l6.18,0.947l2.7-0.346l5.981,1.469l1.992,0.49c0,0,1.023,3.343,0.961,4.84
			c-0.064,1.496-0.064,1.496-0.064,1.496s2.838,0.631,1.122,2.091c-1.716,1.459-1.716,1.459-1.716,1.459l1.155,2.334
			c0,0,1.087,1.847,2.103,3.205c1.017,1.358,3.05,4.076,3.155,4.807c0.103,0.732,0.414,2.925,0.414,2.925l1.334,5.536
			c0,0,1.42,0.314-0.698,2.818c-0.426,0.592-1.241,2.195-2.056,2.997c0,4.811,3.258,7.216,1.63,12.025
			c0,0.803-1.63,3.208,1.628,3.208c0,1.604-1.628,3.207-1.502,4.885c-1.819,0.727-2.188,2.015-2.188,2.015s0.305,0.21-0.097,1.252
			c-0.401,1.044-5.588,5.179-4.032,6.47c1.558,1.29,2.776,2.128,2.776,2.128l-2.758,3.825c0,0-3.423-4.774-3.793-5.471
			c1.817-3.88,6.705-6.284,8.335-11.095c1.63-4.81-4.073-7.216-1.63-12.025c0-1.603-4.073-1.603-3.258-4.009
			c4.888-9.619,0.815-17.637-4.74-24.809c0.44-2.537,0.393-6.747,0.29-7.48c-0.103-0.731,1.55-0.694,0.568-1.808
			c-0.982-1.115-2.097-1.221-2.976-1.605C193.57,69.124,183.632,64.936,183.632,64.936z"/>
		<path fill="#B4D88F" d="M189.069,75.9c1.646,0.45,3.276,2.053,4.904,1.25c-3.258,4.811,2.445,8.018,3.26,12.025
			c0,1.604-2.445,3.207-3.26,4.812c0-1.604,0.815-3.207,0-4.009c-1.628-1.603-3.462-3.207-4.69-5.012
			c-1.227-1.805-1.85-3.813-1.062-6.224L189.069,75.9z"/>
		<path fill="#B4D88F" d="M198.014,99.581c0.848,0.82,1.663,1.622,1.663,2.423c-2.443,3.207-3.258,7.216,0,9.622
			c-1.63-3.208-5.703-5.612-3.06-9.865L198.014,99.581z"/>
		<path fill="#B4D88F" d="M198.308,118.39c3.128,1.428,3.47,3.544,2.521,5.405c-0.949,1.86-3.188,3.464-5.225,3.865
			c-3.258,0,3.258-2.406,1.356-4.881C197.246,120.512,198.308,118.39,198.308,118.39z"/>
		<path fill="#78AB36" d="M178.557,69.31c-1.377,3.415-1.754,6.939-1.642,10.505c0.056,1.784,0.233,3.578,0.475,5.374
			c4.365,17.617,3.756,29.613-0.523,52.09c-0.451,2.365,4.888,3.207,5.668,7.193l1.251,1.08l8.002,0.218
			c1.011-0.624,5.629-2.953,5.629-2.953l2.054-1.006c0,0-2.332-0.943-3.952-0.735c-1.62,0.207-2.293,1.284-3.641,1.457
			c-1.35,0.173-5.503-0.041-5.503-0.041c-1.362-0.402-2.177-2.807-2.992-4.412c0.815,0,2.445-0.802,2.445-1.602
			c0-3.207-2.445-6.415-6.518-7.216c10.591-13.63,3.26-30.466,1.317-45.796c-0.377-2.319-0.741-4.662-1.093-7.049
			C179.909,74.863,178.557,69.31,178.557,69.31z"/>
	</g>
	<ellipse fill="#9D9FA2" cx="34.641" cy="57.823" rx="3.709" ry="3.346"/>
	<ellipse fill="#9D9FA2" cx="193.076" cy="56.301" rx="3.709" ry="3.347"/>
</g>
</svg>
