<?xml version="1.0" encoding="utf-8"?>
<!-- Generator: Adobe Illustrator 17.0.0, SVG Export Plug-In . SVG Version: 6.00 Build 0)  -->
<!DOCTYPE svg PUBLIC "-//W3C//DTD SVG 1.1//EN" "http://www.w3.org/Graphics/SVG/1.1/DTD/svg11.dtd">
<svg version="1.1" id="Layer_1" xmlns="http://www.w3.org/2000/svg" xmlns:xlink="http://www.w3.org/1999/xlink" x="0px" y="0px"
	 width="266.162px" height="219.737px" viewBox="0 0 266.162 219.737" enable-background="new 0 0 266.162 219.737"
	 xml:space="preserve">
<g>
	<radialGradient id="SVGID_1_" cx="133.0811" cy="109.8687" r="120.535" gradientUnits="userSpaceOnUse">
		<stop  offset="0" style="stop-color:#A76635"/>
		<stop  offset="1" style="stop-color:#3C2415"/>
	</radialGradient>
	<path fill="url(#SVGID_1_)" stroke="#000000" stroke-width="3" stroke-linecap="round" stroke-linejoin="round" d="M123.884,18.284
		c2.366,0.82,3.42-0.234,3.42-2.342c-6.322,1.054-6.322-7.376-3.161-9.484c3.161-1.054,8.43-1.054,10.537,3.161
		c3.161,5.269,1.054,10.537-3.161,13.699c-6.322,5.269-14.699,2.254-18.177-3.978c-0.42-0.371-1.478-0.734-1.844-1.054
		c-0.442,0.073-1.225-0.832-1.664-0.755c-0.583-0.337-1.164-0.622-2.022-2.328c-3.69-7.692-15.281-12.96-21.604-3.477
		c-1.054,2.107-2.107,4.215-1.054,6.322c2.107,3.161,3.161,9.484,8.43,3.161c-4.215,0-4.215-3.161-4.215-6.322
		c1.054-1.054,2.107-3.161,4.215-3.161c7.376-2.107,10.537,5.269,9.484,11.591c-1.054,3.161-3.161,4.215-5.269,6.322
		c-3.161,2.107-7.376,1.054-10.537,1.054c-3.161,0-2.855-2.72-5.269-3.715c-1.026,0.465-3.404,0.503-4.413,0.995
		c-4.017-9.925-17.716-12.033-24.038-3.603c-3.161,6.322,0,17.914,9.484,16.86c2.107-1.054,5.269-2.107,6.322-4.215
		c1.054-3.161,1.054-6.322-2.107-8.43c-1.054-1.054-3.161-1.054-4.215-1.054c2.107,2.107,5.269,3.161,4.215,7.376
		c-1.054,1.054-2.107,2.107-3.161,3.161c-8.43,2.107-12.645-7.376-7.376-12.645c3.161-3.161,8.43-4.215,12.645-2.107
		c2.107,1.054,4.215,4.215,5.269,6.322c1.054,3.161,0,7.376-1.054,10.537c-2.107,2.107-4.215,5.269-7.376,5.269
		c-4.215,0-7.376,1.054-11.287-1.145c-0.576-0.173-1.747,0.576-2.412,0.328c-1.048,0.883-1.305,0.948-2.316,1.866
		c-0.444-0.179-0.786-0.19-1.409-0.543c-6.812-6.829-17.35-5.775-21.564,1.601s2.107,16.86,10.537,14.752
		c3.161-1.054,6.322-5.269,3.161-8.43c1.054,4.215-2.107,5.269-5.269,6.322c-3.161,0-5.269-2.107-6.322-5.269
		c-1.054-4.215,2.107-7.376,5.269-9.484c6.322-2.107,11.591,2.107,13.699,7.376c1.054,4.215,0,9.484-3.161,12.645
		c-3.161,3.161-8.43,3.161-13.003,3.304c-0.568,0.149-0.895,0.334-1.194,0.533c-0.305,0.479-0.605,0.962-0.901,1.446
		c-8.084-2.122-19.675-0.014-20.729,10.523c0,6.322,6.322,11.591,12.645,9.484c2.107-1.054,5.269-5.269,2.107-6.322
		c-2.107-1.054-3.161,4.215-6.322,3.161c-2.107-1.054-4.215-4.215-3.161-7.376c1.054-2.107,2.107-4.215,5.269-5.269
		c7.376-1.054,12.645,5.269,12.645,11.591c-1.054,4.215-3.161,7.376-6.322,9.484c-3.161,1.054-4.836,1.524-6.586,2.344
		c-0.389,1.107-2.184,2.804-2.439,3.929c-0.407,0.22-0.848,0.446-3.136,0.622c-9.967,0.481-15.236,11.018-11.021,18.394
		c1.054,2.107,2.107,3.161,4.215,4.215c6.322,4.215,14.752-1.054,13.699-8.43c0-2.107-2.107-3.161-3.161-4.215
		c-2.107,0-5.269-1.054-6.322,3.161c3.161-1.054,6.322,1.054,5.269,4.215c-2.107,4.215-6.322,3.161-9.484,1.054
		c-3.161-4.215-2.107-11.591,4.215-13.699c4.215-1.054,8.43-1.054,11.591,3.161c2.107,3.161,3.161,5.269,3.161,9.484
		c0,3.161-2.107,5.269-3.161,7.376c-2.107,3.161-4.035,2.283-5.796,4.188c-0.008,0.832-2.239,2.532-2.161,3.351
		c0.105,1.091,0.226,2.177,0.365,3.258c-1.892,1.848-4,1.848-6.107,3.955c-4.215,7.376-4.215,16.86,4.215,20.021
		c6.322,2.107,12.645-2.107,11.591-9.484c-1.054-3.161-6.322-5.269-6.322-1.054c0,1.054,0,3.161,0,4.215
		c-2.107,0-4.215,0-5.269-2.107c-2.107-3.161,0-5.269,1.054-7.376c4.215-5.269,10.537-2.107,14.752,1.054
		c4.215,5.269,3.161,14.752-3.871,18.332c-1.28,0.973-1.531,1.371-1.758,1.75c0.218,0.484,0.438,0.966,0.664,1.447
		c-0.699,0.657-0.962,1.031-1.39,1.555c-2.074,2.205-3.128,4.313-4.182,7.474c-2.107,8.43,5.269,16.86,13.699,14.752
		c4.215-1.054,8.43-6.322,6.322-10.537c-1.054-2.107-2.107-3.161-4.215-4.215c-2.107-1.054-5.269,1.054-5.269,3.161
		c1.054,2.107,5.269,2.107,4.215,5.269c-1.054,1.054-3.161,2.107-5.269,1.054c-2.107-1.054-3.161-2.107-4.215-4.215
		c-2.107-6.322,3.161-10.537,8.43-11.591c2.107,0,3.161,0,5.269,1.054c6.322,4.215,9.484,12.645,4.618,19.012
		c-1.218,1.837-1.307,2.319-1.319,2.72c8.082,9.231,17.741,17.204,28.593,23.557c-7.722-12.376-12.215-27.056-12.215-42.817
		c0-44.092,35.016-79.837,78.209-79.837c43.193,0,78.207,35.745,78.207,79.837c0,12.169-2.678,23.696-7.448,34.017
		c4.925-3.848,9.506-8.067,13.697-12.613c0.698-0.757,1.411-1.508,2.166-2.241c9.38,2.601,20.971-3.721,17.81-14.258
		c-1.054-2.107-2.107-3.161-4.215-4.215c-2.107,0-5.269-1.054-7.376,1.054c-5.269,4.215,6.322,6.322,2.107,9.484
		c-2.107,1.054-4.215,1.054-6.322-1.054c-1.054-1.054-3.161-2.107-3.161-4.215c-1.054-5.269,2.107-11.591,8.43-12.645
		c3.161,0,6.322,0,9.651-0.301c0.997-0.602,2.131-1.004,3.317-1.388c2.369-0.77,4.946-1.472,7.053-3.579
		c3.161-4.215,5.269-10.537,0-14.752c-2.107-1.054-4.215-3.161-7.376-2.107c-4.215,2.107-2.107,6.322-2.107,9.484
		c0,2.107-3.161,1.054-5.269,0c-1.054-1.054-2.107-3.161-2.107-5.269c0-8.43,8.43-11.591,15.052-13.07
		c0.367-0.177,0.738-0.365,1.95-0.382c9.342,1.862,19.879-10.783,12.503-19.213c-2.107-2.107-5.269-4.215-8.43-3.161
		c-2.107,1.054-5.269,2.107-5.269,5.269c2.107-1.054,4.215-3.161,7.376-2.107c1.054,1.054,3.161,1.054,4.215,2.107
		c3.161,5.269,0,10.537-5.269,12.645c-8.43,2.107-14.752-4.215-14.752-12.645c0-5.269,4.863-7.261,6.586-11.091
		c0.515-0.214,1.244-1.623,2.239-1.896c9.088-1.766,15.411-11.249,10.142-19.679c-2.107-2.107-4.215-4.215-7.376-4.215
		c-3.161,0-7.376,2.107-7.376,6.322c1.054-1.054,2.107-2.107,3.161-3.161c2.107,0,3.161,0,5.269,0
		c6.322,1.054,6.322,8.43,3.161,12.645c-3.161,4.215-7.376,5.269-11.591,4.215c-6.322-2.107-9.484-10.537-8.43-16.86
		c1.054-2.107,0.537-1.558,1.317-3.188c-0.146-0.59,1.231-2.725,0.994-3.216c6.119-5.187,14.549-12.563,8.226-22.047
		c-2.107-2.107-4.215-3.161-6.322-4.215c-4.215,0-8.43-1.054-10.537,3.161c-1.054,3.161-2.107,5.269,0,8.43
		c0-3.161,1.054-5.269,2.107-7.376c2.107-3.161,5.269-2.107,7.376-2.107c5.269,1.054,7.376,6.322,6.322,11.591
		c-2.107,6.322-6.322,8.43-11.591,8.43c-8.43,0-12.645-9.484-11.513-17.952c0.084-0.646-1.767-1.677-1.659-2.36
		c-0.895-1.035,0.068-1.456-0.865-2.458c0.285-0.438,0.306-0.755,0.555-1.235c6.106-4.446,9.268-14.984,2.945-21.306
		c-3.161-2.107-6.322-4.215-10.537-3.161c-6.322,1.054-8.43,5.269-9.484,10.537c0,2.107,2.107,4.215,3.161,6.322
		c2.107,2.107,5.269,3.161,8.43,2.107c1.054-1.054,2.107-3.161,3.161-4.215c-2.107,2.107-4.215,4.215-7.376,3.161
		c-7.376-2.107-6.322-11.591-1.054-14.752c6.322-4.215,12.645,1.054,14.752,7.376c1.054,3.161-1.054,5.269-1.054,7.376
		c-3.161,4.215-7.376,7.376-13.699,6.322c-7.376-2.107-10.537-9.484-11.852-16.935c0.388-0.597,0.713-1.154,1.066-1.79
		c0.352-0.636,0.73-1.352,1.219-2.265c4.297-8.514-0.971-17.997-10.455-19.051c-3.161-1.054-6.322,1.054-8.43,3.161
		c-2.107,2.107-3.161,6.322-2.107,9.484c2.107,4.215,5.269,6.322,10.537,4.215c-4.215,0-7.376,0-8.43-4.215
		c-2.107-5.269,3.161-9.484,8.43-10.537c2.107,0,4.215,1.054,5.269,2.107c4.215,4.215,6.322,10.537,2.107,14.752
		c-3.161,3.161-7.376,6.322-12.645,5.269c-6.322-2.107-10.537-6.322-11.154-12.705c-0.21-0.482-0.359-0.623-0.505-0.674
		c0.068-9.803-5.201-22.447-16.792-15.071c-1.054,0-5.269,4.215-1.054,4.215c2.107,1.054,3.161-3.161,6.322-2.107
		c2.107,0,3.161,2.107,4.215,3.161c3.161,5.269,0,10.537-4.215,12.645c-7.376,3.161-14.385-1.312-17.65-8.457
		c-0.611-0.151-1.597-1.064-2.205-1.244c-0.166-9.267-9.649-16.643-18.079-13.482c-5.269,3.161-7.376,10.537-1.737,15.313
		C122.191,18.04,123.063,18.294,123.884,18.284z"/>
	<path d="M226.881,122.188c7.819-1.279,17.302,5.043,17.302,13.473c1.054-9.484-9.484-14.752-16.86-12.645
		c-2.107,1.054-4.215,2.107-6.322,4.215c-3.161,3.161-3.161,7.376-2.107,11.591c2.107,3.161,5.269,5.269,9.484,6.322
		c7.376,1.054,11.591-6.322,9.484-12.645c-1.054-3.161-5.269-5.269-8.43-4.215c-2.107,1.054-3.161,3.161-4.215,4.215
		c0,4.215,3.161,6.322,7.376,6.322c-3.161,1.054-7.376,3.161-9.484-1.054c-1.054-3.161,0-6.322,2.107-8.43
		c6.322-6.322,15.806,1.054,13.699,7.376c0,1.054-1.054,3.161-2.107,5.269c-3.161,3.161-7.376,4.215-11.591,3.161
		c-7.376-2.107-8.43-11.591-4.754-17.584C221.928,125.286,224.327,123.384,226.881,122.188z"/>
	<path d="M207.223,69.971c7.819-1.279,17.302,5.043,17.302,13.473c1.054-9.484-9.484-14.752-16.86-12.645
		c-2.107,1.054-4.215,2.107-6.322,4.215c-3.161,3.161-3.161,7.376-2.107,11.591c2.107,3.161,5.269,5.269,9.484,6.322
		c7.376,1.054,11.591-6.322,9.484-12.645c-1.054-3.161-5.269-5.269-8.43-4.215c-2.107,1.054-3.161,3.161-4.215,4.215
		c0,4.215,3.161,6.322,7.376,6.322c-3.161,1.054-7.376,3.161-9.484-1.054c-1.054-3.161,0-6.322,2.107-8.43
		c6.322-6.322,15.806,1.054,13.699,7.376c0,1.054-1.054,3.161-2.107,5.269c-3.161,3.161-7.376,4.215-11.591,3.161
		c-7.376-2.107-8.43-11.591-4.754-17.584C202.27,73.069,204.669,71.167,207.223,69.971z"/>
	<path d="M150.09,61.985c7.819-1.279,17.302,5.043,17.302,13.473c1.054-9.484-9.484-14.752-16.86-12.645
		c-2.107,1.054-4.215,2.107-6.322,4.215c-3.161,3.161-3.161,7.376-2.107,11.591c2.107,3.161,5.269,5.269,9.484,6.322
		c7.376,1.054,11.591-6.322,9.484-12.645c-1.054-3.161-5.269-5.269-8.43-4.215c-2.107,1.054-3.161,3.161-4.215,4.215
		c0,4.215,3.161,6.322,7.376,6.322c-3.161,1.054-7.376,3.161-9.484-1.054c-1.054-3.161,0-6.322,2.107-8.43
		c6.322-6.322,15.806,1.054,13.699,7.376c0,1.054-1.054,3.161-2.107,5.269c-3.161,3.161-7.376,4.215-11.591,3.161
		c-7.376-2.107-8.43-11.591-4.754-17.584C145.139,65.083,147.538,63.181,150.09,61.985z"/>
	<path d="M178.35,39.256c7.819-1.279,17.302,5.043,17.302,13.473c1.054-9.484-9.484-14.752-16.86-12.645
		c-2.107,1.054-4.215,2.107-6.322,4.215c-3.161,3.161-3.161,7.376-2.107,11.591c2.107,3.161,5.269,5.269,9.484,6.322
		c7.376,1.054,11.591-6.322,9.484-12.645c-1.054-3.161-5.269-5.269-8.43-4.215c-2.107,1.054-3.161,3.161-4.215,4.215
		c0,4.215,3.161,6.322,7.376,6.322c-3.161,1.054-7.376,3.161-9.484-1.054c-1.054-3.161,0-6.322,2.107-8.43
		c6.322-6.322,15.806,1.054,13.699,7.376c0,1.054-1.054,3.161-2.107,5.269c-3.161,3.161-7.376,4.215-11.591,3.161
		c-7.376-2.107-8.43-11.591-4.754-17.584C173.397,42.353,175.796,40.451,178.35,39.256z"/>
	<path d="M135.962,24.512c7.819-1.279,17.302,5.043,17.302,13.473c1.054-9.484-9.484-14.752-16.86-12.645
		c-2.107,1.054-4.215,2.107-6.322,4.215c-3.161,3.161-3.161,7.376-2.107,11.591c2.107,3.161,5.269,5.269,9.484,6.322
		c7.376,1.054,11.591-6.322,9.484-12.645c-1.054-3.161-5.269-5.269-8.43-4.215c-2.107,1.054-3.161,3.161-4.215,4.215
		c0,4.215,3.161,6.322,7.376,6.322c-3.161,1.054-7.376,3.161-9.484-1.054c-1.054-3.161,0-6.322,2.107-8.43
		c6.322-6.322,15.806,1.054,13.699,7.376c0,1.054-1.054,3.161-2.107,5.269c-3.161,3.161-7.376,4.215-11.591,3.161
		c-7.376-2.107-8.43-11.591-4.754-17.584C131.01,27.609,133.409,25.707,135.962,24.512z"/>
	<path d="M68.387,56.456c7.819-1.279,17.302,5.043,17.302,13.473c1.054-9.484-9.484-14.752-16.86-12.645
		c-2.107,1.054-4.215,2.107-6.322,4.215c-3.161,3.161-3.161,7.376-2.107,11.591c2.107,3.161,5.269,5.269,9.484,6.322
		c7.376,1.054,11.591-6.322,9.484-12.645c-1.054-3.161-5.269-5.269-8.43-4.215c-2.107,1.054-3.161,3.161-4.215,4.215
		c0,4.215,3.161,6.322,7.376,6.322c-3.161,1.054-7.376,3.161-9.484-1.054c-1.054-3.161,0-6.322,2.107-8.43
		c6.322-6.322,15.806,1.054,13.699,7.376c0,1.054-1.054,3.161-2.107,5.269c-3.161,3.161-7.376,4.215-11.591,3.161
		c-7.376-2.107-8.43-11.591-4.754-17.584C63.435,59.554,65.835,57.652,68.387,56.456z"/>
	<path d="M70.69,95.262c4.493-0.735,9.942,2.898,9.942,7.741c0.605-5.449-5.449-8.477-9.688-7.266
		c-1.21,0.606-2.421,1.211-3.633,2.422c-1.816,1.816-1.816,4.238-1.21,6.66c1.21,1.817,3.027,3.027,5.449,3.633
		c4.239,0.606,6.66-3.633,5.449-7.266c-0.605-1.816-3.027-3.027-4.843-2.422c-1.212,0.606-1.817,1.816-2.422,2.422
		c0,2.422,1.816,3.633,4.238,3.633c-1.815,0.606-4.238,1.817-5.449-0.605c-0.606-1.817,0-3.633,1.211-4.844
		c3.633-3.633,9.082,0.605,7.871,4.238c0,0.606-0.606,1.816-1.211,3.027c-1.816,1.816-4.238,2.422-6.66,1.816
		c-4.239-1.211-4.845-6.66-2.732-10.104C67.843,97.041,69.222,95.948,70.69,95.262z"/>
	<path d="M180.038,86.047c4.493-0.735,9.943,2.898,9.943,7.741c0.605-5.449-5.45-8.477-9.688-7.266
		c-1.211,0.606-2.421,1.211-3.633,2.422c-1.815,1.816-1.815,4.238-1.21,6.66c1.21,1.817,3.027,3.027,5.45,3.633
		c4.238,0.606,6.66-3.633,5.449-7.266c-0.606-1.816-3.027-3.027-4.844-2.422c-1.211,0.606-1.817,1.816-2.422,2.422
		c0,2.422,1.817,3.633,4.239,3.633c-1.816,0.606-4.239,1.817-5.449-0.605c-0.606-1.817,0-3.633,1.21-4.844
		c3.633-3.633,9.082,0.605,7.872,4.238c0,0.606-0.606,1.816-1.212,3.027c-1.815,1.816-4.238,2.422-6.66,1.816
		c-4.238-1.211-4.844-6.66-2.731-10.104C177.191,87.827,178.57,86.733,180.038,86.047z"/>
	<path d="M222.426,98.333c4.493-0.735,9.943,2.898,9.943,7.741c0.605-5.449-5.45-8.477-9.688-7.266
		c-1.211,0.606-2.421,1.211-3.634,2.422c-1.815,1.816-1.815,4.238-1.21,6.66c1.21,1.817,3.027,3.027,5.45,3.633
		c4.238,0.606,6.66-3.633,5.449-7.266c-0.606-1.816-3.027-3.027-4.844-2.422c-1.211,0.606-1.817,1.816-2.422,2.422
		c0,2.422,1.817,3.632,4.239,3.632c-1.816,0.606-4.239,1.817-5.449-0.605c-0.606-1.817,0-3.633,1.21-4.844
		c3.632-3.633,9.082,0.605,7.872,4.238c0,0.606-0.606,1.816-1.212,3.027c-1.815,1.816-4.238,2.422-6.66,1.816
		c-4.238-1.211-4.844-6.66-2.731-10.104C219.579,100.113,220.958,99.02,222.426,98.333z"/>
	<path d="M200.31,102.634c4.493-0.735,9.943,2.898,9.943,7.741c0.605-5.449-5.45-8.477-9.687-7.266
		c-1.211,0.606-2.422,1.211-3.634,2.422c-1.816,1.816-1.816,4.238-1.211,6.66c1.211,1.817,3.027,3.027,5.45,3.633
		c4.238,0.606,6.66-3.633,5.45-7.266c-0.606-1.816-3.027-3.027-4.845-2.422c-1.21,0.606-1.816,1.816-2.421,2.422
		c0,2.422,1.816,3.633,4.239,3.633c-1.817,0.606-4.239,1.817-5.45-0.605c-0.605-1.817,0-3.633,1.211-4.844
		c3.632-3.633,9.081,0.605,7.871,4.238c0,0.606-0.605,1.816-1.211,3.027c-1.816,1.816-4.239,2.422-6.66,1.816
		c-4.239-1.211-4.844-6.66-2.732-10.104C197.464,104.413,198.843,103.32,200.31,102.634z"/>
	<path d="M38.745,162.222c4.493-0.735,9.942,2.898,9.942,7.741c0.605-5.449-5.449-8.477-9.687-7.266
		c-1.21,0.606-2.422,1.211-3.633,2.422c-1.817,1.816-1.817,4.238-1.211,6.66c1.211,1.817,3.027,3.027,5.449,3.633
		c4.239,0.606,6.66-3.633,5.45-7.266c-0.605-1.816-3.027-3.027-4.844-2.422c-1.211,0.606-1.816,1.816-2.421,2.422
		c0,2.422,1.815,3.633,4.238,3.633c-1.816,0.606-4.238,1.817-5.45-0.605c-0.605-1.817,0-3.633,1.212-4.844
		c3.632-3.633,9.081,0.605,7.87,4.238c0,0.606-0.605,1.816-1.21,3.027c-1.817,1.816-4.239,2.422-6.66,1.816
		c-4.24-1.211-4.845-6.66-2.733-10.104C35.9,164.002,37.279,162.908,38.745,162.222z"/>
	<path d="M45.618,63.97c4.493-0.735,9.942,2.898,9.942,7.741c0.605-5.449-5.449-8.477-9.688-7.266
		c-1.21,0.606-2.421,1.211-3.633,2.422c-1.816,1.816-1.816,4.238-1.21,6.66c1.21,1.817,3.027,3.027,5.449,3.633
		c4.239,0.606,6.66-3.633,5.449-7.266c-0.605-1.816-3.027-3.027-4.843-2.422c-1.212,0.606-1.817,1.816-2.422,2.422
		c0,2.422,1.816,3.633,4.237,3.633c-1.815,0.606-4.237,1.817-5.449-0.605c-0.606-1.817,0-3.633,1.211-4.844
		c3.632-3.633,9.082,0.605,7.871,4.238c0,0.606-0.606,1.816-1.211,3.027c-1.816,1.816-4.238,2.422-6.66,1.816
		c-4.239-1.211-4.845-6.66-2.732-10.104C42.772,65.75,44.151,64.656,45.618,63.97z"/>
	<path d="M132.436,50.146c4.493-0.735,9.943,2.898,9.943,7.741c0.605-5.449-5.45-8.477-9.688-7.266
		c-1.211,0.606-2.421,1.211-3.634,2.422c-1.815,1.816-1.815,4.238-1.21,6.66c1.21,1.817,3.027,3.027,5.45,3.633
		c4.238,0.606,6.66-3.633,5.449-7.266c-0.606-1.816-3.027-3.027-4.844-2.422c-1.211,0.606-1.817,1.816-2.422,2.422
		c0,2.422,1.817,3.632,4.239,3.632c-1.816,0.606-4.239,1.817-5.449-0.605c-0.606-1.817,0-3.633,1.21-4.844
		c3.632-3.633,9.082,0.605,7.872,4.238c0,0.606-0.606,1.816-1.212,3.027c-1.815,1.816-4.238,2.422-6.66,1.816
		c-4.238-1.211-4.844-6.66-2.731-10.104C129.59,51.926,130.969,50.832,132.436,50.146z"/>
	<path d="M50.833,108.093c4.07-0.666,9.006,2.625,9.006,7.013c0.549-4.937-4.936-7.68-8.777-6.582
		c-1.096,0.548-2.194,1.096-3.291,2.194c-1.645,1.646-1.645,3.839-1.097,6.034c1.097,1.646,2.742,2.742,4.936,3.291
		c3.84,0.549,6.034-3.291,4.937-6.582c-0.549-1.646-2.743-2.743-4.388-2.195c-1.098,0.549-1.646,1.646-2.194,2.195
		c0,2.194,1.644,3.291,3.838,3.291c-1.644,0.548-3.838,1.646-4.936-0.548c-0.548-1.646,0-3.291,1.098-4.388
		c3.291-3.291,8.227,0.548,7.13,3.839c0,0.548-0.548,1.645-1.098,2.743c-1.644,1.645-3.838,2.194-6.032,1.645
		c-3.84-1.097-4.39-6.034-2.476-9.154C48.255,109.705,49.504,108.714,50.833,108.093z"/>
	<path d="M29.495,108.946c4.071-0.666,9.008,2.625,9.008,7.013c0.547-4.937-4.937-7.68-8.778-6.582
		c-1.097,0.548-2.194,1.096-3.291,2.194c-1.645,1.645-1.645,3.839-1.097,6.034c1.097,1.646,2.742,2.742,4.937,3.291
		c3.838,0.548,6.032-3.291,4.936-6.582c-0.548-1.645-2.742-2.743-4.389-2.194c-1.097,0.549-1.645,1.645-2.194,2.194
		c0,2.194,1.646,3.291,3.84,3.291c-1.646,0.548-3.84,1.646-4.937-0.548c-0.548-1.646,0-3.291,1.097-4.388
		c3.291-3.291,8.228,0.548,7.131,3.839c0,0.548-0.548,1.645-1.097,2.743c-1.646,1.645-3.84,2.194-6.034,1.645
		c-3.839-1.097-4.388-6.034-2.475-9.154C26.917,110.558,28.167,109.567,29.495,108.946z"/>
	<path d="M186.063,69.456c4.07-0.666,9.007,2.625,9.007,7.013c0.548-4.937-4.937-7.68-8.778-6.582
		c-1.096,0.548-2.194,1.096-3.291,2.194c-1.644,1.646-1.644,3.839-1.097,6.034c1.097,1.646,2.743,2.742,4.937,3.291
		c3.839,0.548,6.033-3.291,4.937-6.582c-0.549-1.646-2.743-2.743-4.389-2.195c-1.098,0.549-1.645,1.646-2.194,2.195
		c0,2.194,1.645,3.291,3.839,3.291c-1.646,0.548-3.839,1.646-4.937-0.548c-0.547-1.646,0-3.291,1.098-4.388
		c3.291-3.291,8.227,0.548,7.13,3.839c0,0.548-0.547,1.645-1.097,2.743c-1.645,1.645-3.839,2.194-6.033,1.645
		c-3.839-1.097-4.389-6.034-2.475-9.154C183.485,71.068,184.734,70.077,186.063,69.456z"/>
	<path d="M236.391,107.365c3.331-0.545,7.37,2.148,7.37,5.739c0.449-4.04-4.039-6.284-7.182-5.387
		c-0.897,0.449-1.796,0.897-2.693,1.795c-1.347,1.346-1.347,3.142-0.898,4.937c0.898,1.347,2.245,2.244,4.04,2.694
		c3.143,0.449,4.937-2.694,4.04-5.386c-0.449-1.347-2.244-2.245-3.591-1.796c-0.897,0.449-1.346,1.346-1.795,1.796
		c0,1.795,1.346,2.692,3.142,2.692c-1.347,0.449-3.142,1.347-4.04-0.449c-0.449-1.347,0-2.693,0.898-3.59
		c2.692-2.693,6.732,0.448,5.835,3.142c0,0.449-0.449,1.346-0.897,2.244c-1.347,1.347-3.143,1.795-4.937,1.347
		c-3.143-0.898-3.591-4.937-2.025-7.49C234.28,108.684,235.303,107.873,236.391,107.365z"/>
	<path d="M212.858,114.039c3.33-0.545,7.37,2.148,7.37,5.739c0.449-4.04-4.04-6.284-7.183-5.386
		c-0.896,0.449-1.795,0.897-2.692,1.795c-1.346,1.346-1.346,3.142-0.897,4.937c0.897,1.347,2.243,2.244,4.04,2.694
		c3.141,0.449,4.936-2.694,4.039-5.386c-0.45-1.346-2.244-2.245-3.59-1.796c-0.899,0.449-1.348,1.347-1.796,1.796
		c0,1.795,1.347,2.693,3.142,2.693c-1.346,0.449-3.142,1.347-4.04-0.449c-0.449-1.347,0-2.693,0.898-3.59
		c2.693-2.693,6.733,0.448,5.835,3.142c0,0.449-0.449,1.346-0.898,2.244c-1.346,1.347-3.141,1.795-4.936,1.347
		c-3.142-0.898-3.591-4.937-2.026-7.49C210.748,115.358,211.77,114.547,212.858,114.039z"/>
	<path d="M128.559,78.914c3.33-0.545,7.37,2.148,7.37,5.739c0.449-4.04-4.04-6.284-7.183-5.387
		c-0.896,0.449-1.795,0.897-2.692,1.795c-1.346,1.346-1.346,3.142-0.897,4.937c0.897,1.347,2.243,2.244,4.04,2.694
		c3.141,0.449,4.936-2.694,4.039-5.386c-0.45-1.347-2.244-2.245-3.59-1.796c-0.899,0.449-1.348,1.346-1.796,1.796
		c0,1.795,1.347,2.692,3.142,2.692c-1.346,0.449-3.142,1.347-4.04-0.449c-0.449-1.347,0-2.693,0.898-3.59
		c2.693-2.693,6.733,0.448,5.835,3.142c0,0.449-0.449,1.346-0.898,2.244c-1.346,1.347-3.141,1.795-4.936,1.347
		c-3.142-0.898-3.591-4.937-2.026-7.49C126.449,80.233,127.471,79.423,128.559,78.914z"/>
	<path d="M113.105,49.761c3.33-0.545,7.37,2.148,7.37,5.739c0.449-4.04-4.04-6.284-7.183-5.386
		c-0.897,0.449-1.795,0.897-2.692,1.795c-1.347,1.346-1.347,3.142-0.898,4.937c0.898,1.347,2.244,2.244,4.04,2.694
		c3.142,0.449,4.936-2.694,4.039-5.386c-0.449-1.346-2.243-2.245-3.59-1.796c-0.898,0.449-1.347,1.347-1.796,1.796
		c0,1.795,1.347,2.693,3.143,2.693c-1.347,0.449-3.143,1.347-4.04-0.449c-0.449-1.347,0-2.693,0.897-3.59
		c2.693-2.693,6.733,0.448,5.835,3.142c0,0.449-0.449,1.346-0.897,2.244c-1.346,1.347-3.142,1.795-4.937,1.347
		c-3.142-0.898-3.591-4.937-2.025-7.49C110.994,51.08,112.016,50.269,113.105,49.761z"/>
	<path d="M203.726,53.976c3.33-0.545,7.37,2.148,7.37,5.739c0.449-4.04-4.04-6.284-7.183-5.386
		c-0.897,0.449-1.795,0.897-2.692,1.795c-1.347,1.346-1.347,3.142-0.898,4.937c0.898,1.347,2.244,2.244,4.04,2.694
		c3.142,0.449,4.936-2.694,4.039-5.386c-0.449-1.346-2.243-2.245-3.59-1.796c-0.898,0.449-1.347,1.347-1.796,1.796
		c0,1.795,1.347,2.693,3.143,2.693c-1.347,0.449-3.143,1.347-4.04-0.449c-0.449-1.347,0-2.693,0.897-3.59
		c2.693-2.693,6.733,0.448,5.835,3.142c0,0.449-0.449,1.346-0.897,2.244c-1.346,1.347-3.142,1.795-4.937,1.347
		c-3.142-0.898-3.591-4.937-2.025-7.49C201.615,55.295,202.637,54.484,203.726,53.976z"/>
	<path d="M162.278,27.983c3.33-0.545,7.37,2.148,7.37,5.739c0.449-4.04-4.04-6.284-7.183-5.386
		c-0.896,0.449-1.795,0.897-2.692,1.795c-1.346,1.346-1.346,3.142-0.897,4.937c0.897,1.347,2.243,2.244,4.04,2.694
		c3.141,0.449,4.936-2.694,4.039-5.386c-0.45-1.347-2.244-2.245-3.59-1.796c-0.899,0.449-1.348,1.346-1.796,1.796
		c0,1.795,1.347,2.692,3.142,2.692c-1.346,0.449-3.142,1.347-4.04-0.449c-0.449-1.347,0-2.693,0.898-3.59
		c2.693-2.693,6.733,0.448,5.835,3.142c0,0.449-0.449,1.346-0.898,2.244c-1.346,1.346-3.141,1.795-4.936,1.346
		c-3.142-0.898-3.591-4.937-2.026-7.49C160.169,29.302,161.191,28.492,162.278,27.983z"/>
	<path d="M155.604,44.492c3.331-0.545,7.37,2.148,7.37,5.739c0.449-4.04-4.039-6.284-7.182-5.386
		c-0.896,0.449-1.796,0.897-2.693,1.795c-1.346,1.346-1.346,3.142-0.897,4.937c0.897,1.347,2.244,2.244,4.04,2.694
		c3.142,0.449,4.937-2.694,4.04-5.386c-0.45-1.346-2.245-2.245-3.591-1.796c-0.898,0.449-1.347,1.347-1.795,1.796
		c0,1.795,1.346,2.693,3.141,2.693c-1.346,0.449-3.141,1.347-4.04-0.449c-0.449-1.347,0-2.693,0.899-3.59
		c2.692-2.693,6.732,0.448,5.835,3.142c0,0.449-0.449,1.346-0.898,2.244c-1.347,1.347-3.142,1.795-4.936,1.347
		c-3.143-0.898-3.591-4.937-2.026-7.49C153.495,45.811,154.517,45.001,155.604,44.492z"/>
	<path d="M74.818,39.926c3.33-0.545,7.37,2.148,7.37,5.739c0.449-4.04-4.04-6.284-7.183-5.387c-0.897,0.449-1.795,0.897-2.692,1.795
		c-1.347,1.346-1.347,3.142-0.898,4.937c0.898,1.347,2.244,2.244,4.04,2.694c3.142,0.449,4.936-2.694,4.039-5.386
		c-0.449-1.347-2.243-2.245-3.59-1.796c-0.898,0.449-1.347,1.346-1.796,1.796c0,1.795,1.347,2.692,3.143,2.692
		c-1.347,0.449-3.143,1.347-4.04-0.449c-0.449-1.347,0-2.693,0.897-3.59c2.693-2.693,6.733,0.448,5.835,3.142
		c0,0.449-0.449,1.346-0.897,2.244c-1.346,1.347-3.142,1.795-4.937,1.347c-3.142-0.898-3.591-4.937-2.025-7.49
		C72.708,41.245,73.73,40.434,74.818,39.926z"/>
	<path d="M57.607,46.951c3.331-0.545,7.37,2.148,7.37,5.739c0.449-4.04-4.039-6.284-7.182-5.386
		c-0.896,0.449-1.796,0.897-2.693,1.795c-1.346,1.346-1.346,3.142-0.897,4.937c0.897,1.347,2.244,2.244,4.04,2.694
		c3.142,0.449,4.937-2.694,4.04-5.386c-0.45-1.347-2.245-2.245-3.591-1.796c-0.898,0.449-1.347,1.346-1.795,1.796
		c0,1.795,1.346,2.692,3.141,2.692c-1.346,0.449-3.141,1.347-4.04-0.449c-0.449-1.347,0-2.693,0.899-3.59
		c2.692-2.693,6.732,0.448,5.835,3.142c0,0.449-0.449,1.346-0.898,2.244c-1.347,1.346-3.142,1.795-4.936,1.346
		c-3.143-0.898-3.591-4.937-2.026-7.49C55.497,48.269,56.52,47.459,57.607,46.951z"/>
	<path d="M229.366,152.324c3.331-0.545,7.37,2.148,7.37,5.739c0.449-4.04-4.039-6.284-7.182-5.386
		c-0.896,0.449-1.796,0.897-2.693,1.795c-1.346,1.346-1.346,3.142-0.897,4.937c0.897,1.347,2.244,2.244,4.04,2.694
		c3.142,0.449,4.937-2.694,4.04-5.386c-0.45-1.347-2.245-2.245-3.591-1.796c-0.898,0.449-1.347,1.346-1.795,1.796
		c0,1.795,1.346,2.692,3.141,2.692c-1.346,0.449-3.141,1.347-4.04-0.449c-0.449-1.347,0-2.693,0.899-3.59
		c2.692-2.693,6.732,0.448,5.835,3.142c0,0.449-0.449,1.346-0.898,2.244c-1.347,1.346-3.142,1.795-4.936,1.346
		c-3.143-0.898-3.591-4.937-2.026-7.49C227.256,153.643,228.279,152.833,229.366,152.324z"/>
	<path d="M217.775,145.651c3.331-0.545,7.37,2.148,7.37,5.739c0.449-4.04-4.039-6.284-7.182-5.386
		c-0.896,0.449-1.796,0.897-2.693,1.795c-1.346,1.346-1.346,3.142-0.897,4.937c0.897,1.347,2.244,2.244,4.04,2.694
		c3.142,0.449,4.937-2.694,4.04-5.386c-0.45-1.346-2.245-2.245-3.591-1.796c-0.898,0.449-1.347,1.347-1.795,1.796
		c0,1.795,1.346,2.693,3.141,2.693c-1.346,0.449-3.141,1.347-4.04-0.449c-0.449-1.347,0-2.693,0.899-3.59
		c2.692-2.693,6.732,0.448,5.835,3.142c0,0.449-0.449,1.346-0.898,2.244c-1.347,1.347-3.142,1.795-4.936,1.347
		c-3.143-0.898-3.591-4.937-2.026-7.49C215.665,146.97,216.688,146.159,217.775,145.651z"/>
	<path d="M104.632,64.443c7.819-1.279,17.302,5.043,17.302,13.473c1.054-9.484-9.484-14.752-16.86-12.645
		c-2.107,1.054-4.215,2.107-6.322,4.215c-3.161,3.161-3.161,7.376-2.107,11.591c2.107,3.161,5.269,5.269,9.484,6.322
		c7.376,1.054,11.591-6.322,9.484-12.645c-1.054-3.161-5.269-5.269-8.43-4.215c-2.107,1.054-3.161,3.161-4.215,4.215
		c0,4.215,3.161,6.322,7.376,6.322c-3.161,1.054-7.376,3.161-9.484-1.054c-1.054-3.161,0-6.322,2.107-8.43
		c6.322-6.322,15.806,1.054,13.699,7.376c0,1.054-1.054,3.161-2.107,5.269c-3.161,3.161-7.376,4.215-11.591,3.161
		c-7.376-2.107-8.43-11.591-4.754-17.584C99.68,67.54,102.079,65.638,104.632,64.443z"/>
	<path d="M95.418,29.888c7.819-1.279,17.302,5.043,17.302,13.473c1.054-9.484-9.484-14.752-16.86-12.645
		c-2.107,1.054-4.215,2.107-6.322,4.215c-3.161,3.161-3.161,7.376-2.107,11.591c2.107,3.161,5.269,5.269,9.484,6.322
		c7.376,1.054,11.591-6.322,9.484-12.645c-1.054-3.161-5.269-5.269-8.43-4.215c-2.107,1.054-3.161,3.161-4.215,4.215
		c0,4.215,3.161,6.322,7.376,6.322c-3.161,1.054-7.376,3.161-9.484-1.054c-1.054-3.161,0-6.322,2.107-8.43
		c6.322-6.322,15.806,1.054,13.699,7.376c0,1.054-1.054,3.161-2.107,5.269c-3.161,3.161-7.376,4.215-11.591,3.161
		c-7.376-2.107-8.43-11.591-4.754-17.584C90.465,32.985,92.863,31.083,95.418,29.888z"/>
	<path d="M39.514,125.874c7.819-1.279,17.302,5.043,17.302,13.473c1.054-9.484-9.484-14.752-16.86-12.645
		c-2.107,1.054-4.215,2.107-6.322,4.215c-3.161,3.161-3.161,7.376-2.107,11.591c2.107,3.161,5.269,5.269,9.484,6.322
		c7.376,1.054,11.591-6.322,9.484-12.645c-1.054-3.161-5.269-5.269-8.43-4.215c-2.107,1.054-3.161,3.161-4.215,4.215
		c0,4.215,3.161,6.322,7.376,6.322c-3.161,1.054-7.376,3.161-9.484-1.054c-1.054-3.161,0-6.322,2.107-8.43
		c6.322-6.322,15.806,1.054,13.699,7.376c0,1.054-1.054,3.161-2.107,5.269c-3.161,3.161-7.376,4.215-11.591,3.161
		c-7.376-2.107-8.43-11.591-4.754-17.584C34.562,128.972,36.961,127.07,39.514,125.874z"/>
	<path d="M38.901,81.644c7.819-1.279,17.302,5.043,17.302,13.473c1.054-9.484-9.484-14.752-16.86-12.645
		c-2.107,1.054-4.215,2.107-6.322,4.215c-3.161,3.161-3.161,7.376-2.107,11.591c2.107,3.161,5.269,5.269,9.484,6.322
		c7.376,1.054,11.591-6.322,9.484-12.645c-1.054-3.161-5.269-5.269-8.43-4.215c-2.107,1.054-3.161,3.161-4.215,4.215
		c0,4.215,3.161,6.322,7.376,6.322c-3.161,1.054-7.376,3.161-9.484-1.054c-1.054-3.161,0-6.322,2.107-8.43
		c6.322-6.322,15.806,1.054,13.699,7.376c0,1.054-1.054,3.161-2.107,5.269c-3.161,3.161-7.376,4.215-11.591,3.161
		c-7.376-2.107-8.43-11.591-4.754-17.584C33.948,84.741,36.347,82.839,38.901,81.644z"/>
</g>
</svg>
