<?xml version="1.0" encoding="utf-8"?>
<!-- Generator: Adobe Illustrator 17.0.0, SVG Export Plug-In . SVG Version: 6.00 Build 0)  -->
<!DOCTYPE svg PUBLIC "-//W3C//DTD SVG 1.1//EN" "http://www.w3.org/Graphics/SVG/1.1/DTD/svg11.dtd">
<svg version="1.1" id="Layer_1" xmlns="http://www.w3.org/2000/svg" xmlns:xlink="http://www.w3.org/1999/xlink" x="0px" y="0px"
	 width="108.578px" height="52.223px" viewBox="0 0 108.578 52.223" enable-background="new 0 0 108.578 52.223"
	 xml:space="preserve">
<g>
	<path fill="#771D2E" stroke="#000000" stroke-width="2" d="M34.548,7.767c0,0,0.347,6.15-0.728,11.058s-3.757,11.723-3.529,13.425
		c0.228,1.703,6.515,2.074,11.661-0.262c5.145-2.336,19.654-8.828,19.654-8.828l5.535,11.562c0,0-18.996,14.068-28.275,15.615
		c-9.28,1.547-21.901,1.764-30.803-5.187c-8.902-6.951-7.209-17.272-6.324-25.535C2.624,11.351,7.067,1.831,7.067,1.831
		s2.35-2.176,14.278,0.513C33.272,5.036,34.548,7.767,34.548,7.767z"/>
	<path fill="#9A625B" stroke="#000000" stroke-width="1.8" d="M34.54,7.078c-0.251,1.249-6.654,1.017-14.299-0.521
		C12.596,5.02,6.898,3.374,7.149,2.124c0.251-1.249,6.357-1.63,14.002-0.092C28.797,3.569,34.792,5.828,34.54,7.078z"/>
	<ellipse transform="matrix(0.9823 0.1874 -0.1874 0.9823 1.1433 -3.7328)" cx="20.319" cy="4.182" rx="6.682" ry="1.183"/>
	<path fill="#4E0315" stroke="#000000" stroke-width="2" d="M61.606,23.159c0,0,5.609-4.044,19.589-4.141
		c13.98-0.097,21.733,3.457,21.733,3.457s1.9-1.987,3.919,0.471c2.019,2.458-0.593,5.277-2.409,4.654
		c-1.816-0.623-1.816-0.623-1.816-0.623s-12.537-2.393-17.796-0.908c-5.26,1.483-17.685,8.651-17.685,8.651L61.606,23.159z"/>
	<path fill="#590C1D" d="M7.334,4.958c0,0-3.282,8.325-3.715,13.495c-0.434,5.17-1.3,13.332,0.48,18.13
		c1.78,4.797,5.361,7.761,8.652,9.53c3.291,1.769,10.217,3.505,15.071,3.602c4.854,0.097,5.63-0.17,5.63-0.17
		S11.979,46.898,8.22,35.088C4.461,23.278,11.302,6.44,11.302,6.44L7.334,4.958z"/>
	<path fill="#A65D6C" d="M24.905,9.037c0,0,4.54,0.659,5.816,0.488c1.276-0.171,2.215-0.2,2.215-0.2s0.012,5.912-0.694,9.613
		C31.537,22.639,29,29.412,28.776,31.131c-0.224,1.72,0.185,2.834,1.409,3.482c1.224,0.648,4.821,0.816,6.755,0.46
		c1.934-0.356,1.934-0.356,1.934-0.356s-6.246,2.852-10.737,0.853c-4.491-1.997,0.012-13.794,0.268-17.158
		C28.815,12.997,24.905,9.037,24.905,9.037z"/>
	<path fill="#A65D6C" d="M65.173,34.345l-4.732-8.886l-11.953,5.598c0,0,10.367-4.346,12.562-2.269
		C63.245,30.867,65.173,34.345,65.173,34.345z"/>
	<path fill="#761D2E" d="M103.604,23.64c0,0,0.979-0.78,1.972,0.169c0.993,0.95,0.444,2.02-0.099,2.332
		c-0.543,0.311-0.81,0.259-0.81,0.259s0.87-0.94,0.477-1.774C104.751,23.789,103.604,23.64,103.604,23.64z"/>
	<path fill="#280000" d="M63.635,23.753l4.338,8.777c0,0,6.508-3.321,9.319-4.65c2.811-1.329,5.372-2.43,5.372-2.43
		s-10.287,3.566-13.333,2.501C66.285,26.886,63.635,23.753,63.635,23.753z"/>
	<path fill="#761D2E" d="M101.796,23.234c0,0-5.583-1.889-13.028-2.659c-7.445-0.771-12.68-0.165-12.68-0.165
		s12.747,0.263,16.876,1.138C97.092,22.423,101.796,23.234,101.796,23.234z"/>
</g>
</svg>
