<?xml version="1.0" encoding="utf-8"?>
<!-- Generator: Adobe Illustrator 17.0.0, SVG Export Plug-In . SVG Version: 6.00 Build 0)  -->
<!DOCTYPE svg PUBLIC "-//W3C//DTD SVG 1.1//EN" "http://www.w3.org/Graphics/SVG/1.1/DTD/svg11.dtd">
<svg version="1.1" id="Layer_1" xmlns="http://www.w3.org/2000/svg" xmlns:xlink="http://www.w3.org/1999/xlink" x="0px" y="0px"
	 width="156.942px" height="136.793px" viewBox="0 0 156.942 136.793" enable-background="new 0 0 156.942 136.793"
	 xml:space="preserve">
<g>
	<path fill="#ED1C24" stroke="#000000" stroke-width="3" d="M31.722,2.439c0,0,12.678,9.508,30.238,13.585
		c8.146,1.891,17.343,2.615,26.813,0.677c22.31-4.563,35.317-14.262,35.317-14.262s16.386,1.386,23.326,10.614
		c6.141,8.164,8.597,17.232,7.915,19.949c-0.679,2.717-5.433,5.434-8.15,6.792c-2.717,1.358-10.867,3.396-14.942,4.075
		s-4.754,1.358-8.829,0.679c-4.075-0.679-19.696,3.396-23.771,3.396s-12.904,1.359-20.375,1.359c-7.471,0-9.508-5.434-19.696-5.434
		c-10.188,0-12.904,1.359-22.413,1.359c-9.509,0-13.583-2.717-17.658-5.434c-4.075-2.717-11.546-4.754-16.3-8.15
		c-4.754-3.396,1.358-15.622,7.471-24.451C16.781-1.636,31.722,2.439,31.722,2.439z"/>
	<path fill="#ED1C24" stroke="#000000" stroke-width="3" d="M58.21,14.665c0,0,30.563-16.98,45.505-9.509
		c14.942,7.47,20.375,15.62,20.375,24.45s-2.717,23.772-4.754,34.637c-2.038,10.868-4.075,25.809-3.396,37.356
		c0.679,11.545,4.754,19.018,6.113,24.45c1.358,5.433-5.433,5.433-5.433,5.433l-2.038,2.717l-6.792-4.075l-3.396,2.718l-3.396-4.075
		l-6.113,5.432l-3.396-4.075l-4.075,4.075l-4.075-4.754l-4.754,4.075l-2.717-3.396l-5.433,4.075l-1.358-6.111l-4.075,5.432
		c0,0-6.793-4.754-4.755-25.809c2.037-21.055,16.979-65.201,14.263-77.425C71.794,18.06,58.21,14.665,58.21,14.665z"/>
	<g>
		<path fill="#FED020" d="M116.49,28.265c2.554,0.125,4.246,0.266,4.246,0.266s-0.204-2.648-1.628-6.721
			c-1.426-4.073-6.925-8.146-6.925-8.146s-2.019-0.228-4.948-0.394C111.812,16.754,115.913,21.668,116.49,28.265z"/>
		<path fill="#FED020" d="M113.791,56.12c2.556,0.051,4.297,0.11,4.297,0.11l1.63-13.239c0,0-1.484-0.178-4.021-0.347
			C115.191,47.033,114.516,51.616,113.791,56.12z"/>
		<path fill="#FED020" d="M109.346,87.421c2.241,0.196,3.651,0.377,3.651,0.377l1.834-16.293c0,0-1.428-0.041-3.616-0.07
			c-0.901,5.394-1.601,10.011-1.764,13.113C109.402,85.451,109.369,86.415,109.346,87.421z"/>
		<path fill="#FED020" d="M116.459,117.942c0,0-0.408-1.833-1.628-5.295c-1.222-3.462-1.63-9.165-1.63-9.165
			s-1.247-0.075-3.404-0.145c0.385,5.138,0.988,9.828,1.774,12.751L116.459,117.942z"/>
		<path fill="#F58468" d="M107.669,117.594c1.202,4.787,2.328,7.421,2.328,7.421l6.016,2.188c0,0-1.64-4.376-3.828-9.296
			c-0.214-0.486-0.418-1.101-0.613-1.819l-1.019-0.386C110.552,115.701,108.934,116.869,107.669,117.594z"/>
		<path fill="#F58468" d="M105.265,103.238c1.77,0.021,3.301,0.059,4.532,0.099c-0.399-5.325-0.562-11.121-0.451-15.915
			c-1.233-0.109-2.715-0.22-4.357-0.309C104.658,93.087,104.828,98.497,105.265,103.238z"/>
		<path fill="#F58468" d="M107.234,13.27c-6.364-4.844-13.643-6.924-13.643-6.924s2.988,2.809,6.534,6.767
			C102.69,13.068,105.184,13.153,107.234,13.27z"/>
		<path fill="#F58468" d="M116.56,29.861c0-0.543-0.025-1.074-0.07-1.596c-1.677-0.081-3.725-0.156-5.911-0.179
			c0.663,1.615,1.058,3.146,1.058,4.509c0,2.538-0.368,5.853-0.932,9.815c1.935,0.056,3.618,0.144,4.993,0.234
			C116.222,38.064,116.56,33.696,116.56,29.861z"/>
		<path fill="#F58468" d="M106.434,71.403c1.78-0.002,3.427,0.012,4.781,0.031c0.78-4.676,1.71-9.935,2.577-15.315
			c-1.513-0.03-3.311-0.057-5.207-0.067C107.852,60.757,107.094,65.905,106.434,71.403z"/>
		<path fill="#FFF470" d="M107.234,13.27c-2.05-0.116-4.544-0.202-7.109-0.157c3.888,4.34,8.438,10.059,10.453,14.974
			c2.186,0.023,4.233,0.098,5.911,0.179C115.913,21.668,111.812,16.754,107.234,13.27z"/>
		<path fill="#FFF470" d="M110.704,42.411c-0.566,3.943-1.325,8.53-2.12,13.643c1.895,0.01,3.694,0.037,5.207,0.067
			c0.724-4.504,1.399-9.087,1.906-13.475C114.322,42.554,112.639,42.467,110.704,42.411z"/>
		<path fill="#FFF470" d="M106.434,71.403c-0.543,4.527-1.021,9.288-1.358,14.238c-0.035,0.495-0.06,0.982-0.086,1.471
			c1.642,0.089,3.124,0.2,4.357,0.309c0.023-1.006,0.056-1.97,0.105-2.874c0.163-3.102,0.862-7.719,1.764-13.113
			C109.86,71.416,108.214,71.401,106.434,71.403z"/>
		<path fill="#FFF470" d="M107.669,117.594c1.266-0.724,2.883-1.892,2.883-1.892l1.019,0.386c-0.786-2.923-1.389-7.613-1.774-12.751
			c-1.231-0.04-2.762-0.078-4.532-0.099C105.808,109.124,106.759,113.975,107.669,117.594z"/>
	</g>
	<g>
		<path fill="#FED020" d="M81.465,22.303c1.381,2.843,1.98,6.184,2.109,9.607c4.837-1.203,11.692-2.78,16.592-3.378
			c3.204-0.392,6.977-0.482,10.412-0.445c-2.015-4.915-6.565-10.634-10.453-14.974c-1.138,0.02-2.291,0.064-3.423,0.144
			c-6.87,0.482-13.954,2.89-18.593,4.775C79.415,19.109,80.59,20.5,81.465,22.303z"/>
		<path fill="#FED020" d="M74.921,19.405c-1.299,0.593-2.047,0.979-2.047,0.979s2.616,2.775,3.671,5.161
			c1.324,2.997,1.217,7.874,1.217,7.874s0.877-0.242,2.321-0.619c-0.208-3.57-0.865-7.13-2.218-9.776
			C77.185,21.696,76.123,20.48,74.921,19.405z"/>
		<path fill="#FED020" d="M76.54,46.454l-2.997,13.9c0,0,0.825-0.172,2.187-0.444c1.29-5.501,2.458-10.572,3.192-13.965
			C77.435,46.253,76.54,46.454,76.54,46.454z"/>
		<path fill="#FED020" d="M78.535,59.358c5.844-1.131,15.34-2.858,20.205-3.128c2.894-0.161,6.518-0.195,9.844-0.177
			c0.794-5.112,1.554-9.7,2.12-13.643c-2.151-0.063-4.598-0.087-7.279-0.03c-6.102,0.13-15.345,1.748-21.249,2.906
			c-0.386,1.736-0.802,3.31-1.191,4.622C80.44,51.747,79.568,55.191,78.535,59.358z"/>
		<path fill="#FED020" d="M70.12,91.722c5.017-1.356,13.628-3.518,20.269-4.331c4.824-0.59,10.264-0.515,14.6-0.278
			c0.027-0.489,0.051-0.976,0.086-1.471c0.338-4.95,0.815-9.711,1.358-14.238c-4.441,0.005-9.718,0.111-13.396,0.509
			c-4.828,0.522-13.046,1.986-18.33,2.971c-1.648,6.592-3.232,12.681-4.284,15.836C70.321,91.028,70.22,91.369,70.12,91.722z"/>
		<path fill="#FED020" d="M72.059,75.382c-1.458,0.278-2.355,0.455-2.355,0.455l-3.721,17.045c0,0,0.738-0.218,1.986-0.568
			c0.387-1.639,0.656-2.673,0.656-2.673S70.144,83.38,72.059,75.382z"/>
		<path fill="#FED020" d="M65.145,109.203c0.015-0.436,0.041-0.894,0.077-1.368c-1.087,0.586-1.8,1.239-2,1.97
			c-1.367,4.972,0.691,13.84,0.691,13.84h2.648l4.888-2.851l0.204,1.833l5.703-3.258l1.833,2.035l3.87-2.035
			c0,0,1.019,1.425,1.834,1.629c0.813,0.204,4.48-2.036,4.48-2.036l2.443,1.221l3.666-2.444c0,0,3.056,1.426,4.075,1.223
			c1.017-0.204,4.48-2.241,4.48-2.241s1.628,1.222,2.239,1.426c0.206,0.068,0.755-0.186,1.393-0.552
			c-0.91-3.619-1.861-8.47-2.404-14.356c-2.346-0.028-5.106-0.027-8.154,0.04c-7.09,0.154-22.098,1.064-29.552,3.578
			c-0.927,7.851-1.454,15.191-1.454,15.191S64.904,116.285,65.145,109.203z"/>
		<path fill="#C0151B" d="M65.222,107.835c0.651-0.35,1.44-0.675,2.336-0.979c0.663-5.621,1.534-11.497,2.562-15.134
			c-0.822,0.223-1.547,0.423-2.152,0.592C67.092,96.023,65.603,102.837,65.222,107.835z"/>
		<path fill="#C0151B" d="M83.575,31.909c-1.349,0.336-2.544,0.643-3.491,0.891c0.199,3.394-0.008,6.796-0.418,9.429
			c-0.108,0.692-0.369,1.987-0.743,3.715c0.891-0.186,1.995-0.412,3.254-0.658C83.052,41.349,83.752,36.555,83.575,31.909z"/>
		<path fill="#C0151B" d="M75.73,59.91c-1.201,5.125-2.51,10.617-3.672,15.473c0.748-0.143,1.644-0.312,2.649-0.5
			c1.316-5.265,2.671-10.85,3.828-15.525C77.459,59.566,76.507,59.754,75.73,59.91z"/>
		<path fill="#C0151B" d="M66.822,14.382c0,0,4.632,1.921,8.099,5.023c0.847-0.386,1.927-0.861,3.189-1.374
			C73.338,14.088,66.822,14.382,66.822,14.382z"/>
		<path fill="#DBB51D" d="M81.465,22.303c-0.875-1.802-2.05-3.194-3.355-4.271c-1.262,0.513-2.342,0.987-3.189,1.374
			c1.202,1.075,2.264,2.291,2.944,3.619c1.352,2.646,2.01,6.206,2.218,9.776c0.948-0.248,2.142-0.555,3.491-0.891
			C83.445,28.486,82.846,25.146,81.465,22.303z"/>
		<path fill="#DBB51D" d="M80.986,49.909c0.389-1.312,0.805-2.887,1.191-4.622c-1.259,0.246-2.363,0.472-3.254,0.658
			c-0.734,3.393-1.902,8.464-3.192,13.965c0.777-0.155,1.729-0.344,2.805-0.552C79.568,55.191,80.44,51.747,80.986,49.909z"/>
		<path fill="#DBB51D" d="M68.624,89.641c0,0-0.269,1.034-0.656,2.673c0.605-0.169,1.33-0.369,2.152-0.592
			c0.1-0.354,0.201-0.694,0.304-1.003c1.052-3.154,2.636-9.244,4.284-15.836c-1.004,0.188-1.901,0.357-2.649,0.5
			C70.144,83.38,68.624,89.641,68.624,89.641z"/>
		<path fill="#DBB51D" d="M65.145,109.203c-0.24,7.082,0.96,12.845,0.96,12.845s0.527-7.341,1.454-15.191
			c-0.896,0.304-1.685,0.628-2.336,0.979C65.186,108.309,65.16,108.767,65.145,109.203z"/>
	</g>
	<g>
		<path fill="#FED020" d="M8.638,30.95l7.436,3.719c0,0,0.226-1.422,0.716-3.504c-2.721-1.205-5.356-2.351-7.437-3.251
			C8.957,29.496,8.638,30.95,8.638,30.95z"/>
		<path fill="#FED020" d="M25.352,35.047c-0.343,2.366-0.387,3.988-0.387,3.988s5.011,2.748,7.436,3.071
			c2.425,0.323,2.425,0.323,2.425,0.323s0.073-1.19,0.303-2.995c-1.692-0.331-3.207-0.828-4.219-1.529
			C30.105,37.348,28.013,36.299,25.352,35.047z"/>
		<path fill="#FED020" d="M48.893,39.12c-0.079,1.692-0.08,2.821-0.08,2.821l9.614-0.644c0,0-0.217-0.982-0.345-2.476
			C55.008,38.78,51.558,38.906,48.893,39.12z"/>
		<path fill="#C0151B" d="M17.604,28.055c-0.327,1.125-0.597,2.18-0.815,3.108c2.965,1.313,6.023,2.69,8.562,3.883
			c0.115-0.794,0.264-1.672,0.456-2.601C23.379,31.151,20.451,29.583,17.604,28.055z"/>
		<path fill="#C0151B" d="M10.457,24.217c-2.485-1.336-4.167-2.242-4.167-2.242l-1.207,4.103c0,0,1.719,0.732,4.269,1.835
			c0.35-1.404,0.759-2.907,1.064-3.59C10.43,24.289,10.443,24.251,10.457,24.217z"/>
		<path fill="#C0151B" d="M49.012,36.216c-6.091,0.937-10.057,1.161-13.473,0.487c-0.173,1.002-0.308,1.926-0.411,2.731
			c3.555,0.697,7.896,0.652,10.022,0.161c0.775-0.179,2.113-0.342,3.743-0.474c0.04-0.851,0.1-1.847,0.19-2.913
			C49.06,36.21,49.036,36.212,49.012,36.216z"/>
		<path fill="#C0151B" d="M68.321,40.319c0,0-4.506-2.525-10.327-3.724c-0.003,0.812,0.032,1.571,0.088,2.226
			c2.655,0.035,5.031,0.195,6.378,0.532C68.321,40.319,68.321,40.319,68.321,40.319z"/>
		<path fill="#DBB51D" d="M10.457,24.217c-0.013,0.034-0.027,0.072-0.041,0.106c-0.304,0.683-0.714,2.186-1.064,3.59
			c2.082,0.9,4.717,2.047,7.437,3.251c0.218-0.928,0.488-1.984,0.815-3.108C14.995,26.656,12.465,25.297,10.457,24.217z"/>
		<path fill="#DBB51D" d="M30.185,34.767c-1.003-0.525-2.55-1.346-4.378-2.321c-0.192,0.929-0.341,1.807-0.456,2.601
			c2.661,1.252,4.754,2.301,5.558,2.858c1.012,0.701,2.527,1.198,4.219,1.529c0.102-0.805,0.237-1.729,0.411-2.731
			C33.676,36.334,31.974,35.704,30.185,34.767z"/>
		<path fill="#DBB51D" d="M49.083,36.207c-0.09,1.067-0.15,2.062-0.19,2.913c2.664-0.215,6.114-0.341,9.189-0.299
			c-0.057-0.656-0.092-1.414-0.088-2.226C55.208,36.021,52.123,35.75,49.083,36.207z"/>
	</g>
	<g>
		<path fill="#FED020" d="M38.706,9.606l-5.982-3.389c0,0-0.608,0.039-1.605,0.177c1.223,1.013,2.976,2.383,5.08,3.808
			C37.717,9.791,38.706,9.606,38.706,9.606z"/>
		<path fill="#FED020" d="M15.428,13.977c-4.331,5.834-4.367,8.753-4.971,10.239c2.008,1.08,4.538,2.439,7.148,3.839
			c1.177-4.053,3.084-8.953,5.892-11.59c2.198-2.064,5.166-3.591,7.897-4.674c-2.061-1.393-4.128-2.887-5.855-4.17
			C21.973,8.716,17.909,10.633,15.428,13.977z"/>
		<path fill="#FED020" d="M50.786,17.15c1.656-0.703,2.792-1.071,2.792-1.071l-7.921-3.071c0,0-1.248,0.3-3.073,0.931
			c0.211,0.104,0.421,0.212,0.636,0.312C45.628,15.38,48.222,16.297,50.786,17.15z"/>
		<path fill="#FED020" d="M30.617,21.212c-2.648,3.204-4.059,7.607-4.809,11.234c1.828,0.976,3.375,1.796,4.378,2.321
			c1.789,0.937,3.491,1.567,5.354,1.936c0.643-3.696,1.824-8.385,3.939-11.534c1.623-2.417,4.351-4.4,6.978-5.891
			c-3.127-1.196-6.154-2.438-8.366-3.496C35.391,17.087,32.545,18.879,30.617,21.212z"/>
		<path fill="#FED020" d="M65.324,23.801c1.234-0.789,2.157-1.255,2.157-1.255s-1.94-1.778-3.072-2.587
			c-1.133-0.808-2.91-1.455-2.91-1.455s-1.138,0.505-2.697,1.41c2.481,0.986,4.634,2.086,6.14,3.509
			C65.078,23.55,65.196,23.675,65.324,23.801z"/>
		<path fill="#FED020" d="M59.874,23.906c-0.992-0.264-2.695-0.803-4.759-1.502c-2.17,1.717-4.217,3.912-4.877,6.404
			c-0.608,2.297-0.955,5.024-1.155,7.399c3.039-0.457,6.124-0.186,8.911,0.388c0.01-2.268,0.347-4.988,1.58-7.313
			c0.757-1.427,2.075-2.738,3.419-3.819C61.89,24.736,60.803,24.153,59.874,23.906z"/>
		<path fill="#F58468" d="M69.528,30.905c0,0-0.239-3.175-4.205-7.105c-0.711,0.455-1.523,1.015-2.33,1.662
			C66.192,27.572,69.528,30.905,69.528,30.905z"/>
		<path fill="#F58468" d="M29.22,4.747l-7.965-0.392c0,0,1.784,1.41,4.283,3.267c2.224-0.682,4.251-1.044,5.582-1.228
			C29.919,5.4,29.22,4.747,29.22,4.747z"/>
		<path fill="#F58468" d="M50.786,17.15c-1.237,0.525-2.764,1.238-4.33,2.127c3.013,1.154,6.111,2.264,8.659,3.127
			c1.271-1.005,2.585-1.849,3.688-2.49C56.358,18.944,53.595,18.084,50.786,17.15z"/>
		<path fill="#F58468" d="M36.199,10.202c-1.306,0.354-3.004,0.875-4.806,1.589c2.154,1.456,4.299,2.799,6.033,3.666
			c0.211,0.105,0.435,0.214,0.664,0.324c1.631-0.788,3.205-1.398,4.494-1.843C40.263,12.803,38.092,11.486,36.199,10.202z"/>
		<path fill="#FFF470" d="M31.119,6.394c-1.33,0.184-3.358,0.545-5.582,1.228c1.727,1.283,3.795,2.777,5.855,4.17
			c1.802-0.714,3.5-1.235,4.806-1.589C34.096,8.777,32.343,7.407,31.119,6.394z"/>
		<path fill="#FFF470" d="M43.219,14.251c-0.215-0.1-0.424-0.208-0.636-0.312c-1.289,0.445-2.863,1.055-4.494,1.843
			c2.212,1.058,5.239,2.299,8.366,3.496c1.566-0.889,3.093-1.602,4.33-2.127C48.222,16.297,45.628,15.38,43.219,14.251z"/>
		<path fill="#FFF470" d="M62.993,25.463c0.807-0.647,1.619-1.208,2.33-1.662c-0.128-0.126-0.246-0.251-0.381-0.378
			c-1.506-1.423-3.659-2.523-6.14-3.509c-1.103,0.641-2.416,1.484-3.688,2.49c2.065,0.699,3.767,1.237,4.759,1.502
			C60.803,24.153,61.89,24.736,62.993,25.463z"/>
	</g>
	<g>
		<path fill="#FED020" d="M139.721,37.324c0.231,0.986,0.364,1.594,0.364,1.594s1.832-0.611,5.497-2.24
			c3.668-1.63,6.518-4.277,6.518-4.277s-0.43-1.263-1.227-3.23C148.69,31.419,144.568,35.191,139.721,37.324z"/>
		<path fill="#C0151B" d="M152.545,27.34c0,0-0.741,0.492-1.935,1.188c0.093,0.222,0.181,0.436,0.263,0.643
			C151.94,28.074,152.545,27.34,152.545,27.34z"/>
		<path fill="#C0151B" d="M127.36,34.233l-1.06,6.892c0,0,1.325-0.53,10.074-2.652c1.142-0.277,2.262-0.673,3.346-1.15
			c-0.241-1.028-0.587-2.468-1.006-4.087C133.261,34.23,127.36,34.233,127.36,34.233z"/>
		<path fill="#DBB51D" d="M150.874,29.171c-0.082-0.207-0.171-0.421-0.263-0.643c-2.328,1.357-6.405,3.503-10.26,4.38
			c-0.535,0.121-1.085,0.228-1.636,0.329c0.42,1.619,0.766,3.059,1.006,4.087C144.568,35.191,148.69,31.419,150.874,29.171z"/>
	</g>
	<g>
		<path fill="#FED020" d="M144.566,16.718c-1.797-2.794-4.571-4.866-7.491-6.397c-1.011,0.213-2.26,0.495-3.616,0.847
			c-2.175,0.565-4.915,1.974-6.989,3.16c2.974,1.779,5.975,4.03,7.913,6.667c1.484,2.02,3.178,7.788,4.332,12.241
			c0.552-0.101,1.101-0.208,1.636-0.329c3.855-0.877,7.932-3.023,10.26-4.38C149.32,25.411,147.241,20.882,144.566,16.718z"/>
		<path fill="#FED020" d="M124.403,6.331l-7.537,3.462c0,0,1.253,0.432,3.124,1.242l7.531-4.121
			C125.638,6.487,124.403,6.331,124.403,6.331z"/>
		<path fill="#F58468" d="M139.557,9.844c0,0-5.833-2.651-8.22-3.181c-2.385-0.53-2.385-0.53-2.385-0.53l-1.43,0.783
			c2.494,0.565,6.123,1.61,9.554,3.407C138.577,10.006,139.557,9.844,139.557,9.844z"/>
		<path fill="#F58468" d="M118.327,11.945l5.057,4.261c0,0,1.297-0.855,3.085-1.876c-2.361-1.411-4.699-2.524-6.479-3.294
			L118.327,11.945z"/>
		<path fill="#FFF470" d="M137.074,10.321c-3.431-1.797-7.059-2.842-9.554-3.407l-7.531,4.121c1.78,0.77,4.118,1.883,6.479,3.294
			c2.074-1.186,4.814-2.595,6.989-3.16C134.815,10.816,136.064,10.534,137.074,10.321z"/>
	</g>
</g>
</svg>
