<?xml version="1.0" encoding="utf-8"?>
<!-- Generator: Adobe Illustrator 17.0.0, SVG Export Plug-In . SVG Version: 6.00 Build 0)  -->
<!DOCTYPE svg PUBLIC "-//W3C//DTD SVG 1.1//EN" "http://www.w3.org/Graphics/SVG/1.1/DTD/svg11.dtd">
<svg version="1.1" id="Layer_1" xmlns="http://www.w3.org/2000/svg" xmlns:xlink="http://www.w3.org/1999/xlink" x="0px" y="0px"
	 width="265.508px" height="511.553px" viewBox="0 0 265.508 511.553" enable-background="new 0 0 265.508 511.553"
	 xml:space="preserve">
<g>
	<path fill="#FFFFFF" stroke="#000000" stroke-width="4" d="M263.115,360.73c0,99.767-57.081,128.415-127.494,128.415
		C65.21,489.145,8.128,469.06,8.128,360.73c0-70.92,57.081-128.415,127.493-128.415C206.034,232.316,263.115,289.81,263.115,360.73z
		"/>
	
		<linearGradient id="SVGID_1_" gradientUnits="userSpaceOnUse" x1="50.5403" y1="377.4532" x2="207.6859" y2="220.3075" gradientTransform="matrix(0.9971 0.0766 -0.0766 0.9971 35.2943 55.7674)">
		<stop  offset="0" style="stop-color:#FFFFFF"/>
		<stop  offset="0.3878" style="stop-color:#FDFEFF"/>
		<stop  offset="0.5943" style="stop-color:#F5FBFE"/>
		<stop  offset="0.7582" style="stop-color:#E7F6FD"/>
		<stop  offset="0.8988" style="stop-color:#D4EFFC"/>
		<stop  offset="1" style="stop-color:#C1E8FB"/>
	</linearGradient>
	<path fill="url(#SVGID_1_)" d="M234.941,302.434c-1.357,4.326-5.476,7.311-10.1,6.955c-5.403-0.414-9.438-5.221-9.015-10.736
		c0.264-3.443,2.205-6.347,4.939-7.944c-8.904-13.007-21.124-21.56-38.231-31.336c-79.605-45.487-148.533,39.324-151.52,78.204
		c-2.987,38.88-6.951,141.106,142.967,125.86c72.094-7.332,76.172-62.918,79.601-107.103
		C255.188,335.655,247.863,316.383,234.941,302.434z"/>
	<path fill="#FFFFFF" stroke="#000000" stroke-width="4" d="M227.385,228.022c0,66.509-42.966,85.607-95.967,85.607
		c-53.001,0-95.967-13.39-95.967-85.607c0-47.277,42.966-85.605,95.967-85.605C184.419,142.418,227.385,180.745,227.385,228.022z"/>
	<linearGradient id="SVGID_2_" gradientUnits="userSpaceOnUse" x1="82.5082" y1="280.3642" x2="191.3766" y2="171.4958">
		<stop  offset="0" style="stop-color:#FFFFFF"/>
		<stop  offset="0.3699" style="stop-color:#FDFEFF"/>
		<stop  offset="0.567" style="stop-color:#F5FBFE"/>
		<stop  offset="0.7233" style="stop-color:#E7F6FD"/>
		<stop  offset="0.8583" style="stop-color:#D4EFFC"/>
		<stop  offset="0.9782" style="stop-color:#BBE6FA"/>
		<stop  offset="1" style="stop-color:#B6E4FA"/>
	</linearGradient>
	<path fill="url(#SVGID_2_)" d="M193.076,173.269c-1.021,4.417-4.899,7.71-9.538,7.71c-5.418,0-9.81-4.484-9.81-10.017
		c0-3.454,1.712-6.496,4.316-8.296c-9.427-4.917-38.896-8.755-50.2-8.323c-41.43,1.582-71.524,31.74-71.524,70.735
		c0,38.996,35.105,74.957,79.399,75.556c47.383,0.641,80.038-30.734,80.073-75.051C215.808,204.84,207.029,186.187,193.076,173.269z
		"/>
	<path fill="#D1EEFC" d="M43.118,279.802c0,0-28.513,38.289-27.699,68.431c0.815,30.143,0,80.652,29.328,106.722
		c29.328,26.07,58.656,24.44,68.432,26.07c9.776,1.629,18.737,2.444,23.625,2.444c4.888,0,12.22-0.815,12.22-0.815
		s-10.59-2.444-17.923-4.073c-7.332-1.63-8.961-8.962-14.664-8.962c-5.702,0-7.332,1.629-15.479-0.815
		c-8.146-2.444-7.332-5.702-12.22-8.961c-4.888-3.259-7.332,0.815-16.293-4.888c-8.961-5.703-9.776-5.703-15.479-12.22
		c-5.702-6.518-13.034-8.147-15.478-12.22c-2.444-4.074,0.815-4.888,1.629-9.776c0.815-4.889,1.629-7.333-2.444-9.777
		c-4.073-2.444-6.517-1.629-4.073-7.332c2.444-5.702-2.444-13.035-2.444-16.293c0-3.259,9.776-15.479,6.517-21.182
		c-3.258-5.703-8.146-8.961-8.961-15.479c-0.815-6.517,2.444-9.776,2.444-14.664c0-4.888-3.258-11.405-3.258-15.479
		c0-4.073-0.814-4.073,3.258-6.517c4.073-2.444,5.703-4.073,4.888-7.332c-0.815-3.259-3.258-2.444-1.629-6.518
		C39.045,296.094,43.118,279.802,43.118,279.802z"/>
	<path fill="#D1EEFC" d="M70.817,171.45c0,0-28.513,25.424-27.699,45.44c0.815,20.014-2.444,57.821,26.884,75.13
		c29.328,17.311,58.656,13.583,68.432,14.665c9.776,1.082,21.181-3.259,26.069-3.259c4.888,0,18.737-6.517,18.737-6.517
		s-15.479,2.711-22.811,1.629c-7.332-1.083-10.591-1.05-16.293-1.05s-7.332,1.083-15.479-0.541c-8.146-1.622-7.332-3.785-12.22-5.95
		c-4.888-2.163-7.332,0.541-16.293-3.245c-8.961-3.786-13.035,2.894-18.737-1.434c-5.703-4.327-9.776-12.09-12.22-14.794
		c-2.444-2.704,0.815-3.246,1.629-6.491c0.815-3.246,1.63-4.869-2.444-6.491c-4.073-1.623-6.517-1.082-4.073-4.867
		c2.444-3.787-2.444-8.656-2.444-10.82c0-2.163,2.444-6.517-0.814-10.304c-3.258-3.786-0.815-9.71-1.629-14.038
		c-0.814-4.327,2.444-6.491,2.444-9.737c0-3.247-3.258-7.574-3.258-10.278s-0.815-2.704,3.258-4.326
		c4.074-1.624,5.703-2.705,4.888-4.869c-0.814-2.164-3.258-1.623-1.629-4.328C66.744,182.269,70.817,171.45,70.817,171.45z"/>
	<ellipse fill="#FFFFFF" stroke="#000000" stroke-width="4" cx="130.288" cy="81.837" rx="78.208" ry="79.837"/>
	<linearGradient id="SVGID_3_" gradientUnits="userSpaceOnUse" x1="82.4793" y1="129.6529" x2="181.3177" y2="30.8145">
		<stop  offset="0" style="stop-color:#FFFFFF"/>
		<stop  offset="0.3699" style="stop-color:#FDFEFF"/>
		<stop  offset="0.567" style="stop-color:#F5FBFE"/>
		<stop  offset="0.7233" style="stop-color:#E7F6FD"/>
		<stop  offset="0.8583" style="stop-color:#D4EFFC"/>
		<stop  offset="0.9782" style="stop-color:#BBE6FA"/>
		<stop  offset="1" style="stop-color:#B6E4FA"/>
	</linearGradient>
	<path fill="url(#SVGID_3_)" d="M178.349,27.919c-1.021,4.417-4.899,7.709-9.538,7.709c-5.418,0-9.81-4.484-9.81-10.015
		c0-3.453,1.711-6.497,4.316-8.297c-9.427-4.916-20.105-7.689-31.418-7.689c-38.199,0-69.165,31.611-69.165,70.606
		c0,38.995,30.966,70.607,69.165,70.607c38.199,0,69.165-31.612,69.165-70.607C201.064,59.49,192.301,40.837,178.349,27.919z"/>
	<path fill="#D1EEFC" d="M82.958,28.884c0,0-22.513,26.931-21.916,45.621c0.597,18.69,2.266,48.042,23.752,64.206
		c21.485,16.165,35.889,14.622,43.05,15.632c7.162,1.009,20.167-2.217,23.748-2.217c3.581,0,13.727-6.087,13.727-6.087
		s-11.34,2.53-16.711,1.522c-5.371-1.01-7.758-0.981-11.936-0.981c-4.177,0-5.371,1.009-11.339-0.505
		c-5.968-1.515-12.455-1.082-16.036-3.104c-3.581-2.019,0.971-5.253-5.593-8.788c-6.565-3.536-9.406,2.708-13.583-1.333
		c-4.178-4.041-6.565-7.992-8.355-10.517c-1.791-2.526,0.596-3.031,1.193-6.062c0.597-3.031,1.194-4.545-1.791-6.061
		c-2.984-1.516-4.775-1.01-2.984-4.546c1.791-3.536-1.791-8.082-1.791-10.103c0-2.021,1.791-6.086-0.596-9.622
		c-2.387-3.536-0.597-9.069-1.194-13.109c-0.596-4.042,1.791-6.062,1.791-9.093c0-3.032-2.387-7.073-2.387-9.598
		c0-2.526-0.597-2.526,2.387-4.041c2.984-1.516,4.178-2.526,3.582-4.546c-0.597-2.021-2.388-1.516-1.194-4.041
		C79.974,38.987,82.958,28.884,82.958,28.884z"/>
	<path fill="#FFFFFF" stroke="#000000" stroke-width="4" d="M89.984,476.967c0.028,26.67-19.696,32.587-43.992,32.587
		C21.696,509.553,2,494.963,2,476.967c0-17.998,19.696-32.587,43.992-32.587C70.288,444.38,89.965,458.969,89.984,476.967z"/>
	<linearGradient id="SVGID_4_" gradientUnits="userSpaceOnUse" x1="28.8378" y1="502.2758" x2="64.2952" y2="451.6372">
		<stop  offset="0" style="stop-color:#FFFFFF"/>
		<stop  offset="0.2799" style="stop-color:#FCFEFF"/>
		<stop  offset="0.4758" style="stop-color:#F3FBFE"/>
		<stop  offset="0.6461" style="stop-color:#E4F5FD"/>
		<stop  offset="0.8016" style="stop-color:#CEEDFC"/>
		<stop  offset="0.9459" style="stop-color:#B2E3FA"/>
		<stop  offset="1" style="stop-color:#A5DFF9"/>
	</linearGradient>
	<path fill="url(#SVGID_4_)" d="M70.997,456.33c-0.538,1.741-2.577,3.04-5.017,3.04c-2.85,0-5.16-1.769-5.16-3.95
		c0-1.361,0.9-2.561,2.27-3.271c-4.958-1.939-10.574-3.031-16.524-3.031c-20.09,0-36.377,12.463-36.377,27.839
		c0,15.375,16.287,27.839,36.377,27.839c20.091,0,36.377-12.464,36.377-27.839C82.944,468.779,78.335,461.422,70.997,456.33z"/>
	<path fill="#D1EEFC" d="M19.369,455.262c0,0-12.664,10.75-12.328,18.21c0.336,7.461,1.275,19.176,13.361,25.628
		c12.086,6.452,20.187,5.837,24.216,6.239c4.029,0.403,11.344-0.884,13.358-0.884c2.014,0,7.721-2.431,7.721-2.431
		s-6.379,1.012-9.4,0.607c-3.021-0.403-4.364-0.39-6.715-0.39c-2.349,0-3.021,0.403-6.378-0.202
		c-3.357-0.604-7.006-0.432-9.02-1.239c-2.014-0.807,0.546-2.097-3.146-3.508c-3.693-1.412-5.29,1.082-7.641-0.532
		c-2.35-1.613-3.693-3.19-4.7-4.197c-1.007-1.009,0.336-1.209,0.671-2.419c0.336-1.21,0.671-1.815-1.007-2.419
		c-1.678-0.606-2.686-0.404-1.678-1.815c1.007-1.411-1.007-3.226-1.007-4.033c0-0.807,1.007-2.43-0.335-3.84
		c-1.343-1.411-0.336-3.619-0.671-5.233c-0.336-1.613,1.007-2.419,1.007-3.629c0-1.21-1.343-2.824-1.343-3.831
		c0-1.007-0.335-1.007,1.343-1.613c1.679-0.605,2.35-1.008,2.014-1.815c-0.336-0.807-1.343-0.605-0.671-1.613
		C17.69,459.295,19.369,455.262,19.369,455.262z"/>
	<path fill="#FFFFFF" stroke="#000000" stroke-width="4" d="M263.508,472.893c0,17.997-19.696,32.587-43.992,32.587
		c-24.296,0-45.242-5.925-43.992-32.587c0.843-17.977,19.696-32.587,43.992-32.587C243.812,440.306,263.508,454.896,263.508,472.893
		z"/>
	<linearGradient id="SVGID_5_" gradientUnits="userSpaceOnUse" x1="202.7692" y1="499.0169" x2="238.2266" y2="448.3785">
		<stop  offset="0" style="stop-color:#FFFFFF"/>
		<stop  offset="0.2799" style="stop-color:#FCFEFF"/>
		<stop  offset="0.4758" style="stop-color:#F3FBFE"/>
		<stop  offset="0.6461" style="stop-color:#E4F5FD"/>
		<stop  offset="0.8016" style="stop-color:#CEEDFC"/>
		<stop  offset="0.9459" style="stop-color:#B2E3FA"/>
		<stop  offset="1" style="stop-color:#A5DFF9"/>
	</linearGradient>
	<path fill="url(#SVGID_5_)" d="M244.928,453.071c-0.537,1.741-2.577,3.04-5.017,3.04c-2.85,0-5.16-1.769-5.16-3.949
		c0-1.361,0.9-2.561,2.27-3.271c-4.958-1.939-10.574-3.032-16.524-3.032c-20.09,0-36.377,12.464-36.377,27.839
		c0,15.375,16.287,27.839,36.377,27.839c20.091,0,36.378-12.464,36.378-27.839C256.875,465.52,252.266,458.164,244.928,453.071z"/>
	<path fill="#D1EEFC" d="M192.893,451.279c0,0-12.663,10.75-12.328,18.21c0.336,7.461,1.275,19.176,13.361,25.628
		c12.086,6.452,20.187,5.837,24.216,6.239c4.029,0.403,11.344-0.884,13.358-0.884c2.014,0,7.721-2.431,7.721-2.431
		s-6.379,1.012-9.4,0.607c-3.021-0.403-4.364-0.39-6.714-0.39c-2.35,0-3.021,0.403-6.378-0.202c-3.357-0.604-7.006-0.432-9.02-1.239
		c-2.014-0.807,0.546-2.097-3.146-3.508c-3.692-1.412-5.29,1.081-7.641-0.532c-2.35-1.613-3.693-3.19-4.7-4.197
		c-1.007-1.009,0.336-1.209,0.671-2.419c0.336-1.21,0.671-1.815-1.007-2.419c-1.678-0.606-2.686-0.404-1.678-1.815
		c1.007-1.411-1.007-3.226-1.007-4.033s1.007-2.43-0.335-3.84c-1.343-1.411-0.336-3.619-0.671-5.233
		c-0.336-1.612,1.007-2.419,1.007-3.629s-1.343-2.824-1.343-3.831c0-1.007-0.335-1.007,1.343-1.612
		c1.679-0.605,2.35-1.009,2.014-1.815c-0.336-0.807-1.343-0.605-0.671-1.613C191.214,455.312,192.893,451.279,192.893,451.279z"/>
</g>
</svg>
