<?xml version="1.0" encoding="utf-8"?>
<!-- Generator: Adobe Illustrator 17.0.0, SVG Export Plug-In . SVG Version: 6.00 Build 0)  -->
<!DOCTYPE svg PUBLIC "-//W3C//DTD SVG 1.1//EN" "http://www.w3.org/Graphics/SVG/1.1/DTD/svg11.dtd">
<svg version="1.1" id="Layer_1" xmlns="http://www.w3.org/2000/svg" xmlns:xlink="http://www.w3.org/1999/xlink" x="0px" y="0px"
	 width="106.56px" height="46.228px" viewBox="0 0 106.56 46.228" enable-background="new 0 0 106.56 46.228" xml:space="preserve">
<g>
	<path d="M51.355,34.335c-3.658,10.395-19.247,9.923-29.787,7.099C7.921,37.776,0.487,27.832,4.334,16.002
		C7.72,5.597,21.744,4.398,32.903,8.471C46.103,13.289,53.982,26.872,51.355,34.335z"/>
	<path fill="#FFFFFF" d="M49.35,33.798c-3.072,8.625-15.71,8.406-25.011,5.912c-12.413-3.327-18.1-14.687-15.654-23.05
		c2.531-8.65,15.943-8.996,23.818-6.19C44.547,14.764,51.432,27.952,49.35,33.798z"/>
	<path stroke="#008FD5" stroke-width="1.2182" d="M44.27,31.795c-1.041,3.207-4.78,5.034-8.341,4.079
		c-3.566-0.953-5.608-4.329-4.564-7.538c1.043-3.209,4.778-5.036,8.341-4.083C43.271,25.209,45.313,28.585,44.27,31.795z"/>
	<path fill="#FFFFFF" d="M37.125,28.16c-0.227,0.697-1.038,1.094-1.812,0.884c-0.774-0.204-1.219-0.938-0.992-1.636
		c0.226-0.697,1.04-1.093,1.812-0.885C36.909,26.727,37.349,27.461,37.125,28.16z"/>
	<path fill="#FFFFFF" d="M38.036,30.061c-0.132,0.401-0.594,0.626-1.035,0.508c-0.441-0.12-0.696-0.539-0.568-0.936
		c0.13-0.396,0.594-0.624,1.035-0.506C37.911,29.244,38.164,29.663,38.036,30.061z"/>
	<path d="M36.603,10.211c0,0-4.069-2.733-6.33-5.292c-2.261-2.565-2.903-4.89-2.903-4.89s0.962,3.998,2.114,5.906
		c1.152,1.909,1.475,2.564,1.475,2.564L36.603,10.211z"/>
	<path d="M29.385,7.489c0,0-2.678-1.802-4.172-3.489c-1.486-1.689-1.909-3.219-1.909-3.219s0.63,2.633,1.39,3.89
		c0.76,1.255,0.972,2.632,0.972,2.632L29.385,7.489z"/>
	<path d="M20.633,6.834c0,0-2.846-1.316-4.502-2.728c-1.654-1.409-2.234-2.855-2.234-2.855s0.905,2.5,1.791,3.611
		c0.881,1.111,1.138,2.444,1.138,2.444L20.633,6.834z"/>
	<path d="M13.918,7.633c0,0-2.66-0.178-4.334-0.82C7.913,6.17,7.139,5.141,7.139,5.141s1.253,1.806,2.218,2.452
		c0.961,0.644,1.256,0.889,1.256,0.889L13.918,7.633z"/>
	<path d="M8.921,10.393c0,0-2.597,0.791-4.346,0.779c-1.748-0.013-2.717-0.714-2.717-0.714s1.601,1.278,2.667,1.543
		c1.07,0.274,1.403,1.343,1.403,1.343L8.921,10.393z"/>
	<path d="M25.359,7.022c0,0-3.979-2.257-6.011-4.64C17.317,0,17.317,0,17.317,0s2.12,3.874,3.135,5.067
		c1.016,1.191,1.569,2.026,1.569,2.026L25.359,7.022z"/>
	<path d="M16.879,6.99c0,0-3.746-1.064-6.152-3.323c-2.401-2.263-2.723-2.92-2.723-2.92s3.412,5.488,4.292,5.959
		c0.88,0.475,1.619,1.25,1.619,1.25L16.879,6.99z"/>
	<path d="M10.927,9.014c0,0-4.373-0.238-7.418-2.159C0.465,4.931,0,4.276,0,4.276s4.675,5.281,5.737,5.588
		c1.058,0.309,1.774,1.695,1.774,1.695L10.927,9.014z"/>
	<path d="M31.771,41.708c0,0-2.983,1.029-4.785,2.172c-1.792,1.145-2.515,2.348-2.515,2.348s1.145-2.086,2.14-3.003
		c0.996-0.911,1.289-1.233,1.289-1.233L31.771,41.708z"/>
	<path d="M23.064,40.704c0,0-3.052,0.596-4.954,1.481c-1.903,0.884-2.759,1.984-2.759,1.984s1.384-1.922,2.472-2.693
		c1.089-0.772,1.416-1.053,1.416-1.053L23.064,40.704z"/>
	<path d="M16.643,38.85c0,0-2.638-0.322-4.406-0.084c-1.768,0.241-2.731,0.961-2.731,0.961s1.589-1.285,2.664-1.653
		c1.071-0.367,1.407-0.519,1.407-0.519L16.643,38.85z"/>
	<path d="M12.301,35.663c0,0-2.385-1.122-4.101-1.421c-1.715-0.297-2.804,0.118-2.804,0.118s1.82-0.785,2.919-0.819
		c1.103-0.036,1.454-0.083,1.454-0.083L12.301,35.663z"/>
	<path d="M27.732,41.383c0,0-4.348,1.179-6.818,2.807c-2.465,1.627-2.465,1.627-2.465,1.627s2.852-2.856,4.084-3.671
		c1.233-0.814,1.942-1.413,1.942-1.413L27.732,41.383z"/>
	<path d="M19.416,39.91c0,0-3.882,0.224-6.69,1.684c-2.806,1.462-3.254,1.953-3.254,1.953s4.443-3.972,5.399-4.211
		c0.956-0.24,1.835-0.757,1.835-0.757L19.416,39.91z"/>
	<path d="M13.793,36.236c0,0-4.13-0.22-7.412,0.736c-3.281,0.96-3.864,1.333-3.864,1.333s5.576-2.944,6.633-3.045
		c1.062-0.107,2.049-0.924,2.049-0.924L13.793,36.236z"/>
	<path d="M55.205,34.335c3.658,10.395,19.246,9.923,29.786,7.099c13.647-3.659,21.082-13.602,17.234-25.432
		C98.84,5.597,84.815,4.398,73.656,8.471C60.458,13.289,52.578,26.872,55.205,34.335z"/>
	<path fill="#FFFFFF" d="M57.21,33.798c3.072,8.625,15.709,8.406,25.012,5.912c12.412-3.327,18.098-14.687,15.651-23.05
		c-2.528-8.65-15.943-8.996-23.816-6.19C62.011,14.764,55.127,27.952,57.21,33.798z"/>
	<path stroke="#008FD5" stroke-width="1.2182" d="M62.288,31.795c1.045,3.207,4.781,5.034,8.346,4.079
		c3.563-0.953,5.606-4.329,4.56-7.538c-1.044-3.209-4.776-5.036-8.341-4.083C63.291,25.209,61.247,28.585,62.288,31.795z"/>
	<path fill="#FFFFFF" d="M64.72,28.16c0.225,0.697,1.037,1.094,1.81,0.884c0.774-0.204,1.22-0.938,0.991-1.636
		c-0.224-0.697-1.038-1.093-1.812-0.885C64.936,26.727,64.49,27.461,64.72,28.16z"/>
	<path fill="#FFFFFF" d="M67.581,30.061c0.13,0.401,0.595,0.626,1.036,0.508c0.439-0.12,0.696-0.539,0.565-0.936
		c-0.13-0.396-0.593-0.624-1.036-0.506C67.703,29.244,67.452,29.663,67.581,30.061z"/>
	<path d="M69.958,10.211c0,0,4.065-2.733,6.328-5.292c2.262-2.565,2.903-4.89,2.903-4.89s-0.963,3.998-2.111,5.906
		c-1.154,1.909-1.477,2.564-1.477,2.564L69.958,10.211z"/>
	<path d="M77.175,7.489c0,0,2.678-1.802,4.17-3.489c1.487-1.689,1.909-3.219,1.909-3.219s-0.629,2.633-1.392,3.89
		c-0.759,1.255-0.97,2.632-0.97,2.632L77.175,7.489z"/>
	<path d="M85.927,6.834c0,0,2.845-1.316,4.499-2.728c1.653-1.409,2.236-2.855,2.236-2.855s-0.904,2.5-1.788,3.611
		c-0.885,1.111-1.139,2.444-1.139,2.444L85.927,6.834z"/>
	<path d="M92.642,7.633c0,0,2.658-0.178,4.331-0.82c1.673-0.644,2.448-1.672,2.448-1.672s-1.252,1.806-2.218,2.452
		c-0.963,0.644-1.258,0.889-1.258,0.889L92.642,7.633z"/>
	<path d="M97.638,10.393c0,0,2.595,0.791,4.347,0.779c1.747-0.013,2.715-0.714,2.715-0.714s-1.599,1.278-2.665,1.543
		c-1.071,0.274-1.402,1.343-1.402,1.343L97.638,10.393z"/>
	<path d="M81.199,7.022c0,0,3.979-2.257,6.013-4.64C89.243,0,89.243,0,89.243,0s-2.121,3.874-3.139,5.067
		c-1.014,1.191-1.566,2.026-1.566,2.026L81.199,7.022z"/>
	<path d="M89.679,6.99c0,0,3.746-1.064,6.155-3.323c2.4-2.263,2.724-2.92,2.724-2.92s-3.414,5.488-4.293,5.959
		c-0.878,0.475-1.618,1.25-1.618,1.25L89.679,6.99z"/>
	<path d="M95.632,9.014c0,0,4.374-0.238,7.417-2.159c3.045-1.924,3.512-2.579,3.512-2.579s-4.676,5.281-5.738,5.588
		c-1.059,0.309-1.774,1.695-1.774,1.695L95.632,9.014z"/>
	<path d="M74.789,41.708c0,0,2.984,1.029,4.784,2.172c1.795,1.145,2.515,2.348,2.515,2.348s-1.144-2.086-2.14-3.003
		c-0.998-0.911-1.292-1.233-1.292-1.233L74.789,41.708z"/>
	<path d="M83.493,40.704c0,0,3.055,0.596,4.958,1.481c1.9,0.884,2.757,1.984,2.757,1.984s-1.384-1.922-2.472-2.693
		c-1.089-0.772-1.416-1.053-1.416-1.053L83.493,40.704z"/>
	<path d="M89.917,38.85c0,0,2.641-0.322,4.404-0.084c1.769,0.241,2.732,0.961,2.732,0.961s-1.588-1.285-2.662-1.653
		c-1.072-0.367-1.408-0.519-1.408-0.519L89.917,38.85z"/>
	<path d="M94.257,35.663c0,0,2.385-1.122,4.1-1.421c1.713-0.297,2.805,0.118,2.805,0.118s-1.819-0.785-2.921-0.819
		c-1.101-0.036-1.452-0.083-1.452-0.083L94.257,35.663z"/>
	<path d="M78.828,41.383c0,0,4.347,1.179,6.816,2.807c2.466,1.627,2.466,1.627,2.466,1.627s-2.851-2.856-4.084-3.671
		c-1.233-0.814-1.944-1.413-1.944-1.413L78.828,41.383z"/>
	<path d="M87.14,39.91c0,0,3.886,0.224,6.694,1.684c2.805,1.462,3.254,1.953,3.254,1.953s-4.442-3.972-5.397-4.211
		c-0.958-0.24-1.836-0.757-1.836-0.757L87.14,39.91z"/>
	<path d="M92.768,36.236c0,0,4.127-0.22,7.41,0.736c3.281,0.96,3.862,1.333,3.862,1.333s-5.572-2.944-6.632-3.045
		c-1.061-0.107-2.048-0.924-2.048-0.924L92.768,36.236z"/>
</g>
</svg>
