<?xml version="1.0" encoding="utf-8"?>
<!-- Generator: Adobe Illustrator 17.0.0, SVG Export Plug-In . SVG Version: 6.00 Build 0)  -->
<!DOCTYPE svg PUBLIC "-//W3C//DTD SVG 1.1//EN" "http://www.w3.org/Graphics/SVG/1.1/DTD/svg11.dtd">
<svg version="1.1" id="Layer_1" xmlns="http://www.w3.org/2000/svg" xmlns:xlink="http://www.w3.org/1999/xlink" x="0px" y="0px"
	 width="91.083px" height="71.339px" viewBox="0 0 91.083 71.339" enable-background="new 0 0 91.083 71.339" xml:space="preserve">
<g>
	<path fill="#DD1F26" stroke="#000000" stroke-width="3" d="M14.702,6.367c0,0,9.733-6.476,13.371-2.878
		c3.639,3.6,1.579,10.776,1.579,10.776s5.501-6.381,8.669-5.946c3.169,0.434,3.169,0.434,3.169,0.434s6.915-8.994,14.254-6.952
		c7.339,2.041,8.539,6.466,7.113,10.273c-1.426,3.806-9.467,5.932-9.467,5.932s18.025,4.152,20.651,4.772
		s14.388,0.555,15.469,16.198c1.078,15.645-9.817,32.936-23.579,30.659c-13.762-2.277-24.063-8.146-29.964-12.184
		c-5.903-4.039-15.683-19.389-15.683-19.389s-7.368,5.765-12.902,2.809c-5.534-2.954-6.479-10.185-5.59-12.904
		C2.681,25.248,14.702,6.367,14.702,6.367z"/>
	<polygon fill="#E4E5E6" points="81.434,44.324 80.769,42.36 78.997,42.962 78.106,40.336 76.239,40.969 77.161,43.691 
		73.619,44.893 74.586,40.049 69.935,41.627 70.791,37.915 73.446,38.46 73.839,36.704 71.057,36.096 71.481,34.329 69.577,33.918 
		69.196,35.81 66.488,35.213 66.097,37.074 68.857,37.618 68.056,41.489 64.454,38.161 63.477,42.866 60.633,40.41 62.532,38.319 
		61.026,36.997 59.221,39.161 57.84,37.901 56.57,39.354 58.002,40.561 56.123,42.717 57.515,43.903 59.447,41.801 62.365,44.268 
		57.65,45.867 61.293,49.112 57.718,50.325 56.794,47.605 55.022,48.206 55.913,50.831 54.174,51.421 54.829,53.353 56.537,52.773 
		57.451,55.461 59.317,54.828 58.383,52.075 61.989,50.85 60.958,55.716 65.673,54.117 64.815,57.83 62.057,57.284 61.622,59.125 
		64.541,59.616 64.086,61.498 65.959,61.923 66.455,59.955 69.067,60.584 69.49,58.712 66.677,58.115 67.459,54.287 71.057,57.617 
		72.038,53.015 74.977,55.439 73.183,57.531 74.498,58.812 76.282,56.582 77.737,57.853 79.007,56.4 77.7,55.15 79.495,53.058 
		78.052,51.82 76.183,53.901 73.244,51.476 78.019,49.856 74.261,46.685 77.838,45.471 78.739,48.129 80.606,47.497 79.715,44.87 	
		"/>
	<polygon fill="#E4E5E6" points="50.019,20.967 49.535,19.544 48.251,19.981 47.605,18.076 46.251,18.535 46.922,20.507 
		44.351,21.38 45.053,17.868 41.682,19.012 42.303,16.32 44.228,16.716 44.512,15.442 42.495,15.002 42.801,13.721 41.42,13.422 
		41.145,14.794 39.181,14.362 38.897,15.71 40.9,16.106 40.317,18.912 37.708,16.498 36.998,19.911 34.935,18.13 36.314,16.614 
		35.221,15.654 33.91,17.224 32.912,16.31 31.99,17.365 33.029,18.239 31.665,19.803 32.674,20.663 34.075,19.139 36.193,20.927 
		32.774,22.088 35.415,24.439 32.822,25.318 32.153,23.347 30.869,23.783 31.515,25.686 30.253,26.114 30.729,27.514 31.966,27.094 
		32.628,29.043 33.982,28.583 33.303,26.588 35.919,25.7 35.172,29.227 38.591,28.068 37.969,30.761 35.966,30.366 35.654,31.699 
		37.769,32.056 37.44,33.422 38.796,33.729 39.156,32.301 41.052,32.758 41.359,31.401 39.319,30.968 39.885,28.191 42.495,30.605 
		43.205,27.269 45.337,29.028 44.034,30.544 44.989,31.473 46.284,29.856 47.337,30.778 48.257,29.723 47.311,28.817 48.613,27.3 
		47.566,26.404 46.212,27.912 44.079,26.155 47.543,24.979 44.818,22.68 47.411,21.799 48.064,23.727 49.418,23.268 48.772,21.364 	
		"/>
	<path fill="#BC181E" d="M24.007,38.203c0,0,8.957,14.058,14.361,17.755c5.405,3.699,14.835,9.073,27.438,11.159
		c12.4,2.051,22.26-13.248,21.63-27.386c-1.332,12.688-10.391,24.747-21.491,22.911c-12.602-2.084-22.034-7.458-27.438-11.158
		c-5.403-3.696-15.104-17.502-15.104-17.502L24.007,38.203z"/>
	<path fill="#BC181E" d="M19.679,35.717c0,0-7.568,5.74-11.585,3.252C4.079,36.48,2.63,32.214,4.437,27.523
		C6.242,22.831,16.674,7.51,16.674,7.51S8.351,23.702,9.736,29.123C11.123,34.543,19.679,35.717,19.679,35.717z"/>
	<path fill="#BC181E" d="M40.373,11.247c0,0-2.922-1.273-4.68,0.229c-1.758,1.501-5.81,4.238-7.158,6.281
		c-1.346,2.043-5.114,7.626-5.114,7.626s10.725-11.796,13.096-12.149C38.889,12.883,40.373,11.247,40.373,11.247z"/>
	<path fill="#BC181E" d="M50.583,17.298c0,0,7.111-2.413,9.338-4.529c2.227-2.116,1.809-4.013,1.465-5.029
		c-0.344-1.016-1.369-2.028-1.369-2.028s0.506,5.493-2.608,7.003C54.298,14.224,50.583,17.298,50.583,17.298z"/>
	<path fill="#E27859" d="M86.447,37.524c0,0-0.317-8.276-7.047-10.749c-6.73-2.474-28.395-6.901-28.395-6.901
		S75.399,27,79.756,29.825C84.113,32.652,86.447,37.524,86.447,37.524z"/>
	<path fill="#E27859" d="M58.55,5.677c0,0-3.556-3.18-6.748-1.906c-3.192,1.275-7.234,3.409-6.205,3.631
		c1.029,0.222,5.75-3.286,8.154-2.385C56.152,5.918,58.55,5.677,58.55,5.677z"/>
	<path fill="#E27859" d="M28.096,13.153c0,0,0.992-6.63-1.644-8.216c-2.634-1.584-9.292,2.393-8.21,2.217
		c1.085-0.179,5.011-2.655,7.084,0.645C27.401,11.1,28.096,13.153,28.096,13.153z"/>
	<polygon points="17.679,13.086 25.097,11.905 25.262,12.944 17.845,14.128 17.679,13.086 	"/>
	<polygon points="15.738,16.412 26.461,14.296 26.665,15.331 15.942,17.445 15.738,16.412 	"/>
	<polygon points="15.633,19.498 26.297,17.212 26.52,18.242 15.854,20.528 15.633,19.498 	"/>
	<polygon points="22.822,10.459 23.862,10.298 25.46,20.625 24.418,20.786 22.822,10.459 	"/>
	<polygon points="20.995,10.691 22.036,10.541 23.698,22.182 22.655,22.331 20.995,10.691 	"/>
	<polygon points="18.598,11.49 19.644,11.37 20.786,21.471 19.739,21.59 18.598,11.49 	"/>
	<polygon points="37.661,43.101 48.09,38.988 48.474,39.969 38.048,44.081 37.661,43.101 	"/>
	<polygon points="38.131,46.183 50.384,41.26 50.776,42.238 38.524,47.161 38.131,46.183 	"/>
	<polygon points="39.52,49.145 51.941,44.166 52.333,45.144 39.912,50.122 39.52,49.145 	"/>
	<polygon points="44.76,37.471 45.73,37.066 50.824,49.257 49.851,49.664 44.76,37.471 	"/>
	<polygon points="42.194,38.907 43.172,38.513 48.033,50.593 47.058,50.988 42.194,38.907 	"/>
	<polygon points="39.346,40.063 40.323,39.669 45.361,52.266 44.381,52.657 39.346,40.063 	"/>
</g>
</svg>
