<?xml version="1.0" encoding="utf-8"?>
<!-- Generator: Adobe Illustrator 17.0.0, SVG Export Plug-In . SVG Version: 6.00 Build 0)  -->
<!DOCTYPE svg PUBLIC "-//W3C//DTD SVG 1.1//EN" "http://www.w3.org/Graphics/SVG/1.1/DTD/svg11.dtd">
<svg version="1.1" id="Layer_1" xmlns="http://www.w3.org/2000/svg" xmlns:xlink="http://www.w3.org/1999/xlink" x="0px" y="0px"
	 width="91.084px" height="71.34px" viewBox="0 0 91.084 71.34" enable-background="new 0 0 91.084 71.34" xml:space="preserve">
<g>
	<path fill="#DD1F26" stroke="#000000" stroke-width="3" d="M76.383,6.367c0,0-9.735-6.476-13.373-2.877
		c-3.639,3.6-1.578,10.776-1.578,10.776S55.93,7.885,52.763,8.32c-3.169,0.434-3.169,0.434-3.169,0.434s-6.915-8.994-14.254-6.953
		C28,3.842,26.8,8.268,28.226,12.075c1.426,3.806,9.465,5.931,9.465,5.931s-18.025,4.153-20.649,4.773
		c-2.628,0.619-14.388,0.555-15.469,16.198s9.817,32.936,23.579,30.659c13.762-2.277,24.061-8.146,29.966-12.185
		C61.019,53.414,70.8,38.064,70.8,38.064s7.368,5.765,12.902,2.808c5.536-2.953,6.479-10.185,5.59-12.904
		C88.402,25.249,76.383,6.367,76.383,6.367z"/>
	<polygon fill="#E4E5E6" points="9.65,44.323 10.315,42.361 12.085,42.962 12.978,40.336 14.844,40.97 13.922,43.691 17.464,44.893 
		16.497,40.049 21.146,41.628 20.29,37.915 17.637,38.461 17.244,36.704 20.027,36.096 19.603,34.33 21.506,33.919 21.887,35.811 
		24.596,35.213 24.987,37.075 22.227,37.619 23.029,41.49 26.629,38.161 27.607,42.867 30.451,40.41 28.551,38.319 30.058,36.998 
		31.863,39.161 33.244,37.902 34.513,39.355 33.081,40.562 34.96,42.717 33.569,43.903 31.636,41.801 28.718,44.269 33.433,45.868 
		29.79,49.112 33.365,50.326 34.289,47.605 36.061,48.207 35.17,50.832 36.909,51.422 36.253,53.353 34.546,52.774 33.633,55.462 
		31.766,54.829 32.7,52.076 29.095,50.85 30.124,55.716 25.411,54.117 26.267,57.829 29.027,57.285 29.461,59.125 26.543,59.617 
		26.997,61.499 25.125,61.923 24.629,59.955 22.017,60.585 21.593,58.712 24.406,58.114 23.626,54.287 20.025,57.616 19.045,53.015 
		16.108,55.439 17.903,57.532 16.586,58.812 14.801,56.583 13.346,57.854 12.076,56.4 13.383,55.151 11.586,53.059 13.031,51.821 
		14.9,53.902 17.839,51.476 13.064,49.856 16.82,46.686 13.245,45.472 12.344,48.13 10.477,47.497 11.368,44.87 	"/>
	<polygon fill="#E4E5E6" points="41.064,20.968 41.548,19.545 42.832,19.98 43.479,18.075 44.831,18.534 44.162,20.508 46.73,21.38 
		46.028,17.869 49.402,19.012 48.78,16.321 46.856,16.716 46.572,15.443 48.589,15.003 48.28,13.721 49.663,13.422 49.939,14.794 
		51.902,14.362 52.186,15.711 50.184,16.106 50.766,18.913 53.376,16.499 54.086,19.911 56.148,18.131 54.769,16.613 55.862,15.655 
		57.173,17.223 58.171,16.311 59.093,17.364 58.054,18.24 59.418,19.803 58.41,20.664 57.008,19.138 54.891,20.927 58.309,22.088 
		55.668,24.44 58.262,25.319 58.931,23.346 60.217,23.784 59.569,25.686 60.83,26.114 60.355,27.515 59.116,27.094 58.455,29.044 
		57.103,28.584 57.78,26.589 55.164,25.701 55.911,29.228 52.493,28.068 53.114,30.762 55.117,30.366 55.43,31.7 53.314,32.056 
		53.643,33.422 52.285,33.729 51.927,32.302 50.031,32.758 49.725,31.401 51.764,30.968 51.198,28.192 48.589,30.606 47.879,27.27 
		45.746,29.028 47.049,30.544 46.094,31.474 44.8,29.857 43.746,30.779 42.824,29.724 43.771,28.818 42.47,27.301 43.518,26.404 
		44.872,27.912 47.004,26.154 43.54,24.979 46.265,22.679 43.672,21.8 43.02,23.728 41.665,23.269 42.312,21.364 	"/>
	<path fill="#BC181E" d="M67.679,33.981c0,0-9.7,13.806-15.106,17.503c-5.402,3.698-14.835,9.074-27.436,11.158
		C14.038,64.478,4.978,52.419,3.646,39.732c-0.63,14.138,9.23,29.436,21.63,27.385c12.604-2.085,22.036-7.46,27.438-11.158
		c5.405-3.697,14.361-17.755,14.361-17.755L67.679,33.981z"/>
	<path fill="#BC181E" d="M71.405,35.717c0,0,7.568,5.74,11.585,3.251c4.015-2.487,5.464-6.754,3.657-11.445
		C84.84,22.831,74.409,7.51,74.409,7.51s8.323,16.192,6.938,21.612C79.96,34.542,71.405,35.717,71.405,35.717z"/>
	<path fill="#BC181E" d="M50.711,11.248c0,0,2.925-1.273,4.68,0.228c1.756,1.502,5.812,4.239,7.158,6.281
		c1.344,2.044,5.114,7.626,5.114,7.626S56.938,13.588,54.565,13.236C52.194,12.884,50.711,11.248,50.711,11.248z"/>
	<path fill="#BC181E" d="M40.5,17.299c0,0-7.111-2.414-9.337-4.529c-2.227-2.116-1.809-4.013-1.465-5.029
		c0.344-1.016,1.369-2.028,1.369-2.028s-0.506,5.493,2.605,7.003C36.786,14.225,40.5,17.299,40.5,17.299z"/>
	<path fill="#E27859" d="M4.636,37.523c0,0,0.317-8.274,7.047-10.748c6.728-2.474,28.395-6.901,28.395-6.901
		s-24.394,7.125-28.751,9.952C6.97,32.653,4.636,37.523,4.636,37.523z"/>
	<path fill="#E27859" d="M32.534,5.677c0,0,3.558-3.179,6.748-1.905c3.192,1.274,7.234,3.408,6.205,3.631
		c-1.029,0.222-5.748-3.287-8.154-2.386C34.931,5.918,32.534,5.677,32.534,5.677z"/>
	<path fill="#E27859" d="M62.987,13.153c0,0-0.992-6.63,1.642-8.215c2.636-1.584,9.294,2.393,8.212,2.215
		C71.757,6.975,67.83,4.498,65.757,7.8C63.683,11.101,62.987,13.153,62.987,13.153z"/>
	<polygon points="65.819,12.946 65.986,11.905 73.4,13.087 73.235,14.126 65.819,12.946 	"/>
	<polygon points="64.415,15.333 64.62,14.298 75.345,16.413 75.14,17.446 64.415,15.333 	"/>
	<polygon points="64.563,18.243 64.785,17.212 75.45,19.5 75.23,20.528 64.563,18.243 	"/>
	<polygon points="65.622,20.624 67.219,10.298 68.261,10.46 66.664,20.786 65.622,20.624 	"/>
	<polygon points="67.383,22.183 69.044,10.542 70.087,10.692 68.424,22.332 67.383,22.183 	"/>
	<polygon points="70.295,21.471 71.435,11.37 72.484,11.489 71.342,21.59 70.295,21.471 	"/>
	<polygon points="42.606,39.969 42.991,38.989 53.419,43.102 53.034,44.082 42.606,39.969 	"/>
	<polygon points="40.305,42.241 40.698,41.262 52.95,46.183 52.557,47.162 40.305,42.241 	"/>
	<polygon points="38.747,45.143 39.14,44.166 51.563,49.144 51.17,50.124 38.747,45.143 	"/>
	<polygon points="40.259,49.257 45.35,37.066 46.321,37.472 41.229,49.664 40.259,49.257 	"/>
	<polygon points="43.046,50.593 47.909,38.513 48.887,38.908 44.024,50.988 43.046,50.593 	"/>
	<polygon points="45.721,52.264 50.757,39.671 51.738,40.064 46.699,52.657 45.721,52.264 	"/>
</g>
</svg>
