<?xml version="1.0" encoding="utf-8"?>
<!-- Generator: Adobe Illustrator 17.0.0, SVG Export Plug-In . SVG Version: 6.00 Build 0)  -->
<!DOCTYPE svg PUBLIC "-//W3C//DTD SVG 1.1//EN" "http://www.w3.org/Graphics/SVG/1.1/DTD/svg11.dtd">
<svg version="1.1" id="Layer_1" xmlns="http://www.w3.org/2000/svg" xmlns:xlink="http://www.w3.org/1999/xlink" x="0px" y="0px"
	 width="134.336px" height="74.943px" viewBox="1.001 -2 134.336 74.943" enable-background="new 1.001 -2 134.336 74.943"
	 xml:space="preserve">
<g>
	<path fill="#963B33" stroke="#000000" stroke-width="3.5" d="M4.67,8.264l38.404,14.54c0,0,4.826,2.732,6.944,4.156
		c2.118,1.423,4.213,8.574,4.791,11.526c0.578,2.951,1.539,7.481,1.539,7.481s7.397,0.982,7.049-0.789s0.37-4.363-1.62-8.264
		c-1.992-3.901-3.982-7.801-3.982-7.801s12.488,4.294,17.084,5.846c4.596,1.551,18.368,9.272,18.368,9.272
		s1.955,13.103,0.881,16.993c-1.078,3.888-1.078,3.888-1.078,3.888s7.281,8.994,8.358,5.106c1.074-3.89,0.648-15.452,0.648-15.452
		l-3.392-7.917l31.808,12.154l1.332-8.843l-5.186-1.437l6.738-3.159l-0.696-3.541c0,0-9.329,2.441-11.101,2.789
		c-1.77,0.347-6.493,1.273-9.908-0.509c-3.414-1.782-8.714-3.809-8.714-3.809L93.63,36.8l-9.062-5.578l8.518-6.575l4.491-2.106
		l-4.108-5.324c0,0-4.26,3.287-7.57,5.162c-3.311,1.876-6.506,4.342-8.278,4.687c-1.77,0.348-4.954-0.254-4.954-0.254L62.183,23.35
		l-4.596-1.552l-3.645-2.964c0,0-1.402-4.016-3.519-5.44c-2.118-1.424-4.583-4.618-6.353-4.272
		c-1.772,0.348-2.373,3.531-4.145,3.877c-1.77,0.347-27.212-10.603-29.33-12.026C8.477-0.45,4.843-0.239,4.843-0.239l-1.92,2.717
		L4.67,8.264z"/>
	<path fill="#BA756E" d="M42.433,14.369c0.529-0.495,2.258-2.358,2.258-2.358s1.155-0.088,1.262,0.556
		c0.107,0.643,2.842,3.043,2.842,3.043l0.891,0.158l-1.083,1.756c0,0-2.49-2.135-2.995-2.408
		C45.107,14.844,42.433,14.369,42.433,14.369z"/>
	<path fill="#BA756E" d="M79.864,28.705l6.137-3.507l5.25-3.664c0,0-1.64,3.019-2.169,3.513c-0.529,0.495-2.233,1.59-3.009,1.82
		c-0.776,0.229-2.462,0.813-3.254,1.554c-0.794,0.743-0.794,0.743-0.794,0.743L79.864,28.705z"/>
	<polygon fill="#BA756E" points="95.544,64.848 96.831,60.92 96.429,53.862 95.668,49.864 97.462,53.639 97.473,57.1 98.039,59.296 
		98.64,60.47 98.463,61.873 97.228,64.264 97.31,65.677 98.512,68.022 	"/>
	<polygon fill="#BA756E" points="58.207,43.982 56.854,38.557 55.969,34.427 60.52,43.804 	"/>
</g>
</svg>
