<?xml version="1.0" encoding="utf-8"?>
<!-- Generator: Adobe Illustrator 17.0.0, SVG Export Plug-In . SVG Version: 6.00 Build 0)  -->
<!DOCTYPE svg PUBLIC "-//W3C//DTD SVG 1.1//EN" "http://www.w3.org/Graphics/SVG/1.1/DTD/svg11.dtd">
<svg version="1.1" id="Layer_1" xmlns="http://www.w3.org/2000/svg" xmlns:xlink="http://www.w3.org/1999/xlink" x="0px" y="0px"
	 width="110.283px" height="78.287px" viewBox="0 0 110.283 78.287" enable-background="new 0 0 110.283 78.287"
	 xml:space="preserve">
<g>
	<path fill="#6C5735" stroke="#000000" stroke-width="3" stroke-linecap="round" stroke-linejoin="round" d="M53.964,6.113
		c0,1.648-2.005,2.985-4.476,2.985s-4.476-1.336-4.476-2.985c0-1.648,2.005-4.613,4.476-4.613S53.964,4.465,53.964,6.113z"/>
	<path fill="#6C5735" stroke="#000000" stroke-width="3" stroke-linecap="round" stroke-linejoin="round" d="M2.42,76.032
		c0,0,15.761-14.584,49.287-14.584c33.528,0,51.678,15.338,51.678,15.338s5.8-67.908-46.449-71.053
		C-10.061,1.7,2.42,76.032,2.42,76.032z"/>
	<path fill="#54422B" d="M31.097,10.037c0,0-19.992,9.536-25.224,29.837C0.645,60.177,2.492,68.788,2.492,68.788v2.155l65.828-6.152
		c0,0-42.143-6.46-44.911-27.377C20.638,16.497,31.097,10.037,31.097,10.037z"/>
	<path fill="#4C3A23" stroke="#000000" stroke-width="3" stroke-linecap="round" stroke-linejoin="round" d="M2.963,75.562
		c0,0,4.882-20.69,52.901-21.504c48.019-0.813,55.887,13.293,52.088,16.821c-3.799,3.527-5.968,5.425-5.968,5.425
		S80.009,67.08,47.996,67.08C15.984,67.08,2.963,75.562,2.963,75.562z"/>
	<path fill="#F26522" d="M30.63,35.906c0.226,0.938-0.482,1.91-1.585,2.176c-1.099,0.267-2.173-0.277-2.402-1.211
		c-0.226-0.936,0.484-1.911,1.585-2.177C29.327,34.428,30.405,34.972,30.63,35.906z"/>
	
		<ellipse transform="matrix(0.9721 -0.2347 0.2347 0.9721 -6.9096 11.4476)" fill="#F26522" cx="44.633" cy="34.749" rx="2.05" ry="1.743"/>
	
		<ellipse transform="matrix(0.9721 -0.2346 0.2346 0.9721 -6.3925 14.9421)" fill="#F26522" cx="59.602" cy="34.337" rx="2.05" ry="1.743"/>
	<path fill="#F26522" d="M77.506,35.064c-0.023,0.961-0.836,1.721-1.813,1.697c-0.98-0.026-1.754-0.824-1.727-1.785
		c0.023-0.965,0.836-1.725,1.815-1.701C76.757,33.3,77.531,34.101,77.506,35.064z"/>
	<path fill="#F26522" d="M90.905,36.639c-0.027,0.963-0.838,1.723-1.817,1.698c-0.978-0.025-1.749-0.825-1.725-1.788
		c0.023-0.963,0.836-1.722,1.815-1.697C90.155,34.876,90.927,35.676,90.905,36.639z"/>
	
		<ellipse transform="matrix(0.972 -0.2349 0.2349 0.972 -8.9004 4.6083)" fill="#DD5926" cx="14.897" cy="39.67" rx="2.051" ry="1.742"/>
	<path fill="#846945" d="M64.893,8.664c0,0,17.432,4.102,25.018,16.61c7.59,12.51,10.459,31.173,10.459,31.173
		s-7.174-24.815-15.998-33.837C75.555,13.586,64.893,8.664,64.893,8.664z"/>
	<g>
		<path fill="#E18426" d="M22.967,29.032c-0.471,0.412-0.914,0.726-1.303,0.873c-2.171,0.814-4.341-2.17-5.697-2.984
			c-1.356-0.815-7.596,7.325-7.596,7.325l-2.715,8.953c0,0,1.358-2.442,1.9-1.356c0.543,1.085,2.715-2.713,5.97-4.883
			c3.252-2.172,4.069,1.627,6.24,2.17c1.266,0.316,2.35-0.574,3.571-1.906C22.963,34.195,22.86,31.47,22.967,29.032z"/>
		<path fill="#F7941E" d="M94.37,33.974c-1.085-2.985-1.898-3.529-1.898-3.529s0,0-1.087-0.541
			c-1.085-0.543-1.628-3.528-2.715-4.612c-1.083-1.085-3.797,0.541-5.423,1.085c-1.628,0.543-3.256-6.24-4.884-7.324
			c-1.628-1.087-6.238,4.883-8.138,5.968c-1.902,1.084-6.242-4.885-8.142-6.24c-1.895-1.356-6.51,5.426-7.866,6.511
			c-1.356,1.085-5.968-4.341-8.14-5.699c-2.169-1.355-7.323,6.24-10.035,7.055c-2.715,0.813-5.155-2.984-6.783-3.255
			c-1.336-0.223-4.131,3.754-6.294,5.638c-0.107,2.438-0.004,5.163,0.37,8.191c0.87-0.951,1.809-2.122,2.939-3.249
			c2.713-2.714,5.427,0.541,8.138,1.899c2.715,1.356,2.758,0.416,7.535-3.324c4.717-3.692,5.769,1.244,9.025,2.87
			c3.256,1.628,4.602-1.989,6.501-3.615c1.9-1.628,5.427,0.813,8.953,2.712c3.528,1.899,5.155-0.814,7.325-2.712
			c2.169-1.9,3.528,1.085,6.783,3.525c3.254,2.443,7.594-1.628,8.409-2.171c0.813-0.541,7.325,6.242,7.325,6.242
			S95.457,36.959,94.37,33.974z"/>
	</g>
	<path fill="#382A1A" d="M48.479,65.561c0,0,18.455-0.462,33.526,3.227c15.073,3.692,19.072,5.384,19.072,5.384
		s5.997-4.153,4.614-6.919c-1.385-2.77-6.921-7.538-22.765-9.69c-15.839-2.154-16.3-1.999-16.3-1.999s29.99,5.844,29.99,9.844
		C96.618,69.404,48.479,65.561,48.479,65.561z"/>
</g>
</svg>
