<?xml version="1.0" encoding="utf-8"?>
<!-- Generator: Adobe Illustrator 17.0.0, SVG Export Plug-In . SVG Version: 6.00 Build 0)  -->
<!DOCTYPE svg PUBLIC "-//W3C//DTD SVG 1.1//EN" "http://www.w3.org/Graphics/SVG/1.1/DTD/svg11.dtd">
<svg version="1.1" id="Layer_1" xmlns="http://www.w3.org/2000/svg" xmlns:xlink="http://www.w3.org/1999/xlink" x="0px" y="0px"
	 width="97.849px" height="40.857px" viewBox="0 0 97.849 40.857" enable-background="new 0 0 97.849 40.857" xml:space="preserve">
<g>
	<path fill="#1A1A1A" stroke="#000000" stroke-width="3" d="M18.572,16.939c0,0,2.346,1.329,3.05,1.518
		c0.704,0.189,1.642,0.949,1.642,0.949s1.173-0.191,1.876,0.947c0.704,1.139,0.234,2.656,0.234,2.656s-0.703,0.569-1.641,1.329
		c-0.938,0.757-1.877,1.897-2.581,2.275c-0.703,0.379-1.407,1.137-1.407,1.137s-1.172,1.327-2.112,0.189
		c-0.938-1.137-0.938-1.897-1.876-1.897c-0.938,0-2.815-0.757-2.815-0.757s-0.703,0-1.173-1.139
		c-0.468-1.137-0.468-2.086-0.468-2.086c0.938-0.757,1.641-0.757,2.111-1.897c0.469-1.138,0-0.189,0.469-1.138
		c0.469-0.948,0.939-1.707,0.939-1.707l0.938-0.568L18.572,16.939z"/>
	<path d="M15.464,19.814c-0.369,0.357-0.664,2.14-1.402,2.437c-0.737,0.297-1.401,0.297-1.401,0.534
		c0,0.239,1.327,1.069,2.287,1.369c0.958,0.295,1.18,0.237,1.769,0.474c0.591,0.239,2.066,0.653,2.139,0.89
		c0.074,0.239,0.147,0.657,0.147,0.657s3.762-2.854,3.467-2.735c-0.295,0.119-6.122,0.059-6.638-0.535
		C15.316,22.311,15.464,19.814,15.464,19.814z"/>
	<path fill="#666666" d="M22.323,22.607c0,0,2.508-1.01,1.549-1.426c-0.959-0.417-1.697-0.712-2.212-1.189
		c-0.517-0.475-0.959-1.128-1.918-1.247c-0.959-0.119-2.434-0.713-2.434-0.713l-0.664,0.179c0,0,0.959,0.415,1.106,0.593
		c0.147,0.179,0.074,0.772,0.812,0.772c0.737,0,1.548,0.299,1.548,0.299l0.443,0.889L22.323,22.607z"/>
	<polygon fill="#666666" points="19.668,20.586 19.078,20.408 18.193,20.469 17.897,21.3 19.888,21.3 21.069,22.013 	"/>
	<g>
		<path fill="#1A1A1A" stroke="#000000" stroke-width="3" d="M29.943,28.367c0,0,2.47,0.147,3.098,0.037
			c0.629-0.11,1.739,0.114,1.739,0.114s0.777-0.554,1.913,0.034c1.137,0.589,1.597,1.871,1.597,1.871s-0.223,0.668-0.52,1.558
			c-0.298,0.889-0.392,2.059-0.717,2.587c-0.324,0.528-0.446,1.335-0.446,1.335s-0.169,1.392-1.481,0.888
			c-1.312-0.506-1.718-1.063-2.421-0.731c-0.703,0.331-2.516,0.438-2.516,0.438s-0.527,0.249-1.488-0.422
			c-0.961-0.67-1.468-1.369-1.468-1.369c0.297-0.889,0.825-1.138,0.568-2.141c-0.258-1.002-0.101-0.14-0.258-1.002
			c-0.155-0.864-0.21-1.588-0.21-1.588l0.399-0.751L29.943,28.367z"/>
		<path d="M29.151,31.582c-0.086,0.393,0.647,1.809,0.253,2.289c-0.394,0.481-0.891,0.714-0.764,0.891
			c0.128,0.173,1.568,0.315,2.446,0.193c0.878-0.12,1.012-0.242,1.581-0.277c0.57-0.033,1.899-0.25,2.081-0.102
			c0.182,0.15,0.46,0.43,0.46,0.43s1.293-3.431,1.135-3.239c-0.157,0.192-4.557,2.211-5.262,1.956
			C30.377,33.472,29.151,31.582,29.151,31.582z"/>
		<path fill="#666666" d="M35.788,31.209c0,0,1.339-1.631,0.398-1.598c-0.942,0.034-1.654,0.077-2.295-0.091
			c-0.642-0.167-1.322-0.492-2.105-0.239c-0.783,0.252-2.206,0.338-2.206,0.338l-0.402,0.366c0,0,0.942-0.034,1.147,0.044
			c0.206,0.079,0.469,0.542,1.022,0.282c0.553-0.261,1.32-0.329,1.32-0.329l0.808,0.498L35.788,31.209z"/>
		<polygon fill="#666666" points="32.716,30.662 32.178,30.741 31.547,31.098 31.771,31.813 33.263,31.108 34.53,31.215 		"/>
	</g>
	<path fill="#1A1A1A" stroke="#000000" stroke-width="3" d="M84.067,14.218c0,0,2.304-0.213,2.86-0.402
		c0.557-0.189,1.626-0.139,1.626-0.139s0.597-0.618,1.771-0.237c1.173,0.381,1.876,1.495,1.876,1.495s-0.062,0.648-0.141,1.509
		c-0.081,0.862,0.086,1.952-0.099,2.484c-0.185,0.531-0.122,1.291-0.122,1.291s0.146,1.307-1.171,1.027
		c-1.319-0.28-1.814-0.737-2.388-0.332c-0.576,0.403-2.221,0.757-2.221,0.757s-0.433,0.303-1.462-0.179
		c-1.03-0.484-1.65-1.055-1.65-1.055c0.083-0.86,0.514-1.165,0.061-2.051c-0.455-0.888-0.125-0.114-0.455-0.888
		c-0.331-0.773-0.538-1.434-0.538-1.434l0.205-0.746L84.067,14.218z"/>
	<path d="M84.033,17.291c0.007,0.374,0.988,1.575,0.729,2.071c-0.258,0.498-0.665,0.783-0.509,0.928
		c0.154,0.143,1.512,0.07,2.293-0.165c0.783-0.236,0.88-0.365,1.397-0.478c0.517-0.112,1.693-0.498,1.893-0.386
		c0.2,0.111,0.517,0.329,0.517,0.329s0.447-3.341,0.344-3.143c-0.103,0.199-3.717,2.678-4.422,2.543
		C85.572,18.858,84.033,17.291,84.033,17.291z"/>
	<path fill="#666666" d="M90.064,16.013c0,0,0.88-1.69,0.021-1.527c-0.859,0.164-1.507,0.303-2.132,0.24
		c-0.628-0.064-1.325-0.267-1.992,0.075c-0.665,0.342-1.957,0.623-1.957,0.623l-0.291,0.392c0,0,0.859-0.162,1.066-0.118
		c0.207,0.042,0.549,0.432,1.001,0.114c0.453-0.318,1.145-0.489,1.145-0.489l0.852,0.346L90.064,16.013z"/>
	<polygon fill="#666666" points="87.117,15.942 86.638,16.089 86.135,16.508 86.497,17.135 87.719,16.275 88.907,16.196 	"/>
	<g>
		<path fill="#1A1A1A" stroke="#000000" stroke-width="3" d="M48.998,33.708c0-0.582,1.881-1.941,1.881-1.941s1.343,0.582,1.611,0
			c0.269-0.582,0.269-0.582,0.269-0.582l2.148-0.972l1.881,0.972l2.148,0.582c0,0,1.611-0.195,1.074,0.97
			c-0.536,1.165-0.805,2.719-0.805,2.719l-0.806,2.525c0,0-0.268,0.97-1.88,0.777c-1.612-0.195-3.492,0.583-4.835,0.193
			c-1.343-0.388,0.268,1.36-1.343-0.388c-1.611-1.747,0-0.776-1.611-1.747C47.118,35.846,48.998,33.708,48.998,33.708z"/>
		<path fill="#666666" d="M54.817,31.344l1.554,0.902c0,0,0.809,0.35,1.057,0.35c0.25,0,1.246,0.052,1.246,0.052
			s-1.058,2.054-1.058,2.354c0,0.301,0.248,0.802,0,1.303c-0.249,0.502-0.498,1.103-0.498,1.103s-0.747-0.702-0.747-0.902
			c0-0.201,0.126-0.249,0.062-0.65c-0.062-0.402-0.248-0.802-0.062-1.254c0.186-0.45,0.56-0.951,0.125-1.002
			c-0.437-0.049-0.498,0.151-0.809-0.099c-0.31-0.251-0.56-0.703-0.87-0.703c-0.311,0-0.498-0.049-0.746-0.149
			c-0.249-0.101-0.56-0.351-0.56-0.351L54.817,31.344z"/>
		<path fill="#666666" d="M55.749,34.2c-0.31,0-0.683-0.301-0.683-0.301s-0.125-0.25-0.435-0.301
			c-0.311-0.049-0.622-0.049-0.622-0.049s0.808,0.803,0.933,1.003c0.125,0.2,0.373,0.3,0.498,0.45
			c0.125,0.151,0.31,0.702,0.374,0.301C55.875,34.902,55.749,34.2,55.749,34.2z"/>
		<path d="M50.96,33.097c-0.186,0.553-0.745,1.604-1.057,1.805c-0.311,0.2-0.684,0.301-0.684,0.501c0,0.201-0.684,0.301,0.062,0.601
			c0.746,0.301,1.555,0.501,1.555,0.751c0,0.25,0.311,0.501,0.373,0.752c0.062,0.25,0.31,0.501,0.498,0.451
			c0.186-0.049,0.746-0.049,1.181-0.1c0.436-0.049,1.493-0.049,1.742-0.049c0.248,0,1.245,0.049,1.245,0.049h0.682
			c0,0-1.305-0.903-1.492-0.903c-0.187,0-1.057,0.301-1.618,0.201c-0.56-0.101-1.119-0.151-1.305-0.35
			c-0.187-0.201-0.249,0.149-0.56-0.602c-0.311-0.752-0.124-1.002-0.187-1.154c-0.062-0.149,0.311,0.251-0.062-0.149
			C50.96,34.501,50.96,33.097,50.96,33.097z"/>
	</g>
	<g>
		<path fill="#1A1A1A" stroke="#000000" stroke-width="3" d="M87.338,4.498c0-0.471,1.524-1.572,1.524-1.572s1.088,0.471,1.305,0
			c0.218-0.472,0.218-0.472,0.218-0.472l1.741-0.787l1.522,0.787l1.741,0.472c0,0,1.306-0.157,0.871,0.786
			c-0.434,0.944-0.652,2.202-0.652,2.202l-0.652,2.047c0,0-0.218,0.786-1.523,0.63c-1.306-0.16-2.829,0.471-3.917,0.156
			c-1.088-0.316,0.218,1.102-1.088-0.316c-1.305-1.414,0-0.628-1.305-1.414C85.815,6.229,87.338,4.498,87.338,4.498z"/>
		<path fill="#666666" d="M92.053,2.582l1.258,0.733c0,0,0.656,0.283,0.856,0.283c0.202,0,1.009,0.041,1.009,0.041
			S94.32,5.303,94.32,5.547c0,0.244,0.201,0.649,0,1.055c-0.202,0.405-0.404,0.893-0.404,0.893s-0.605-0.568-0.605-0.731
			c0-0.163,0.102-0.204,0.051-0.527c-0.051-0.326-0.202-0.65-0.051-1.017c0.151-0.364,0.455-0.77,0.102-0.812
			c-0.354-0.039-0.404,0.123-0.656-0.08c-0.252-0.203-0.454-0.568-0.705-0.568c-0.253,0-0.404-0.04-0.605-0.121
			c-0.202-0.082-0.455-0.285-0.455-0.285L92.053,2.582z"/>
		<path fill="#666666" d="M92.808,4.897c-0.251,0-0.555-0.245-0.555-0.245s-0.1-0.202-0.351-0.244
			c-0.252-0.039-0.505-0.039-0.505-0.039s0.656,0.649,0.756,0.811c0.1,0.163,0.303,0.244,0.404,0.366
			c0.1,0.121,0.251,0.568,0.3,0.244C92.909,5.465,92.808,4.897,92.808,4.897z"/>
		<path d="M88.929,4.003c-0.153,0.448-0.605,1.3-0.858,1.462c-0.251,0.163-0.554,0.244-0.554,0.405c0,0.163-0.554,0.244,0.051,0.488
			c0.605,0.243,1.258,0.405,1.258,0.609c0,0.202,0.253,0.405,0.304,0.607c0.049,0.204,0.25,0.407,0.402,0.366
			C89.684,7.9,90.137,7.9,90.49,7.86c0.353-0.041,1.209-0.041,1.411-0.041c0.2,0,1.007,0.041,1.007,0.041h0.554
			c0,0-1.056-0.73-1.209-0.73c-0.151,0-0.856,0.243-1.309,0.162c-0.453-0.082-0.907-0.122-1.058-0.285
			c-0.151-0.162-0.202,0.123-0.454-0.487c-0.251-0.609-0.1-0.811-0.151-0.933c-0.049-0.121,0.253,0.204-0.049-0.121
			C88.929,5.139,88.929,4.003,88.929,4.003z"/>
	</g>
	<path fill="#1A1A1A" stroke="#000000" stroke-width="3" d="M2.421,7.728c0-0.582,1.881-1.941,1.881-1.941s1.343,0.581,1.611,0
		c0.269-0.585,0.269-0.585,0.269-0.585l2.148-0.97l1.88,0.97l2.15,0.585c0,0,1.611-0.197,1.074,0.97
		c-0.537,1.165-0.806,2.719-0.806,2.719l-0.806,2.525c0,0-0.268,0.97-1.88,0.777c-1.612-0.195-3.492,0.582-4.835,0.193
		c-1.343-0.388,0.268,1.359-1.343-0.388c-1.611-1.748,0-0.776-1.611-1.748C0.541,9.865,2.421,7.728,2.421,7.728z"/>
	<path fill="#666666" d="M8.24,5.363l1.555,0.902c0,0,0.808,0.35,1.056,0.35c0.25,0,1.245,0.051,1.245,0.051
		s-1.058,2.054-1.058,2.354c0,0.3,0.248,0.802,0,1.303c-0.249,0.501-0.498,1.101-0.498,1.101s-0.746-0.7-0.746-0.901
		c0-0.2,0.125-0.25,0.062-0.651c-0.062-0.4-0.249-0.802-0.062-1.252c0.186-0.452,0.56-0.951,0.125-1.002
		c-0.436-0.049-0.498,0.151-0.809-0.1C8.8,7.268,8.55,6.816,8.24,6.816c-0.311,0-0.498-0.049-0.747-0.149
		c-0.248-0.101-0.56-0.352-0.56-0.352L8.24,5.363z"/>
	<path fill="#666666" d="M9.173,8.22c-0.31,0-0.684-0.301-0.684-0.301S8.364,7.67,8.053,7.618c-0.31-0.049-0.622-0.049-0.622-0.049
		S8.24,8.371,8.364,8.57c0.124,0.202,0.374,0.303,0.498,0.452c0.124,0.149,0.31,0.702,0.372,0.3C9.297,8.922,9.173,8.22,9.173,8.22z
		"/>
	<path d="M4.384,7.117C4.197,7.67,3.638,8.721,3.327,8.922c-0.311,0.2-0.684,0.301-0.684,0.501c0,0.201-0.684,0.301,0.062,0.601
		c0.747,0.301,1.555,0.501,1.555,0.751c0,0.251,0.311,0.501,0.373,0.752c0.062,0.25,0.311,0.5,0.497,0.451
		c0.186-0.049,0.746-0.049,1.181-0.1c0.436-0.049,1.494-0.049,1.742-0.049c0.248,0,1.244,0.049,1.244,0.049h0.684
		c0,0-1.305-0.902-1.493-0.902c-0.187,0-1.057,0.3-1.617,0.201c-0.56-0.101-1.12-0.15-1.306-0.351c-0.186-0.2-0.25,0.15-0.56-0.601
		C4.695,9.472,4.881,9.222,4.819,9.071C4.756,8.922,5.13,9.322,4.756,8.922C4.384,8.521,4.384,7.117,4.384,7.117z"/>
	<path fill="#1A1A1A" stroke="#000000" stroke-width="3" d="M68.95,30.126c-0.455-0.453-0.053-2.465-0.053-2.465
		s1.499-0.225,1.253-0.814c-0.245-0.59-0.245-0.59-0.245-0.59l0.913-1.844l2.22-0.197l2.126-0.635c0,0,1.102-0.967,1.594,0.211
		c0.49,1.179,1.494,2.522,1.494,2.522l1.343,2.373c0,0,0.549,0.892-0.856,1.556c-1.407,0.665-2.261,2.223-3.61,2.599
		c-1.348,0.379,1.269,0.922-1.348,0.379c-2.616-0.543-0.605-0.604-2.616-0.543C69.153,32.739,68.95,30.126,68.95,30.126z"/>
	<path fill="#666666" d="M71.629,25.34l1.914-0.085c0,0,0.901-0.137,1.095-0.262c0.194-0.125,1.007-0.593,1.007-0.593
		s0.779,2.134,1.015,2.368c0.234,0.235,0.817,0.498,1.015,1.014c0.197,0.516,0.472,1.109,0.472,1.109s-1.126-0.167-1.282-0.323
		c-0.156-0.155-0.099-0.257-0.462-0.538c-0.36-0.281-0.818-0.498-1.024-0.943c-0.207-0.446-0.307-1.025-0.686-0.842
		c-0.377,0.181-0.268,0.367-0.706,0.33c-0.437-0.038-0.982-0.262-1.223-0.105c-0.243,0.157-0.427,0.213-0.699,0.261
		c-0.272,0.047-0.708,0.011-0.708,0.011L71.629,25.34z"/>
	<path fill="#666666" d="M74.584,27.09c-0.242,0.157-0.767,0.112-0.767,0.112s-0.293-0.132-0.574-0.013
		c-0.28,0.118-0.522,0.277-0.522,0.277s1.253,0.213,1.507,0.305c0.255,0.095,0.525,0.046,0.738,0.101
		c0.215,0.052,0.79,0.388,0.525,0.044C75.227,27.571,74.584,27.09,74.584,27.09z"/>
	<path d="M69.998,28.657c0.285,0.523,0.671,1.624,0.586,1.938c-0.086,0.315-0.297,0.58-0.142,0.737
		c0.156,0.155-0.297,0.58,0.517,0.436c0.815-0.145,1.601-0.398,1.797-0.203c0.195,0.195,0.633,0.233,0.877,0.395
		c0.243,0.164,0.631,0.232,0.738,0.1c0.105-0.134,0.541-0.419,0.84-0.676c0.3-0.261,1.123-0.795,1.316-0.921
		c0.194-0.125,1.007-0.593,1.007-0.593l0.532-0.345c0,0-1.719-0.041-1.864,0.054c-0.146,0.094-0.589,0.768-1.102,0.974
		c-0.514,0.207-0.988,0.45-1.289,0.388c-0.303-0.061-0.077,0.244-0.904-0.183c-0.829-0.428-0.88-0.716-1.045-0.802
		c-0.166-0.087,0.437,0.037-0.166-0.087C71.093,29.748,69.998,28.657,69.998,28.657z"/>
</g>
</svg>
