<?xml version="1.0" encoding="utf-8"?>
<!-- Generator: Adobe Illustrator 17.0.0, SVG Export Plug-In . SVG Version: 6.00 Build 0)  -->
<!DOCTYPE svg PUBLIC "-//W3C//DTD SVG 1.1//EN" "http://www.w3.org/Graphics/SVG/1.1/DTD/svg11.dtd">
<svg version="1.1" id="Layer_1" xmlns="http://www.w3.org/2000/svg" xmlns:xlink="http://www.w3.org/1999/xlink" x="0px" y="0px"
	 width="127.485px" height="56.595px" viewBox="0 0 127.485 56.595" enable-background="new 0 0 127.485 56.595"
	 xml:space="preserve">
<g>
	<g>
		<path fill="#ED1C24" stroke="#000000" stroke-width="4" d="M48.56,20.794c0,0-14.129-6.209-19.7-6.041
			c-5.569,0.17-7.242,0.22-12.896-2.374c-5.654-2.594-8.59-7.483-8.59-7.483S2.811,19.967,3.519,24.921
			C4.227,29.876,6.656,36.441,5.05,38.7c-1.603,2.261-4.223,7.87-2.468,10.583c1.756,2.713,2.937,4.888,2.937,4.888
			s16.561-5.478,22.655-6.768s23.905-2.382,23.905-2.382L48.56,20.794z"/>
		<path fill="#ED1C24" stroke="#000000" stroke-width="4" d="M68.614,20.188c0,0,10.435-5.293,16.512-7.135
			c6.08-1.844,13.336-1.51,17.22-2.18c3.884-0.671,16.53-6.583,16.53-6.583s6.969,9.19,6.594,15.285
			c-0.372,6.094-3.717,6.196-2.418,12.239c1.299,6.045,0.91,11.588,0.992,14.349c0.084,2.763-3.159,6.178-3.159,6.178L68.709,41.752
			L68.614,20.188z"/>
		
			<ellipse transform="matrix(0.9995 -0.0302 0.0302 0.9995 -0.9713 1.874)" fill="#ED1C24" stroke="#000000" stroke-width="4" cx="61.617" cy="33.126" rx="16.678" ry="17.459"/>
	</g>
	<path fill="#B91319" d="M64.887,44.422c-6.718,0.224-12.336-5.874-12.548-13.619c-0.107-3.917,1.192-7.502,3.367-10.122
		c-4.39,2.235-7.393,7.365-7.23,13.243c0.212,7.746,5.831,13.843,12.548,13.619c3.32-0.111,6.285-1.749,8.411-4.309
		C68.04,43.944,66.507,44.368,64.887,44.422z"/>
	<path fill="#B91319" d="M118.444,22.817c0,0-2.472,4.588-1.414,7.413c1.06,2.824,2.472,6,2.472,6l-36.362-6L118.444,22.817z"/>
	<path fill="#B91319" d="M9.712,37.643l30.007-0.706c0,0-14.826,2.824-18.71,3.884c-3.882,1.059-15.532,6-15.532,6L9.712,37.643z"/>
	<polygon fill="#B91319" points="81.374,36.231 80.67,40.821 119.148,48.587 	"/>
	<ellipse fill="#F47A59" cx="67.608" cy="25.816" rx="4.59" ry="4.766"/>
	<path fill="#F47A59" d="M42.542,22.814c0,0-9.883-3.883-13.414-3.883c-3.53,0-7.413,1.059-10.237-0.353
		C16.067,17.166,8.3,14.342,8.3,14.342s-1.412,5.65-1.412,7.767c0,2.118,0.706,3.53,0.706,3.53s3.178-4.237,8.119-4.237
		C20.657,21.402,42.542,22.814,42.542,22.814z"/>
	<path fill="#F47A59" d="M121.62,19.284l-4.589-10.591c0,0-7.413,5.648-10.237,6.001c-2.824,0.353-16.592,0.353-17.652,0.707
		c-1.058,0.353-11.295,3.883-11.295,3.883H121.62z"/>
	<polygon fill="#F47A59" points="40.425,27.405 40.779,33.759 21.715,30.581 	"/>
	<polygon fill="#F47A59" points="118.444,39.053 118.444,44.349 96.555,37.288 	"/>
</g>
</svg>
