<?xml version="1.0" encoding="utf-8"?>
<!-- Generator: Adobe Illustrator 17.0.0, SVG Export Plug-In . SVG Version: 6.00 Build 0)  -->
<!DOCTYPE svg PUBLIC "-//W3C//DTD SVG 1.1//EN" "http://www.w3.org/Graphics/SVG/1.1/DTD/svg11.dtd">
<svg version="1.1" id="Layer_1" xmlns="http://www.w3.org/2000/svg" xmlns:xlink="http://www.w3.org/1999/xlink" x="0px" y="0px"
	 width="97.778px" height="122.326px" viewBox="0 0 97.778 122.326" enable-background="new 0 0 97.778 122.326"
	 xml:space="preserve">
<g>
	<g>
		<linearGradient id="SVGID_1_" gradientUnits="userSpaceOnUse" x1="1.5" y1="13.76" x2="46.3868" y2="13.76">
			<stop  offset="0" style="stop-color:#006838"/>
			<stop  offset="0.0881" style="stop-color:#01733C"/>
			<stop  offset="0.3141" style="stop-color:#1F8C42"/>
			<stop  offset="0.5417" style="stop-color:#2EA046"/>
			<stop  offset="0.77" style="stop-color:#37AD48"/>
			<stop  offset="1" style="stop-color:#39B54A"/>
		</linearGradient>
		<path fill="url(#SVGID_1_)" stroke="#000000" stroke-width="3" stroke-linecap="round" stroke-linejoin="round" d="M46.387,25.73
			c0,0-15.261-2.395-26.633-7.481C8.692,13.3,1.5,4.782,1.5,4.782L7.186,1.79c0,0,5.984,3.89,15.86,7.181
			c9.875,3.293,19.152,4.789,19.152,4.789L46.387,25.73z"/>
		<linearGradient id="SVGID_2_" gradientUnits="userSpaceOnUse" x1="51.391" y1="13.4703" x2="96.2776" y2="13.4703">
			<stop  offset="0" style="stop-color:#39B54A"/>
			<stop  offset="0.2833" style="stop-color:#37AF49"/>
			<stop  offset="0.4943" style="stop-color:#31A447"/>
			<stop  offset="0.6819" style="stop-color:#259344"/>
			<stop  offset="0.8548" style="stop-color:#127E3F"/>
			<stop  offset="1" style="stop-color:#006838"/>
		</linearGradient>
		<path fill="url(#SVGID_2_)" stroke="#000000" stroke-width="3" stroke-linecap="round" stroke-linejoin="round" d="M51.391,25.441
			c0,0,15.263-2.395,26.634-7.482C89.087,13.011,96.278,4.492,96.278,4.492L90.593,1.5c0,0-5.985,3.89-15.862,7.183
			C64.857,11.975,55.58,13.47,55.58,13.47L51.391,25.441z"/>
		<path fill="#39B54A" stroke="#000000" stroke-width="3" stroke-linecap="round" stroke-linejoin="round" d="M47.198,33.734
			c0,0-0.567,26.922-1.29,34.641c-0.723,7.721-5.314,34.601-5.314,34.601l23.161,17.852l16.162-21.955
			c0,0-10.486-20.637-14.347-36.078c-3.859-15.44-5.435-30.023-5.435-30.023L47.198,33.734z"/>
		<path fill="#39B54A" stroke="#000000" stroke-width="3" stroke-linecap="round" stroke-linejoin="round" d="M65.509,11.109
			c0,0-5.952,2.314-13.682,2.314c-7.728,0-15.764-1.152-15.764-1.152l9.79,22.546c0,0,4.865-1.397,7.494-1.397
			c3.686,0,7.724,1.799,8.241-1.665C62.101,28.294,65.509,11.109,65.509,11.109z"/>
	</g>
	<path fill="#28903B" d="M58.203,35.922c0,0-3.655-0.306-5.481-0.153c-1.827,0.153-3.501,0.914-3.501,0.914
		s-0.305,19.638-0.762,28.922c-0.457,9.286-4.719,36.38-4.719,36.38l19.179,14.765l13.196-16.326c0,0-13.254,10.706-20.342,4.402
		c-7.086-6.304-5.151-29.444-4.684-43.891c0.468-14.448-0.773-20.797,1.671-22.427C55.206,36.879,58.203,35.922,58.203,35.922z"/>
	<path fill="#28903B" d="M41.002,16.133l6.241,15.678c0,0,3.197-0.914,5.632-0.914c2.435,0,5.481,0.457,5.481,0.457
		s-9.591-5.479-12.33-8.828C43.286,19.177,41.002,16.133,41.002,16.133z"/>
	<polygon fill="#FFFFFF" points="51.566,97.581 52,96.302 53.154,96.694 53.735,94.982 54.951,95.396 54.35,97.17 56.66,97.952 
		56.03,94.795 59.061,95.825 58.502,93.405 56.773,93.76 56.516,92.615 58.331,92.219 58.053,91.068 59.294,90.8 59.543,92.033 
		61.307,91.644 61.562,92.856 59.763,93.211 60.286,95.735 62.632,93.564 63.27,96.632 65.125,95.031 63.886,93.668 64.867,92.807 
		66.044,94.217 66.944,93.395 67.771,94.344 66.839,95.129 68.063,96.534 67.156,97.308 65.896,95.938 63.995,97.545 67.067,98.588 
		64.692,100.702 67.022,101.492 67.625,99.72 68.78,100.113 68.199,101.823 69.333,102.207 68.905,103.467 67.792,103.089 
		67.197,104.84 65.981,104.427 66.59,102.634 64.239,101.835 64.91,105.007 61.838,103.965 62.398,106.384 64.194,106.029 
		64.478,107.228 62.577,107.549 62.873,108.775 61.653,109.051 61.329,107.769 59.625,108.179 59.35,106.959 61.183,106.569 
		60.675,104.075 58.329,106.246 57.691,103.245 55.775,104.826 56.946,106.189 56.086,107.024 54.925,105.571 53.976,106.4 
		53.149,105.452 54.001,104.638 52.83,103.274 53.771,102.467 54.989,103.824 56.905,102.243 53.793,101.187 56.24,99.121 
		53.91,98.33 53.321,100.061 52.105,99.65 52.688,97.937 	"/>
	<polygon fill="#FFFFFF" points="53.834,74.72 54.674,74.128 55.209,74.885 56.332,74.093 56.898,74.891 55.731,75.714 
		56.802,77.231 57.829,75.005 59.232,76.997 59.973,75.257 58.751,74.702 59.107,73.883 60.399,74.451 60.745,73.618 61.628,74.009 
		61.229,74.88 62.49,75.431 62.103,76.293 60.835,75.703 60.029,77.49 62.445,77.206 61.463,79.38 63.322,79.225 63.169,77.832 
		64.159,77.742 64.25,79.138 65.174,79.035 65.256,79.99 64.33,80.055 64.456,81.468 63.55,81.537 63.39,80.13 61.498,80.267 
		62.922,82.286 60.512,82.522 61.593,84.053 62.758,83.232 63.293,83.992 62.169,84.784 62.694,85.527 61.867,86.112 61.352,85.381 
		60.202,86.192 59.636,85.392 60.815,84.561 59.726,83.017 58.718,85.269 57.296,83.251 56.555,84.99 57.82,85.578 57.456,86.443 
		56.143,85.788 55.777,86.676 54.901,86.298 55.277,85.364 54.045,84.854 54.422,83.979 55.724,84.561 56.53,82.798 54.114,83.082 
		55.065,80.95 53.177,81.063 53.286,82.428 52.384,82.557 52.319,81.142 51.365,81.227 51.28,80.272 52.169,80.153 52.06,78.79 
		53.001,78.715 53.142,80.095 55.03,79.981 53.589,77.937 56.021,77.761 54.941,76.231 53.803,77.034 53.238,76.234 54.365,75.441 	
		"/>
	<polygon fill="#FFFFFF" points="54.457,57.403 55.245,57.173 55.453,57.883 56.507,57.577 56.725,58.326 55.633,58.645 
		56.048,60.067 57.401,58.653 57.946,60.521 58.956,59.399 58.174,58.662 58.656,58.135 59.485,58.9 59.963,58.361 60.529,58.885 
		60,59.437 60.811,60.181 60.296,60.73 59.492,59.959 58.417,61.1 60.317,61.509 59.012,62.898 60.455,63.262 60.702,62.17 
		61.473,62.358 61.181,63.437 61.904,63.598 61.718,64.339 61.004,64.15 60.731,65.249 60.029,65.068 60.274,63.963 58.808,63.577 
		59.362,65.469 57.481,65.025 57.901,66.46 58.993,66.142 59.199,66.854 58.146,67.162 58.349,67.86 57.573,68.087 57.374,67.401 
		56.295,67.715 56.076,66.965 57.182,66.642 56.758,65.194 55.414,66.634 54.862,64.742 53.852,65.863 54.656,66.635 54.158,67.194 
		53.336,66.359 52.828,66.935 52.265,66.422 52.79,65.815 51.992,65.11 52.503,64.547 53.337,65.325 54.402,64.201 52.503,63.79 
		53.772,62.425 52.319,62.024 52.047,63.082 51.333,62.946 51.65,61.86 50.907,61.677 51.09,60.935 51.793,61.075 52.064,60.017 
		52.793,60.204 52.543,61.283 53.999,61.685 53.439,59.768 55.321,60.266 54.902,58.831 53.835,59.142 53.616,58.393 54.672,58.085 
			"/>
	<polygon fill="#FFFFFF" points="51.031,46.321 51.235,45.718 51.778,45.903 52.053,45.096 52.626,45.291 52.342,46.127 
		53.43,46.496 53.133,45.008 54.562,45.494 54.299,44.353 53.484,44.52 53.363,43.981 54.217,43.795 54.087,43.252 54.672,43.125 
		54.789,43.707 55.62,43.523 55.74,44.094 54.894,44.261 55.14,45.45 56.245,44.428 56.544,45.873 57.419,45.119 56.835,44.477 
		57.298,44.071 57.853,44.736 58.275,44.349 58.666,44.796 58.226,45.166 58.804,45.828 58.376,46.192 57.783,45.546 56.886,46.304 
		58.335,46.795 57.217,47.791 58.314,48.164 58.598,47.328 59.142,47.514 58.868,48.32 59.403,48.5 59.201,49.093 58.677,48.916 
		58.397,49.741 57.822,49.547 58.111,48.702 57.003,48.325 57.318,49.82 55.871,49.328 56.135,50.47 56.981,50.301 57.114,50.867 
		56.219,51.017 56.359,51.595 55.783,51.725 55.631,51.121 54.828,51.314 54.698,50.74 55.563,50.556 55.323,49.381 54.217,50.403 
		53.916,48.99 53.014,49.734 53.564,50.377 53.161,50.77 52.613,50.085 52.166,50.476 51.776,50.03 52.177,49.646 51.627,49.004 
		52.068,48.624 52.643,49.262 53.546,48.518 52.079,48.02 53.233,47.047 52.135,46.674 51.858,47.49 51.284,47.296 51.559,46.488 	
		"/>
	<path fill="#A3D17E" d="M43.393,15.766c0,0,6.111,0.611,11.812-0.204c5.704-0.814,6.924-1.221,6.924-1.221s-2.85,15.071-2.85,14.46
		c0-0.611,2.035-9.368-2.649-10.998C51.947,16.173,43.393,15.766,43.393,15.766z"/>
</g>
</svg>
